<svg width="330" height="56" viewBox="0 0 330 56" fill="none" xmlns="http://www.w3.org/2000/svg">
<path d="M60.9214 21.2275C60.7076 21.28 60.2444 21.42 59.9236 21.455C60.5294 20.8775 60.8858 20.1775 60.8858 19.6C60.6007 19.6875 60.084 19.88 59.6208 19.985C60.5472 19.215 61.0639 18.305 60.8323 17.115C60.5472 17.255 60.1553 17.4825 59.7455 17.64C60.5651 16.415 60.5472 15.33 60.2087 14.7C59.8524 15.0325 59.407 15.4175 58.9437 15.6975C59.2466 14.28 59.2288 13.37 58.623 12.7225C57.9994 13.8775 57.4649 14.735 56.5919 15.75C56.6631 14.805 56.5562 13.6325 55.9326 13.0375C55.9326 13.0375 55.7545 14.35 55.2912 14.77C55.1843 13.4925 54.7745 12.7925 54.1866 12.11C54.1866 12.11 54.1509 13.44 53.7768 14.2625C53.4561 13.1425 52.8859 12.285 52.1376 11.4625C52.1911 13.93 51.4962 18.5675 49.4829 21.7C49.2513 23.555 49.0375 26.3375 45.9729 27.9825C45.5275 27.685 44.7614 27.2825 43.6567 27.3525C43.3716 25.9525 45.2246 24.6925 46.8281 23.6775C48.4495 22.645 49.1444 21.77 49.1265 20.405C49.0909 18.9 48.0575 18.2875 46.9885 18.2525C45.4741 18.1825 44.2447 19.53 43.9596 20.09C43.5142 20.3 42.2314 20.685 41.6968 20.825C41.1089 20.9825 40.4497 21.21 40.022 21.56C40.2715 21.7175 40.9842 21.77 41.2514 21.7175C41.7681 21.6475 43.4073 21.35 44.9574 21.1575C45.5275 21.455 46.4362 21.9625 45.4741 22.6275C44.1378 23.4675 43.5676 23.6775 41.6968 24.64C38.7392 26.1625 39.7013 29.995 40.414 30.275C40.414 31.57 41.5899 33.8975 42.3917 34.72C42.7481 36.3475 42.267 38.7625 41.7681 39.7775C41.3583 38.7975 40.6456 36.505 40.1824 35.175C40.6635 32.655 39.8795 31.535 39.345 31.115C38.8105 30.6775 37.9553 30.8 37.3851 31.675C38.2403 31.5875 38.5254 32.655 38.5076 33.775C38.4898 35.105 38.1334 36.19 37.1891 36.19C37.2604 37.3275 38.5076 37.66 39.1312 37.1C39.2381 37.3625 39.737 38.85 40.2002 40.18C40.4853 40.9675 40.7525 41.7025 40.9307 42.0875C41.1267 42.5075 42.5699 42.5775 42.7302 42.0875C42.9619 41.44 43.14 40.95 43.4964 40.18C43.7636 39.6025 44.1556 38.8675 44.7257 37.7825C45.1177 38.4475 45.6344 39.48 45.9195 40.18C46.062 40.5125 46.1511 40.775 46.1689 40.8975C46.2936 41.9825 46.2224 45.85 45.9195 48.16C42.6946 47.3025 41.7681 48.8425 42.0532 49.9975C42.5164 49.49 43.1222 49.56 43.4964 49.8225C43.4073 50.6625 43.6389 51.275 44.5119 51.5375C45.4384 49.1225 48.7702 49.665 49.0909 49.8575C49.1087 49.385 49.5542 48.23 47.8437 47.985C47.915 45.9025 48.1288 43.3475 48.2001 42.8225C48.2713 42.2975 48.3426 41.965 48.0932 41.125C48.0219 40.88 47.915 40.565 47.8259 40.1975C47.5943 39.3575 47.3805 38.255 47.3627 37.065C47.6655 37.3625 48.3782 37.59 48.8593 37.485C49.2334 39.06 49.7858 38.605 50.0708 39.27C50.2134 39.6025 50.249 39.935 50.2846 40.215C50.3203 40.495 50.3737 40.7225 50.5163 40.9325C51.6566 40.9675 52.6365 40.705 53.3314 40.215C53.5452 40.075 53.7411 39.9 53.8837 39.725C53.5986 38.045 53.1175 37.2225 52.2267 36.2075C51.9951 34.8425 51.3358 33.5825 50.445 32.4625C51.5675 32.095 52.7078 31.2025 53.3135 30.5725C53.848 30.5375 54.4716 30.1 54.5251 29.225C54.8458 29.19 55.1131 29.1725 55.3625 29.12C55.3269 28.875 55.2734 28.525 55.2378 28.315C55.6476 28.315 56.0574 28.2975 56.4315 28.2625C56.3246 27.9475 56.1643 27.615 56.0574 27.37C56.4671 27.37 56.9838 27.335 57.3936 27.3175C57.1798 26.915 57.0017 26.5475 56.8769 26.1975C57.358 26.145 58.0885 26.04 58.6943 25.9C58.4983 25.7075 58.2845 25.4975 57.946 25.1825C59.5139 24.7275 60.2087 23.6425 60.28 23.17C60.0484 23.17 59.5673 23.275 59.2822 23.24C60.2444 22.68 60.8323 21.98 60.9214 21.2275Z" fill="#131212"/>
<path d="M29.0822 49.595C20.2984 46.375 19.176 39.305 19.1403 36.085C19.1403 36.085 19.1225 36.085 19.1047 36.085C19.1225 35.9975 19.1225 35.9275 19.1403 35.8575C19.1403 35.1575 19.1938 34.685 19.2116 34.5275C19.1938 34.0725 19.1225 33.705 19.0334 33.4425C19.0156 33.39 18.98 33.3375 18.9443 33.2675V36.5925C18.9443 40.32 20.3341 43.54 23.0779 46.1475C25.4832 48.44 28.1914 49.5075 28.9575 49.77L29.0822 49.805L29.2069 49.77C29.9731 49.49 32.6812 48.44 35.0865 46.1475C37.8304 43.54 39.2201 40.32 39.2201 36.5925V35.98C39.1488 36.085 39.0775 36.155 39.0063 36.2425C38.935 37.9225 38.6143 40.5125 37.474 42.4725C36.1377 45.22 34.0532 47.4775 29.0822 49.595Z" fill="#131212"/>
<path d="M50.1239 51.7474C49.6963 51.8699 49.1618 51.9574 48.3778 51.9574H47.3979C44.0305 51.8874 40.574 50.9074 38.4538 48.7724C41.3757 45.8674 37.9371 43.4874 36.0841 45.9374C35.4961 46.7074 35.0329 47.2499 34.6409 48.0024C34.3202 48.5974 34.5518 49.2099 35.2823 50.1374C35.6743 50.6449 36.6721 51.4324 37.4916 51.9574H20.6724C21.4741 51.4324 22.4719 50.6449 22.8817 50.1374C23.6122 49.2099 23.8616 48.6149 23.5231 48.0024C23.1133 47.2499 22.6501 46.7074 22.0799 45.9374C20.227 43.4699 16.7883 45.8674 19.7103 48.7724C17.59 50.9074 14.1335 51.8874 10.7661 51.9574H9.83964C9.05569 51.9574 8.52118 51.8874 8.09357 51.7474C7.39871 51.5899 7.23835 51.8699 7.61251 53.0599C7.86195 53.8299 8.07575 55.1249 8.16484 55.9999H50.0526C50.1417 55.1249 50.3555 53.8299 50.6049 53.0424C50.9791 51.8699 50.8188 51.5724 50.1239 51.7474ZM37.0106 46.0424C37.5629 45.3249 38.3647 45.5174 38.6854 46.1124C39.0417 46.7599 38.525 47.5474 37.8302 48.1774C36.8859 47.1624 36.779 46.3399 37.0106 46.0424ZM35.6208 49.4199C35.2823 48.9474 35.1576 48.6849 35.3358 48.2299C35.5139 47.7924 35.8703 47.4074 36.2266 46.8649C36.8146 49.1049 40.2533 51.2399 42.8011 51.9574H38.7388C37.7233 51.3799 36.387 50.4699 35.6208 49.4199ZM19.4608 46.1124C19.7993 45.5174 20.6011 45.3249 21.1356 46.0424C21.3672 46.3574 21.2603 47.1624 20.316 48.1774C19.6212 47.5474 19.1045 46.7599 19.4608 46.1124ZM21.9196 46.8474C22.2937 47.3899 22.6501 47.7924 22.8104 48.2124C22.9886 48.6674 22.8817 48.9474 22.5432 49.4024C21.777 50.4524 20.4408 51.3624 19.3896 51.9224H15.3451C17.8929 51.2399 21.3316 49.0874 21.9196 46.8474ZM49.3221 55.3524H8.89533C8.71716 54.0924 8.46773 53.2699 8.25392 52.5874H49.9814C49.7497 53.2699 49.5003 54.0924 49.3221 55.3524Z" fill="#131212"/>
<path d="M40.9306 53.76C40.9306 53.41 40.9306 53.34 40.9306 53.27C40.9306 53.1825 40.9484 53.1475 41.0197 53.13C41.0553 53.13 41.091 53.13 41.1088 53.13C41.1444 53.13 41.1444 53.13 41.1444 53.1125C41.1444 53.095 41.1266 53.095 41.091 53.095C41.0019 53.095 40.8237 53.095 40.7702 53.095C40.699 53.095 40.5564 53.095 40.4495 53.095C40.4139 53.095 40.3961 53.095 40.3961 53.1125C40.3961 53.13 40.4139 53.13 40.4317 53.13C40.4674 53.13 40.4852 53.13 40.5208 53.13C40.5921 53.1475 40.6099 53.1825 40.6277 53.27C40.6277 53.34 40.6277 53.41 40.6277 53.76V54.18C40.6277 54.39 40.6277 54.5825 40.6099 54.6875C40.5921 54.7575 40.5921 54.81 40.5386 54.8275C40.5208 54.8275 40.4852 54.8275 40.4495 54.8275C40.4139 54.8275 40.4139 54.845 40.4139 54.845C40.4139 54.8625 40.4317 54.8625 40.4674 54.8625C40.5564 54.8625 40.7168 54.8625 40.7702 54.8625C40.9662 54.8625 41.1266 54.88 41.4651 54.88C41.5898 54.88 41.6076 54.8625 41.6076 54.81C41.6255 54.74 41.6433 54.565 41.6433 54.53C41.6433 54.495 41.6433 54.495 41.6255 54.495C41.6076 54.495 41.6076 54.5125 41.6076 54.53C41.6076 54.5825 41.572 54.635 41.5364 54.67C41.4829 54.7225 41.376 54.74 41.2513 54.74C41.0731 54.74 41.0019 54.7225 40.9662 54.6875C40.9128 54.635 40.9128 54.4775 40.9128 54.18V53.76H40.9306Z" fill="#131212"/>
<path d="M44.0658 54.8975C44.1904 54.8975 44.3328 54.88 44.4396 54.81C44.6176 54.705 44.671 54.53 44.671 54.4075C44.671 54.18 44.5642 54.0225 44.2794 53.8125L44.2082 53.76C44.0124 53.62 43.959 53.5325 43.959 53.4275C43.959 53.2875 44.0658 53.1825 44.2438 53.1825C44.404 53.1825 44.4752 53.2525 44.5108 53.305C44.5642 53.3575 44.582 53.445 44.582 53.4625C44.582 53.4975 44.5998 53.4975 44.5998 53.4975C44.6176 53.4975 44.6176 53.48 44.6176 53.4275C44.6176 53.2525 44.6354 53.1825 44.6354 53.1475C44.6354 53.13 44.6176 53.13 44.5998 53.1125C44.5464 53.095 44.4396 53.0775 44.2794 53.0775C43.9412 53.0775 43.7276 53.27 43.7276 53.515C43.7276 53.7075 43.8166 53.865 44.0836 54.075L44.1904 54.1625C44.3862 54.32 44.4218 54.425 44.4218 54.5475C44.4218 54.67 44.315 54.81 44.1014 54.81C43.959 54.81 43.8166 54.74 43.7632 54.565C43.7454 54.53 43.7454 54.4775 43.7454 54.4425C43.7454 54.425 43.7454 54.39 43.7276 54.39C43.7098 54.39 43.7098 54.425 43.692 54.46C43.692 54.495 43.6742 54.635 43.6742 54.7575C43.6742 54.81 43.6742 54.8275 43.7276 54.845C43.8166 54.88 43.9234 54.8975 44.0658 54.8975Z" fill="#131212"/>
<path d="M42.4091 54.18C42.4091 54.4075 42.4091 54.6 42.3913 54.705C42.3913 54.775 42.3735 54.81 42.3201 54.8275C42.3023 54.8275 42.2667 54.8275 42.2311 54.8275C42.1955 54.8275 42.1955 54.845 42.1955 54.845C42.1955 54.8625 42.2133 54.8625 42.2489 54.8625C42.3557 54.8625 42.4981 54.8625 42.5515 54.8625C42.6227 54.8625 42.7651 54.8625 42.9254 54.8625C42.9432 54.8625 42.9788 54.8625 42.9788 54.845C42.9788 54.8275 42.961 54.8275 42.9432 54.8275C42.9076 54.8275 42.8542 54.8275 42.8186 54.8275C42.7473 54.81 42.7295 54.775 42.7295 54.705C42.7117 54.6 42.7117 54.425 42.7117 54.18V53.76C42.7117 53.41 42.7117 53.34 42.7117 53.27C42.7117 53.1825 42.7295 53.1475 42.8007 53.13C42.8364 53.13 42.8363 53.13 42.872 53.13C42.9076 53.13 42.9076 53.13 42.9076 53.095C42.9076 53.0775 42.8898 53.0775 42.8542 53.0775C42.7651 53.0775 42.6227 53.0775 42.5693 53.0775C42.4981 53.0775 42.3557 53.0775 42.2489 53.0775C42.2133 53.0775 42.1955 53.0775 42.1955 53.095C42.1955 53.1125 42.2133 53.13 42.2311 53.13C42.2667 53.13 42.3023 53.13 42.3201 53.13C42.3735 53.1475 42.3913 53.1825 42.4091 53.27C42.4091 53.34 42.4091 53.41 42.4091 53.76V54.18Z" fill="#131212"/>
<path d="M36.2089 54.18C36.2089 54.39 36.2089 54.5825 36.1911 54.6875C36.1911 54.7575 36.1733 54.81 36.1199 54.81C36.102 54.81 36.0664 54.81 36.0308 54.81C36.013 54.81 35.9951 54.81 35.9951 54.8275C35.9951 54.845 36.013 54.845 36.0486 54.845C36.1377 54.845 36.298 54.845 36.3515 54.845C36.4762 54.845 36.69 54.8625 36.8682 54.8625C37.3136 54.8625 37.563 54.705 37.6699 54.5825C37.8125 54.4425 37.9372 54.215 37.9372 53.935C37.9372 53.655 37.8303 53.4625 37.7056 53.34C37.4383 53.0775 37.0463 53.0775 36.7435 53.0775C36.6009 53.0775 36.4406 53.0775 36.3693 53.0775C36.298 53.0775 36.1555 53.0775 36.0308 53.0775C35.9951 53.0775 35.9773 53.0775 35.9773 53.095C35.9773 53.1125 35.9951 53.1125 36.013 53.1125C36.0486 53.1125 36.0842 53.1125 36.102 53.1125C36.1733 53.13 36.1911 53.165 36.2089 53.2525C36.2089 53.3225 36.2089 53.3925 36.2089 53.7425V54.18ZM36.5118 53.725V53.2525C36.5118 53.235 36.5297 53.2175 36.5475 53.2C36.5653 53.2 36.6544 53.1825 36.7078 53.1825C36.9038 53.1825 37.1711 53.2175 37.3849 53.4275C37.4918 53.5325 37.6165 53.7075 37.6165 54.005C37.6165 54.25 37.563 54.46 37.4205 54.6C37.278 54.7225 37.1176 54.775 36.8682 54.775C36.6722 54.775 36.5831 54.7225 36.5475 54.6875C36.5297 54.6525 36.5297 54.565 36.5118 54.5125C36.5118 54.46 36.5118 54.285 36.5118 54.04V53.725Z" fill="#131212"/>
<path d="M34.7656 54.18C34.7656 54.4075 34.7656 54.6 34.7478 54.705C34.7478 54.775 34.73 54.81 34.6766 54.8275C34.6588 54.8275 34.6232 54.8275 34.5876 54.8275C34.552 54.8275 34.552 54.845 34.552 54.845C34.552 54.8625 34.5698 54.8625 34.6054 54.8625C34.6944 54.8625 34.8546 54.8625 34.908 54.8625C34.9792 54.8625 35.1217 54.8625 35.2819 54.8625C35.2997 54.8625 35.3175 54.8625 35.3175 54.845C35.3175 54.8275 35.2997 54.8275 35.2819 54.8275C35.2463 54.8275 35.1929 54.8275 35.1573 54.8275C35.086 54.81 35.0682 54.775 35.0682 54.705C35.0682 54.6 35.0682 54.425 35.0682 54.18V53.76C35.0682 53.41 35.0682 53.34 35.0682 53.27C35.0682 53.1825 35.086 53.1475 35.1573 53.13C35.1751 53.13 35.2107 53.13 35.2285 53.13C35.2463 53.13 35.2641 53.13 35.2641 53.095C35.2641 53.0775 35.2463 53.0775 35.2107 53.0775C35.1217 53.0775 34.9792 53.0775 34.9258 53.0775C34.8546 53.0775 34.7122 53.0775 34.6232 53.0775C34.5876 53.0775 34.5698 53.0775 34.5698 53.095C34.5698 53.1125 34.5876 53.13 34.6054 53.13C34.6232 53.13 34.6588 53.13 34.6944 53.13C34.7478 53.1475 34.7656 53.1825 34.7834 53.27C34.7834 53.34 34.7834 53.41 34.7834 53.76V54.18H34.7656Z" fill="#131212"/>
<path d="M33.2337 53.9875C33.2337 53.97 33.2337 53.97 33.2515 53.97C33.2872 53.97 33.5366 53.97 33.6079 53.9875C33.6792 53.9875 33.7148 54.04 33.7326 54.075C33.7326 54.11 33.7504 54.1275 33.7504 54.145C33.7504 54.1625 33.7504 54.18 33.7682 54.18C33.7861 54.18 33.7861 54.1625 33.7861 54.1275C33.7861 54.11 33.7861 54.005 33.8039 53.9525C33.8039 53.8825 33.8217 53.83 33.8217 53.8125C33.8217 53.795 33.8217 53.795 33.8039 53.795C33.7861 53.795 33.7861 53.8125 33.7682 53.8125C33.7504 53.8475 33.7148 53.8475 33.6613 53.8475C33.6257 53.8475 33.5901 53.8475 33.5544 53.8475H33.2515C33.2337 53.8475 33.2337 53.8475 33.2337 53.83V53.2525C33.2337 53.235 33.2515 53.2175 33.2515 53.2175L33.6257 53.235C33.7148 53.235 33.7682 53.27 33.7861 53.305C33.8039 53.34 33.8039 53.375 33.8039 53.3925C33.8039 53.4275 33.8039 53.4275 33.8217 53.4275C33.8395 53.4275 33.8395 53.41 33.8395 53.3925C33.8395 53.3575 33.8395 53.2175 33.8573 53.2C33.8751 53.1475 33.8751 53.1125 33.8751 53.095C33.8751 53.0775 33.8751 53.0775 33.8573 53.0775C33.8395 53.0775 33.8395 53.095 33.8217 53.095C33.8039 53.095 33.7682 53.095 33.7148 53.095H33.0912C33.0199 53.095 32.8774 53.095 32.7527 53.095C32.717 53.095 32.6992 53.095 32.6992 53.1125C32.6992 53.13 32.717 53.13 32.7349 53.13C32.7705 53.13 32.8061 53.13 32.8239 53.13C32.8952 53.1475 32.913 53.1825 32.9308 53.27C32.9308 53.34 32.9308 53.41 32.9308 53.76V54.18C32.9308 54.4075 32.9308 54.5825 32.913 54.6875C32.8952 54.7575 32.8952 54.81 32.8418 54.81C32.8239 54.81 32.7883 54.81 32.7527 54.81C32.717 54.81 32.717 54.8275 32.717 54.8275C32.717 54.845 32.7349 54.845 32.7705 54.845C32.8596 54.845 33.0021 54.845 33.0734 54.845C33.1446 54.845 33.2872 54.845 33.4297 54.845C33.4653 54.845 33.4832 54.845 33.4832 54.8275C33.4832 54.81 33.4654 54.81 33.4475 54.81C33.4119 54.81 33.3584 54.81 33.3228 54.81C33.2515 54.7925 33.2337 54.74 33.2337 54.6875C33.2159 54.5825 33.2159 54.4075 33.2159 54.18V53.9875H33.2337Z" fill="#131212"/>
<path d="M18.0536 54.18C18.0536 54.39 18.0536 54.5825 18.0358 54.6875C18.0358 54.7575 18.018 54.81 17.9646 54.81C17.9467 54.81 17.9111 54.81 17.8755 54.81C17.8398 54.81 17.8398 54.81 17.8398 54.8275C17.8398 54.845 17.8577 54.845 17.8933 54.845C17.9824 54.845 18.1427 54.845 18.1962 54.845C18.3209 54.845 18.5347 54.8625 18.7129 54.8625C19.1583 54.8625 19.4077 54.705 19.5146 54.5825C19.6572 54.4425 19.7819 54.215 19.7819 53.935C19.7819 53.655 19.675 53.4625 19.5503 53.34C19.283 53.0775 18.891 53.0775 18.5881 53.0775C18.4456 53.0775 18.2853 53.0775 18.214 53.0775C18.1427 53.0775 18.0002 53.0775 17.8577 53.0775C17.822 53.0775 17.8042 53.0775 17.8042 53.095C17.8042 53.1125 17.822 53.1125 17.8398 53.1125C17.8755 53.1125 17.9111 53.1125 17.9467 53.1125C18.018 53.13 18.0358 53.165 18.0536 53.2525C18.0536 53.3225 18.0536 53.3925 18.0536 53.7425V54.18ZM18.3565 53.725C18.3565 53.55 18.3565 53.34 18.3565 53.2525C18.3565 53.235 18.3743 53.2175 18.3922 53.2C18.41 53.2 18.4991 53.1825 18.5525 53.1825C18.7485 53.1825 19.0158 53.2175 19.2296 53.4275C19.3365 53.5325 19.4612 53.7075 19.4612 54.005C19.4612 54.25 19.4077 54.46 19.2652 54.6C19.1227 54.7225 18.9623 54.775 18.7129 54.775C18.5169 54.775 18.4278 54.7225 18.3922 54.6875C18.3743 54.6525 18.3743 54.565 18.3743 54.5125C18.3743 54.46 18.3743 54.285 18.3743 54.04V53.725H18.3565Z" fill="#131212"/>
<path d="M15.5591 54.11C15.5591 54.4425 15.6482 54.6175 15.7729 54.74C15.9511 54.8975 16.1827 54.8975 16.3074 54.8975C16.4678 54.8975 16.646 54.88 16.8063 54.7225C17.0023 54.565 17.0379 54.285 17.0379 54.005V53.76C17.0379 53.41 17.0379 53.34 17.0379 53.27C17.0379 53.1825 17.0558 53.1475 17.127 53.13C17.1627 53.13 17.1805 53.13 17.1983 53.13C17.2339 53.13 17.2339 53.13 17.2339 53.1125C17.2339 53.095 17.2161 53.095 17.1805 53.095C17.0914 53.095 16.931 53.095 16.9132 53.095C16.9132 53.095 16.7707 53.095 16.646 53.095C16.6103 53.095 16.5925 53.095 16.5925 53.1125C16.5925 53.13 16.6103 53.13 16.6281 53.13C16.646 53.13 16.6994 53.13 16.7172 53.13C16.7885 53.1475 16.8063 53.1825 16.8241 53.27C16.8241 53.34 16.8241 53.41 16.8241 53.76V54.0575C16.8241 54.3025 16.8241 54.5125 16.6816 54.635C16.5747 54.7225 16.45 54.7575 16.3431 54.7575C16.254 54.7575 16.1471 54.74 16.0402 54.6525C15.9155 54.5475 15.862 54.4075 15.862 54.075V53.7425C15.862 53.3925 15.862 53.3225 15.862 53.2525C15.862 53.165 15.8976 53.13 15.9511 53.1125C15.9867 53.1125 15.9867 53.1125 16.0224 53.1125C16.0402 53.1125 16.058 53.1125 16.058 53.095C16.058 53.0775 16.0402 53.0775 16.0045 53.0775C15.9155 53.0775 15.7729 53.0775 15.7017 53.0775C15.6304 53.0775 15.47 53.0775 15.3453 53.0775C15.3097 53.0775 15.2919 53.0775 15.2919 53.095C15.2919 53.1125 15.3097 53.1125 15.3275 53.1125C15.3631 53.1125 15.3988 53.1125 15.4166 53.1125C15.5057 53.13 15.5235 53.165 15.5235 53.2525C15.5235 53.3225 15.5235 53.3925 15.5235 53.7425V54.11H15.5591Z" fill="#131212"/>
<path d="M38.7566 54.18C38.7566 54.39 38.7566 54.5825 38.7387 54.6875C38.7209 54.7575 38.7209 54.81 38.6675 54.81C38.6497 54.81 38.614 54.81 38.5784 54.81C38.5428 54.81 38.5428 54.8275 38.5428 54.8275C38.5428 54.845 38.5606 54.845 38.5962 54.845C38.6853 54.845 38.8456 54.845 38.8991 54.845C39.0416 54.845 39.202 54.8625 39.5583 54.8625C39.6474 54.8625 39.6652 54.8625 39.683 54.7925C39.7009 54.74 39.7187 54.5825 39.7187 54.53C39.7187 54.5125 39.7187 54.4775 39.7009 54.4775C39.683 54.4775 39.683 54.495 39.683 54.5125C39.6652 54.6 39.6296 54.6525 39.5761 54.6875C39.5227 54.7225 39.4158 54.7225 39.3445 54.7225C39.0951 54.7225 39.0595 54.6875 39.0595 54.53C39.0595 54.46 39.0595 54.25 39.0595 54.1625V53.97C39.0595 53.9525 39.0595 53.9525 39.0773 53.9525C39.1307 53.9525 39.3623 53.9525 39.4158 53.9525C39.5049 53.9525 39.5405 53.9875 39.5583 54.04C39.5583 54.075 39.5583 54.11 39.5761 54.1275C39.5761 54.145 39.5761 54.145 39.594 54.145C39.6118 54.145 39.6118 54.1275 39.6118 54.11C39.6118 54.0925 39.6118 54.005 39.6296 53.9525C39.6296 53.83 39.6474 53.795 39.6474 53.7775C39.6474 53.76 39.6296 53.76 39.6296 53.76C39.6118 53.76 39.6118 53.7775 39.594 53.795C39.5761 53.8125 39.5405 53.83 39.4871 53.83C39.4336 53.83 39.1485 53.83 39.1129 53.83C39.0951 53.83 39.0951 53.83 39.0951 53.8125V53.2175C39.0951 53.2 39.0951 53.2 39.1129 53.2C39.1664 53.2 39.4158 53.2 39.4514 53.2175C39.5761 53.235 39.594 53.2525 39.6118 53.305C39.6296 53.34 39.6296 53.375 39.6296 53.3925C39.6296 53.41 39.6296 53.4275 39.6474 53.4275C39.6652 53.4275 39.6652 53.41 39.6652 53.3925C39.6652 53.3575 39.683 53.2525 39.683 53.235C39.683 53.13 39.7009 53.095 39.7009 53.0775C39.7009 53.06 39.7009 53.06 39.683 53.06C39.6652 53.06 39.6652 53.0775 39.6474 53.0775C39.6296 53.0775 39.594 53.095 39.5405 53.095H38.9347C38.8635 53.095 38.7209 53.095 38.5962 53.095C38.5606 53.095 38.5428 53.095 38.5428 53.1125C38.5428 53.13 38.5606 53.13 38.5784 53.13C38.614 53.13 38.6497 53.13 38.6675 53.13C38.7566 53.1475 38.7744 53.1825 38.7744 53.27C38.7744 53.34 38.7744 53.41 38.7744 53.76V54.18H38.7566Z" fill="#131212"/>
<path d="M29.0643 54.18C29.0643 54.39 29.0643 54.5825 29.0465 54.6875C29.0465 54.7575 29.0287 54.81 28.9752 54.81C28.9574 54.81 28.9218 54.81 28.8861 54.81C28.8505 54.81 28.8505 54.8275 28.8505 54.8275C28.8505 54.845 28.8683 54.845 28.904 54.845C29.0109 54.845 29.1534 54.845 29.2068 54.845C29.2781 54.845 29.4206 54.845 29.581 54.845C29.5988 54.845 29.6166 54.845 29.6166 54.8275C29.6166 54.81 29.5988 54.81 29.581 54.81C29.5454 54.81 29.4919 54.81 29.4563 54.81C29.385 54.7925 29.3672 54.74 29.3672 54.6875C29.3494 54.5825 29.3494 54.39 29.3494 54.18V53.2175H29.6523C29.8661 53.2175 29.9373 53.2875 29.9373 53.3575V53.375C29.9373 53.41 29.9552 53.4275 29.973 53.4275C29.9908 53.4275 29.9908 53.41 29.9908 53.3925C29.9908 53.3225 29.9908 53.165 29.9908 53.13C29.9908 53.095 29.9908 53.0775 29.973 53.0775C29.9552 53.0775 29.9017 53.095 29.7414 53.095H28.7971C28.7258 53.095 28.6189 53.095 28.5654 53.095C28.512 53.095 28.4763 53.06 28.4585 53.06C28.4407 53.06 28.4407 53.0775 28.4229 53.1125C28.4229 53.13 28.3694 53.34 28.3694 53.375C28.3694 53.41 28.3694 53.41 28.3873 53.41C28.4051 53.41 28.4051 53.3925 28.4051 53.375C28.4051 53.3575 28.4229 53.3225 28.4407 53.2875C28.4763 53.235 28.5298 53.2175 28.6723 53.2175H29.0287V54.18H29.0643Z" fill="#131212"/>
<path d="M23.6839 53.3225C23.7551 53.2175 23.8086 53.1475 23.862 53.13C23.8977 53.13 23.9333 53.1125 23.9511 53.1125C23.9689 53.1125 23.9867 53.095 23.9867 53.095C23.9867 53.0775 23.9689 53.0775 23.9511 53.0775C23.862 53.0775 23.7729 53.0775 23.7195 53.0775C23.6839 53.0775 23.577 53.0775 23.4879 53.0775C23.4522 53.0775 23.4344 53.0775 23.4344 53.095C23.4344 53.1125 23.4522 53.1125 23.4701 53.1125C23.4879 53.1125 23.5235 53.1125 23.5413 53.1125C23.5591 53.1125 23.577 53.13 23.577 53.1475C23.577 53.165 23.577 53.2 23.5591 53.235C23.5235 53.305 23.3097 53.62 23.2384 53.725C23.1493 53.5675 23.0424 53.3925 22.9355 53.2C22.9177 53.1825 22.9177 53.1475 22.9177 53.13C22.9177 53.1125 22.9177 53.095 22.9534 53.095C22.9712 53.095 23.0068 53.095 23.0246 53.095C23.0424 53.095 23.0603 53.095 23.0603 53.0775C23.0603 53.06 23.0424 53.06 23.0068 53.06C22.9177 53.06 22.7752 53.06 22.7574 53.06C22.6505 53.06 22.4545 53.06 22.401 53.06C22.3654 53.06 22.3476 53.06 22.3476 53.0775C22.3476 53.095 22.3476 53.095 22.3654 53.095C22.3832 53.095 22.4367 53.095 22.4723 53.1125C22.5614 53.13 22.6148 53.2 22.6683 53.2875L23.0781 53.9525L22.6148 54.6C22.5257 54.7225 22.4901 54.7575 22.4188 54.775C22.3832 54.7925 22.3476 54.7925 22.3298 54.7925C22.3119 54.7925 22.2941 54.81 22.2941 54.81C22.2941 54.8275 22.3119 54.8275 22.3298 54.8275H22.3654C22.401 54.8275 22.5257 54.8275 22.5614 54.8275C22.6148 54.8275 22.7752 54.8275 22.793 54.8275H22.8286C22.8643 54.8275 22.8821 54.8275 22.8821 54.81C22.8821 54.7925 22.8643 54.7925 22.8465 54.7925C22.8286 54.7925 22.8108 54.7925 22.793 54.7925C22.7752 54.7925 22.7396 54.775 22.7396 54.7575C22.7396 54.7225 22.7574 54.705 22.7752 54.6525L23.1315 54.0925C23.2384 54.2675 23.381 54.495 23.5057 54.7225C23.5235 54.7575 23.5057 54.775 23.5057 54.775C23.4879 54.775 23.4701 54.7925 23.4701 54.7925C23.4701 54.81 23.4879 54.8275 23.5591 54.8275C23.7373 54.8275 23.9333 54.8275 23.9867 54.8275H24.058C24.0936 54.8275 24.1115 54.8275 24.1115 54.81C24.1115 54.7925 24.0936 54.7925 24.0758 54.7925C24.058 54.7925 24.0224 54.7925 23.9867 54.775C23.9155 54.7575 23.8798 54.7225 23.8442 54.67C23.7908 54.6 23.3988 53.9525 23.3275 53.8475L23.6839 53.3225Z" fill="#131212"/>
<path d="M27.6036 54.46C27.6214 54.46 27.6214 54.46 27.6214 54.4775L27.7283 54.775C27.7461 54.81 27.7283 54.8275 27.7105 54.8275C27.6926 54.8275 27.6748 54.8275 27.6748 54.845C27.6748 54.8625 27.7105 54.8625 27.7461 54.8625C27.9421 54.8625 28.1024 54.8625 28.1915 54.8625C28.2806 54.8625 28.2984 54.8625 28.2984 54.845C28.2984 54.8275 28.2806 54.8275 28.2628 54.8275C28.2272 54.8275 28.1915 54.8275 28.1559 54.8275C28.1024 54.81 28.0312 54.7925 27.9421 54.565C27.7817 54.215 27.4076 53.2525 27.3541 53.1125C27.3363 53.06 27.3185 53.0425 27.2829 53.0425C27.265 53.0425 27.2472 53.0775 27.2116 53.1475L26.6058 54.6175C26.5524 54.74 26.5167 54.81 26.4098 54.8275C26.392 54.8275 26.3564 54.8275 26.3386 54.8275C26.3207 54.8275 26.3029 54.8275 26.3029 54.845C26.3029 54.8625 26.3207 54.8625 26.3564 54.8625C26.4811 54.8625 26.6058 54.8625 26.6414 54.8625C26.7127 54.8625 26.8196 54.8625 26.8909 54.8625C26.9265 54.8625 26.9265 54.8625 26.9265 54.845C26.9265 54.8275 26.9265 54.8275 26.8909 54.8275H26.8552C26.784 54.8275 26.7662 54.7925 26.7662 54.7575C26.7662 54.74 26.784 54.67 26.8018 54.6175L26.8552 54.495C26.8552 54.4775 26.8731 54.4775 26.8731 54.4775H27.6036V54.46ZM26.9621 54.3375C26.9443 54.3375 26.9443 54.3375 26.9443 54.32L27.2472 53.5325C27.2472 53.5325 27.2472 53.515 27.265 53.515C27.265 53.515 27.265 53.5325 27.2829 53.5325L27.5857 54.32C27.5857 54.32 27.5857 54.3375 27.5679 54.3375H26.9621Z" fill="#131212"/>
<path d="M21.3498 54.46C21.3676 54.46 21.3676 54.46 21.3676 54.4775L21.4745 54.775C21.4923 54.81 21.4745 54.8275 21.4567 54.8275C21.4389 54.8275 21.421 54.8275 21.421 54.845C21.421 54.8625 21.4567 54.8625 21.4923 54.8625C21.6883 54.8625 21.8665 54.8625 21.9377 54.8625C22.0268 54.8625 22.0446 54.8625 22.0446 54.845C22.0446 54.8275 22.0268 54.8275 22.009 54.8275C21.9734 54.8275 21.9377 54.8275 21.9021 54.8275C21.8487 54.81 21.7774 54.7925 21.6883 54.565C21.5279 54.215 21.1538 53.2525 21.0825 53.1125C21.0647 53.06 21.0469 53.0425 21.0291 53.0425C21.0113 53.0425 20.9934 53.0775 20.9578 53.1475L20.352 54.6175C20.2986 54.74 20.2629 54.81 20.156 54.8275C20.1382 54.8275 20.1026 54.8275 20.0848 54.8275C20.067 54.8275 20.0491 54.8275 20.0491 54.845C20.0491 54.8625 20.0669 54.8625 20.1026 54.8625C20.2273 54.8625 20.352 54.8625 20.3877 54.8625C20.4589 54.8625 20.5658 54.8625 20.6371 54.8625C20.6727 54.8625 20.6727 54.8625 20.6727 54.845C20.6727 54.8275 20.6727 54.8275 20.6371 54.8275H20.6015C20.5302 54.8275 20.5124 54.7925 20.5124 54.7575C20.5124 54.74 20.5302 54.67 20.548 54.6175L20.6015 54.495C20.6015 54.4775 20.6193 54.4775 20.6193 54.4775H21.3498V54.46ZM20.6905 54.3375C20.6905 54.3375 20.6727 54.3375 20.6905 54.32L20.9934 53.5325L21.0113 53.515L21.0291 53.5325L21.332 54.32C21.332 54.3375 21.332 54.3375 21.3141 54.3375H20.6905Z" fill="#131212"/>
<path d="M14.3655 54.46C14.3655 54.46 14.3834 54.46 14.3834 54.4775L14.4903 54.775C14.5081 54.81 14.4903 54.8275 14.4724 54.8275C14.4546 54.8275 14.4368 54.8275 14.4368 54.845C14.4368 54.8625 14.4724 54.8625 14.5081 54.8625C14.7041 54.8625 14.8822 54.8625 14.9535 54.8625C15.0426 54.8625 15.0604 54.8625 15.0604 54.845C15.0604 54.8275 15.0426 54.8275 15.0248 54.8275C14.9891 54.8275 14.9535 54.8275 14.9179 54.8275C14.8644 54.81 14.7931 54.7925 14.7041 54.565C14.5437 54.215 14.1696 53.2525 14.1161 53.1125C14.1161 53.06 14.1161 53.025 14.0805 53.025C14.0626 53.025 14.0448 53.06 14.0092 53.13L13.4212 54.6C13.3678 54.7225 13.3322 54.7925 13.2252 54.81C13.2074 54.81 13.1718 54.81 13.154 54.81C13.1362 54.81 13.1183 54.81 13.1183 54.8275C13.1183 54.845 13.1362 54.845 13.1718 54.845C13.2965 54.845 13.4212 54.845 13.4569 54.845C13.5281 54.845 13.635 54.845 13.7063 54.845C13.7241 54.845 13.7419 54.845 13.7419 54.8275C13.7419 54.81 13.7419 54.81 13.7063 54.81H13.6529C13.5816 54.81 13.5638 54.775 13.5638 54.74C13.5638 54.7225 13.5816 54.6525 13.5994 54.6L13.6529 54.4775C13.6529 54.46 13.6707 54.46 13.6707 54.46H14.3655ZM13.7241 54.3375C13.7063 54.3375 13.7063 54.3375 13.7063 54.32L14.0092 53.5325L14.027 53.515C14.027 53.515 14.027 53.5325 14.0448 53.5325L14.3477 54.32C14.3477 54.3375 14.3477 54.3375 14.3299 54.3375H13.7241Z" fill="#131212"/>
<path d="M36.8503 36.1725L36.8325 35.8225H37.1888C37.6699 35.8225 37.9193 35.3675 38.044 34.825C36.1554 34.8075 29.4206 34.8425 29.4206 34.8425V41.6675C29.9907 41.265 30.5252 40.915 31.2379 40.705V39.515V39.2H31.5586H31.9506C31.9862 37.555 32.396 36.3475 33.18 35.56L33.4116 35.3325L33.6432 35.56C34.4272 36.3475 34.8191 37.5375 34.8726 39.2H35.2824H35.6031V39.515V40.7925C36.3692 41.1075 36.8859 41.58 37.2957 42.0875C37.9371 40.81 38.4004 39.34 38.5607 37.6425C38.5251 37.6425 38.4894 37.66 38.4538 37.66C37.6877 37.66 36.9037 37.1525 36.8503 36.1725Z" fill="#131212"/>
<path d="M33.376 41.0375C31.327 41.0375 30.5431 41.5975 29.4206 42.4375V48.965C29.4206 48.965 34.2668 47.32 36.9216 42.7175C36.298 41.8425 35.4071 41.0375 33.376 41.0375ZM35.0508 43.68L34.445 42.9975L33.4116 43.9075L33.8392 44.38C33.8392 44.38 34.2846 44.17 34.6588 44.625C34.3737 44.87 33.857 45.3075 33.572 45.5525C33.18 45.115 33.4472 44.7125 33.4472 44.7125L33.0196 44.24L31.7368 45.36L31.327 44.8875L32.6277 43.8025L32.1644 43.2775C32.1644 43.2775 31.9862 43.435 31.7368 43.645C31.3626 43.225 31.0776 42.665 31.3448 41.965C32.0931 41.79 32.6098 42.1575 32.984 42.5775C32.7346 42.805 32.5564 42.945 32.5564 42.945L33.0374 43.4875L34.1065 42.6125L33.5007 41.9125C34.053 41.8425 34.5341 42.035 34.8191 42.35C35.0508 42.665 35.1933 43.155 35.0508 43.68Z" fill="#131212"/>
<path d="M38.5254 34.825C38.5254 34.825 38.472 34.825 38.3829 34.825C38.2225 35.6125 37.8484 36.155 37.1891 36.155C37.2426 36.925 37.8484 37.3275 38.4185 37.3275C38.472 37.3275 38.5076 37.31 38.5611 37.31C38.5967 36.5225 38.6145 35.7 38.5254 34.825Z" fill="#131212"/>
<path d="M20.4766 34.7725C19.9955 34.7725 19.6748 34.7725 19.6748 34.79C19.5501 36.155 19.6036 37.3975 19.7995 38.535C20.2984 37.73 20.7973 36.925 20.7617 36.365C20.7438 35.77 20.6013 35.245 20.4766 34.7725Z" fill="#131212"/>
<path d="M20.8152 34.7725C20.9399 35.245 21.0825 35.77 21.1003 36.3475C21.1181 37.0125 20.6192 37.835 20.0847 38.71C20.0135 38.815 19.96 38.9025 19.9066 39.0075C21.4388 46.4625 28.7794 48.9475 28.7794 48.9475V34.79C28.7972 34.79 23.274 34.7725 20.8152 34.7725ZM26.3207 43.6275C25.9643 43.6975 25.3764 43.75 24.9844 43.75C24.5924 43.75 24.0223 43.715 23.6481 43.6275C23.6838 43.47 23.7372 43.26 23.7907 43.05C23.5234 43.0325 23.2383 42.9275 23.0067 42.84C23.1136 42.455 23.2918 42.07 23.4343 41.545C23.9332 41.65 24.4143 41.7025 24.9666 41.7025C25.5189 41.7025 26 41.6675 26.4988 41.545C26.6414 42.07 26.8196 42.455 26.9443 42.84C26.7305 42.91 26.4454 43.015 26.1603 43.05C26.2316 43.26 26.285 43.47 26.3207 43.6275ZM23.3274 40.53C23.5947 40.425 24.6815 40.39 25.0022 40.39C25.3229 40.39 26.3919 40.4425 26.677 40.53C26.7127 40.67 26.7127 40.8625 26.6948 41.02C26.285 41.1425 25.5545 41.195 25.02 41.195C24.4677 41.195 23.755 41.125 23.3452 41.02C23.2918 40.8625 23.2918 40.67 23.3274 40.53ZM27.4075 37.7475C26.9977 38.6925 26.6058 39.69 26.481 39.9875C26.2672 39.9525 26.0356 39.935 25.804 39.9175C26.0712 39.0775 26.4098 37.8875 26.6948 37.135C26.873 36.61 27.7817 36.855 27.4075 37.7475ZM25.0022 36.33C25.0735 35.8925 26.3385 35.805 26.1069 36.7675C25.8753 37.7475 25.5724 38.9025 25.3407 39.8825C25.2338 39.8825 25.1269 39.8825 25.02 39.8825C24.9131 39.8825 24.8062 39.8825 24.6993 39.8825C24.4677 38.9025 24.1648 37.7475 23.9332 36.7675C23.6659 35.805 24.931 35.8925 25.0022 36.33ZM23.3096 37.135C23.5947 37.8875 23.9154 39.0775 24.2005 39.9175C23.9688 39.935 23.7372 39.9525 23.5234 39.9875C23.3987 39.69 23.0067 38.71 22.5969 37.7475C22.2049 36.855 23.1136 36.61 23.3096 37.135Z" fill="#131212"/>
<path d="M38.8815 24.71H29.1H19.3184H18.9621V25.0775V31.9375C19.0512 31.99 19.1403 32.06 19.2294 32.13V25.0075H39.0419V31.6225C39.1131 31.6925 39.1844 31.78 39.2557 31.9025V25.06V24.6925H38.8815V24.71Z" fill="#131212"/>
<path d="M19.9601 31.2725C20.4768 31.6925 20.6728 31.99 20.5124 33.39C20.4946 33.565 20.5837 33.8975 20.6906 34.2475H38.1334C38.1512 34.055 38.1691 33.88 38.1691 33.7225C38.1869 32.9525 38.0443 32.34 37.7949 32.095C37.7058 32.0075 37.6167 31.9725 37.4564 31.9725H37.4207L36.7259 32.0425L37.1 31.465C37.4564 30.8875 37.9909 30.555 38.5432 30.52V25.4275H19.7106V31.115C19.7819 31.15 19.8354 31.185 19.9066 31.2375L19.9601 31.2725ZM31.0422 30.6075V30.2575L30.187 30.24C30.383 29.3475 32.1469 28.2275 32.9487 27.965C32.913 27.0025 34.1959 26.6875 35.2292 26.6525C36.5121 26.6175 36.815 27.9825 36.815 28.4025C36.815 28.9625 36.6724 30.205 35.9597 30.59C34.9264 31.15 34.0355 30.38 34.0355 29.68C34.0355 28.91 34.57 28.4725 35.5143 28.5775C36.4408 28.6825 36.3695 28.1575 35.6747 27.9825C35.3362 27.895 33.8573 27.825 33.3585 28.91C33.0734 28.9275 32.7705 28.805 32.5923 28.63C32.3963 28.875 32.0935 29.0325 31.6837 29.155C32.04 29.8725 32.7705 29.75 33.2159 29.4175C33.1981 29.5225 33.1981 29.61 33.1981 29.715C33.1981 31.4825 35.1045 31.92 36.2805 31.255C36.0845 31.8325 36.1735 32.55 36.2626 33.04H31.6302C31.7015 32.55 32.3251 31.99 32.8418 31.64L32.432 31.01C31.9331 31.22 31.452 31.43 30.9175 31.57C29.6347 31.8675 29.706 30.9575 31.0422 30.6075ZM27.7817 32.0425C27.6036 32.2875 26.4989 32.62 26.2317 32.4625C25.7684 32.1825 25.5368 31.605 25.6437 31.3425C25.7684 31.01 26.98 30.6775 27.3719 30.8C27.7639 30.9225 27.9243 31.815 27.7817 32.0425ZM21.3498 29.225C22.3654 28.6475 22.8999 28.2275 23.4344 27.405C23.0424 27.2125 22.5614 26.8625 22.205 26.3725C24.1471 26.915 25.127 27.195 27.4254 26.39C27.0512 26.9675 26.4989 27.3175 26.0357 27.615C26.5524 28.455 27.0691 29.4175 27.2472 30.1875C26.5702 30.135 25.7862 30.2925 25.2339 30.8C24.3787 30.835 23.2919 31.0975 22.7039 29.19C22.401 29.3475 22.0803 29.54 22.0803 29.54C22.4366 30.7825 23.078 31.64 24.7885 31.4475C24.8776 31.85 24.9488 32.0775 25.1626 32.41C24.4678 32.8125 22.7039 33.8275 21.3676 32.655V29.225H21.3498Z" fill="#131212"/>
<path d="M19.7106 31.5175V34.265H20.3337C20.2269 33.8975 20.1379 33.5825 20.1735 33.3725C20.3159 31.9725 20.1023 31.8325 19.7106 31.5175Z" fill="#131212"/>
<path d="M38.5244 34.265V30.8525C38.115 30.8875 37.7055 31.1325 37.3851 31.64C37.4207 31.64 37.4563 31.64 37.4919 31.64C38.2574 31.64 38.5244 32.6725 38.5066 33.74C38.5066 33.915 38.4888 34.09 38.4888 34.265H38.5244Z" fill="#131212"/>
<path d="M24.2895 29.5925C24.6102 29.75 25.02 29.5575 25.4298 29.61C25.3407 29.435 25.2516 29.3125 25.305 29.05C25.4119 28.56 25.0021 28.4375 24.824 28.4375C24.3429 28.4725 24.0935 28.56 23.5946 28.4375C23.9153 28.77 23.844 29.365 24.2895 29.5925Z" fill="#131212"/>
<path d="M318.341 38.57V30.1175C318.341 28.7875 318.234 28.455 317.878 28.035C317.593 27.7025 317.058 27.51 316.471 27.51C315.455 27.51 313.869 28.315 312.943 29.26V38.57H311.001V28.945C311.001 27.16 310.52 26.3025 310.52 26.3025L312.462 25.7775C312.462 25.7775 312.925 26.705 312.925 27.7375C314.261 26.425 315.58 25.8125 316.934 25.8125C318.306 25.8125 319.535 26.53 320.052 27.65C320.266 28.105 320.355 28.6125 320.355 29.1025V38.5875H318.341V38.57Z" fill="#131212"/>
<path d="M272.783 38.57V30.1175C272.783 28.7875 272.677 28.455 272.32 28.035C272.035 27.7025 271.501 27.51 270.913 27.51C269.897 27.51 268.311 28.315 267.385 29.26V38.57H265.443V28.945C265.443 27.16 264.962 26.3025 264.962 26.3025L266.904 25.7775C266.904 25.7775 267.367 26.705 267.367 27.7375C268.703 26.425 270.022 25.8125 271.376 25.8125C272.766 25.8125 273.977 26.53 274.494 27.65C274.69 28.105 274.797 28.6125 274.797 29.1025V38.5875H272.783V38.57Z" fill="#131212"/>
<path d="M239.109 38.71H237.149L232.57 26.1975L234.619 25.7775L237.577 34.3875C237.933 35.42 238.183 36.5225 238.183 36.5225H238.236C238.236 36.5225 238.45 35.5425 238.842 34.4225L241.764 26.11H243.884L239.109 38.71Z" fill="#131212"/>
<path d="M292.596 38.57V29.3475C292.596 28.14 292.043 27.51 290.957 27.51C289.816 27.51 288.908 28.245 287.589 29.435V38.57H285.576V29.6975C285.576 28.945 285.505 28.4375 285.22 28.0875C284.917 27.7375 284.507 27.58 283.919 27.58C282.939 27.58 281.995 28.0525 280.676 29.2425V38.57H278.752V28.8925C278.752 27.09 278.289 26.2325 278.289 26.2325L280.231 25.7775C280.231 25.7775 280.694 26.7575 280.694 27.6325C281.531 26.705 283.099 25.76 284.4 25.76C285.647 25.76 286.894 26.5125 287.358 27.8425C288.587 26.565 290.137 25.76 291.438 25.76C293.326 25.76 294.627 27.16 294.627 29.155V38.5875H292.596V38.57Z" fill="#131212"/>
<path d="M300.132 32.655V32.9525C300.132 34.125 300.293 35.035 300.72 35.6825C301.433 36.7675 302.609 37.205 303.892 37.205C305.121 37.205 306.119 36.82 307.01 36.0325L307.776 37.2925C306.653 38.29 305.121 38.85 303.482 38.85C299.954 38.85 297.834 36.3475 297.834 32.2C297.834 30.1 298.297 28.735 299.366 27.475C300.382 26.3025 301.647 25.7425 303.179 25.7425C304.551 25.7425 305.763 26.215 306.618 27.09C307.722 28.1925 308.079 29.365 308.079 32.3575V32.6375H300.132V32.655ZM305.371 28.385C304.943 27.7025 304.052 27.2825 303.072 27.2825C301.255 27.2825 300.239 28.5775 300.132 31.1675H305.959C305.923 29.82 305.745 28.9975 305.371 28.385Z" fill="#131212"/>
<path d="M247.198 32.655V32.9525C247.198 34.125 247.359 35.035 247.786 35.6825C248.499 36.7675 249.675 37.205 250.958 37.205C252.187 37.205 253.185 36.82 254.076 36.0325L254.842 37.2925C253.719 38.29 252.187 38.85 250.548 38.85C247.02 38.85 244.9 36.3475 244.9 32.2C244.9 30.1 245.363 28.735 246.432 27.475C247.448 26.3025 248.713 25.7425 250.245 25.7425C251.617 25.7425 252.828 26.215 253.701 27.09C254.806 28.1925 255.162 29.365 255.162 32.3575V32.6375H247.198V32.655ZM252.436 28.385C252.009 27.7025 251.1 27.2825 250.138 27.2825C248.321 27.2825 247.305 28.5775 247.198 31.1675H253.024C252.989 29.82 252.811 28.9975 252.436 28.385Z" fill="#131212"/>
<path d="M263.483 27.965C263.358 27.9125 263.126 27.86 262.93 27.86C262.164 27.86 261.398 28.1925 260.81 28.77C260.222 29.3475 260.062 29.715 260.062 30.7475V38.57H258.066V28.945C258.066 27.1075 257.639 26.285 257.639 26.285L259.634 25.76C259.634 25.76 260.115 26.74 260.044 27.79C260.971 26.5125 262.307 25.7075 263.625 25.7075C263.964 25.7075 264.32 25.83 264.32 25.83L263.483 27.965Z" fill="#131212"/>
<path d="M226.334 38.9025C222.842 38.9025 220.847 36.365 220.847 32.2525C220.847 28.1925 222.914 25.7075 226.263 25.7075C228.383 25.7075 229.773 26.6525 230.628 27.895C231.412 29.0325 231.804 30.5025 231.804 32.5325C231.804 36.6975 229.524 38.9025 226.334 38.9025ZM228.936 28.91C228.401 27.8075 227.279 27.3 226.227 27.3C225.105 27.3 224.054 27.825 223.626 28.6475C223.216 29.4175 223.02 30.4325 223.02 31.9025C223.02 33.6525 223.323 35.21 223.822 35.9975C224.285 36.75 225.301 37.2575 226.406 37.2575C227.742 37.2575 228.74 36.575 229.167 35.3675C229.452 34.5975 229.559 33.8975 229.559 32.655C229.524 30.9225 229.345 29.75 228.936 28.91Z" fill="#131212"/>
<path d="M167.859 39.235C167.075 38.9025 166.345 38.325 166.024 37.6775C165.774 37.9225 165.489 38.185 165.24 38.36C164.598 38.815 163.672 39.06 162.603 39.06C159.699 39.06 158.113 37.6075 158.113 35.0525C158.113 32.0425 160.233 30.6425 164.402 30.6425C164.652 30.6425 164.884 30.6425 165.169 30.66V30.135C165.169 28.7 164.884 28.2275 163.636 28.2275C162.532 28.2275 161.267 28.7525 159.859 29.68L158.398 27.265C159.093 26.845 159.592 26.5825 160.518 26.215C161.801 25.69 162.888 25.4625 164.1 25.4625C166.291 25.4625 167.806 26.2675 168.322 27.7025C168.5 28.2275 168.572 28.63 168.554 30.0125L168.483 34.335C168.465 35.735 168.554 36.3475 169.712 37.1875L167.859 39.235ZM164.937 32.9525C162.567 32.9525 161.748 33.3725 161.748 34.9125C161.748 35.91 162.389 36.5925 163.262 36.5925C163.904 36.5925 164.545 36.26 165.044 35.7175L165.097 32.9525H164.937Z" fill="#131212"/>
<path d="M114.942 33.1975V33.3025C114.942 35.28 115.94 36.4175 117.704 36.4175C118.88 36.4175 119.984 35.9975 121.018 35.14L122.354 37.1525C120.84 38.36 119.272 38.9375 117.419 38.9375C113.659 38.9375 111.236 36.33 111.236 32.2875C111.236 29.9775 111.717 28.455 112.875 27.195C113.945 26.0225 115.245 25.4625 116.991 25.4625C118.506 25.4625 119.931 25.97 120.768 26.81C121.962 28.0175 122.515 29.75 122.515 32.4275V33.1975H114.942ZM118.951 30.59C118.951 29.645 118.844 29.1375 118.541 28.665C118.203 28.1575 117.722 27.9125 117.027 27.9125C115.726 27.9125 114.978 28.91 114.978 30.695V30.7475H118.933V30.59H118.951Z" fill="#131212"/>
<path d="M101.722 33.1975V33.3025C101.722 35.28 102.72 36.4175 104.484 36.4175C105.66 36.4175 106.764 35.9975 107.798 35.14L109.134 37.1525C107.62 38.36 106.034 38.9375 104.199 38.9375C100.439 38.9375 98.0162 36.33 98.0162 32.2875C98.0162 29.9775 98.4972 28.455 99.6553 27.195C100.724 26.0225 102.025 25.4625 103.771 25.4625C105.286 25.4625 106.711 25.97 107.548 26.81C108.742 28.0175 109.294 29.75 109.294 32.4275V33.1975H101.722ZM105.731 30.59C105.731 29.645 105.624 29.1375 105.321 28.665C104.983 28.1575 104.502 27.9125 103.807 27.9125C102.506 27.9125 101.758 28.91 101.758 30.695V30.7475H105.713V30.59H105.731Z" fill="#131212"/>
<path d="M179.315 38.57V30.2225C179.315 28.77 179.048 28.3325 178.157 28.3325C177.462 28.3325 176.572 28.7875 175.788 29.4875V38.57H172.367V29.26C172.367 28.1575 172.206 27.1075 171.904 26.25L174.95 25.3925C175.253 25.9175 175.431 26.4775 175.431 27.0025C175.948 26.6525 176.376 26.355 176.946 26.0575C177.641 25.7075 178.531 25.4975 179.298 25.4975C180.759 25.4975 182.024 26.25 182.433 27.3525C182.612 27.825 182.683 28.385 182.683 29.19V38.57H179.315Z" fill="#131212"/>
<path d="M132.189 38.57V30.2225C132.189 28.77 131.94 28.3325 131.031 28.3325C130.336 28.3325 129.445 28.7875 128.661 29.4875V38.57H125.24V29.26C125.24 28.1575 125.08 27.1075 124.777 26.25L127.824 25.3925C128.127 25.9175 128.305 26.4775 128.305 27.0025C128.822 26.6525 129.249 26.355 129.819 26.0575C130.514 25.7075 131.405 25.4975 132.171 25.4975C133.632 25.4975 134.897 26.25 135.307 27.3525C135.485 27.825 135.557 28.385 135.557 29.19V38.57H132.189Z" fill="#131212"/>
<path d="M93.2588 38.92C92.8312 38.6225 92.4748 38.2025 92.2432 37.66C91.4058 38.465 90.1764 38.885 88.8045 38.885C86.9694 38.885 85.3837 38.0275 84.9382 36.8025C84.7423 36.225 84.6532 35.5425 84.6532 34.2475V26.0225L88.0206 25.3925V33.6525C88.0206 34.8075 88.1275 35.4025 88.3057 35.7525C88.4838 36.1025 89.0005 36.3475 89.4994 36.3475C90.3368 36.3475 91.3702 35.7525 91.6196 35.1225V26.0925L94.8979 25.41V35.21C94.8979 36.0675 95.183 36.9425 95.6819 37.5375L93.2588 38.92Z" fill="#131212"/>
<path d="M143.325 38.9725C141.722 38.9725 139.958 38.465 138.033 37.5025L139.263 35.0525C140.314 35.6825 142.131 36.505 143.61 36.505C144.572 36.505 145.338 35.875 145.338 35.0525C145.338 34.1775 144.697 33.7225 143.325 33.4775L141.793 33.1975C140.92 33.04 139.851 32.445 139.388 31.885C138.924 31.3425 138.639 30.3975 138.639 29.575C138.639 27.0725 140.653 25.375 143.699 25.375C145.802 25.375 147.174 26.005 148.367 26.5825L147.245 28.84C145.944 28.1925 145 27.9125 144.02 27.9125C143.022 27.9125 142.363 28.42 142.363 29.1725C142.363 29.82 142.791 30.17 144.002 30.4675L145.588 30.87C147.191 31.2725 147.726 31.745 148.189 32.3225C148.67 32.9175 148.902 33.6525 148.902 34.51C148.92 37.17 146.675 38.9725 143.325 38.9725Z" fill="#131212"/>
<path d="M328.942 27.5625H326.288V35.6125C326.288 36.995 326.662 37.4675 327.927 37.4675C328.479 37.4675 328.818 37.3975 329.174 37.2225L329.459 38.4825C328.818 38.815 328.105 38.99 327.214 38.99C326.555 38.99 326.038 38.8675 325.557 38.64C324.666 38.22 324.328 37.415 324.328 36.155V27.58H322.671V26.075H324.328C324.328 24.8675 324.524 22.9075 324.524 22.9075L326.626 22.4525C326.626 22.4525 326.377 24.4125 326.377 26.0575H329.566L328.942 27.5625Z" fill="#131212"/>
<path d="M213.114 38.85C210.923 38.85 209.052 38.0975 207.716 36.6975C206.237 35.1225 205.542 32.9875 205.542 30.03C205.542 26.74 206.433 24.4125 208.25 22.8025C209.497 21.7 211.012 21.175 212.829 21.175C214.7 21.175 216.303 21.7525 217.622 22.8725L216.678 24.15C215.252 23.205 214.219 22.82 212.865 22.82C210.816 22.82 209.212 23.7475 208.5 25.725C208.036 27.0025 207.805 28.455 207.805 30.1C207.805 32.3575 208.232 34.1775 209.034 35.315C209.836 36.4525 211.618 37.1525 213.275 37.1525C214.379 37.1525 215.324 36.925 216.054 36.47V31.22H212.526L212.116 29.5225H218.014V37.555C216.785 38.3425 214.896 38.85 213.114 38.85Z" fill="#131212"/>
<path d="M82.5868 41.5275C82.5868 41.5275 82.0702 41.825 81.0011 41.825C79.6292 41.825 78.3999 41.02 77.7406 40.6C76.9032 40.0575 75.5135 39.27 74.1416 38.85C71.4869 38.85 69.7408 38.1325 68.3867 36.4C67.0326 34.685 66.3377 32.48 66.3377 29.925C66.3377 26.1625 67.7987 23.135 70.3466 21.77C71.3978 21.2275 72.6984 20.9125 74.0169 20.9125C78.7384 20.9125 81.6604 24.3075 81.6604 29.7675C81.6604 33.5475 80.2885 36.3825 78.1682 37.765C78.6493 37.94 79.3441 38.395 79.7539 38.64C80.3954 39.0075 81.1615 39.3575 81.9454 39.3575C82.7116 39.3575 83.5312 39.235 83.5312 39.235L82.5868 41.5275ZM77.0992 25.83C76.8141 24.955 75.8698 23.625 73.9812 23.625C72.7875 23.625 71.7363 24.22 71.2196 25.1475C70.6138 26.2675 70.3288 27.8075 70.3288 29.9075C70.3288 32.9175 70.8454 34.8075 71.9145 35.56C72.4846 35.9625 73.1973 36.155 74.0347 36.155C76.5112 36.155 77.5624 34.3 77.5624 29.855C77.5624 28.0875 77.4021 26.81 77.0992 25.83Z" fill="#131212"/>
<path d="M194.442 38.57C194.335 38.3775 194.281 38.1675 194.246 37.8175C193.408 38.5525 192.411 38.9025 191.235 38.9025C187.921 38.9025 185.818 36.365 185.818 32.375C185.818 28.3675 188.081 25.6025 191.413 25.6025C192.357 25.6025 193.105 25.83 193.729 26.3375C193.676 26.0575 193.622 25.1825 193.622 24.43V20.02L197.025 20.545V33.8975C197.025 37.065 197.275 38.08 197.506 38.5875H194.442V38.57ZM193.676 29.12C193.034 28.56 192.428 28.2975 191.805 28.2975C190.272 28.2975 189.613 29.5575 189.613 32.41C189.613 35.175 190.201 36.0675 191.983 36.0675C192.624 36.0675 193.337 35.63 193.676 35.245V29.12Z" fill="#131212"/>
<path d="M154.995 38.8675C153.534 38.8675 152.358 38.185 151.948 37.1175C151.699 36.47 151.645 36.0675 151.645 34.23V24.64C151.645 22.96 151.592 21.9275 151.467 20.7725L154.959 19.985C155.084 20.685 155.137 21.5075 155.137 23.3275V33.3375C155.137 35.5425 155.155 35.84 155.369 36.19C155.494 36.4175 155.779 36.54 156.064 36.54C156.189 36.54 156.278 36.54 156.438 36.4875L157.026 38.5C156.438 38.745 155.725 38.8675 154.995 38.8675Z" fill="#131212"/>
<path d="M31.7904 20.615C31.6657 20.615 31.541 20.6675 31.4697 20.7725C31.3272 20.755 31.1846 20.72 31.0243 20.7025V19.915C31.1668 19.8625 31.2737 19.7225 31.2737 19.5475C31.2737 19.3375 31.0955 19.145 30.8817 19.145C30.6679 19.145 30.4898 19.32 30.4898 19.5475C30.4898 19.6875 30.5789 19.8275 30.7036 19.8975V20.65C30.561 20.6325 30.4363 20.615 30.276 20.615C30.2225 20.475 30.08 20.3875 29.9196 20.3875C29.7058 20.3875 29.5276 20.5625 29.5276 20.7725C29.5276 20.9825 29.7058 21.1575 29.9196 21.1575C30.0622 21.1575 30.1869 21.0875 30.2581 20.9825C30.4185 21 30.561 21.0175 30.7036 21.035L30.6858 22.1725C30.561 22.2425 30.472 22.365 30.472 22.5225C30.472 22.7325 30.6501 22.925 30.8639 22.925C31.0777 22.925 31.2737 22.75 31.2737 22.5225C31.2737 22.365 31.1668 22.225 31.0421 22.1725L31.0599 21.07C31.1846 21.0875 31.3093 21.105 31.4341 21.1225C31.4875 21.28 31.6301 21.385 31.8082 21.385C32.022 21.385 32.2002 21.21 32.2002 21C32.1824 20.79 32.0042 20.615 31.7904 20.615Z" fill="#131212"/>
<path d="M28.3162 20.3875C28.1558 20.3875 28.0133 20.475 27.942 20.615C27.7995 20.6325 27.6569 20.6325 27.5144 20.65V19.8975C27.6391 19.8275 27.7282 19.705 27.7282 19.5475C27.7282 19.3375 27.55 19.145 27.3362 19.145C27.1046 19.145 26.9264 19.32 26.9264 19.5475C26.9264 19.705 27.0333 19.845 27.158 19.915L27.1759 20.7025C27.0333 20.72 26.873 20.7375 26.7304 20.7725C26.6592 20.685 26.5523 20.615 26.4097 20.615C26.1959 20.615 26.0178 20.79 26.0178 21.0175C26.0178 21.2275 26.1959 21.4025 26.4097 21.4025C26.5879 21.4025 26.7304 21.2975 26.7839 21.14C26.9086 21.1225 27.0333 21.105 27.158 21.0875L27.1759 22.19C27.0333 22.2425 26.9442 22.3825 26.9442 22.54C26.9442 22.75 27.1224 22.9425 27.3362 22.9425C27.55 22.9425 27.746 22.7675 27.746 22.54C27.746 22.3825 27.6569 22.26 27.5322 22.19V21.0525C27.6747 21.035 27.8173 21.0175 27.9776 21C28.0489 21.105 28.1736 21.175 28.3162 21.175C28.53 21.175 28.7259 21 28.7259 20.79C28.7259 20.5625 28.53 20.3875 28.3162 20.3875Z" fill="#131212"/>
<path d="M41.8394 12.285C41.8394 9.83501 41.7503 7.82252 41.7147 7.19251C41.8037 7.21002 41.9106 7.24501 42.0176 7.28001C43.7993 7.89251 44.209 10.01 47.915 7.61251C45.9373 7.84001 45.8304 6.19501 44.9217 6.16001C46.2936 5.39001 46.3827 3.64001 46.3827 3.64001C45.2424 4.55001 42.5699 4.60251 42.0532 4.90001C41.3583 5.30251 40.5031 5.81001 39.9151 6.12501C38.3829 6.94751 39.4519 11.4275 39.2915 13.055C38.4541 10.6225 36.7794 10.99 35.9063 9.59001C35.2471 10.7625 35.942 12.705 36.2092 13.265C35.2471 14.035 35.5143 15.435 35.746 15.82C36.5655 15.2425 37.8306 15.3825 38.2047 16.3625C37.1357 17.01 35.3362 17.115 34.1068 15.96L33.6792 16.4325C34.5522 17.5525 36.7081 17.99 38.3294 17.08C38.3294 17.3425 38.2582 17.6225 38.1513 17.9375C37.3139 18.375 36.227 18.6025 34.9976 18.1825C35.158 19.4075 36.6012 20.3175 37.9731 20.7025C37.5098 21.0525 36.9397 21.1925 36.5299 21.14C36.7972 21.8575 36.9397 22.8025 36.3874 23.555C35.7103 23.1175 35.3362 22.6625 35.0867 20.9475C34.8195 19.215 33.5545 17.465 32.5745 17.115C32.5211 17.7275 32.5211 17.465 32.628 17.85C35.2293 19.7225 33.7683 23.1175 36.4765 24.3425C37.4742 23.2225 37.492 22.8375 37.3317 21.7875C38.3116 21.525 39.0421 20.72 39.3094 20.09C38.3829 20.5275 36.9041 19.7575 36.4943 19.1625C38.1156 19.11 39.6123 17.92 41.1445 16.345C42.5164 14.945 44.3338 15.155 44.1912 16.2575C45.1355 16.1175 45.5097 14.8575 45.2068 14.035C46.5965 13.5975 47.6834 12.6 47.8259 11.025C45.9551 11.935 43.6033 10.43 41.8394 12.285ZM44.0665 13.5975C44.797 14.1925 44.5654 15.0325 44.3872 15.225C43.7458 14.14 41.679 14.5075 39.6479 16.765C39.5054 16.94 39.3094 17.1325 39.0956 17.325C39.2559 14.63 37.011 14.5775 36.3517 14.8575C36.423 14.0875 36.9219 13.545 37.1713 13.475C36.5121 12.7225 36.3696 11.7775 36.2983 11.0775C37.4029 11.55 39.0243 12.81 39.2915 14.98L40.0042 14.5075C39.7904 10.71 39.8439 10.7275 39.8082 8.15501C39.8082 7.78751 39.8261 6.94751 40.9842 7.03501C41.0376 7.99751 41.1802 10.535 41.1267 14.07H41.5365C41.9106 13.09 43.2469 11.9175 44.797 12.0225C45.8482 12.0925 46.2224 12.075 46.8281 11.8125C46.3471 13.0025 44.5476 13.5275 44.0665 13.5975ZM41.0376 6.37001C41.7859 5.84502 42.267 5.60001 42.659 5.37251C43.3004 5.39001 44.4228 5.32001 45.0821 4.98751C44.3872 5.82751 44.3159 6.12501 43.1757 6.24751C44.6545 6.37001 45.2781 7.66501 45.9907 7.87501C43.532 8.62751 43.2826 6.23002 41.0376 6.37001Z" fill="#131212"/>
<path d="M25.5544 18.305C24.1825 18.375 22.8463 20.125 23.3986 22.12C23.1848 22.19 22.5968 22.19 22.4008 21.7875C22.2583 22.435 20.9042 23.1875 19.9243 23.0825C20.4588 22.505 20.8329 21.21 21.8841 20.5275C22.9532 19.845 23.4164 19.3725 23.7906 18.2C23.2917 18.4275 20.7439 19.075 20.0134 18.305C21.706 18.06 23.6837 17.1325 24.6636 16.52L24.2716 16.1175C23.2204 16.7125 21.8129 17.185 21.1002 17.4125C20.8508 15.3475 22.8463 15.435 23.0066 15.995C23.8262 15.0325 23.2561 13.65 22.6503 13.4925C23.2739 11.8475 22.6503 10.8325 22.1158 10.22C21.991 11.97 19.9955 12.25 19.7639 13.5975C19.6927 12.53 19.6214 9.64252 19.5323 8.24252C19.4076 5.61752 16.0402 4.69002 15.5235 4.69002C13.332 4.79502 13.136 4.51502 13.1894 3.51752C12.067 4.76002 12.4411 5.86252 13.3854 6.40502C13.2607 7.15752 12.0492 7.73502 11.3008 7.89252C13.0825 9.52002 15.1493 8.55752 16.1471 7.63002C16.2183 7.56002 16.2718 7.50752 16.3431 7.43752C16.6994 8.05002 16.9667 9.18752 16.9667 9.83502C15.2919 9.74752 15.0068 11.0075 15.0068 11.48C17.127 10.6225 17.3586 14.6125 17.911 15.2425C17.3764 15.2075 16.4143 13.965 15.0068 13.8775C13.2963 13.79 12.7084 14.6825 12.0135 14.6475C12.1382 15.82 13.5992 16.485 14.5435 16.625C14.0625 17.8325 14.4901 18.655 15.4878 18.9525C15.4878 17.85 16.9132 17.5 18.4276 18.375C20.2628 19.425 21.1893 19.5125 22.6681 19.075C22.4187 19.6 21.7594 19.6525 20.9577 20.44C19.8174 21.5425 19.7817 22.9775 18.5167 23.5025C20.0134 24.2025 22.2583 23.2225 22.579 22.6625C23.2026 23.0475 24.0044 22.82 24.2182 22.435C23.2026 20.23 24.913 18.935 25.5901 18.9525C25.5901 18.935 25.893 18.2875 25.5544 18.305ZM17.804 17.4125C17.0557 17.115 15.8976 16.9225 15.2562 17.815C14.8999 17.2025 15.4166 16.31 15.7373 16.03C14.0981 16.065 13.1716 15.575 12.9222 15.085C13.528 14.7525 15.0602 14.21 16.3252 15.12C17.1983 15.75 17.6259 16.0475 18.6593 16.38C19.0334 16.0125 18.8909 16.1875 19.0156 16.0825C18.1782 15.505 17.8041 11.1125 16.1471 10.955C16.3787 10.395 17.2339 10.4475 17.9288 10.6225C17.9822 9.64252 17.5724 8.01502 16.9488 7.07002C17.911 6.58002 18.5702 7.10502 18.8909 8.27752C19.2472 9.52002 18.8196 12.6175 19.657 15.4175L20.1737 14.945C19.9065 13.3175 21.7416 12.7225 22.1336 11.9C22.2939 12.985 22.0623 13.4925 21.7416 13.8775C22.4008 13.9475 22.7037 14.595 22.5968 15.0325C21.0111 14.805 20.0846 16.3625 20.441 17.605C19.2472 17.8675 18.4455 17.675 17.804 17.4125ZM13.2963 5.18002C14.5435 5.77502 14.9533 4.67252 17.2874 6.16002C15.7373 6.63252 14.5435 8.52252 12.7975 8.03252C14.0447 7.42002 13.9199 6.52752 14.6504 6.07252C14.1872 6.02002 13.2785 5.81002 13.2963 5.18002Z" fill="#131212"/>
<path d="M33.6256 23.765C33.3762 22.19 32.806 17.745 32.7348 16.275L32.0399 16.31C32.0399 16.555 32.0755 16.8875 32.1112 17.29C31.2916 17.045 30.2047 16.8875 29.1001 16.8875C27.9954 16.8875 26.9086 17.0625 26.089 17.29C26.1247 16.905 26.1603 16.5725 26.1603 16.31L25.4832 16.2575C25.412 17.745 24.8418 22.1725 24.5924 23.7475C24.1826 23.905 23.9153 24.3075 23.9153 25.025C23.9153 25.025 27.6569 25.0775 29.1179 25.0775C30.5789 25.0775 34.3205 25.025 34.3205 25.025C34.3027 24.3075 34.0354 23.9225 33.6256 23.765ZM29.1001 23.7125C28.5121 24.8325 27.4075 24.7975 26.4275 24.1675C26.0356 23.9225 25.6436 23.7475 25.2694 23.695C25.4298 22.5925 25.7149 20.5275 25.9108 18.7775C27.158 18.2175 28.7081 18.095 29.0823 19.5125C29.4564 18.095 31.0065 18.235 32.2537 18.7775C32.4497 20.5275 32.7348 22.61 32.8951 23.695C32.5388 23.7475 32.129 23.9225 31.737 24.1675C30.8105 24.7975 29.7059 24.8325 29.1001 23.7125Z" fill="#131212"/>
<path d="M36.8684 6.51C36.8863 6.16 36.227 5.8975 36.0489 5.88C35.7638 5.8625 35.4253 6.44 35.0511 6.79C34.7304 5.11 34.8907 4.375 35.0689 3.6225C35.7994 4.9175 36.7794 5.1975 37.296 5.1275C35.55 3.7625 35.8529 2.52 35.3184 2.45C35.0155 2.415 34.8017 2.4325 34.6413 2.4325C34.0355 2.4325 33.9464 3.605 33.8574 4.13C33.4654 3.4125 33.0734 2.8 32.3964 1.96C31.755 0.3325 30.971 0.735 30.1692 0C30.7928 0.9275 30.294 1.505 31.7371 2.17C32.1113 2.52 32.5567 3.08 32.8418 3.5175C32.5924 3.8325 32.432 4.0075 32.2004 4.235C32.0222 4.4975 31.9331 5.5125 31.3808 6.265C32.2004 5.915 32.5389 5.4075 32.824 4.935C35.4431 6.8775 33.3229 11.8125 32.7171 12.8975C32.1469 12.5125 31.3986 12.3025 30.7394 12.18L30.6681 11.9525L30.0623 10.01H30.3474C30.6681 10.01 30.7572 9.8 30.7037 9.625L32.5033 10.1675L33.305 10.4125L32.824 9.7475L31.9866 8.61L32.824 7.4725L33.305 6.8075L32.5033 7.0525L30.8819 7.5425C30.775 7.175 30.4721 7 30.1336 6.965L30.6859 5.1625L30.9176 4.3925L30.2583 4.865L29.1002 5.6875L27.9421 4.865L27.2829 4.3925L27.5145 5.1625L28.0668 6.965C27.7461 7.0175 27.4254 7.1925 27.3185 7.5425L25.6972 7.0525L24.8954 6.8075L25.3765 7.4725L26.2139 8.61L25.3765 9.7475L24.8954 10.4125L25.6972 10.1675L27.5145 9.625C27.4611 9.8 27.5323 10.01 27.853 10.01H28.1381L27.5323 11.9525L27.4432 12.1975C26.7484 12.32 26.0001 12.5475 25.4299 12.9325C23.666 9.59 24.1649 6.195 25.6437 5.075C25.6259 5.7925 26.2495 6.755 26.5524 6.9475C26.3564 6.2125 26.6949 4.9 26.303 4.5675C26.0357 4.34 25.6259 4.235 25.1805 4.235C25.4834 3.745 25.8932 3.1325 26.588 2.24C27.6214 1.785 27.9243 0.595 28.1737 0C27.0513 0.4025 26.2139 0.98 26.0357 1.9075C25.6437 2.4325 25.1983 3.045 24.6994 3.7625C24.7351 2.8875 24.2362 2.59 23.5948 2.5375C21.7062 2.9225 21.8309 4.27 20.2095 5.1975C21.3142 5.5825 23.0603 3.185 23.666 3.4475C23.7551 4.9175 23.4166 6.0725 23.4166 6.8775C23.1315 6.5625 22.989 6.3525 22.7395 6.3175C22.5079 6.2825 21.8665 6.335 21.4389 6.8075C21.3142 7.56 21.3498 8.96 20.6371 10.6225C21.6883 9.6775 22.205 7.805 22.3654 7.2625C22.6326 7.63 22.9355 8.435 23.0068 9.135C23.1315 10.465 23.9689 12.705 24.6816 13.7725C24.4856 14.14 24.4322 14.56 24.5034 15.0325C23.9511 15.435 23.8798 15.995 24.0758 16.38C24.2896 16.7825 24.8241 17.0625 25.4656 16.8175L25.6615 16.73C26.3386 16.45 27.5858 15.9425 29.1002 15.9425C30.6147 15.9425 31.8797 16.45 32.5389 16.73L32.7349 16.8175C33.3763 17.0625 33.9108 16.7825 34.1246 16.38C34.3206 15.995 34.2493 15.435 33.697 15.0325C33.7683 14.5425 33.697 14.0875 33.4654 13.685L33.4832 13.7025C34.7838 11.8825 34.8729 8.4175 35.942 7.4375C36.031 8.645 36.6903 9.66 37.3317 9.8C36.8328 8.9425 36.8328 7.28 36.8684 6.51ZM30.9354 8.1375L31.8975 7.84L31.4342 8.47L31.3095 8.6275L31.4342 8.785L31.8975 9.415L30.6859 9.0475C30.775 8.8025 30.8641 8.54 30.9354 8.1375ZM26.3386 9.4325L26.8018 8.8025L26.9265 8.645L26.8018 8.4875L26.3386 7.8575L27.3007 8.155C27.3542 8.5575 27.4432 8.8375 27.5501 9.0825L26.3386 9.4325ZM30.1336 9.1175H29.3853L29.4744 7.805C30.5969 7.2975 30.5078 8.33 30.1336 9.1175ZM29.9198 11.3575L29.2784 10.9025L29.118 10.78L28.9577 10.9025L28.3163 11.3575L28.7261 10.0275H29.51L29.9198 11.3575ZM28.9399 6.265L29.1002 6.3875L29.2606 6.265L29.9198 5.7925L29.5456 7.035C29.5278 7.035 29.51 7.035 29.51 7.0525C29.4387 6.895 29.2784 6.79 29.1002 6.79C28.922 6.79 28.7617 6.895 28.6904 7.0525C28.6726 7.0525 28.6726 7.0525 28.6548 7.035L28.2806 5.7925L28.9399 6.265ZM28.0847 9.1175C27.7105 8.33 27.6214 7.2975 28.7439 7.805L28.833 9.1175H28.0847ZM29.1002 11.4625L30.0089 12.11C29.6169 12.075 29.2962 12.075 29.1002 12.075C28.9042 12.075 28.5835 12.075 28.1916 12.11L29.1002 11.4625ZM25.3943 16.0825L25.1983 16.1525C24.931 16.2575 24.7529 16.17 24.6816 16.0475C24.6103 15.9075 24.6638 15.68 24.9845 15.4875C25.0201 15.47 25.0736 15.435 25.127 15.4175L25.7684 15.925C25.6259 15.995 25.5012 16.0475 25.3943 16.0825ZM27.568 15.4L26.9087 14.77C27.4611 14.63 28.0312 14.5425 28.5835 14.5075L28.9755 15.26C28.4766 15.26 27.9956 15.33 27.568 15.4ZM31.2383 15.54L30.8463 14.665C31.4342 14.77 32.0044 14.945 32.5033 15.155L32.7349 16.065C32.3607 15.9075 31.8619 15.6975 31.2383 15.54ZM29.1002 13.8075C27.853 13.8075 26.4277 14.105 25.3408 14.56C25.3586 14.315 25.4477 14.1225 25.5903 13.93C26.2139 13.1775 27.8708 12.915 29.0824 12.915C30.294 12.915 31.9509 13.1775 32.5745 13.93C32.7349 14.105 32.8062 14.315 32.824 14.56C31.7728 14.0875 30.383 13.8075 29.1002 13.8075Z" fill="#131212"/>
<path d="M20.1916 33.32C20.3519 31.9025 20.1203 31.78 19.7105 31.4475C19.3542 31.15 18.7484 31.0625 18.1604 30.66C17.7328 30.3625 17.6081 29.96 17.0736 29.4C17.1805 28.21 18.0535 26.74 18.6949 26.4075C18.784 26.355 18.7662 24.5 18.7662 24.5C18.7662 24.5 19.1938 24.4825 19.1582 24.465C18.588 24.115 17.8932 24.3775 17.3943 24.955C16.9132 25.34 15.7908 26.075 15.0246 26.3375C13.9913 25.48 12.3699 24.71 11.1762 23.555C11.1762 23.555 12.7441 23.5375 13.4746 23.2575C13.6705 23.135 14.1694 22.365 13.9556 21.6125C13.7062 21.525 13.3677 21.35 13.0113 21.1575C12.5837 20.9125 12.1739 20.6675 11.9779 20.51C11.3009 20.0025 11.0158 19.565 9.83989 19.2675C9.91116 18.7425 10.0359 18.865 10.5526 18.515C11.2118 18.0775 11.586 17.5525 11.8532 17.0275C12.0492 16.625 11.8176 15.785 11.3009 16.8525C11.1227 17.22 10.606 17.7275 10.0181 17.885C10.0715 17.5525 10.0893 17.36 10.0893 17.185C11.8176 15.995 11.6394 14.945 11.5147 13.9475C11.4078 13.37 10.8376 13.125 10.8555 13.72C10.8733 14.1225 11.2296 15.2425 10.0537 15.89C10.0181 15.4 9.89334 15.1725 9.78644 14.9275C10.8376 13.5625 10.3922 12.25 9.94679 11.655C9.66172 11.27 8.98467 11.1475 9.28756 11.7425C9.55482 12.2325 9.96461 13.58 9.18066 14.1225C8.9134 13.8075 8.61051 13.6675 8.50361 13.23C8.57488 11.76 8.4858 10.85 8.28981 10.325C8.11164 9.83503 7.63058 9.52003 7.66621 10.255C7.70185 11.0775 7.77312 12.11 7.70185 12.1625C7.63058 12.2325 6.52592 11.2175 6.0805 10.92C5.61726 10.605 5.08275 10.7275 5.59944 11.34C6.0805 11.865 7.48804 12.8975 7.30987 13.23C7.20297 13.44 6.1874 12.6175 5.65289 12.4425C5.11838 12.2675 4.95803 12.5475 5.40345 12.8975C6.13395 13.475 6.61501 13.86 7.80875 14.2625C9.00249 14.6475 9.59045 16.275 9.21629 18.585C9.19848 18.69 9.00249 18.6725 8.87777 18.6375C8.82432 17.7625 8.66397 16.695 8.45016 16.24C8.16509 15.61 7.61276 15.61 7.80875 16.4325C7.9691 17.08 8.05819 17.7975 7.95129 18.6725C6.97135 18.515 6.59719 18.2525 6.1874 18.0075C6.15177 17.5525 6.38339 16.8175 6.41902 16.17C6.45466 15.5225 6.06268 15.12 5.84888 15.925C5.63507 16.7125 5.49254 17.08 5.36782 17.64C5.08275 17.5525 4.77986 17.43 4.65514 17.2725C4.58387 17.2025 4.65514 16.3275 4.58387 15.68C4.5126 14.9625 4.22753 14.98 4.01373 15.61C3.90682 15.9075 3.83556 16.2925 3.79992 16.7475C3.4614 16.555 3.22978 16.17 3.19414 15.8375C3.2476 15.085 3.37231 14.2975 3.4614 13.79C3.53267 13.44 3.28323 12.705 2.99816 13.58C2.78435 14.2275 2.7309 14.7525 2.60618 15.19C2.35675 15.1725 2.03604 13.755 1.85787 12.8275C1.7866 12.425 1.43026 11.9525 1.35899 12.8625C1.28772 13.895 1.50153 14.9275 1.76878 15.3825C1.26991 15.33 0.788848 14.4375 0.432508 13.9125C0.129619 13.4575 -0.0307339 13.93 0.00490011 14.1225C0.307789 15.9425 1.7866 16.59 2.44583 16.7125C3.47922 18.165 5.4569 18.795 7.1317 19.5125C4.95803 19.495 4.38788 20.3525 3.39013 19.7925C3.42577 20.5975 3.83556 20.965 4.22753 21.1575C4.5126 21.28 4.77986 21.315 4.90458 21.35C5.08275 22.33 6.02705 22.2775 6.82881 22.33C6.61501 24.2375 6.86445 26.7575 8.55706 28.63C8.50361 29.5925 8.43234 30.87 8.45016 31.71C7.07825 32.9525 5.83106 35.6125 5.35 37.0825C4.97584 38.185 4.42352 39.0425 3.5683 39.445C4.26316 40.1625 5.29655 39.8125 5.90233 39.41C5.93796 40.0575 6.09832 40.5125 6.20522 40.8975C5.81324 41.475 5.52817 41.8775 5.56381 42.595C5.11838 42.7175 4.79767 42.9975 4.56605 43.295C4.4057 43.4875 4.58387 44.3625 4.76204 44.73C5.31437 45.955 4.88676 48.72 4.77986 49.525C5.01148 49.5425 5.43909 49.5425 5.52817 49.21C5.67071 49.3325 6.00923 49.5775 6.16958 50.1025C6.13395 50.33 5.99141 51.1875 6.43684 51.2925C6.79318 51.38 8.36108 51.3275 8.57488 51.065C8.41453 50.89 8.14727 50.47 7.98692 50.0675C7.98692 49.6475 7.95129 49.14 7.82657 48.93C7.6484 48.615 7.20297 47.915 6.90008 47.635C6.84663 47.1275 6.79318 44.87 7.0248 44.0125C7.43459 43.7325 10.1784 41.7375 10.7486 39.8125C11.2474 39.9875 11.1049 41.3175 11.1049 43.05C11.1049 43.5225 11.675 43.75 12.0314 43.8025C12.7797 43.89 13.8309 44.59 15.0246 46.3225C15.2563 46.0775 15.5591 45.85 15.5591 45.85C15.7195 46.06 15.8977 46.55 16.0046 46.865C16.1293 47.11 17.0914 47.25 17.8219 47.0225C18.0713 46.935 18.2139 46.9 18.3742 46.6375C17.4478 45.045 16.8776 43.9775 15.6839 43.1025C15.1315 42.7 14.3832 42.49 13.7596 42.105C14.1694 41.335 15.3097 37.765 14.6327 36.4525C14.401 36.015 13.528 35.595 12.4768 35.7875C13.3498 34.755 15.1494 32.69 15.381 32.06C15.5948 32.305 16.646 32.13 17.4299 32.445C17.715 32.5675 18.5168 33.5825 18.5524 33.9325C18.6237 34.5625 18.6593 35.315 18.2139 37.0475C18.5346 36.995 18.4811 36.9775 18.784 36.855C18.8375 37.31 18.6949 37.6775 18.2852 38.3775C18.3921 39.0075 18.6771 39.97 18.98 40.145C19.372 38.9725 20.8508 37.3275 20.8152 36.3475C20.7439 35.0175 20.1203 33.8975 20.1916 33.32Z" fill="#131212"/>
</svg>
