<svg width="23" height="22" viewBox="0 0 23 22" fill="none" xmlns="http://www.w3.org/2000/svg">
    <path d="M22.7687 11.2106L14.2369 20.8511C14.0827 21.0702 13.8257 21.125 13.6201 21.125C13.4145 21.125 13.2089 21.0702 13.0547 20.9059C12.695 20.5772 12.695 20.0295 13.0034 19.7008L20.1989 11.4845L0.822346 11.4845C0.359777 11.4845 -6.43067e-09 11.1011 -6.41422e-09 10.6629C-6.39777e-09 10.2247 0.359777 9.73167 0.822346 9.73167L20.1989 9.73167L13.0034 1.5701C12.695 1.24145 12.695 0.693693 13.0547 0.365039C13.4145 0.036385 13.9285 0.036385 14.2369 0.419814L22.7687 10.0603C23.0771 10.389 23.0771 10.882 22.7687 11.2106Z" fill="#008635"/>
    </svg>
    