<svg xmlns="http://www.w3.org/2000/svg" viewBox="0 0 32 32">
  <path fill="currentColor" d="M15.933 7.738c-.793 0-1.457-.267-1.992-.802-.535-.535-.803-1.2-.803-1.992 0-.793.268-1.458.803-1.993.535-.535 1.2-.802 1.992-.802.793 0 1.457.267 1.993.802.535.535.802 1.2.802 1.993 0 .793-.267 1.457-.802 1.992-.535.535-1.2.802-1.993.802ZM11.805 28.1V12.215a53.57 53.57 0 0 1-3.343-.396 43.696 43.696 0 0 1-3.262-.616 1.505 1.505 0 0 1-.978-.663 1.48 1.48 0 0 1-.212-1.148 1.24 1.24 0 0 1 .7-.918 1.77 1.77 0 0 1 1.198-.138c1.608.342 3.263.596 4.963.763a51.862 51.862 0 0 0 10.175 0 46.103 46.103 0 0 0 5.046-.763 1.767 1.767 0 0 1 1.198.138c.38.187.614.493.7.918.085.417.015.8-.212 1.148a1.506 1.506 0 0 1-.978.663c-1.067.244-2.154.45-3.262.616a53.564 53.564 0 0 1-3.343.396V28.1c0 .395-.14.732-.42 1.013-.281.28-.619.42-1.013.42a1.38 1.38 0 0 1-1.013-.42 1.38 1.38 0 0 1-.42-1.013v-6.72h-2.657v6.72c0 .395-.14.732-.42 1.013-.281.28-.619.42-1.014.42a1.38 1.38 0 0 1-1.012-.42 1.38 1.38 0 0 1-.42-1.013Z"/>
</svg>
