<svg viewBox="0 0 32 32"  xmlns="http://www.w3.org/2000/svg">
<path fill="currentColor" d="M16 17.3035L20.7629 22.0668C20.9405 22.2444 21.1554 22.3355 21.4077 22.3402C21.6599 22.3448 21.8796 22.2537 22.0668 22.0668C22.2537 21.8796 22.3472 21.6623 22.3472 21.4147C22.3472 21.1673 22.2537 20.9501 22.0668 20.7629L17.3035 16L22.0668 11.2371C22.2444 11.0595 22.3355 10.8446 22.3402 10.5923C22.3448 10.3401 22.2537 10.1204 22.0668 9.93321C21.8796 9.7463 21.6623 9.65284 21.4147 9.65284C21.1673 9.65284 20.9501 9.7463 20.7629 9.93321L16 14.6965L11.2371 9.93321C11.0595 9.75563 10.8446 9.66451 10.5923 9.65984C10.3401 9.65517 10.1204 9.7463 9.93321 9.93321C9.7463 10.1204 9.65284 10.3377 9.65284 10.5853C9.65284 10.8327 9.7463 11.0499 9.93321 11.2371L14.6965 16L9.93321 20.7629C9.75563 20.9405 9.66451 21.1554 9.65984 21.4077C9.65518 21.6599 9.7463 21.8796 9.93321 22.0668C10.1204 22.2537 10.3377 22.3472 10.5853 22.3472C10.8326 22.3472 11.0499 22.2537 11.2371 22.0668L16 17.3035ZM16.0026 30C14.0762 30 12.2627 29.6326 10.5621 28.8977C8.86147 28.1628 7.37686 27.1614 6.10826 25.8936C4.83991 24.6255 3.83805 23.1415 3.10268 21.4416C2.36756 19.7417 2 17.9287 2 16.0026C2 14.0662 2.36744 12.246 3.10232 10.5422C3.83719 8.83839 4.83856 7.35635 6.10642 6.0961C7.37453 4.83586 8.85853 3.83805 10.5584 3.10268C12.2583 2.36756 14.0713 2 15.9974 2C17.9338 2 19.754 2.36744 21.4578 3.10232C23.1616 3.83719 24.6436 4.83451 25.9039 6.09426C27.1641 7.35402 28.1619 8.83544 28.8973 10.5385C29.6324 12.2416 30 14.0612 30 15.9974C30 17.9238 29.6326 19.7373 28.8977 21.4379C28.1628 23.1385 27.1655 24.6231 25.9057 25.8917C24.646 27.1601 23.1646 28.1619 21.4615 28.8973C19.7584 29.6324 17.9388 30 16.0026 30Z" />
</svg>
