<svg xmlns="http://www.w3.org/2000/svg" viewBox="0 0 32 32">
  <path fill="currentColor" d="M16 22.5c-.4 0-.7.1-.9.4-.2.2-.4.5-.4.9s.1.7.4.9c.2.2.5.4.9.4s.7-.1.9-.4c.2-.2.4-.5.4-.9s-.1-.7-.4-.9c-.3-.3-.5-.4-.9-.4Zm13.8 4.2L17 4.6c-.1-.2-.3-.3-.4-.4-.2-.2-.4-.2-.6-.2-.2 0-.4 0-.6.1-.2.1-.3.2-.4.4L2.2 26.7c-.2.2-.2.4-.2.6 0 .2.1.4.2.5.1.2.2.3.4.4.2.1.4.2.6.2h25.7c.2 0 .4-.1.6-.2.2-.1.3-.2.4-.4.1-.2.2-.3.2-.5-.1-.2-.1-.4-.3-.6Zm-25.4-.1L16 6.5l11.6 20.1H4.4Zm10.9-13.9c-.2.2-.3.4-.3.7v6c0 .3.1.5.3.7.2.2.4.3.7.3.3 0 .5-.1.7-.3.2-.2.3-.4.3-.7v-6c0-.3-.1-.5-.3-.7-.2-.2-.4-.3-.7-.3-.3.1-.5.1-.7.3Z"/>
</svg>
