<svg xmlns="http://www.w3.org/2000/svg" viewBox="0 0 32 32">
  <path fill="currentColor" d="M28.9 10.5c-.7-1.7-1.7-3.2-3-4.4-1.3-1.3-2.7-2.3-4.4-3C19.8 2.4 17.9 2 16 2s-3.8.4-5.5 1.1c-1.7.7-3.2 1.7-4.4 3-1.3 1.3-2.3 2.7-3 4.4C2.4 12.2 2 14.1 2 16s.4 3.8 1.1 5.5c.7 1.7 1.7 3.2 3 4.4 1.3 1.3 2.7 2.3 4.4 3 1.7.7 3.5 1.1 5.5 1.1 1.9 0 3.7-.4 5.5-1.1 1.7-.7 3.2-1.7 4.4-3 1.3-1.3 2.3-2.7 3-4.4.7-1.7 1.1-3.5 1.1-5.5 0-1.9-.4-3.8-1.1-5.5Zm-4.3 14.1c-2.4 2.4-5.2 3.5-8.6 3.5-3.4 0-6.3-1.2-8.6-3.5C5 22.2 3.9 19.4 3.9 16c0-3.4 1.2-6.3 3.5-8.6s5.2-3.5 8.6-3.5c3.4 0 6.3 1.2 8.6 3.5 2.4 2.4 3.5 5.2 3.5 8.6 0 3.4-1.1 6.2-3.5 8.6ZM16 9c-.4 0-.7.1-.9.4-.2.2-.4.5-.4.9 0 .3.1.6.4.9.2.2.5.4.9.4s.7-.1.9-.4c.2-.2.4-.5.4-.9s-.1-.7-.4-.9c-.2-.3-.5-.4-.9-.4Zm0 5c-.3 0-.5.1-.7.3-.2.2-.3.4-.3.7v7c0 .3.1.5.3.7.2.2.4.3.7.3.3 0 .5-.1.7-.3.2-.2.3-.4.3-.7v-7c0-.3-.1-.5-.3-.7-.2-.2-.4-.3-.7-.3Z"/>
</svg>
