<svg width="32" height="32" viewBox="0 0 32 32" fill="none" xmlns="http://www.w3.org/2000/svg">
<path d="M29.8 10.2C29.7 9.9 29.5 9.6 29.2 9.4L22.6 2.8C22.4 2.6 22.1 2.4 21.8 2.2C21.5 2.1 21.1 2 20.8 2H11.3C11 2 10.6 2.1 10.3 2.2C9.9 2.3 9.6 2.5 9.4 2.8L2.8 9.4C2.6 9.6 2.4 9.9 2.2 10.2C2.1 10.5 2 10.9 2 11.2V20.7C2 21 2.1 21.4 2.2 21.7C2.3 22 2.5 22.3 2.8 22.5L9.4 29.1C9.6 29.3 9.9 29.5 10.2 29.7C10.5 29.8 10.9 29.9 11.2 29.9H20.7C21 29.9 21.4 29.8 21.7 29.7C22 29.6 22.3 29.4 22.5 29.1L29.1 22.5C29.3 22.3 29.5 22 29.7 21.7C29.8 21.4 29.9 21 29.9 20.7V11.2C30 10.9 29.9 10.6 29.8 10.2ZM27.9 21L20.9 28H11L4 21V11L11 4H21L28 11V21H27.9ZM15.3 17.7C15.1 17.5 15 17.3 15 17V9C15 8.7 15.1 8.5 15.3 8.3C15.5 8.1 15.7 8 16 8C16.3 8 16.5 8.1 16.7 8.3C16.9 8.5 17 8.7 17 9V17C17 17.3 16.9 17.5 16.7 17.7C16.5 17.9 16.3 18 16 18C15.7 18 15.5 17.9 15.3 17.7ZM17 20.9C17.3 21.2 17.4 21.5 17.4 21.9C17.4 22.3 17.3 22.6 17 22.9C16.7 23.2 16.4 23.3 16 23.3C15.6 23.3 15.3 23.2 15 22.9C14.7 22.6 14.6 22.3 14.6 21.9C14.6 21.5 14.7 21.2 15 20.9C15.3 20.6 15.6 20.5 16 20.5C16.4 20.5 16.7 20.6 17 20.9Z" fill="#131212"/>
</svg>
