<svg xmlns="http://www.w3.org/2000/svg" viewBox="0 0 32 32">
  <path fill="currentColor" d="m21.898 23.5 1.504-1.448a.696.696 0 0 0 .221-.508.7.7 0 0 0-.221-.508l-5.588-5.605a5.51 5.51 0 0 0 .315-.964c.073-.326.11-.676.11-1.048 0-1.36-.483-2.52-1.45-3.484-.966-.964-2.131-1.446-3.495-1.446-.25 0-.483.015-.701.044-.218.03-.438.084-.659.164a.71.71 0 0 0-.399.425.46.46 0 0 0 .104.505l2.597 2.588-2.136 2.091-2.587-2.557a.52.52 0 0 0-.486-.148.498.498 0 0 0-.395.339 3.402 3.402 0 0 0-.188.729 5.398 5.398 0 0 0-.054.765c0 1.353.477 2.504 1.43 3.452.953.949 2.106 1.423 3.46 1.423.362 0 .71-.037 1.043-.11.333-.073.664-.176.993-.31l5.58 5.598a.707.707 0 0 0 .501.213.657.657 0 0 0 .5-.2ZM16.003 30c-1.927 0-3.74-.367-5.44-1.102a14.205 14.205 0 0 1-4.455-3.004 14.202 14.202 0 0 1-3.005-4.452C2.368 19.742 2 17.929 2 16.002c0-1.936.367-3.756 1.102-5.46a14.038 14.038 0 0 1 3.004-4.446 14.307 14.307 0 0 1 4.452-2.993C12.258 2.368 14.071 2 15.998 2c1.936 0 3.756.367 5.46 1.102a14.142 14.142 0 0 1 4.446 2.992 14.14 14.14 0 0 1 2.993 4.445C29.632 12.242 30 14.06 30 15.997c0 1.927-.367 3.74-1.102 5.44a14.308 14.308 0 0 1-2.992 4.455 14.036 14.036 0 0 1-4.444 3.005c-1.704.735-3.523 1.103-5.46 1.103ZM16 28.148c3.384 0 6.255-1.18 8.613-3.543 2.357-2.363 3.535-5.23 3.535-8.605 0-3.384-1.178-6.255-3.535-8.613C22.255 5.03 19.384 3.852 16 3.852c-3.374 0-6.243 1.178-8.605 3.535C5.033 9.745 3.852 12.616 3.852 16c0 3.374 1.18 6.242 3.543 8.605 2.362 2.362 5.23 3.543 8.605 3.543Z"/>
</svg>
