<svg xmlns="http://www.w3.org/2000/svg" viewBox="0 0 32 32">
  <path fill="currentColor" d="m16 17.303 4.763 4.764a.903.903 0 0 0 .645.273.879.879 0 0 0 .659-.273.895.895 0 0 0 0-1.304L17.303 16l4.764-4.763a.903.903 0 0 0 .273-.645.879.879 0 0 0-.273-.659.895.895 0 0 0-1.304 0L16 14.697l-4.763-4.764a.903.903 0 0 0-.645-.273.878.878 0 0 0-.659.273.895.895 0 0 0 0 1.304L14.697 16l-4.764 4.763a.903.903 0 0 0-.273.645.878.878 0 0 0 .273.659.895.895 0 0 0 1.304 0L16 17.303ZM16.003 30c-1.927 0-3.74-.367-5.44-1.102a14.205 14.205 0 0 1-4.455-3.004 14.202 14.202 0 0 1-3.005-4.452C2.368 19.742 2 17.929 2 16.002c0-1.936.367-3.756 1.102-5.46a14.038 14.038 0 0 1 3.004-4.446 14.307 14.307 0 0 1 4.452-2.993C12.258 2.368 14.071 2 15.998 2c1.936 0 3.756.367 5.46 1.102a14.142 14.142 0 0 1 4.446 2.992 14.14 14.14 0 0 1 2.993 4.445C29.632 12.242 30 14.06 30 15.997c0 1.927-.367 3.74-1.102 5.44a14.308 14.308 0 0 1-2.992 4.455 14.036 14.036 0 0 1-4.444 3.005c-1.704.735-3.523 1.103-5.46 1.103ZM16 28.148c3.384 0 6.255-1.18 8.613-3.543 2.357-2.363 3.535-5.23 3.535-8.605 0-3.384-1.178-6.255-3.535-8.613C22.255 5.03 19.384 3.852 16 3.852c-3.374 0-6.243 1.178-8.605 3.535C5.033 9.745 3.852 12.616 3.852 16c0 3.374 1.18 6.242 3.543 8.605 2.362 2.362 5.23 3.543 8.605 3.543Z"/>
</svg>
