<svg xmlns="http://www.w3.org/2000/svg" viewBox="0 0 32 32">
  <path fill="currentColor" d="M29.8 10.2c-.1-.3-.3-.6-.6-.8l-6.6-6.6c-.2-.2-.5-.4-.8-.6-.3-.1-.7-.2-1-.2h-9.5c-.3 0-.7.1-1 .2-.4.1-.7.3-.9.6L2.8 9.4c-.2.2-.4.5-.6.8-.1.3-.2.7-.2 1v9.5c0 .3.1.7.2 1 .1.3.3.6.6.8l6.6 6.6c.2.2.5.4.8.6.3.1.7.2 1 .2h9.5c.3 0 .7-.1 1-.2.3-.1.6-.3.8-.6l6.6-6.6c.2-.2.4-.5.6-.8.1-.3.2-.7.2-1v-9.5c.1-.3 0-.6-.1-1ZM27.9 21l-7 7H11l-7-7V11l7-7h10l7 7v10h-.1Zm-12.6-3.3c-.2-.2-.3-.4-.3-.7V9c0-.3.1-.5.3-.7.2-.2.4-.3.7-.3.3 0 .5.1.7.3.2.2.3.4.3.7v8c0 .3-.1.5-.3.7-.2.2-.4.3-.7.3-.3 0-.5-.1-.7-.3Zm1.7 3.2c.3.3.4.6.4 1s-.1.7-.4 1c-.3.3-.6.4-1 .4s-.7-.1-1-.4c-.3-.3-.4-.6-.4-1s.1-.7.4-1c.3-.3.6-.4 1-.4s.7.1 1 .4Z"/>
</svg>
