<svg xmlns="http://www.w3.org/2000/svg" viewBox="0 0 32 32">
  <path fill="currentColor" d="M28.904 16.668H25.81a1.06 1.06 0 0 1-.781-.315 1.06 1.06 0 0 1-.315-.781c0-.311.105-.572.315-.781.21-.21.47-.315.781-.315h3.093c.31 0 .571.105.781.315.21.21.315.47.315.781 0 .311-.105.572-.315.781-.21.21-.47.315-.781.315Zm-6.081 5.794c.187-.256.427-.405.718-.444a1.1 1.1 0 0 1 .822.222l2.466 1.853c.257.187.405.427.444.718a1.1 1.1 0 0 1-.222.822 1.037 1.037 0 0 1-.718.444 1.101 1.101 0 0 1-.823-.222l-2.465-1.852a1.035 1.035 0 0 1-.444-.718c-.04-.292.034-.566.222-.823Zm3.95-15.467-2.466 1.853a1.11 1.11 0 0 1-.822.222 1.038 1.038 0 0 1-.718-.445 1.102 1.102 0 0 1-.222-.822c.039-.291.187-.53.444-.718l2.465-1.853c.257-.187.53-.261.822-.222.292.04.531.188.719.444.187.257.261.531.222.823-.04.291-.188.53-.444.718ZM6.133 19.339h-1.49a2.545 2.545 0 0 1-1.868-.775A2.545 2.545 0 0 1 2 16.697v-2.25c0-.728.258-1.351.775-1.867a2.545 2.545 0 0 1 1.868-.775h5.65l4.546-2.718c.44-.265.885-.267 1.332-.007.448.26.672.64.672 1.145v10.694c0 .504-.224.886-.672 1.145-.447.26-.892.258-1.332-.007l-4.546-2.718H8.325v4.61c0 .311-.105.572-.315.782-.21.21-.47.315-.781.315a1.06 1.06 0 0 1-.781-.315 1.06 1.06 0 0 1-.315-.782v-4.61Zm8.518.011v-7.557l-3.75 2.205H4.642a.43.43 0 0 0-.31.14.43.43 0 0 0-.14.31v2.248a.43.43 0 0 0 .14.31.43.43 0 0 0 .31.14H10.9l3.75 2.204Zm4.216.782v-9.12c.574.52 1.036 1.173 1.386 1.962.35.79.526 1.655.526 2.598 0 .943-.175 1.809-.526 2.598-.35.788-.812 1.443-1.386 1.962Z"/>
</svg>
