<svg xmlns="http://www.w3.org/2000/svg" viewBox="0 0 32 32">
  <path fill="currentColor" d="m8.112 16.948 8.32 8.416a.97.97 0 0 1 .276.666.896.896 0 0 1-.284.673.929.929 0 0 1-.663.297c-.247.003-.468-.095-.663-.293l-9.757-9.883a1.162 1.162 0 0 1-.262-.387A1.212 1.212 0 0 1 5 15.993a1.2 1.2 0 0 1 .079-.442c.052-.134.14-.262.262-.386l9.757-9.883a.917.917 0 0 1 1.325 0c.196.2.294.426.294.677a.903.903 0 0 1-.293.664L8.112 15.04H26.06c.271 0 .496.09.674.27a.936.936 0 0 1 .267.684.932.932 0 0 1-.267.683.908.908 0 0 1-.675.27H8.112Z"/>
</svg>
