<svg xmlns="http://www.w3.org/2000/svg" viewBox="0 0 32 32">
  <path fill="currentColor" d="M15.04 23.888V5.94c0-.271.091-.496.272-.674A.932.932 0 0 1 15.995 5c.275 0 .502.089.683.267.18.178.27.403.27.674v17.947l8.416-8.32a.968.968 0 0 1 .666-.276.896.896 0 0 1 .673.284.929.929 0 0 1 .297.663c.003.247-.095.468-.293.663l-9.883 9.757c-.123.122-.253.21-.387.262a1.21 1.21 0 0 1-.444.079 1.2 1.2 0 0 1-.442-.079 1.165 1.165 0 0 1-.386-.262l-9.883-9.757a.917.917 0 0 1 0-1.325.948.948 0 0 1 .677-.293c.251 0 .472.097.664.292l8.418 8.312Z"/>
</svg>
