<svg xmlns="http://www.w3.org/2000/svg" viewBox="0 0 32 32">
  <path fill="currentColor" d="m15.052 8.12-8.416 8.316a.968.968 0 0 1-.666.277.896.896 0 0 1-.673-.285.928.928 0 0 1-.297-.662c-.003-.247.095-.467.293-.663l9.883-9.752c.123-.123.253-.212.387-.267A1.15 1.15 0 0 1 16.007 5c.161 0 .308.028.442.084a1.2 1.2 0 0 1 .386.267l9.883 9.752c.183.18.277.397.282.65a.916.916 0 0 1-.282.675.948.948 0 0 1-.677.293.903.903 0 0 1-.664-.293L16.96 8.12v17.94c0 .271-.09.496-.27.674a.932.932 0 0 1-.684.267.933.933 0 0 1-.683-.267.907.907 0 0 1-.27-.674V8.12Z"/>
</svg>
