<svg xmlns="http://www.w3.org/2000/svg" viewBox="0 0 32 32">
  <path fill="currentColor" d="M23.88 16.96H5.94a.907.907 0 0 1-.674-.272.932.932 0 0 1-.267-.683c0-.274.089-.502.267-.683a.907.907 0 0 1 .674-.27h17.94l-8.315-8.416a.968.968 0 0 1-.277-.666.896.896 0 0 1 .285-.673.928.928 0 0 1 .662-.297c.247-.003.467.095.663.293l9.753 9.883c.122.123.21.253.267.387.055.135.083.282.083.444 0 .161-.028.308-.084.442a1.234 1.234 0 0 1-.267.386l-9.752 9.883a.916.916 0 0 1-1.325 0 .948.948 0 0 1-.293-.677c0-.251.098-.472.293-.664l8.308-8.418Z"/>
</svg>
