<svg xmlns="http://www.w3.org/2000/svg" viewBox="0 0 32 32">
  <path fill="currentColor" d="M4.53 27.8a2.443 2.443 0 0 1-1.795-.735A2.443 2.443 0 0 1 2 25.269V10.65c0-.298.1-.547.302-.748.2-.201.45-.302.748-.302s.547.1.748.302c.201.2.302.45.302.748v14.62c0 .107.045.206.135.295a.41.41 0 0 0 .296.135H23.35c.298 0 .547.1.748.302.201.2.302.45.302.748s-.1.547-.302.748c-.2.201-.45.302-.748.302H4.53Zm5.6-5.6a2.443 2.443 0 0 1-1.795-.735 2.443 2.443 0 0 1-.735-1.796V5.266c0-.361.12-.662.362-.904A1.23 1.23 0 0 1 8.866 4h19.868c.361 0 .662.12.904.362.241.242.362.543.362.904v14.403c0 .707-.245 1.306-.735 1.796s-1.089.735-1.796.735H10.131Zm0-2.1h17.34a.41.41 0 0 0 .295-.135.411.411 0 0 0 .135-.296V6.1H9.7v13.57c0 .107.045.206.135.295a.41.41 0 0 0 .296.135Zm3.42-4.2h3.5c.298 0 .547-.1.748-.302.201-.2.302-.45.302-.748v-4.9c0-.298-.1-.547-.302-.748-.2-.201-.45-.302-.748-.302h-3.5c-.298 0-.547.1-.748.302-.201.2-.302.45-.302.748v4.9c0 .298.1.547.302.748.2.201.45.302.748.302Zm7.35 0h2.8c.397 0 .73-.134.998-.402.268-.269.402-.601.402-.998s-.134-.73-.402-.998a1.355 1.355 0 0 0-.998-.402h-2.8c-.397 0-.73.134-.997.402-.269.269-.403.601-.403.998s.134.73.402.998c.269.268.601.402.998.402Zm0-4.2h2.8c.397 0 .73-.134.998-.402.268-.269.402-.601.402-.998s-.134-.73-.402-.998A1.355 1.355 0 0 0 23.7 8.9h-2.8c-.397 0-.73.134-.997.402-.269.269-.403.601-.403.998s.134.73.402.997c.269.269.601.403.998.403Z"/>
</svg>
