<svg xmlns="http://www.w3.org/2000/svg" viewBox="0 0 32 32">
  <path fill="currentColor" d="M24.08 21.44c0 2.385-.828 4.408-2.484 6.069C19.94 29.169 17.925 30 15.55 30c-2.372 0-4.39-.83-6.054-2.491C7.832 25.848 7 23.825 7 21.44V8.012c0-1.67.584-3.09 1.751-4.258C9.92 2.584 11.334 2 12.996 2c1.663 0 3.08.585 4.252 1.754 1.173 1.169 1.759 2.588 1.759 4.258v12.72a3.37 3.37 0 0 1-1.003 2.454c-.668.68-1.486 1.02-2.453 1.02a3.365 3.365 0 0 1-2.455-1.014 3.332 3.332 0 0 1-1.023-2.46V8.72c0-.262.089-.482.267-.66a.903.903 0 0 1 .663-.265.902.902 0 0 1 .921.926v12.011c0 .448.158.83.473 1.146.315.317.7.476 1.154.476.457 0 .839-.159 1.145-.476.306-.316.46-.698.46-1.146V7.998c-.006-1.155-.409-2.135-1.21-2.94-.8-.804-1.783-1.206-2.948-1.206-1.161 0-2.143.403-2.944 1.211-.802.808-1.203 1.79-1.203 2.949V21.44c-.005 1.872.646 3.457 1.952 4.758 1.306 1.3 2.892 1.95 4.756 1.95 1.854 0 3.428-.651 4.722-1.955 1.294-1.304 1.943-2.888 1.947-4.753V8.72c0-.262.09-.482.268-.66a.902.902 0 0 1 .663-.265.901.901 0 0 1 .921.926v12.72Z"/>
</svg>
