<svg xmlns="http://www.w3.org/2000/svg" viewBox="0 0 32 32">
  <path fill="currentColor" d="M25.128 15.967c0-1.834-.49-3.507-1.473-5.02a9.11 9.11 0 0 0-3.952-3.396 1.175 1.175 0 0 1-.567-.543.894.894 0 0 1-.045-.738.97.97 0 0 1 .573-.557 1.05 1.05 0 0 1 .826.026 11.215 11.215 0 0 1 4.827 4.12c1.207 1.833 1.811 3.87 1.811 6.107 0 2.238-.604 4.274-1.811 6.108a11.217 11.217 0 0 1-4.827 4.12 1.05 1.05 0 0 1-.826.026.97.97 0 0 1-.573-.557.894.894 0 0 1 .045-.737c.121-.241.31-.423.567-.544a9.11 9.11 0 0 0 3.952-3.396c.982-1.513 1.473-3.186 1.473-5.02ZM9.821 19.333H6.077c-.342 0-.628-.115-.859-.346a1.166 1.166 0 0 1-.346-.859v-4.256c0-.342.115-.628.346-.859a1.17 1.17 0 0 1 .859-.346h3.744l3.99-3.99c.319-.32.687-.392 1.103-.216.416.175.624.488.624.939v13.2c0 .45-.208.764-.624.94-.416.175-.784.103-1.104-.217l-3.99-3.99Zm11.717-3.332c0 .832-.172 1.62-.518 2.362a5.503 5.503 0 0 1-1.396 1.873.562.562 0 0 1-.595.038.517.517 0 0 1-.311-.5V12.16c0-.232.104-.4.311-.5a.565.565 0 0 1 .595.036 5.68 5.68 0 0 1 1.396 1.92c.346.76.518 1.555.518 2.386Zm-8-4.201-2.866 2.867h-3.8v2.666h3.8l2.866 2.867v-8.4Z"/>
</svg>
