<svg xmlns="http://www.w3.org/2000/svg" viewBox="0 0 32 32">
  <path fill="currentColor" d="M5.8 30a2.215 2.215 0 0 1-1.624-.675A2.215 2.215 0 0 1 3.5 27.7V6.943c0-.633.225-1.174.676-1.624.45-.451.992-.676 1.624-.676h2.489V2.882a.97.97 0 0 1 .981-.992.98.98 0 0 1 .72.286.956.956 0 0 1 .288.706v1.76h11.5V2.857a.937.937 0 0 1 .96-.966.96.96 0 0 1 .701.276.924.924 0 0 1 .282.687v1.79H26.2c.632 0 1.173.225 1.624.676.45.45.676.991.676 1.624V27.7c0 .631-.225 1.173-.676 1.624-.45.45-.992.676-1.624.676H5.8Zm0-1.847h20.4a.433.433 0 0 0 .311-.141.433.433 0 0 0 .141-.311V13.362H5.348v14.339a.43.43 0 0 0 .141.31.433.433 0 0 0 .311.142Zm-.452-16.638h21.304V6.943a.433.433 0 0 0-.141-.311.432.432 0 0 0-.311-.142H5.8a.433.433 0 0 0-.311.142.433.433 0 0 0-.141.31v4.573ZM16 19.085a1.25 1.25 0 0 1-.92-.381 1.254 1.254 0 0 1-.38-.92c0-.36.126-.668.38-.921.253-.254.56-.38.92-.38s.667.126.92.38c.254.253.38.56.38.92s-.126.668-.38.921a1.25 1.25 0 0 1-.92.38Zm-5.882 0a1.25 1.25 0 0 1-.92-.381 1.254 1.254 0 0 1-.381-.92c0-.36.127-.668.38-.921.254-.254.56-.38.92-.38s.668.126.921.38c.254.253.38.56.38.92s-.126.668-.38.921a1.25 1.25 0 0 1-.92.38Zm11.764 0a1.25 1.25 0 0 1-.92-.381 1.254 1.254 0 0 1-.38-.92c0-.36.126-.668.38-.921.253-.254.56-.38.92-.38s.667.126.92.38c.254.253.381.56.381.92s-.127.668-.38.921c-.254.254-.56.38-.92.38ZM16 24.853c-.36 0-.667-.127-.92-.38a1.253 1.253 0 0 1-.38-.921c0-.36.126-.667.38-.92.253-.254.56-.381.92-.381s.667.127.92.38c.254.254.38.56.38.92s-.126.668-.38.921a1.25 1.25 0 0 1-.92.38Zm-5.882 0c-.36 0-.667-.127-.92-.38a1.253 1.253 0 0 1-.381-.921c0-.36.127-.667.38-.92.254-.254.56-.381.92-.381s.668.127.921.38c.254.254.38.56.38.92s-.126.668-.38.921a1.25 1.25 0 0 1-.92.38Zm11.764 0c-.36 0-.667-.127-.92-.38a1.253 1.253 0 0 1-.38-.921c0-.36.126-.667.38-.92.253-.254.56-.381.92-.381s.667.127.92.38c.254.254.381.56.381.92s-.127.668-.38.921c-.254.254-.56.38-.92.38Z"/>
</svg>
