<svg xmlns="http://www.w3.org/2000/svg" viewBox="0 0 32 32">
  <path fill="currentColor" d="M5.522 24.061v2.198a.94.94 0 0 1-.28.693.94.94 0 0 1-.693.28h-.576a.94.94 0 0 1-.693-.28.94.94 0 0 1-.28-.693V14.302l3.179-9.329c.105-.3.286-.537.545-.711.26-.175.55-.262.871-.262h17.2a1.401 1.401 0 0 1 1.356.973l3.179 9.329v11.957a.94.94 0 0 1-.28.693.94.94 0 0 1-.693.28h-.592a.912.912 0 0 1-.69-.28.966.966 0 0 1-.267-.693v-2.198H5.522Zm.192-11.705h20.902l-2.2-6.41H7.914l-2.2 6.41ZM8.87 20.14c.541 0 .996-.188 1.363-.562.368-.374.552-.827.552-1.357a1.88 1.88 0 0 0-.562-1.38 1.843 1.843 0 0 0-1.354-.564 1.88 1.88 0 0 0-1.38.565 1.874 1.874 0 0 0-.566 1.38c0 .543.189.998.568 1.366.378.368.838.552 1.38.552Zm14.615 0c.541 0 1-.188 1.376-.562.376-.374.564-.827.564-1.357 0-.545-.188-1.005-.566-1.38a1.877 1.877 0 0 0-1.374-.564c-.54 0-.994.189-1.365.565a1.891 1.891 0 0 0-.557 1.38c0 .543.189.998.566 1.366.378.368.83.552 1.356.552ZM4.946 22.115h22.438v-7.813H4.946v7.813Z"/>
</svg>
