<svg xmlns="http://www.w3.org/2000/svg" viewBox="0 0 32 32">
  <path fill="currentColor" d="M4.502 29a2.455 2.455 0 0 1-1.766-.71C2.246 27.819 2 27.25 2 26.588V2.969a.92.92 0 0 1 .29-.69A1 1 0 0 1 3.01 2c.287 0 .525.093.715.278a.93.93 0 0 1 .285.691v23.618a.45.45 0 0 0 .154.326.48.48 0 0 0 .338.148h24.493a.99.99 0 0 1 .716.28.928.928 0 0 1 .289.695.912.912 0 0 1-.289.689 1 1 0 0 1-.716.275H4.502Zm4.484-5.301a1.16 1.16 0 0 1-.842-.33 1.096 1.096 0 0 1-.339-.817v-9.796c0-.318.114-.59.34-.812a1.16 1.16 0 0 1 .844-.335h1.568c.353 0 .648.118.886.353.237.235.356.521.356.858v9.674c0 .343-.12.63-.358.86a1.23 1.23 0 0 1-.887.345H8.986Zm7.56 0c-.336 0-.618-.11-.844-.33a1.094 1.094 0 0 1-.34-.817V4.987c0-.336.12-.62.36-.855a1.22 1.22 0 0 1 .889-.352h1.575c.328 0 .607.112.836.335.23.223.344.494.344.813v17.564c0 .342-.12.629-.363.86a1.23 1.23 0 0 1-.882.347h-1.575Zm7.478 0c-.33 0-.608-.11-.837-.33a1.087 1.087 0 0 1-.344-.817V19.06c0-.336.12-.621.359-.856.24-.234.536-.351.89-.351h1.574c.33 0 .608.111.837.334.23.224.344.495.344.813v3.491c0 .342-.12.629-.363.86a1.23 1.23 0 0 1-.882.347h-1.578Z"/>
</svg>
