<svg xmlns="http://www.w3.org/2000/svg" viewBox="0 0 32 32">
  <path fill="currentColor" d="M17.026 15.584v-5.4a.993.993 0 0 0-.295-.731.994.994 0 0 0-.731-.295.992.992 0 0 0-.731.295.994.994 0 0 0-.295.731V15.9a1.23 1.23 0 0 0 .371.887l4.687 4.687a.99.99 0 0 0 .714.29.968.968 0 0 0 .728-.29.982.982 0 0 0 .297-.721c0-.283-.1-.523-.297-.721l-4.448-4.448ZM16.002 29c-1.798 0-3.488-.341-5.07-1.023a13.13 13.13 0 0 1-4.128-2.779 13.13 13.13 0 0 1-2.78-4.127C3.34 19.49 3 17.801 3 16.002c0-1.798.341-3.488 1.024-5.07a13.13 13.13 0 0 1 2.778-4.128 13.13 13.13 0 0 1 4.127-2.78C12.51 3.341 14.199 3 15.998 3c1.798 0 3.488.341 5.07 1.024a13.13 13.13 0 0 1 4.128 2.778 13.13 13.13 0 0 1 2.78 4.127C28.66 12.51 29 14.199 29 15.998c0 1.798-.341 3.488-1.024 5.07a13.13 13.13 0 0 1-2.778 4.128 13.13 13.13 0 0 1-4.127 2.78C19.49 28.66 17.801 29 16.002 29ZM16 26.947c3.033 0 5.616-1.066 7.749-3.198 2.132-2.133 3.198-4.716 3.198-7.749 0-3.033-1.066-5.616-3.198-7.749C21.616 6.12 19.033 5.053 16 5.053c-3.033 0-5.616 1.066-7.749 3.198C6.12 10.384 5.053 12.967 5.053 16c0 3.033 1.066 5.616 3.198 7.749 2.133 2.132 4.716 3.198 7.749 3.198Z"/>
</svg>
