<svg xmlns="http://www.w3.org/2000/svg" viewBox="0 0 32 32">
  <path fill="currentColor" d="m4.635 16.104 6.124 6.124c.209.209.316.471.32.788.005.316-.102.583-.32.802a1.084 1.084 0 0 1-.795.328c-.312 0-.577-.11-.796-.328l-6.782-6.782a1.256 1.256 0 0 1-.299-.447A1.45 1.45 0 0 1 2 16.08c0-.182.029-.351.087-.508a1.25 1.25 0 0 1 .299-.447l6.782-6.782a1.12 1.12 0 0 1 1.614 0c.234.234.351.503.351.807 0 .303-.117.572-.351.806l-6.147 6.147Zm22.73-.046L21.24 9.934a1.096 1.096 0 0 1-.32-.788 1.068 1.068 0 0 1 .32-.802c.219-.219.484-.328.795-.328.312 0 .577.11.796.328l6.782 6.782c.141.142.24.29.299.447.058.157.087.326.087.508s-.029.351-.087.508a1.256 1.256 0 0 1-.299.447l-6.782 6.782a1.064 1.064 0 0 1-.788.332 1.12 1.12 0 0 1-.803-.355 1.11 1.11 0 0 1-.35-.807c0-.304.116-.573.35-.807l6.124-6.123Z"/>
</svg>
