<svg xmlns="http://www.w3.org/2000/svg" viewBox="0 0 32 32">
  <path fill="currentColor" d="M10.927 25.44a2.28 2.28 0 0 1-1.671-.696 2.28 2.28 0 0 1-.696-1.671V4.367c0-.65.232-1.207.696-1.671A2.28 2.28 0 0 1 10.927 2h14.165c.65 0 1.208.232 1.672.696a2.28 2.28 0 0 1 .695 1.671v18.706a2.28 2.28 0 0 1-.695 1.671 2.28 2.28 0 0 1-1.672.696H10.927Zm0-1.902h14.165a.445.445 0 0 0 .32-.145.445.445 0 0 0 .146-.32V4.367a.445.445 0 0 0-.146-.32.446.446 0 0 0-.32-.145H10.927a.446.446 0 0 0-.32.145.445.445 0 0 0-.145.32v18.706c0 .116.048.223.145.32a.445.445 0 0 0 .32.145ZM6.367 30a2.28 2.28 0 0 1-1.671-.696A2.28 2.28 0 0 1 4 27.633V7.976c0-.27.091-.495.274-.677a.927.927 0 0 1 .681-.273.925.925 0 0 1 .946.95v19.657c0 .116.05.223.146.32a.446.446 0 0 0 .32.145h15.116c.27 0 .496.092.678.275.182.182.273.41.273.68a.925.925 0 0 1-.95.946H6.367Z"/>
</svg>
