<svg xmlns="http://www.w3.org/2000/svg" viewBox="0 0 32 32">
  <path fill="currentColor" d="M18.077 17.352c-.963 0-1.779-.33-2.446-.988-.667-.659-1-1.464-1-2.415 0-.95.333-1.756 1-2.414.667-.66 1.483-.989 2.446-.989.963 0 1.779.33 2.446.989.667.658 1 1.463 1 2.414 0 .951-.333 1.757-1 2.415-.667.659-1.482.988-2.446.988ZM8.31 21.898a2.086 2.086 0 0 1-1.519-.628 2.036 2.036 0 0 1-.637-1.5V8.129c0-.581.212-1.081.637-1.5.424-.42.93-.629 1.52-.629h19.533c.588 0 1.095.21 1.519.629.425.419.637.919.637 1.5v11.64c0 .582-.212 1.082-.637 1.501-.424.419-.93.628-1.52.628H8.31Zm2.405-1.71H25.44c0-.774.275-1.433.827-1.976a2.746 2.746 0 0 1 2-.816v-6.894a2.742 2.742 0 0 1-2.002-.817 2.677 2.677 0 0 1-.825-1.975H10.715c0 .774-.276 1.433-.828 1.977a2.747 2.747 0 0 1-2 .815v6.894c.783 0 1.45.273 2.001.817.551.545.827 1.203.827 1.975ZM25.024 26H4.156c-.588 0-1.095-.21-1.519-.629a2.035 2.035 0 0 1-.637-1.5V10.913a.85.85 0 0 1 .87-.855.836.836 0 0 1 .862.855V23.87c0 .105.044.2.133.288a.408.408 0 0 0 .291.13h20.868c.245 0 .451.083.617.248a.83.83 0 0 1 .25.612.814.814 0 0 1-.25.608.85.85 0 0 1-.617.243Z"/>
</svg>
