<svg width="32" height="32" viewBox="0 0 32 32" fill="none" xmlns="http://www.w3.org/2000/svg">
<path d="M18.0772 17.3522C17.1136 17.3522 16.2983 17.0229 15.6312 16.3643C14.9638 15.7055 14.6302 14.9005 14.6302 13.9494C14.6302 12.9981 14.9638 12.1932 15.6312 11.5346C16.2983 10.8757 17.1136 10.5463 18.0772 10.5463C19.0405 10.5463 19.8558 10.8757 20.5232 11.5346C21.1903 12.1932 21.5238 12.9981 21.5238 13.9494C21.5238 14.9005 21.1903 15.7055 20.5232 16.3643C19.8558 17.0229 19.0405 17.3522 18.0772 17.3522ZM8.31043 21.8985C7.72191 21.8985 7.21543 21.689 6.79099 21.27C6.36632 20.8507 6.15398 20.3505 6.15398 19.7695V8.12901C6.15398 7.54798 6.36632 7.04783 6.79099 6.62856C7.21543 6.20952 7.72191 6 8.31043 6H27.8436C28.4321 6 28.9386 6.20952 29.363 6.62856C29.7877 7.04783 30 7.54798 30 8.12901V19.7695C30 20.3505 29.7877 20.8507 29.363 21.27C28.9386 21.689 28.4321 21.8985 27.8436 21.8985H8.31043ZM10.7147 20.1884H25.4396C25.4396 19.4141 25.7155 18.7551 26.2672 18.2115C26.8188 17.6679 27.4856 17.3961 28.2679 17.3961V10.5024C27.4836 10.5024 26.8161 10.23 26.2655 9.68528C25.7149 9.14054 25.4396 8.48215 25.4396 7.71009H10.7147C10.7147 8.48442 10.4388 9.14338 9.88709 9.68698C9.33534 10.2306 8.66834 10.5024 7.8861 10.5024V17.3961C8.67041 17.3961 9.33786 17.6685 9.88846 18.2132C10.4393 18.758 10.7147 19.4164 10.7147 20.1884ZM25.0239 26H4.15644C3.56793 26 3.06145 25.7904 2.63701 25.3711C2.21234 24.9518 2 24.4517 2 23.8706V10.9128C2 10.6705 2.08342 10.4673 2.25025 10.3033C2.41709 10.1395 2.62391 10.0576 2.87071 10.0576C3.11752 10.0576 3.32284 10.1395 3.48669 10.3033C3.65031 10.4673 3.73212 10.6705 3.73212 10.9128V23.8706C3.73212 23.9755 3.77635 24.0714 3.86483 24.1586C3.9533 24.2459 4.05051 24.2896 4.15644 24.2896H25.0239C25.2693 24.2896 25.4751 24.3719 25.6413 24.5366C25.8072 24.7016 25.8901 24.9058 25.8901 25.1492C25.8901 25.3929 25.8072 25.5956 25.6413 25.7574C25.4751 25.9191 25.2693 26 25.0239 26Z" fill="#131212"/>
</svg>
