<svg xmlns="http://www.w3.org/2000/svg" viewBox="0 0 32 32">
  <path fill="currentColor" d="M8.27 30a2.495 2.495 0 0 1-1.829-.766 2.495 2.495 0 0 1-.766-1.828V5.348h-.633c-.295 0-.543-.1-.742-.3-.2-.201-.3-.45-.3-.747s.1-.543.3-.74c.2-.198.447-.296.742-.296h6.174c0-.354.123-.653.37-.898.248-.245.546-.367.895-.367h7.913c.349 0 .647.124.894.37.247.248.371.546.371.895h6.174c.295 0 .543.1.742.3.2.202.3.45.3.747s-.1.544-.3.741c-.2.197-.447.295-.742.295H27.2v22.058c0 .708-.256 1.317-.767 1.828-.51.51-1.12.766-1.828.766H8.27ZM25.115 5.348H7.759v22.058a.502.502 0 0 0 .51.51h16.337a.502.502 0 0 0 .51-.51V5.348ZM13.32 24.477a1.016 1.016 0 0 0 1.036-1.042V9.802c0-.288-.1-.534-.301-.737-.2-.203-.45-.304-.746-.304a.989.989 0 0 0-.74.304 1.02 1.02 0 0 0-.296.737v13.633c0 .295.1.542.3.742.201.2.45.3.747.3Zm6.246 0c.297 0 .544-.1.74-.3.198-.2.296-.447.296-.742V9.802c0-.288-.1-.534-.3-.737a1.01 1.01 0 0 0-.747-.304.99.99 0 0 0-.74.304 1.02 1.02 0 0 0-.296.737v13.633c0 .295.1.542.301.742.2.2.45.3.746.3Z"/>
</svg>
