<svg xmlns="http://www.w3.org/2000/svg" viewBox="0 0 32 32">
  <path fill="currentColor" d="m11.495 15.025 3.526-3.534-3.052-3.06-1.143 1.152a.947.947 0 0 1-.677.288.954.954 0 0 1-.7-.288.954.954 0 0 1-.305-.693c0-.259.101-.49.304-.693l1.145-1.134-2.964-2.95L4.094 7.65l7.4 7.376Zm12.821 12.862 3.535-3.55-2.965-2.966-1.143 1.145a.946.946 0 0 1-.686.292.937.937 0 0 1-.691-.292.95.95 0 0 1-.305-.688.95.95 0 0 1 .305-.689l1.135-1.143-3.02-3.022-3.526 3.527 7.361 7.386ZM4.12 29.093c-.352 0-.643-.115-.873-.345a1.18 1.18 0 0 1-.345-.872v-3.787c0-.166.03-.319.087-.459.057-.14.15-.274.278-.402l6.826-6.827L2.476 8.78c-.322-.322-.481-.7-.476-1.13.006-.432.164-.809.476-1.131L6.472 2.48a1.563 1.563 0 0 1 2.262.008l7.687 7.648L23.349 3.2c.203-.203.425-.35.665-.442a2.08 2.08 0 0 1 1.477 0c.24.092.462.239.665.442l2.64 2.693c.203.203.347.424.434.664a2.158 2.158 0 0 1 0 1.466 1.84 1.84 0 0 1-.434.654l-6.898 6.911 7.618 7.648c.323.323.484.701.484 1.136 0 .434-.161.81-.484 1.126l-4.012 4.006a1.556 1.556 0 0 1-1.136.483c-.434 0-.81-.16-1.126-.483l-7.632-7.618-6.842 6.843a1.233 1.233 0 0 1-.403.278c-.14.058-.292.086-.459.086H4.12Zm.739-1.956h2.698l15.301-15.309-2.706-2.706L4.859 24.439v2.698ZM21.507 10.47l-1.355-1.35 2.706 2.707-1.352-1.357Z"/>
</svg>
