<svg xmlns="http://www.w3.org/2000/svg" viewBox="0 0 32 32">
  <path fill="currentColor" d="M12.287 15.447h6.752v1.608c0 .25.113.423.34.515a.51.51 0 0 0 .598-.121l2.222-2.222c.204-.21.305-.456.305-.736a.995.995 0 0 0-.31-.73l-2.217-2.213a.522.522 0 0 0-.599-.13c-.226.087-.339.26-.339.52v1.638h-7.458c-.33 0-.607.111-.83.335-.223.223-.335.5-.335.829v4.42c0 .264.09.486.27.666.181.18.404.269.67.269a.912.912 0 0 0 .93-.936v-3.712ZM16.002 30c-.298 0-.592-.055-.882-.166a2.192 2.192 0 0 1-.768-.5L2.666 17.648a2.179 2.179 0 0 1-.5-.766 2.434 2.434 0 0 1-.166-.88c0-.298.055-.592.166-.882.112-.289.278-.545.5-.768L14.353 2.666c.221-.222.476-.388.765-.5.288-.11.582-.166.88-.166.298 0 .592.055.882.166.289.112.545.278.768.5l11.686 11.687c.222.221.388.476.5.765.11.288.166.582.166.88 0 .298-.055.592-.166.882a2.208 2.208 0 0 1-.5.768L17.648 29.334a2.179 2.179 0 0 1-.766.5c-.288.11-.582.166-.88.166Zm-6.18-7.823 5.863 5.853c.086.086.19.129.315.129.124 0 .23-.043.315-.129L28.03 16.315a.428.428 0 0 0 .13-.315.428.428 0 0 0-.129-.315L16.315 3.97A.428.428 0 0 0 16 3.84a.428.428 0 0 0-.315.129L3.97 15.685a.428.428 0 0 0-.13.315c0 .124.043.23.129.315l5.853 5.862Z"/>
</svg>
