<svg xmlns="http://www.w3.org/2000/svg" viewBox="0 0 32 32">
  <path fill="currentColor" d="M11.58 16.81a.935.935 0 0 1-.953-.958V5.161L6.623 9.168a.881.881 0 0 1-.656.275.931.931 0 0 1-.673-.277A.987.987 0 0 1 5 8.471c0-.255.1-.48.298-.676l5.436-5.436c.126-.126.258-.217.396-.274a1.188 1.188 0 0 1 .89 0c.143.058.277.149.4.274l5.46 5.458c.188.19.284.41.286.66.003.251-.096.48-.294.688a.935.935 0 0 1-.67.276.956.956 0 0 1-.68-.289l-3.98-3.99v10.704a.904.904 0 0 1-.276.672.943.943 0 0 1-.686.271ZM20.505 30c-.153 0-.301-.027-.444-.08a1.12 1.12 0 0 1-.401-.269l-5.46-5.458a.918.918 0 0 1-.287-.66c-.002-.251.096-.48.295-.688a.934.934 0 0 1 .67-.276c.254 0 .48.097.68.29l3.978 3.988V16.144c0-.267.093-.491.277-.672a.942.942 0 0 1 .687-.271.934.934 0 0 1 .953.958v10.688l4.003-4.004a.881.881 0 0 1 .657-.275c.258 0 .482.092.672.277a.989.989 0 0 1 .294.694c0 .255-.1.48-.298.676l-5.436 5.436a1.154 1.154 0 0 1-.395.269c-.138.053-.287.08-.446.08Z"/>
</svg>
