<svg xmlns="http://www.w3.org/2000/svg" viewBox="0 0 32 32">
  <path fill="currentColor" d="m15.326 15.568-2.406 6.016-1.204-5.907a.88.88 0 0 0-1.039-.656c-.437.055-.765.547-.656 1.04l1.75 8.75a.767.767 0 0 0 .766.655.785.785 0 0 0 .875-.546l2.734-6.672 2.68 6.672c.11.382.437.546.82.546h.055c.383 0 .71-.273.765-.656l1.75-8.75c.11-.492-.218-.93-.656-1.039-.492-.11-.93.219-1.039.656l-1.203 5.907-2.406-6.016c-.274-.71-1.313-.71-1.586 0Z"/>
  <path fill="currentColor" fill-rule="evenodd" d="M5.678 29.323A2.22 2.22 0 0 0 7.305 30H24.8c.634 0 1.176-.226 1.628-.677a2.22 2.22 0 0 0 .677-1.628V10.316a2.22 2.22 0 0 0-.187-.9 2.5 2.5 0 0 0-.495-.745l-5.99-5.989a2.5 2.5 0 0 0-.743-.495 2.22 2.22 0 0 0-.9-.187H7.304a2.22 2.22 0 0 0-1.627.678A2.22 2.22 0 0 0 5 4.305v23.39c0 .633.226 1.176.678 1.628ZM18.817 3.852V9.08c0 .323.111.596.334.819.223.223.496.334.818.334h5.285v17.461a.434.434 0 0 1-.142.312.434.434 0 0 1-.312.141H7.305a.434.434 0 0 1-.312-.141.434.434 0 0 1-.141-.312V4.305c0-.113.047-.217.141-.312a.434.434 0 0 1 .312-.141h11.512Z" clip-rule="evenodd"/>
</svg>
