<svg xmlns="http://www.w3.org/2000/svg" viewBox="0 0 32 32">
  <path fill="currentColor" fill-rule="evenodd" d="M9 14a1 1 0 0 1 1-1h12a1 1 0 0 1 1 1v11a1 1 0 0 1-1 1H10a1 1 0 0 1-1-1V14Zm1.75 3.125V14.75h10.5v2.375h-10.5Zm4.125 1.75h2.25v2.25h-2.25v-2.25Zm4 0v2.25h2.375v-2.25h-2.375Zm-4 4h2.25v1.375h-2.25v-1.375Zm4 0v1.375h2.375v-1.375h-2.375Zm-5.75-4H10.75v2.25h2.375v-2.25Zm0 4H10.75v1.375h2.375v-1.375Z" clip-rule="evenodd"/>
  <path fill="currentColor" fill-rule="evenodd" d="M5.678 29.323A2.22 2.22 0 0 0 7.305 30H24.8c.634 0 1.176-.226 1.628-.677a2.22 2.22 0 0 0 .677-1.628V10.316a2.22 2.22 0 0 0-.187-.9 2.5 2.5 0 0 0-.495-.745l-5.99-5.989a2.5 2.5 0 0 0-.743-.495 2.22 2.22 0 0 0-.9-.187H7.304a2.22 2.22 0 0 0-1.627.678A2.22 2.22 0 0 0 5 4.305v23.39c0 .633.226 1.176.678 1.628ZM18.817 3.852V9.08c0 .323.111.596.334.819.223.223.496.334.818.334h5.285v17.461a.434.434 0 0 1-.142.312.434.434 0 0 1-.312.141H7.305a.434.434 0 0 1-.312-.141.434.434 0 0 1-.141-.312V4.305c0-.113.047-.217.141-.312a.434.434 0 0 1 .312-.141h11.512Z" clip-rule="evenodd"/>
</svg>
