<svg xmlns="http://www.w3.org/2000/svg" viewBox="0 0 32 32">
  <path fill="currentColor" d="M7.305 30a2.219 2.219 0 0 1-1.627-.677A2.22 2.22 0 0 1 5 27.695V4.305c0-.633.226-1.176.678-1.627A2.22 2.22 0 0 1 7.305 2h11.484c.316 0 .616.062.901.187a2.5 2.5 0 0 1 .744.495l5.99 5.99c.204.21.37.459.494.743.125.285.187.585.187.901v17.38a2.22 2.22 0 0 1-.677 1.627A2.219 2.219 0 0 1 24.8 30H7.305ZM18.817 9.081v-5.23H7.305a.434.434 0 0 0-.312.142.434.434 0 0 0-.141.312v23.39c0 .113.047.217.141.312a.434.434 0 0 0 .312.141H24.8a.434.434 0 0 0 .312-.141.434.434 0 0 0 .142-.312V10.234h-5.285c-.322 0-.595-.111-.818-.334a1.114 1.114 0 0 1-.334-.819Z"/>
  <path fill="currentColor" d="M16.13 21.417c.26 0 .482-.092.664-.275a.925.925 0 0 0 .274-.68v-6.847a.895.895 0 0 0-.274-.657.907.907 0 0 0-.666-.274.919.919 0 0 0-.668.274.89.89 0 0 0-.278.657v6.847c0 .27.093.498.28.68a.92.92 0 0 0 .669.275Zm-.03 3.793c.324 0 .593-.104.806-.312.213-.208.32-.476.32-.805 0-.329-.105-.596-.315-.8-.21-.206-.48-.308-.81-.308-.325 0-.59.102-.794.308-.205.204-.307.471-.307.8 0 .329.102.597.307.805.205.209.47.313.793.313Z"/>
</svg>
