<svg xmlns="http://www.w3.org/2000/svg" viewBox="0 0 32 32">
  <path fill="currentColor" d="M7.305 30a2.219 2.219 0 0 1-1.627-.677A2.22 2.22 0 0 1 5 27.695V4.305c0-.633.226-1.176.678-1.627A2.22 2.22 0 0 1 7.305 2h11.484c.316 0 .616.062.901.187a2.5 2.5 0 0 1 .744.495l5.99 5.99c.204.21.37.459.494.743.125.285.187.585.187.901v17.38a2.22 2.22 0 0 1-.677 1.627A2.219 2.219 0 0 1 24.8 30H7.305ZM18.817 9.081v-5.23H7.305a.434.434 0 0 0-.312.142.434.434 0 0 0-.141.312v23.39c0 .113.047.217.141.312a.434.434 0 0 0 .312.141H24.8a.434.434 0 0 0 .312-.141.434.434 0 0 0 .142-.312V10.234h-5.285c-.322 0-.595-.111-.818-.334a1.114 1.114 0 0 1-.334-.819Z"/>
  <path fill="currentColor" fill-rule="evenodd" d="M12.167 19.846h-1.488v2.077a.565.565 0 0 1-.177.413.566.566 0 0 1-.826 0 .566.566 0 0 1-.176-.413V16.59c0-.158.059-.295.177-.413A.566.566 0 0 1 10.09 16h2.077c.334 0 .614.113.84.339.226.226.339.506.339.84v1.488c0 .334-.113.614-.339.84a1.142 1.142 0 0 1-.84.339Zm-1.488-1.18V17.18h1.488v1.488h-1.488Zm7.481 3.508a1.141 1.141 0 0 1-.84.339h-2.025a.566.566 0 0 1-.413-.177.565.565 0 0 1-.177-.413V16.59c0-.158.059-.295.177-.413a.566.566 0 0 1 .413-.177h2.025c.335 0 .615.113.84.339.227.226.34.506.34.84v4.154c0 .335-.113.615-.34.84Zm-2.276-4.995v4.154h1.436V17.18h-1.436Z" clip-rule="evenodd"/>
  <path fill="currentColor" d="M21.167 19.846h1a.566.566 0 0 0 .412-.177.565.565 0 0 0 .177-.413.565.565 0 0 0-.177-.412.566.566 0 0 0-.412-.177h-1v-1.488h1a.566.566 0 0 0 .412-.177.565.565 0 0 0 .177-.412.565.565 0 0 0-.177-.413.566.566 0 0 0-.412-.177h-1.59a.566.566 0 0 0-.413.177.565.565 0 0 0-.177.413v5.333c0 .157.059.295.177.413a.566.566 0 0 0 .826 0 .565.565 0 0 0 .177-.413v-2.077Z"/>
</svg>
