<svg xmlns="http://www.w3.org/2000/svg" width="32" height="32" fill="none" viewBox="0 0 32 32">
  <mask id="a" width="32" height="32" x="0" y="0" maskUnits="userSpaceOnUse" style="mask-type:alpha">
    <path fill="#D9D9D9" d="M0 0h32v32H0z"/>
  </mask>
  <g mask="url(#a)">
    <path fill="currentColor" d="M15.995 21.934c-.175 0-.335-.031-.482-.093a1.347 1.347 0 0 1-.424-.297l-5.326-5.326a1.006 1.006 0 0 1-.305-.74 1.07 1.07 0 0 1 .316-.751 1.041 1.041 0 0 1 1.506-.009l3.673 3.69V4.548c0-.298.1-.547.302-.747.201-.2.451-.301.75-.301s.547.1.745.3c.198.201.297.45.297.747v13.861l3.69-3.69a.955.955 0 0 1 .73-.3c.285.007.54.116.764.326.203.218.305.47.305.752 0 .283-.106.529-.316.739l-5.308 5.308a1.33 1.33 0 0 1-.43.298c-.15.062-.313.093-.487.093ZM6.107 28.5a2.51 2.51 0 0 1-1.84-.766 2.51 2.51 0 0 1-.767-1.84v-3.941c0-.297.1-.546.302-.746.201-.2.451-.301.75-.301s.547.1.745.3c.198.2.297.45.297.747v3.94a.49.49 0 0 0 .16.353.49.49 0 0 0 .353.16h19.786a.49.49 0 0 0 .353-.16.49.49 0 0 0 .16-.353v-3.94c0-.297.1-.546.302-.746.201-.2.451-.301.75-.301s.547.1.745.3c.198.2.297.45.297.747v3.94a2.51 2.51 0 0 1-.766 1.84 2.51 2.51 0 0 1-1.84.767H6.106Z"/>
  </g>
</svg>
