<svg xmlns="http://www.w3.org/2000/svg" viewBox="0 0 32 32">
  <path fill="currentColor" d="M5.14 29a2.06 2.06 0 0 1-1.51-.63A2.056 2.056 0 0 1 3 26.86V7.872c0-.588.21-1.091.63-1.51.419-.42.923-.63 1.51-.63h10.582c.287 0 .502.09.645.269a.92.92 0 0 1 .215.587.911.911 0 0 1-.225.59c-.15.182-.363.274-.641.274H5.14a.403.403 0 0 0-.29.13.403.403 0 0 0-.131.29V26.86c0 .106.044.202.131.29a.403.403 0 0 0 .29.131h18.986a.403.403 0 0 0 .29-.131.403.403 0 0 0 .13-.29V16.161c0-.287.09-.502.27-.645a.92.92 0 0 1 .586-.215c.212 0 .409.072.59.215.183.143.274.358.274.645v10.698c0 .588-.21 1.092-.63 1.512-.419.42-.922.629-1.51.629H5.14Zm6.072-9.282v-2.734c0-.294.058-.574.174-.84.116-.268.272-.5.468-.696L23.866 3.436a1.53 1.53 0 0 1 .575-.372c.212-.076.427-.114.647-.114.216 0 .43.04.641.12.211.081.404.206.578.376l2.168 2.162c.173.178.304.375.394.59.09.217.134.436.134.658 0 .222-.04.44-.12.654a1.63 1.63 0 0 1-.382.587l-12.015 12.05a2.343 2.343 0 0 1-.695.464 2.055 2.055 0 0 1-.84.177h-2.669c-.305 0-.56-.102-.764-.306a1.036 1.036 0 0 1-.306-.764Zm1.72-.65h2.191l8.878-8.877-1.098-1.094-1.154-1.11-8.817 8.803v2.278Z"/>
</svg>
