<svg xmlns="http://www.w3.org/2000/svg" viewBox="0 0 32 32">
  <path fill="currentColor" d="M5.14 25.526a2.06 2.06 0 0 1-1.51-.629 2.06 2.06 0 0 1-.63-1.51V7.14c0-.588.21-1.091.63-1.51.419-.42.922-.63 1.51-.63h21.72c.588 0 1.091.21 1.51.63.42.419.63.922.63 1.51v16.246a2.06 2.06 0 0 1-.63 1.511c-.419.42-.922.63-1.51.63H5.14ZM27.28 8.272l-10.693 7.002c-.096.05-.19.093-.284.127a.877.877 0 0 1-.303.052.877.877 0 0 1-.303-.052 1.892 1.892 0 0 1-.275-.127L4.719 8.272v15.114c0 .123.04.224.119.303a.41.41 0 0 0 .302.118h21.72a.41.41 0 0 0 .302-.118.41.41 0 0 0 .119-.303V8.272ZM16 13.858l11.005-7.139H5.017L16 13.858ZM4.72 8.546V7.308v.036-.625.613-.044 1.258Z"/>
</svg>
