<svg xmlns="http://www.w3.org/2000/svg" viewBox="0 0 32 32">
  <path fill="currentColor" d="M3.288 30c-.365 0-.67-.123-.918-.37a1.247 1.247 0 0 1-.37-.918v-9.63c0-.292.1-.538.299-.736.2-.199.447-.298.741-.298a1.008 1.008 0 0 1 1.03 1.035v7.406L26.49 4.07h-7.407a.997.997 0 0 1-.737-.299 1.009 1.009 0 0 1-.298-.741c0-.295.1-.54.298-.735.198-.196.444-.294.737-.294h9.629c.365 0 .67.123.918.37.247.247.37.553.37.918v9.63c0 .292-.1.538-.299.736a1.01 1.01 0 0 1-.741.298 1.007 1.007 0 0 1-1.03-1.035V5.511L5.51 27.93h7.407a1 1 0 0 1 .737.299c.199.2.298.446.298.741A1.008 1.008 0 0 1 12.917 30H3.288Z"/>
</svg>
