<svg xmlns="http://www.w3.org/2000/svg" viewBox="0 0 32 32">
  <path fill="currentColor" d="M6.552 28a2.464 2.464 0 0 1-1.81-.741A2.463 2.463 0 0 1 4 25.448V6.552c0-.713.247-1.317.741-1.81A2.463 2.463 0 0 1 6.552 4h7.846c.3 0 .552.101.755.304.202.203.304.454.304.755 0 .3-.102.552-.304.754a1.025 1.025 0 0 1-.755.305H6.552a.414.414 0 0 0-.298.136.414.414 0 0 0-.136.298v18.896c0 .109.045.208.136.299.09.09.19.135.298.135h18.896a.414.414 0 0 0 .299-.136c.09-.09.135-.19.135-.298v-7.846c0-.3.102-.552.305-.755.202-.203.454-.304.754-.304s.552.102.755.304c.203.203.304.454.304.755v7.846c0 .713-.247 1.317-.741 1.81a2.463 2.463 0 0 1-1.811.742H6.552Zm19.33-20.395L13.524 19.964a1.025 1.025 0 0 1-.737.3.999.999 0 0 1-.75-.3 1.014 1.014 0 0 1-.308-.744c0-.291.103-.54.307-.744L24.395 6.118h-4.513c-.3 0-.552-.102-.754-.305a1.024 1.024 0 0 1-.305-.754c0-.3.102-.552.305-.755.202-.203.454-.304.754-.304h6.842c.364 0 .667.122.91.365.244.244.366.547.366.911v6.842c0 .3-.101.552-.304.754a1.024 1.024 0 0 1-.755.305c-.3 0-.552-.102-.754-.305a1.024 1.024 0 0 1-.305-.754V7.605Z"/>
</svg>
