<svg xmlns="http://www.w3.org/2000/svg" viewBox="0 0 32 32">
  <path fill="currentColor" d="M15.986 28.528c-.276 0-.552-.05-.83-.15a1.95 1.95 0 0 1-.731-.467L12.6 26.245c-2.832-2.595-5.307-5.097-7.424-7.505C3.059 16.332 2 13.82 2 11.204c0-2.045.69-3.756 2.068-5.135C5.448 4.689 7.154 4 9.19 4c1.162 0 2.34.286 3.537.857 1.195.571 2.286 1.574 3.274 3.009 1.044-1.435 2.146-2.438 3.305-3.009C20.465 4.286 21.633 4 22.811 4c2.035 0 3.742.69 5.12 2.069C29.312 7.448 30 9.159 30 11.204c0 2.644-1.08 5.18-3.241 7.606s-4.618 4.904-7.372 7.433l-1.832 1.674c-.208.21-.451.364-.73.463a2.494 2.494 0 0 1-.839.148Zm-.827-18.673c-.777-1.314-1.673-2.31-2.687-2.988-1.014-.677-2.108-1.015-3.283-1.015-1.547 0-2.823.505-3.829 1.516-1.005 1.01-1.508 2.292-1.508 3.844 0 1.25.391 2.552 1.175 3.905.784 1.353 1.768 2.695 2.953 4.028a52.064 52.064 0 0 0 3.855 3.89c1.385 1.262 2.674 2.436 3.867 3.52a.416.416 0 0 0 .298.123c.113 0 .213-.04.298-.122a697.97 697.97 0 0 0 3.867-3.512 51.36 51.36 0 0 0 3.852-3.91c1.183-1.34 2.167-2.687 2.953-4.04.786-1.353 1.178-2.649 1.178-3.887 0-1.549-.505-2.829-1.517-3.84-1.01-1.01-2.285-1.515-3.823-1.515a5.81 5.81 0 0 0-3.293 1.008c-1.006.672-1.907 1.67-2.704 2.995a1.058 1.058 0 0 1-.37.363.971.971 0 0 1-.928 0 .868.868 0 0 1-.354-.363Z"/>
</svg>
