<svg xmlns="http://www.w3.org/2000/svg" viewBox="0 0 32 32">
  <path fill="currentColor" d="M15.545 30a.98.98 0 0 1-1-1.005v-6.503a.97.97 0 0 1 .291-.71.973.973 0 0 1 .72-.295c.286 0 .525.098.715.294.19.196.285.433.285.711v2.255h12.439a.97.97 0 0 1 .716.29.98.98 0 0 1 .289.72.98.98 0 0 1-1.005 1H16.556v2.238a.97.97 0 0 1-.29.716.98.98 0 0 1-.72.289Zm-12.54-3.243a.97.97 0 0 1-.716-.29.98.98 0 0 1-.289-.72.98.98 0 0 1 1.005-1H9.93a.97.97 0 0 1 .716.29.98.98 0 0 1 .29.72.979.979 0 0 1-1.005 1H3.004Zm6.92-6.509a.979.979 0 0 1-1-1.005v-2.238h-5.92a.97.97 0 0 1-.716-.29.98.98 0 0 1-.289-.72.98.98 0 0 1 1.005-1h5.92v-2.271a.97.97 0 0 1 .29-.716.98.98 0 0 1 .72-.289.98.98 0 0 1 1 1.005v6.52a.97.97 0 0 1-.29.715.98.98 0 0 1-.72.289Zm5.626-3.243a.969.969 0 0 1-.716-.29.98.98 0 0 1-.29-.72c0-.287.097-.525.29-.715a.979.979 0 0 1 .716-.285h13.444a.97.97 0 0 1 .716.29.98.98 0 0 1 .289.72.98.98 0 0 1-1.005 1H15.55Zm6.513-6.503a.98.98 0 0 1-1-1.005V3.006a.97.97 0 0 1 .291-.716.98.98 0 0 1 .72-.289.98.98 0 0 1 1 1.005v2.238h5.92a.97.97 0 0 1 .716.29.98.98 0 0 1 .289.72.98.98 0 0 1-1.005 1h-5.92v2.245a.97.97 0 0 1-.29.716.98.98 0 0 1-.72.288ZM3.005 7.253a.97.97 0 0 1-.716-.29.98.98 0 0 1-.289-.72.98.98 0 0 1 1.005-1H16.45a.97.97 0 0 1 .716.29.98.98 0 0 1 .29.72.979.979 0 0 1-1.005 1H3.004Z"/>
</svg>
