<svg xmlns="http://www.w3.org/2000/svg" viewBox="0 0 32 32">
  <path fill="currentColor" d="M16.007 17.044a.988.988 0 0 0 .734-.31c.202-.207.303-.454.303-.741a.995.995 0 0 0-.306-.734 1.011 1.011 0 0 0-.738-.303 1.01 1.01 0 0 0-.734.306 1 1 0 0 0-.31.738c0 .282.104.527.31.734.207.206.454.31.741.31Zm4.105 0a.988.988 0 0 0 .734-.31c.202-.207.303-.454.303-.741a.995.995 0 0 0-.306-.734 1.011 1.011 0 0 0-.738-.303 1.01 1.01 0 0 0-.734.306 1 1 0 0 0-.31.738c0 .282.104.527.31.734.207.206.454.31.741.31Zm-8.21 0a.988.988 0 0 0 .733-.31 1.02 1.02 0 0 0 .303-.741.995.995 0 0 0-.305-.734 1.011 1.011 0 0 0-.738-.303 1.01 1.01 0 0 0-.734.306 1 1 0 0 0-.31.738c0 .282.103.527.31.734.207.206.454.31.74.31Zm4.105 4.105a.988.988 0 0 0 .734-.31c.202-.207.303-.454.303-.74a.995.995 0 0 0-.306-.734 1.01 1.01 0 0 0-.738-.303 1.01 1.01 0 0 0-.734.305 1 1 0 0 0-.31.738c0 .283.104.527.31.734.207.207.454.31.741.31Zm4.105 0a.988.988 0 0 0 .734-.31c.202-.207.303-.454.303-.74a.995.995 0 0 0-.306-.734 1.01 1.01 0 0 0-.738-.303 1.01 1.01 0 0 0-.734.305 1 1 0 0 0-.31.738c0 .283.104.527.31.734.207.207.454.31.741.31Zm-8.21 0a.988.988 0 0 0 .733-.31 1.02 1.02 0 0 0 .303-.74.995.995 0 0 0-.305-.734 1.011 1.011 0 0 0-.738-.303 1.01 1.01 0 0 0-.734.305 1 1 0 0 0-.31.738c0 .283.103.527.31.734.207.207.454.31.74.31Zm4.105-8.21a.988.988 0 0 0 .734-.31c.202-.207.303-.454.303-.741a.994.994 0 0 0-.306-.734 1.01 1.01 0 0 0-.738-.303 1.01 1.01 0 0 0-.734.306 1 1 0 0 0-.31.738c0 .282.104.527.31.734.207.206.454.31.741.31Zm4.105 0a.988.988 0 0 0 .734-.31c.202-.207.303-.454.303-.741a.994.994 0 0 0-.306-.734 1.01 1.01 0 0 0-.738-.303 1.01 1.01 0 0 0-.734.306 1 1 0 0 0-.31.738c0 .282.104.527.31.734.207.206.454.31.741.31Zm-8.21 0a.988.988 0 0 0 .733-.31 1.02 1.02 0 0 0 .303-.741.994.994 0 0 0-.305-.734 1.011 1.011 0 0 0-.738-.303 1.01 1.01 0 0 0-.734.306 1 1 0 0 0-.31.738c0 .282.103.527.31.734.207.206.454.31.74.31ZM16.002 29c-1.798 0-3.488-.341-5.07-1.024a13.13 13.13 0 0 1-4.128-2.778 13.13 13.13 0 0 1-2.78-4.127C3.34 19.49 3 17.801 3 16.002c0-1.798.341-3.488 1.024-5.07a13.13 13.13 0 0 1 2.778-4.128 13.13 13.13 0 0 1 4.127-2.78C12.51 3.34 14.199 3 15.998 3c1.798 0 3.488.341 5.07 1.024a13.13 13.13 0 0 1 4.128 2.778 13.13 13.13 0 0 1 2.78 4.127C28.66 12.51 29 14.199 29 15.998c0 1.798-.341 3.488-1.024 5.07a13.13 13.13 0 0 1-2.778 4.128 13.131 13.131 0 0 1-4.127 2.78C19.49 28.66 17.801 29 16.002 29Zm-.008-1.72c3.124 0 5.786-1.098 7.986-3.294 2.2-2.196 3.3-4.856 3.3-7.98 0-3.124-1.098-5.786-3.294-7.986-2.196-2.2-4.856-3.3-7.98-3.3-3.124 0-5.786 1.097-7.986 3.294-2.2 2.196-3.3 4.856-3.3 7.98 0 3.124 1.097 5.786 3.294 7.986 2.196 2.2 4.856 3.3 7.98 3.3Z"/>
</svg>
