<svg xmlns="http://www.w3.org/2000/svg" viewBox="0 0 32 32">
  <path fill="currentColor" d="M15.984 24.275c.42 0 .776-.145 1.066-.435.29-.29.435-.647.435-1.068 0-.42-.145-.776-.436-1.066a1.453 1.453 0 0 0-1.067-.435c-.42 0-.776.146-1.066.436-.29.29-.435.646-.435 1.067 0 .42.145.776.436 1.066.29.29.646.435 1.067.435ZM16.003 30c-1.937 0-3.757-.367-5.46-1.102a14.14 14.14 0 0 1-4.447-2.992 14.138 14.138 0 0 1-2.993-4.444C2.368 19.758 2 17.939 2 16.002c0-1.936.367-3.756 1.102-5.46a14.14 14.14 0 0 1 2.992-4.446 14.14 14.14 0 0 1 4.445-2.993C12.242 2.368 14.06 2 15.997 2c1.937 0 3.757.367 5.46 1.102a14.14 14.14 0 0 1 4.447 2.992 14.14 14.14 0 0 1 2.993 4.445C29.632 12.242 30 14.06 30 15.997c0 1.937-.367 3.757-1.102 5.46a14.14 14.14 0 0 1-2.992 4.447 14.14 14.14 0 0 1-4.444 2.993c-1.704.735-3.523 1.103-5.46 1.103ZM16 27.79c3.291 0 6.079-1.143 8.363-3.427S27.79 19.291 27.79 16c0-3.291-1.143-6.079-3.427-8.363S19.291 4.21 16 4.21c-3.291 0-6.079 1.142-8.363 3.426C5.353 9.92 4.21 12.709 4.21 16c0 3.291 1.142 6.079 3.426 8.363C9.92 26.647 12.709 27.79 16 27.79Zm.12-18.098c.68 0 1.268.214 1.764.642.498.428.746.963.746 1.605 0 .54-.159 1.024-.476 1.45-.317.428-.68.826-1.088 1.194a9.372 9.372 0 0 0-1.413 1.566A3.444 3.444 0 0 0 15 18.052a.833.833 0 0 0 .283.674c.199.182.43.272.694.272a1 1 0 0 0 .72-.283 1.29 1.29 0 0 0 .377-.694 3.02 3.02 0 0 1 .628-1.353c.32-.396.667-.773 1.04-1.13a9.917 9.917 0 0 0 1.407-1.712c.4-.618.6-1.308.6-2.068 0-1.168-.46-2.127-1.38-2.878-.92-.751-1.994-1.127-3.222-1.127-.876 0-1.703.194-2.48.582a4.254 4.254 0 0 0-1.813 1.7 1.01 1.01 0 0 0-.13.721.828.828 0 0 0 .39.576c.268.15.545.192.828.128.284-.064.524-.226.723-.485.298-.387.66-.698 1.084-.932a2.79 2.79 0 0 1 1.37-.351Z"/>
</svg>
