<svg xmlns="http://www.w3.org/2000/svg" viewBox="0 0 32 32">
  <path fill="currentColor" d="M19.775 11.758c.554.554.983 1.26 1.285 2.115.303.856.388 1.698.256 2.525a.813.813 0 0 1-.838.838.823.823 0 0 1-.603-.238.807.807 0 0 1-.241-.6c.155-.686.137-1.334-.054-1.943a3.645 3.645 0 0 0-.953-1.558 3.596 3.596 0 0 0-1.579-.95 3.637 3.637 0 0 0-1.942-.036.858.858 0 0 1-.61-.226.81.81 0 0 1-.268-.594.83.83 0 0 1 .221-.617.782.782 0 0 1 .591-.258c.837-.15 1.69-.075 2.56.224.87.298 1.594.737 2.175 1.318Zm-3.643-4.026c-.63 0-1.254.032-1.873.096a10.44 10.44 0 0 0-1.84.36.948.948 0 0 1-.68-.064.902.902 0 0 1-.455-.477.766.766 0 0 1 .03-.652.767.767 0 0 1 .495-.415 13.577 13.577 0 0 1 2.084-.428 17.31 17.31 0 0 1 2.16-.134c2.933 0 5.62.78 8.06 2.342 2.44 1.562 4.321 3.647 5.641 6.255.076.155.136.308.18.461.044.153.066.317.066.49a2.075 2.075 0 0 1-.225.952 14.258 14.258 0 0 1-1.697 2.706 15.955 15.955 0 0 1-2.236 2.286.683.683 0 0 1-.593.172.868.868 0 0 1-.538-.333.772.772 0 0 1-.164-.594.88.88 0 0 1 .311-.552 14.306 14.306 0 0 0 2.036-2.103 11.118 11.118 0 0 0 1.495-2.534c-1.127-2.388-2.79-4.29-4.99-5.708-2.198-1.417-4.621-2.126-7.267-2.126Zm-.166 17.383c-2.898 0-5.544-.787-7.94-2.36-2.397-1.573-4.31-3.626-5.74-6.158a1.613 1.613 0 0 1-.221-.49 2.173 2.173 0 0 1 .007-1.076c.048-.166.117-.33.207-.495a21.383 21.383 0 0 1 1.872-2.884A14.343 14.343 0 0 1 6.55 9.213L3.1 5.766a.827.827 0 0 1-.243-.602.877.877 0 0 1 .246-.604.85.85 0 0 1 1.225 0l23.211 23.21a.841.841 0 0 1 0 1.17.776.776 0 0 1-.597.274.835.835 0 0 1-.61-.26l-4.901-4.837c-.872.355-1.766.61-2.68.764a16.66 16.66 0 0 1-2.785.233ZM7.733 10.42a12.33 12.33 0 0 0-2.465 2.279 11.742 11.742 0 0 0-1.74 2.867C4.69 17.988 6.4 19.9 8.658 21.3c2.257 1.4 4.737 2.1 7.437 2.1.693 0 1.378-.032 2.053-.099a6.387 6.387 0 0 0 1.954-.512l-2.188-2.202c-.31.154-.628.256-.954.303a6.883 6.883 0 0 1-.994.071c-1.499 0-2.772-.524-3.821-1.573-1.05-1.05-1.574-2.323-1.574-3.822 0-.336.028-.666.085-.989a4.22 4.22 0 0 1 .29-.959L7.732 10.42Z"/>
</svg>
