<svg xmlns="http://www.w3.org/2000/svg" viewBox="0 0 32 32">
  <path fill="currentColor" d="M5.594 27.906h6.186v-8.803c0-.37.125-.679.375-.929s.56-.374.928-.374h5.834c.369 0 .678.124.928.374s.375.56.375.929v8.803h6.186V12.55a.485.485 0 0 0-.056-.232.625.625 0 0 0-.152-.184l-9.893-7.438A.477.477 0 0 0 16 4.595a.477.477 0 0 0-.305.1l-9.893 7.439a.626.626 0 0 0-.152.184.485.485 0 0 0-.056.232v15.356Zm-2.094 0V12.554c0-.418.09-.81.272-1.175.181-.366.44-.67.775-.909l9.893-7.457c.45-.349.967-.523 1.553-.523s1.108.174 1.567.523l9.893 7.457c.335.24.594.543.775.909.181.366.272.757.272 1.175v15.352c0 .57-.206 1.062-.62 1.475-.413.413-.904.62-1.474.62H19.43c-.37 0-.68-.126-.93-.375a1.265 1.265 0 0 1-.374-.929v-8.804h-4.252v8.804c0 .37-.125.679-.375.929s-.56.374-.929.374H5.594a2.01 2.01 0 0 1-1.474-.62 2.014 2.014 0 0 1-.62-1.474Z"/>
</svg>
