<svg xmlns="http://www.w3.org/2000/svg" role="img">

  <defs>
    <symbol id="alert-cancel" viewBox="0 0 24 24">
      <svg width="32" height="32" viewBox="0 0 32 32" fill="none" xmlns="http://www.w3.org/2000/svg">
        <path
          d="M16 17.3035L20.7629 22.0668C20.9405 22.2444 21.1554 22.3355 21.4077 22.3402C21.6599 22.3448 21.8796 22.2537 22.0668 22.0668C22.2537 21.8796 22.3472 21.6623 22.3472 21.4147C22.3472 21.1673 22.2537 20.9501 22.0668 20.7629L17.3035 16L22.0668 11.2371C22.2444 11.0595 22.3355 10.8446 22.3402 10.5923C22.3448 10.3401 22.2537 10.1204 22.0668 9.93321C21.8796 9.7463 21.6623 9.65284 21.4147 9.65284C21.1673 9.65284 20.9501 9.7463 20.7629 9.93321L16 14.6965L11.2371 9.93321C11.0595 9.75563 10.8446 9.66451 10.5923 9.65984C10.3401 9.65517 10.1204 9.7463 9.93321 9.93321C9.7463 10.1204 9.65284 10.3377 9.65284 10.5853C9.65284 10.8327 9.7463 11.0499 9.93321 11.2371L14.6965 16L9.93321 20.7629C9.75563 20.9405 9.66451 21.1554 9.65984 21.4077C9.65518 21.6599 9.7463 21.8796 9.93321 22.0668C10.1204 22.2537 10.3377 22.3472 10.5853 22.3472C10.8326 22.3472 11.0499 22.2537 11.2371 22.0668L16 17.3035ZM16.0026 30C14.0762 30 12.2627 29.6326 10.5621 28.8977C8.86147 28.1628 7.37686 27.1614 6.10826 25.8936C4.83991 24.6255 3.83805 23.1415 3.10268 21.4416C2.36756 19.7417 2 17.9287 2 16.0026C2 14.0662 2.36744 12.246 3.10232 10.5422C3.83719 8.83839 4.83856 7.35635 6.10642 6.0961C7.37453 4.83586 8.85853 3.83805 10.5584 3.10268C12.2583 2.36756 14.0713 2 15.9974 2C17.9338 2 19.754 2.36744 21.4578 3.10232C23.1616 3.83719 24.6436 4.83451 25.9039 6.09426C27.1641 7.35402 28.1619 8.83544 28.8973 10.5385C29.6324 12.2416 30 14.0612 30 15.9974C30 17.9238 29.6326 19.7373 28.8977 21.4379C28.1628 23.1385 27.1655 24.6231 25.9057 25.8917C24.646 27.1601 23.1646 28.1619 21.4615 28.8973C19.7584 29.6324 17.9388 30 16.0026 30ZM16 28.1483C19.3843 28.1483 22.2552 26.9672 24.6126 24.6048C26.9697 22.2425 28.1483 19.3742 28.1483 16C28.1483 12.6157 26.9697 9.74482 24.6126 7.38742C22.2552 5.03026 19.3843 3.85168 16 3.85168C12.6258 3.85168 9.75747 5.03026 7.39516 7.38742C5.03284 9.74482 3.85168 12.6157 3.85168 16C3.85168 19.3742 5.03284 22.2425 7.39516 24.6048C9.75747 26.9672 12.6258 28.1483 16 28.1483Z"
          fill="#131212" />
      </svg>
    </symbol>
    <symbol id="alert-danger" viewBox="0 0 24 24">
      <svg width="32" height="32" viewBox="0 0 32 32" fill="none" xmlns="http://www.w3.org/2000/svg">
        <path
          d="M29.8 10.2C29.7 9.9 29.5 9.6 29.2 9.4L22.6 2.8C22.4 2.6 22.1 2.4 21.8 2.2C21.5 2.1 21.1 2 20.8 2H11.3C11 2 10.6 2.1 10.3 2.2C9.9 2.3 9.6 2.5 9.4 2.8L2.8 9.4C2.6 9.6 2.4 9.9 2.2 10.2C2.1 10.5 2 10.9 2 11.2V20.7C2 21 2.1 21.4 2.2 21.7C2.3 22 2.5 22.3 2.8 22.5L9.4 29.1C9.6 29.3 9.9 29.5 10.2 29.7C10.5 29.8 10.9 29.9 11.2 29.9H20.7C21 29.9 21.4 29.8 21.7 29.7C22 29.6 22.3 29.4 22.5 29.1L29.1 22.5C29.3 22.3 29.5 22 29.7 21.7C29.8 21.4 29.9 21 29.9 20.7V11.2C30 10.9 29.9 10.6 29.8 10.2ZM27.9 21L20.9 28H11L4 21V11L11 4H21L28 11V21H27.9ZM15.3 17.7C15.1 17.5 15 17.3 15 17V9C15 8.7 15.1 8.5 15.3 8.3C15.5 8.1 15.7 8 16 8C16.3 8 16.5 8.1 16.7 8.3C16.9 8.5 17 8.7 17 9V17C17 17.3 16.9 17.5 16.7 17.7C16.5 17.9 16.3 18 16 18C15.7 18 15.5 17.9 15.3 17.7ZM17 20.9C17.3 21.2 17.4 21.5 17.4 21.9C17.4 22.3 17.3 22.6 17 22.9C16.7 23.2 16.4 23.3 16 23.3C15.6 23.3 15.3 23.2 15 22.9C14.7 22.6 14.6 22.3 14.6 21.9C14.6 21.5 14.7 21.2 15 20.9C15.3 20.6 15.6 20.5 16 20.5C16.4 20.5 16.7 20.6 17 20.9Z"
          fill="#131212" />
      </svg>
    </symbol>
    <symbol id="alert-error" viewBox="0 0 24 24">
      <svg width="32" height="32" viewBox="0 0 32 32" fill="none" xmlns="http://www.w3.org/2000/svg">
        <path fill-rule="evenodd" clip-rule="evenodd"
          d="M16 20.5C15.6 20.5 15.3 20.6 15 20.9C14.7 21.2 14.6 21.5 14.6 21.9C14.6 22.3 14.7 22.6 15 22.9C15.3 23.2 15.6 23.3 16 23.3C16.4 23.3 16.7 23.2 17 22.9C17.3 22.6 17.4 22.3 17.4 21.9C17.4 21.5 17.3 21.2 17 20.9C16.7 20.6 16.4 20.5 16 20.5ZM16 18C16.3 18 16.5 17.9 16.7 17.7C16.9 17.5 17 17.3 17 17V9C17 8.7 16.9 8.5 16.7 8.3C16.5 8.1 16.3 8 16 8C15.7 8 15.5 8.1 15.3 8.3C15.1 8.5 15 8.7 15 9V17C15 17.3 15.1 17.5 15.3 17.7C15.5 17.9 15.7 18 16 18ZM28.9 10.5C28.2 8.8 27.2 7.3 25.9 6.1C24.6 4.8 23.2 3.8 21.5 3.1C19.8 2.4 17.9 2 16 2C14.1 2 12.2 2.4 10.5 3.1C8.8 3.8 7.3 4.8 6.1 6.1C4.8 7.4 3.8 8.8 3.1 10.5C2.4 12.2 2 14.1 2 16C2 17.9 2.4 19.8 3.1 21.5C3.8 23.2 4.8 24.7 6.1 25.9C7.4 27.2 8.9 28.2 10.5 28.9C12.2 29.6 14 30 16 30C17.9 30 19.7 29.6 21.5 28.9C23.2 28.2 24.7 27.2 25.9 25.9C27.2 24.6 28.2 23.2 28.9 21.5C29.6 19.8 30 18 30 16C30 14.1 29.6 12.2 28.9 10.5ZM24.6 24.6C22.2 27 19.4 28.1 16 28.1C12.6 28.1 9.7 26.9 7.4 24.6C5 22.2 3.9 19.4 3.9 16C3.9 12.6 5.1 9.7 7.4 7.4C9.7 5.1 12.6 3.9 16 3.9C19.4 3.9 22.3 5.1 24.6 7.4C27 9.8 28.1 12.6 28.1 16C28.1 19.4 27 22.2 24.6 24.6Z"
          fill="#131212" />
      </svg>
    </symbol>
    <symbol id="alert-information" viewBox="0 0 24 24">
      <svg width="32" height="32" viewBox="0 0 32 32" fill="none" xmlns="http://www.w3.org/2000/svg">
        <path
          d="M28.9 10.5C28.2 8.8 27.2 7.3 25.9 6.1C24.6 4.8 23.2 3.8 21.5 3.1C19.8 2.4 17.9 2 16 2C14.1 2 12.2 2.4 10.5 3.1C8.8 3.8 7.3 4.8 6.1 6.1C4.8 7.4 3.8 8.8 3.1 10.5C2.4 12.2 2 14.1 2 16C2 17.9 2.4 19.8 3.1 21.5C3.8 23.2 4.8 24.7 6.1 25.9C7.4 27.2 8.8 28.2 10.5 28.9C12.2 29.6 14 30 16 30C17.9 30 19.7 29.6 21.5 28.9C23.2 28.2 24.7 27.2 25.9 25.9C27.2 24.6 28.2 23.2 28.9 21.5C29.6 19.8 30 18 30 16C30 14.1 29.6 12.2 28.9 10.5ZM24.6 24.6C22.2 27 19.4 28.1 16 28.1C12.6 28.1 9.7 26.9 7.4 24.6C5 22.2 3.9 19.4 3.9 16C3.9 12.6 5.1 9.7 7.4 7.4C9.7 5.1 12.6 3.9 16 3.9C19.4 3.9 22.3 5.1 24.6 7.4C27 9.8 28.1 12.6 28.1 16C28.1 19.4 27 22.2 24.6 24.6ZM16 9C15.6 9 15.3 9.1 15.1 9.4C14.9 9.6 14.7 9.9 14.7 10.3C14.7 10.6 14.8 10.9 15.1 11.2C15.3 11.4 15.6 11.6 16 11.6C16.4 11.6 16.7 11.5 16.9 11.2C17.1 11 17.3 10.7 17.3 10.3C17.3 9.9 17.2 9.6 16.9 9.4C16.7 9.1 16.4 9 16 9ZM16 14C15.7 14 15.5 14.1 15.3 14.3C15.1 14.5 15 14.7 15 15V22C15 22.3 15.1 22.5 15.3 22.7C15.5 22.9 15.7 23 16 23C16.3 23 16.5 22.9 16.7 22.7C16.9 22.5 17 22.3 17 22V15C17 14.7 16.9 14.5 16.7 14.3C16.5 14.1 16.3 14 16 14Z"
          fill="#131212" />
      </svg>
    </symbol>
    <symbol id="alert-maintenance" viewBox="0 0 24 24">
      <svg width="32" height="32" viewBox="0 0 32 32" fill="none" xmlns="http://www.w3.org/2000/svg">
        <path
          d="M21.8977 23.5007L23.4016 22.0517C23.5494 21.9046 23.6234 21.7355 23.6234 21.5444C23.6234 21.3535 23.5494 21.1841 23.4016 21.0359L17.8137 15.4312C17.9503 15.1151 18.0553 14.7938 18.1287 14.4674C18.2022 14.1407 18.2389 13.7913 18.2389 13.4192C18.2389 12.0597 17.7556 10.8982 16.7892 9.93468C15.8227 8.97089 14.6577 8.489 13.2943 8.489C13.0448 8.489 12.8109 8.50374 12.5928 8.53321C12.3747 8.56293 12.1553 8.61746 11.9345 8.69679C11.7358 8.78619 11.6026 8.92791 11.5351 9.12195C11.4673 9.31598 11.5018 9.48447 11.6386 9.62742L14.2364 12.2148L12.0995 14.3064L9.51284 11.7492C9.37997 11.6163 9.2181 11.5669 9.02726 11.6011C8.83642 11.6354 8.70453 11.7483 8.63158 11.9396C8.54267 12.1735 8.48016 12.4165 8.44405 12.6687C8.40795 12.921 8.38989 13.1762 8.38989 13.4343C8.38989 14.7874 8.86651 15.9381 9.81974 16.8864C10.773 17.8347 11.9261 18.3089 13.2792 18.3089C13.6422 18.3089 13.9903 18.2723 14.3233 18.1991C14.6564 18.1262 14.9873 18.0229 15.3162 17.8893L20.8963 23.4867C21.0341 23.6245 21.201 23.6957 21.397 23.7004C21.5928 23.7053 21.7596 23.6387 21.8977 23.5007ZM16.0026 30C14.0762 30 12.2627 29.6326 10.5621 28.8977C8.86147 28.1628 7.37686 27.1614 6.10826 25.8936C4.83991 24.6255 3.83805 23.1415 3.10268 21.4416C2.36756 19.7417 2 17.9287 2 16.0026C2 14.0662 2.36744 12.246 3.10232 10.5422C3.83719 8.83839 4.83856 7.35635 6.10642 6.0961C7.37453 4.83586 8.85853 3.83805 10.5584 3.10268C12.2583 2.36756 14.0713 2 15.9974 2C17.9338 2 19.754 2.36744 21.4578 3.10232C23.1616 3.83719 24.6436 4.83451 25.9039 6.09426C27.1641 7.35402 28.1619 8.83544 28.8973 10.5385C29.6324 12.2416 30 14.0612 30 15.9974C30 17.9238 29.6326 19.7373 28.8977 21.4379C28.1628 23.1385 27.1655 24.6231 25.9057 25.8917C24.646 27.1601 23.1646 28.1619 21.4615 28.8973C19.7584 29.6324 17.9388 30 16.0026 30ZM16 28.1483C19.3843 28.1483 22.2552 26.9672 24.6126 24.6048C26.9697 22.2425 28.1483 19.3742 28.1483 16C28.1483 12.6157 26.9697 9.74482 24.6126 7.38742C22.2552 5.03026 19.3843 3.85168 16 3.85168C12.6258 3.85168 9.75747 5.03026 7.39516 7.38742C5.03284 9.74482 3.85168 12.6157 3.85168 16C3.85168 19.3742 5.03284 22.2425 7.39516 24.6048C9.75747 26.9672 12.6258 28.1483 16 28.1483Z"
          fill="#131212" />
      </svg>
    </symbol>
    <symbol id="alert-success" viewBox="0 0 24 24">
      <svg width="32" height="32" viewBox="0 0 32 32" fill="none" xmlns="http://www.w3.org/2000/svg">
        <path
          d="M13.8536 19.5066L10.2206 15.8641C10.0366 15.6865 9.81347 15.5954 9.55116 15.5907C9.28884 15.5858 9.05919 15.6819 8.86221 15.8792C8.67505 16.0661 8.58147 16.2899 8.58147 16.5508C8.58147 16.8114 8.67505 17.0353 8.86221 17.2224L13.046 21.4213C13.2759 21.6576 13.5451 21.7757 13.8536 21.7757C14.1623 21.7757 14.4316 21.6576 14.6615 21.4213L23.0943 12.9977C23.282 12.8037 23.3782 12.5756 23.3832 12.3136C23.3878 12.0513 23.2915 11.8215 23.0943 11.6243C22.8973 11.4373 22.666 11.3464 22.4002 11.3513C22.1345 11.3564 21.908 11.4525 21.7208 11.6394L13.8536 19.5066ZM16.0026 30C14.0762 30 12.2627 29.6326 10.5621 28.8977C8.86147 28.1628 7.37686 27.1614 6.10826 25.8936C4.83991 24.6255 3.83805 23.1415 3.10268 21.4416C2.36756 19.7417 2 17.9287 2 16.0026C2 14.0662 2.36744 12.246 3.10232 10.5422C3.83719 8.83839 4.83856 7.35635 6.10642 6.0961C7.37453 4.83586 8.85853 3.83805 10.5584 3.10268C12.2583 2.36756 14.0713 2 15.9974 2C17.9338 2 19.754 2.36744 21.4578 3.10232C23.1616 3.83719 24.6436 4.83451 25.9039 6.09426C27.1641 7.35402 28.1619 8.83544 28.8973 10.5385C29.6324 12.2416 30 14.0612 30 15.9974C30 17.9238 29.6326 19.7373 28.8977 21.4379C28.1628 23.1385 27.1655 24.6231 25.9057 25.8917C24.646 27.1601 23.1646 28.1619 21.4615 28.8973C19.7584 29.6324 17.9388 30 16.0026 30ZM16 28.1483C19.3843 28.1483 22.2552 26.9672 24.6126 24.6048C26.9697 22.2425 28.1483 19.3742 28.1483 16C28.1483 12.6157 26.9697 9.74482 24.6126 7.38742C22.2552 5.03026 19.3843 3.85168 16 3.85168C12.6258 3.85168 9.75747 5.03026 7.39516 7.38742C5.03284 9.74482 3.85168 12.6157 3.85168 16C3.85168 19.3742 5.03284 22.2425 7.39516 24.6048C9.75747 26.9672 12.6258 28.1483 16 28.1483Z"
          fill="#131212" />
      </svg>
    </symbol>
    <symbol id="alert-warning" viewBox="0 0 24 24">
      <svg width="32" height="32" viewBox="0 0 32 32" fill="none" xmlns="http://www.w3.org/2000/svg">
        <path
          d="M16 22.5C15.6 22.5 15.3 22.6 15.1 22.9C14.9 23.1 14.7 23.4 14.7 23.8C14.7 24.2 14.8 24.5 15.1 24.7C15.3 24.9 15.6 25.1 16 25.1C16.4 25.1 16.7 25 16.9 24.7C17.1 24.5 17.3 24.2 17.3 23.8C17.3 23.4 17.2 23.1 16.9 22.9C16.6 22.6 16.4 22.5 16 22.5ZM29.8 26.7L17 4.6C16.9 4.4 16.7 4.3 16.6 4.2C16.4 4 16.2 4 16 4C15.8 4 15.6 4 15.4 4.1C15.2 4.2 15.1 4.3 15 4.5L2.2 26.7C2 26.9 2 27.1 2 27.3C2 27.5 2.1 27.7 2.2 27.8C2.3 28 2.4 28.1 2.6 28.2C2.8 28.3 3 28.4 3.2 28.4H28.9C29.1 28.4 29.3 28.3 29.5 28.2C29.7 28.1 29.8 28 29.9 27.8C30 27.6 30.1 27.5 30.1 27.3C30 27.1 30 26.9 29.8 26.7ZM4.4 26.6L16 6.5L27.6 26.6H4.4ZM15.3 12.7C15.1 12.9 15 13.1 15 13.4V19.4C15 19.7 15.1 19.9 15.3 20.1C15.5 20.3 15.7 20.4 16 20.4C16.3 20.4 16.5 20.3 16.7 20.1C16.9 19.9 17 19.7 17 19.4V13.4C17 13.1 16.9 12.9 16.7 12.7C16.5 12.5 16.3 12.4 16 12.4C15.7 12.5 15.5 12.5 15.3 12.7Z"
          fill="#131212" />
      </svg>
    </symbol>
    <symbol id="arrow-down" viewBox="0 0 24 24">
      <svg width="32" height="32" viewBox="0 0 32 32" fill="none" xmlns="http://www.w3.org/2000/svg">
        <path
          d="M15.0409 23.8879V5.94147C15.0409 5.66998 15.1313 5.4452 15.3119 5.26712C15.4923 5.08904 15.7198 5 15.9946 5C16.2695 5 16.4972 5.08904 16.6776 5.26712C16.858 5.4452 16.9482 5.66998 16.9482 5.94147V23.8879L25.3644 15.5686C25.5539 15.3893 25.7756 15.297 26.0296 15.2917C26.2836 15.2862 26.5081 15.3812 26.7032 15.5765C26.8985 15.7718 26.9974 15.9927 26.9999 16.2392C27.0027 16.4857 26.9052 16.7066 26.7074 16.9019L16.8245 26.6591C16.7005 26.7812 16.5714 26.8686 16.437 26.9213C16.3024 26.9738 16.1546 27 15.9934 27C15.832 27 15.6845 26.9738 15.551 26.9213C15.4174 26.8686 15.2886 26.7812 15.1647 26.6591L5.28174 16.9019C5.09884 16.7214 5.00498 16.5048 5.00018 16.2523C4.99537 15.9996 5.08922 15.7743 5.28174 15.5765C5.48236 15.3812 5.70814 15.2835 5.9591 15.2835C6.21005 15.2835 6.43128 15.3812 6.62279 15.5765L15.0409 23.8879Z"
          fill="#131212" />
      </svg>
    </symbol>
    <symbol id="arrow-left" viewBox="0 0 24 24">
      <svg width="32" height="32" viewBox="0 0 32 32" fill="none" xmlns="http://www.w3.org/2000/svg">
        <path
          d="M8.11214 16.9482L16.4314 25.3644C16.6107 25.5539 16.703 25.7756 16.7083 26.0296C16.7138 26.2836 16.6188 26.5081 16.4235 26.7032C16.2282 26.8985 16.0073 26.9974 15.7608 26.9999C15.5143 27.0027 15.2934 26.9052 15.0981 26.7074L5.34092 16.8245C5.21879 16.7005 5.13137 16.5714 5.07867 16.437C5.02622 16.3024 5 16.1546 5 15.9934C5 15.832 5.02622 15.6845 5.07867 15.551C5.13137 15.4174 5.21879 15.2886 5.34092 15.1647L15.0981 5.28174C15.2786 5.09884 15.4952 5.00498 15.7477 5.00018C16.0004 4.99537 16.2257 5.08922 16.4235 5.28174C16.6188 5.48235 16.7165 5.70814 16.7165 5.95909C16.7165 6.21005 16.6188 6.43128 16.4235 6.62279L8.11214 15.0409H26.0585C26.33 15.0409 26.5548 15.1313 26.7329 15.3119C26.911 15.4923 27 15.7198 27 15.9946C27 16.2695 26.911 16.4972 26.7329 16.6776C26.5548 16.858 26.33 16.9482 26.0585 16.9482H8.11214Z"
          fill="#131212" />
      </svg>
    </symbol>
    <symbol id="arrow-right" viewBox="0 0 24 24">
      <svg width="32" height="32" viewBox="0 0 32 32" fill="none" xmlns="http://www.w3.org/2000/svg">
        <path
          d="M23.8795 16.9591H5.94105C5.66969 16.9591 5.445 16.8687 5.267 16.6881C5.089 16.5077 5 16.2802 5 16.0054C5 15.7305 5.089 15.5028 5.267 15.3224C5.445 15.142 5.66969 15.0518 5.94105 15.0518H23.8795L15.5639 6.63557C15.3847 6.44609 15.2924 6.22435 15.2872 5.97036C15.2817 5.71637 15.3766 5.49185 15.5718 5.2968C15.767 5.1015 15.9878 5.00259 16.2342 5.00006C16.4806 4.99728 16.7015 5.0948 16.8967 5.29263L26.6495 15.1755C26.7716 15.2995 26.8606 15.4286 26.9165 15.563C26.9722 15.6976 27 15.8454 27 16.0066C27 16.168 26.9722 16.3155 26.9165 16.449C26.8606 16.5826 26.7716 16.7114 26.6495 16.8353L16.8967 26.7183C16.7162 26.9012 16.4997 26.995 16.2473 26.9998C15.9947 27.0046 15.7695 26.9108 15.5718 26.7183C15.3766 26.5176 15.2789 26.2919 15.2789 26.0409C15.2789 25.7899 15.3766 25.5687 15.5718 25.3772L23.8795 16.9591Z"
          fill="#131212" />
      </svg>
    </symbol>
    <symbol id="arrow-up" viewBox="0 0 24 24">
      <svg xmlns="http://www.w3.org/2000/svg" viewBox="0 0 32 32">
        <path
          d="M14.5818 7.32885L5.72181 16.1997C5.52234 16.3909 5.28891 16.4893 5.02153 16.4949C4.75414 16.5007 4.51779 16.3995 4.31245 16.1913C4.10686 15.983 4.00272 15.7475 4.00006 15.4846C3.99713 15.2217 4.0998 14.9862 4.30806 14.7779L14.7121 4.37391C14.8426 4.24368 14.9785 4.14874 15.1199 4.08908C15.2616 4.02969 15.4173 4 15.5869 4C15.7568 4 15.9121 4.02969 16.0527 4.08908C16.1933 4.14874 16.3289 4.24368 16.4594 4.37391L26.8634 14.7779C27.056 14.9705 27.1548 15.2014 27.1598 15.4706C27.1649 15.7401 27.0661 15.9804 26.8634 16.1913C26.6522 16.3995 26.4145 16.5037 26.1503 16.5037C25.8861 16.5037 25.6532 16.3995 25.4516 16.1913L16.5896 7.32885V26.4651C16.5896 26.7546 16.4945 26.9942 16.3044 27.1841C16.1145 27.374 15.875 27.469 15.5857 27.469C15.2962 27.469 15.0566 27.374 14.8667 27.1841C14.6768 26.9942 14.5818 26.7546 14.5818 26.4651V7.32885Z"
          fill="currentColor" />
      </svg>
    </symbol>
    <symbol id="chevron-down" viewBox="0 0 24 24">
      <svg width="32" height="32" viewBox="0 0 32 32" fill="none" xmlns="http://www.w3.org/2000/svg">
        <path
          d="M15.9979 20.8294L27.1443 9.32548C27.3572 9.10555 27.6131 8.99708 27.9122 9.00006C28.2114 9.00279 28.4675 9.11413 28.6804 9.33406C28.8935 9.55374 29 9.81803 29 10.1269C29 10.4356 28.8935 10.6999 28.6804 10.9198L17.6397 22.3063C17.4064 22.5471 17.1463 22.7229 16.8593 22.8337C16.572 22.9446 16.2849 23 15.9979 23C15.7108 23 15.4237 22.9446 15.1365 22.8337C14.8495 22.7229 14.5893 22.5471 14.356 22.3063L3.31536 10.9109C3.10227 10.6912 2.99717 10.4284 3.00006 10.1225C3.00271 9.81654 3.11058 9.55374 3.32366 9.33406C3.53651 9.11412 3.79258 9.00416 4.09187 9.00416C4.39092 9.00416 4.64699 9.11412 4.86008 9.33406L15.9979 20.8294Z"
          fill="#131212" />
      </svg>
    </symbol>
    <symbol id="chevron-left" viewBox="0 0 24 24">
      <svg width="32" height="32" viewBox="0 0 32 32" fill="none" xmlns="http://www.w3.org/2000/svg">
        <path
          d="M11.1706 15.9979L22.6745 27.1443C22.8944 27.3572 23.0029 27.6131 22.9999 27.9122C22.9972 28.2114 22.8859 28.4675 22.6659 28.6804C22.4463 28.8935 22.182 29 21.8731 29C21.5644 29 21.3001 28.8935 21.0802 28.6804L9.69372 17.6397C9.45291 17.4064 9.27709 17.1463 9.16626 16.8593C9.05542 16.572 9 16.2849 9 15.9979C9 15.7109 9.05542 15.4237 9.16626 15.1365C9.27709 14.8495 9.45291 14.5893 9.69372 14.356L21.0891 3.31536C21.3088 3.10227 21.5716 2.99717 21.8775 3.00006C22.1835 3.00271 22.4463 3.11057 22.6659 3.32367C22.8859 3.53652 22.9958 3.79259 22.9958 4.09188C22.9958 4.39092 22.8859 4.64699 22.6659 4.86008L11.1706 15.9979Z"
          fill="#131212" />
      </svg>
    </symbol>
    <symbol id="chevron-right" viewBox="0 0 24 24">
      <svg width="32" height="32" viewBox="0 0 32 32" fill="none" xmlns="http://www.w3.org/2000/svg">
        <path
          d="M20.8294 16.0021L9.32548 4.85569C9.10555 4.64284 8.99708 4.38689 9.00006 4.08785C9.00279 3.78856 9.11413 3.53248 9.33406 3.31964C9.55374 3.10654 9.81803 3 10.1269 3C10.4356 3 10.6999 3.10654 10.9198 3.31964L22.3063 14.3603C22.5471 14.5936 22.7229 14.8537 22.8337 15.1407C22.9446 15.428 23 15.7151 23 16.0021C23 16.2891 22.9446 16.5763 22.8337 16.8635C22.7229 17.1505 22.5471 17.4107 22.3063 17.644L10.9109 28.6846C10.6912 28.8977 10.4284 29.0028 10.1225 28.9999C9.81654 28.9973 9.55374 28.8894 9.33406 28.6763C9.11413 28.4635 9.00416 28.2074 9.00416 27.9081C9.00416 27.6091 9.11413 27.353 9.33406 27.1399L20.8294 16.0021Z"
          fill="#131212" />
      </svg>
    </symbol>
    <symbol id="chevron-up" viewBox="0 0 24 24">
      <svg width="32" height="32" viewBox="0 0 32 32" fill="none" xmlns="http://www.w3.org/2000/svg">
        <path
          d="M16.0021 11.1706L4.85569 22.6745C4.64284 22.8944 4.38689 23.0029 4.08785 22.9999C3.78856 22.9972 3.53248 22.8859 3.31964 22.6659C3.10654 22.4463 3 22.182 3 21.8731C3 21.5644 3.10654 21.3001 3.31963 21.0802L14.3603 9.69372C14.5936 9.45291 14.8537 9.27709 15.1407 9.16625C15.428 9.05542 15.7151 9 16.0021 9C16.2891 9 16.5763 9.05542 16.8635 9.16625C17.1505 9.27709 17.4107 9.45291 17.644 9.69372L28.6846 21.0891C28.8977 21.3088 29.0028 21.5716 28.9999 21.8775C28.9973 22.1835 28.8894 22.4463 28.6763 22.6659C28.4635 22.8859 28.2074 22.9958 27.9081 22.9958C27.6091 22.9958 27.353 22.8859 27.1399 22.6659L16.0021 11.1706Z"
          fill="#131212" />
      </svg>
    </symbol>
    <symbol id="status-cancel" viewBox="0 0 24 24">
      <svg width="32" height="32" viewBox="0 0 32 32" fill="none" xmlns="http://www.w3.org/2000/svg">
        <path
          d="M16.0026 30C14.0662 30 12.246 29.6326 10.5422 28.8977C8.83839 28.1628 7.35635 27.1655 6.09611 25.9057C4.83586 24.646 3.83805 23.1646 3.10268 21.4615C2.36756 19.7584 2 17.9388 2 16.0026C2 14.0662 2.36744 12.246 3.10232 10.5422C3.83719 8.83839 4.83451 7.35635 6.09426 6.09611C7.35402 4.83586 8.83544 3.83805 10.5385 3.10268C12.2416 2.36756 14.0612 2 15.9974 2C17.9338 2 19.754 2.36744 21.4578 3.10232C23.1616 3.83719 24.6437 4.83451 25.9039 6.09426C27.1641 7.35402 28.1619 8.83544 28.8973 10.5385C29.6324 12.2416 30 14.0612 30 15.9974C30 17.9338 29.6326 19.754 28.8977 21.4578C28.1628 23.1616 27.1655 24.6437 25.9057 25.9039C24.646 27.1641 23.1646 28.1619 21.4615 28.8973C19.7584 29.6324 17.9388 30 16.0026 30Z"
          fill="#E22339" />
        <path fill-rule="evenodd" clip-rule="evenodd"
          d="M20.1902 9.48062C20.5076 9.16358 20.9061 9 21.3546 9C21.8031 9 22.2015 9.16358 22.5189 9.48062C22.8397 9.80178 22.9997 10.2071 22.9929 10.6606C22.9859 11.1011 22.8314 11.4974 22.5194 11.8098L18.3289 15.9999L22.5262 20.1969C22.847 20.518 23 20.9114 23 21.3544C23 21.79 22.8522 22.1997 22.5264 22.5259C22.2053 22.8466 21.7999 23.0066 21.3464 22.9998C20.9059 22.9928 20.5097 22.8384 20.1973 22.5263L16 18.3288L11.8101 22.519C11.4927 22.836 11.094 22.9999 10.6454 22.9999C10.1969 22.9999 9.79847 22.8363 9.48106 22.5192C9.16027 22.1981 9.00027 21.7927 9.00713 21.3392C9.01413 20.8987 9.16856 20.5025 9.48061 20.1901L13.6711 15.9999L9.48086 11.81C9.16384 11.4926 9 11.094 9 10.6454C9 10.1969 9.16359 9.79846 9.48063 9.48106C9.80179 9.16027 10.2071 9.00027 10.6606 9.00713C11.1011 9.01413 11.4974 9.16856 11.8098 9.48061L16 13.6711L20.1902 9.48062Z"
          fill="white" />
      </svg>
    </symbol>
    <symbol id="status-danger" viewBox="0 0 24 24">
        <path
          d="M11.4043 30C11.0024 30 10.6195 29.9229 10.2555 29.7686C9.89147 29.6146 9.57441 29.4024 9.30429 29.132L2.868 22.6957C2.59761 22.4256 2.38541 22.1085 2.23141 21.7445C2.07714 21.3805 2 20.9976 2 20.5957V11.4043C2 11.0024 2.07714 10.6195 2.23141 10.2555C2.38541 9.89147 2.59761 9.57441 2.868 9.30429L9.30429 2.868C9.57441 2.59761 9.89147 2.38541 10.2555 2.23141C10.6195 2.07714 11.0024 2 11.4043 2H20.5957C20.9976 2 21.3805 2.07714 21.7445 2.23141C22.1085 2.38541 22.4256 2.59761 22.6957 2.868L29.132 9.30429C29.4024 9.57441 29.6146 9.89147 29.7686 10.2555C29.9229 10.6195 30 11.0024 30 11.4043V20.5957C30 20.9976 29.9229 21.3805 29.7686 21.7445C29.6146 22.1085 29.4024 22.4256 29.132 22.6957L22.6957 29.132C22.4256 29.4024 22.1085 29.6146 21.7445 29.7686C21.3805 29.9229 20.9976 30 20.5957 30H11.4043Z"
          fill="#E22339" />
        <path
          d="M14.931 7.43051C15.218 7.14318 15.5742 6.99951 15.9995 6.99951C16.4245 6.99951 16.7808 7.14318 17.0685 7.43051C17.3562 7.71818 17.5 8.07451 17.5 8.49951L17.4995 16.5C17.4995 16.925 17.3558 17.2812 17.0685 17.5685C16.7815 17.8562 16.4253 18 16 18C15.575 18 15.2187 17.8562 14.931 17.5685C14.6433 17.2812 14.4995 16.925 14.4995 16.5L14.5 8.49951C14.5 8.07451 14.6437 7.71818 14.931 7.43051Z"
          fill="white" />
        <path
          d="M16 21.5006C15.5042 21.5006 15.0886 21.6683 14.7532 22.0037C14.4177 22.3392 14.25 22.7548 14.25 23.2505C14.25 23.7463 14.4177 24.1619 14.7532 24.4974C15.0886 24.8325 15.5042 25 16 25C16.4958 25 16.9114 24.8325 17.2468 24.4974C17.5823 24.1619 17.75 23.7463 17.75 23.2505C17.75 22.7548 17.5823 22.3392 17.2468 22.0037C16.9114 21.6683 16.4958 21.5006 16 21.5006Z"
          fill="white" />
    </symbol>
    <symbol id="status-error" viewBox="0 0 24 24">
      <svg width="32" height="32" viewBox="0 0 32 32" fill="none" xmlns="http://www.w3.org/2000/svg">
        <path
          d="M16.0026 30C14.0662 30 12.246 29.6326 10.5422 28.8977C8.83839 28.1628 7.35635 27.1655 6.09611 25.9057C4.83586 24.646 3.83805 23.1646 3.10268 21.4615C2.36756 19.7584 2 17.9388 2 16.0026C2 14.0662 2.36744 12.246 3.10232 10.5422C3.83719 8.83839 4.83451 7.35635 6.09426 6.09611C7.35402 4.83586 8.83544 3.83805 10.5385 3.10268C12.2416 2.36756 14.0612 2 15.9974 2C17.9338 2 19.754 2.36744 21.4578 3.10232C23.1616 3.83719 24.6437 4.83451 25.9039 6.09426C27.1641 7.35402 28.1619 8.83544 28.8973 10.5385C29.6324 12.2416 30 14.0612 30 15.9974C30 17.9338 29.6326 19.754 28.8977 21.4578C28.1628 23.1616 27.1655 24.6437 25.9057 25.9039C24.646 27.1641 23.1646 28.1619 21.4615 28.8973C19.7584 29.6324 17.9388 30 16.0026 30Z"
          fill="#E22339" />
        <path
          d="M14.931 7.43051C15.218 7.14318 15.5742 6.99951 15.9995 6.99951C16.4245 6.99951 16.7808 7.14318 17.0685 7.43051C17.3562 7.71818 17.5 8.07451 17.5 8.49951L17.4995 16.5C17.4995 16.925 17.3558 17.2812 17.0685 17.5685C16.7815 17.8562 16.4253 18 16 18C15.575 18 15.2187 17.8562 14.931 17.5685C14.6433 17.2812 14.4995 16.925 14.4995 16.5L14.5 8.49951C14.5 8.07451 14.6437 7.71818 14.931 7.43051Z"
          fill="white" />
        <path
          d="M16 21.5006C15.5042 21.5006 15.0886 21.6683 14.7532 22.0037C14.4177 22.3392 14.25 22.7548 14.25 23.2505C14.25 23.7463 14.4177 24.1619 14.7532 24.4974C15.0886 24.8325 15.5042 25 16 25C16.4958 25 16.9114 24.8325 17.2468 24.4974C17.5823 24.1619 17.75 23.7463 17.75 23.2505C17.75 22.7548 17.5823 22.3392 17.2468 22.0037C16.9114 21.6683 16.4958 21.5006 16 21.5006Z"
          fill="white" />
      </svg>
    </symbol>
    <symbol id="status-information" viewBox="0 0 24 24">
      <svg width="32" height="32" viewBox="0 0 32 32" fill="none" xmlns="http://www.w3.org/2000/svg">
        <path
          d="M16.0026 30C14.0662 30 12.246 29.6326 10.5422 28.8977C8.83839 28.1628 7.35635 27.1655 6.09611 25.9057C4.83586 24.646 3.83805 23.1646 3.10268 21.4615C2.36756 19.7584 2 17.9388 2 16.0026C2 14.0662 2.36744 12.246 3.10232 10.5422C3.83719 8.83839 4.83451 7.35635 6.09426 6.09611C7.35402 4.83586 8.83544 3.83805 10.5385 3.10268C12.2416 2.36756 14.0612 2 15.9974 2C17.9338 2 19.754 2.36744 21.4578 3.10232C23.1616 3.83719 24.6437 4.83451 25.9039 6.09426C27.1641 7.35402 28.1619 8.83544 28.8973 10.5385C29.6324 12.2416 30 14.0612 30 15.9974C30 17.9338 29.6326 19.754 28.8977 21.4578C28.1628 23.1616 27.1655 24.6437 25.9057 25.9039C24.646 27.1641 23.1646 28.1619 21.4615 28.8973C19.7584 29.6324 17.9388 30 16.0026 30Z"
          fill="#0085B3" />
        <path
          d="M14.931 14.431C15.218 14.1437 15.5742 14 15.9995 14C16.4245 14 16.7808 14.1437 17.0685 14.431C17.3562 14.7187 17.5 15.075 17.5 15.5L17.4995 23.5005C17.4995 23.9255 17.3558 24.2817 17.0685 24.569C16.7815 24.8567 16.4253 25.0005 16 25.0005C15.575 25.0005 15.2187 24.8567 14.931 24.569C14.6433 24.2817 14.4995 23.9255 14.4995 23.5005L14.5 15.5C14.5 15.075 14.6437 14.7187 14.931 14.431Z"
          fill="white" />
        <path
          d="M16 7.50055C15.5042 7.50055 15.0886 7.66827 14.7532 8.00372C14.4177 8.33917 14.25 8.75478 14.25 9.25055C14.25 9.74632 14.4177 10.1619 14.7532 10.4974C15.0886 10.8325 15.5042 11 16 11C16.4958 11 16.9114 10.8325 17.2468 10.4974C17.5823 10.1619 17.75 9.74632 17.75 9.25055C17.75 8.75478 17.5823 8.33917 17.2468 8.00372C16.9114 7.66827 16.4958 7.50055 16 7.50055Z"
          fill="white" />
      </svg>
    </symbol>
    <symbol id="status-maintenance" viewBox="0 0 24 24">
      <svg width="32" height="32" viewBox="0 0 32 32" fill="none" xmlns="http://www.w3.org/2000/svg">
        <path
          d="M10.5422 28.8977C12.246 29.6326 14.0662 30 16.0026 30C17.9388 30 19.7584 29.6324 21.4615 28.8973C23.1646 28.1619 24.646 27.1641 25.9057 25.9039C27.1655 24.6437 28.1628 23.1616 28.8977 21.4578C29.6326 19.754 30 17.9338 30 15.9974C30 14.0612 29.6324 12.2416 28.8973 10.5385C28.1619 8.83544 27.1641 7.35402 25.9039 6.09426C24.6437 4.83451 23.1616 3.83719 21.4578 3.10231C19.754 2.36744 17.9338 2 15.9974 2C14.0612 2 12.2416 2.36756 10.5385 3.10268C8.83544 3.83805 7.35402 4.83586 6.09426 6.09611C4.83451 7.35635 3.83719 8.83839 3.10232 10.5422C2.36744 12.246 2 14.0662 2 16.0026C2 17.9388 2.36756 19.7584 3.10268 21.4615C3.83805 23.1646 4.83586 24.646 6.09611 25.9057C7.35635 27.1655 8.83839 28.1628 10.5422 28.8977Z"
          fill="#FFCC2C" />
        <path
          d="M21.5713 23.4001L23.2934 21.6772C23.4311 21.5402 23.5 21.3803 23.5 21.1976C23.5 21.0149 23.4311 20.8545 23.2934 20.7165L17.9883 15.3865C18.1147 15.1071 18.2096 14.8157 18.2729 14.5124C18.3363 14.2091 18.3679 13.8714 18.3679 13.4994C18.3679 12.1501 17.8874 10.9963 16.9264 10.0378C15.9654 9.07926 14.8087 8.60001 13.4564 8.60001C13.2132 8.60001 12.9811 8.61229 12.7602 8.63684C12.539 8.6614 12.3181 8.71334 12.0974 8.79267C11.8988 8.87199 11.7773 9.02032 11.7329 9.23766C11.6887 9.45475 11.743 9.6398 11.896 9.7928L14.5073 12.4197L12.3319 14.596L9.69225 11.9691C9.53933 11.8161 9.35424 11.7619 9.137 11.8063C8.92 11.8508 8.7699 11.9737 8.68668 12.1751C8.62433 12.3988 8.57769 12.6225 8.54676 12.8462C8.51559 13.07 8.5 13.3028 8.5 13.5447C8.5 14.8976 8.98039 16.0548 9.94116 17.0162C10.9022 17.9774 12.0588 18.458 13.4111 18.458C13.7575 18.458 14.0839 18.424 14.3902 18.356C14.6968 18.288 14.9992 18.1955 15.2975 18.0786L20.625 23.3858C20.763 23.5238 20.9207 23.5951 21.0982 23.5998C21.2757 23.6044 21.4334 23.5379 21.5713 23.4001Z"
          fill="#131212" />
      </svg>
    </symbol>
    <symbol id="status-success" viewBox="0 0 24 24">
      <svg width="32" height="32" viewBox="0 0 32 32" fill="none" xmlns="http://www.w3.org/2000/svg">
        <path
          d="M16.0026 30C14.0662 30 12.246 29.6326 10.5422 28.8977C8.83839 28.1628 7.35635 27.1655 6.09611 25.9057C4.83586 24.646 3.83805 23.1646 3.10268 21.4615C2.36756 19.7584 2 17.9388 2 16.0026C2 14.0662 2.36744 12.246 3.10232 10.5422C3.83719 8.83839 4.83451 7.35635 6.09426 6.09611C7.35402 4.83586 8.83544 3.83805 10.5385 3.10268C12.2416 2.36756 14.0612 2 15.9974 2C17.9338 2 19.754 2.36744 21.4578 3.10232C23.1616 3.83719 24.6436 4.83451 25.9039 6.09426C27.1641 7.35402 28.1619 8.83544 28.8973 10.5385C29.6324 12.2416 30 14.0612 30 15.9974C30 17.9338 29.6326 19.754 28.8977 21.4578C28.1628 23.1616 27.1655 24.6436 25.9057 25.9039C24.646 27.1641 23.1646 28.1619 21.4615 28.8973C19.7584 29.6324 17.9388 30 16.0026 30Z"
          fill="#339D37" />
        <path fill-rule="evenodd" clip-rule="evenodd"
          d="M20.6106 11.4359C20.8984 11.1484 21.26 11 21.6666 11C22.0732 11 22.4349 11.1484 22.7227 11.4359C23.0136 11.7272 23.1588 12.0951 23.1526 12.5062C23.1462 12.9052 23.0062 13.2648 22.7231 13.5483L15.3049 20.9666C14.9764 21.2948 14.5702 21.4743 14.1076 21.4743C13.6451 21.4743 13.2391 21.2949 12.9106 20.9667L9.25142 17.3076C8.96397 17.0198 8.81531 16.658 8.81531 16.2513C8.81531 15.8447 8.96375 15.4831 9.25122 15.1953C9.54251 14.9044 9.91044 14.7592 10.3215 14.7654C10.7205 14.7717 11.0802 14.9117 11.3636 15.1949L14.1077 17.9392L20.6106 11.4359Z"
          fill="white" />
      </svg>
    </symbol>
    <symbol id="status-warning" viewBox="0 0 24 24">
      <svg width="32" height="32" viewBox="0 0 32 32" fill="none" xmlns="http://www.w3.org/2000/svg">
        <path
          d="M3.33145 28C3.08102 28 2.85607 27.9389 2.65661 27.8165C2.45715 27.6941 2.30214 27.5327 2.19158 27.3322C2.07634 27.1333 2.01293 26.9178 2.00136 26.6858C1.98978 26.4539 2.05233 26.2241 2.18899 25.9966L14.8372 4.1478C14.9741 3.92027 15.1453 3.75208 15.3507 3.64324C15.5563 3.5344 15.7727 3.47998 16 3.47998C16.2273 3.47998 16.4437 3.5344 16.6493 3.64324C16.8547 3.75208 17.0259 3.92027 17.1628 4.1478L29.811 25.9966C29.9477 26.2241 30.0102 26.4539 29.9986 26.6858C29.9871 26.9178 29.9237 27.1333 29.8084 27.3322C29.6979 27.5327 29.5428 27.6941 29.3434 27.8165C29.1439 27.9389 28.919 28 28.6686 28H3.33145Z"
          fill="#FFCC2C" />
        <path
          d="M14.931 10.1805C15.218 9.89318 15.5742 9.74951 15.9995 9.74951C16.4245 9.74951 16.7808 9.89318 17.0685 10.1805C17.3562 10.4682 17.5 10.8245 17.5 11.2495L17.4995 18.25C17.4995 18.675 17.3558 19.0312 17.0685 19.3185C16.7815 19.6062 16.4253 19.75 16 19.75C15.575 19.75 15.2187 19.6062 14.931 19.3185C14.6433 19.0312 14.4995 18.675 14.4995 18.25L14.5 11.2495C14.5 10.8245 14.6437 10.4682 14.931 10.1805Z"
          fill="#131212" />
        <path
          d="M16 22.0006C15.5042 22.0006 15.0886 22.1683 14.7532 22.5037C14.4177 22.8392 14.25 23.2548 14.25 23.7505C14.25 24.2463 14.4177 24.6619 14.7532 24.9974C15.0886 25.3325 15.5042 25.5 16 25.5C16.4958 25.5 16.9114 25.3325 17.2468 24.9974C17.5823 24.6619 17.75 24.2463 17.75 23.7505C17.75 23.2548 17.5823 22.8392 17.2468 22.5037C16.9114 22.1683 16.4958 22.0006 16 22.0006Z"
          fill="#131212" />
      </svg>
    </symbol>
    <symbol id="view-all" viewBox="0 0 24 24">
      <svg width="32" height="32" viewBox="0 0 32 32" fill="none" xmlns="http://www.w3.org/2000/svg">
        <path
          d="M17.783 17.0925L15.515 19.3605C15.3374 19.5381 15.251 19.7507 15.2556 19.9983C15.2603 20.2458 15.3514 20.4584 15.529 20.636C15.7066 20.8136 15.9224 20.9024 16.1763 20.9024C16.43 20.9024 16.6441 20.8136 16.8185 20.636L20.4802 16.9743C20.7099 16.7444 20.8247 16.4752 20.8247 16.1667C20.8247 15.8582 20.7099 15.589 20.4802 15.3591L16.8045 11.6834C16.6269 11.5058 16.4143 11.417 16.1667 11.417C15.9192 11.417 15.7066 11.5058 15.529 11.6834C15.3514 11.8609 15.2626 12.0766 15.2626 12.3303C15.2626 12.584 15.3514 12.7982 15.529 12.9728L17.783 15.2408H11.7457C11.4792 15.2408 11.2583 15.3285 11.0829 15.5039C10.9075 15.6795 10.8199 15.9006 10.8199 16.1671C10.8199 16.4338 10.9075 16.6547 11.0829 16.8298C11.2583 17.005 11.4792 17.0925 11.7457 17.0925H17.783ZM16.1693 30.1667C14.243 30.1667 12.4295 29.7992 10.7289 29.0644C9.02822 28.3295 7.54361 27.3281 6.27501 26.0603C5.00666 24.7922 4.0048 23.3082 3.26943 21.6083C2.53431 19.9084 2.16675 18.0954 2.16675 16.1693C2.16675 14.2328 2.53419 12.4127 3.26906 10.7089C4.00394 9.00507 5.00531 7.52304 6.27317 6.26279C7.54127 5.00255 9.02527 4.00474 10.7252 3.26937C12.4251 2.53425 14.2381 2.16669 16.1642 2.16669C18.1006 2.16669 19.9207 2.53412 21.6245 3.269C23.3284 4.00388 24.8104 5.0012 26.0706 6.26095C27.3309 7.5207 28.3287 9.00213 29.0641 10.7052C29.7992 12.4083 30.1667 14.2279 30.1667 16.1641C30.1667 18.0905 29.7993 19.9039 29.0644 21.6046C28.3296 23.3052 27.3322 24.7898 26.0725 26.0584C24.8127 27.3268 23.3313 28.3286 21.6282 29.064C19.9251 29.7991 18.1055 30.1667 16.1693 30.1667ZM16.1667 28.315C19.5511 28.315 22.4219 27.1338 24.7793 24.7715C27.1365 22.4092 28.3151 19.5409 28.3151 16.1667C28.3151 12.7824 27.1365 9.91151 24.7793 7.55411C22.4219 5.19695 19.5511 4.01837 16.1667 4.01837C12.7925 4.01837 9.92422 5.19695 7.56191 7.55411C5.19959 9.91151 4.01843 12.7824 4.01843 16.1667C4.01843 19.5409 5.19959 22.4092 7.56191 24.7715C9.92422 27.1338 12.7925 28.315 16.1667 28.315Z"
          fill="#131212" />
      </svg>
    </symbol>
  </defs>
</svg>