<svg xmlns="http://www.w3.org/2000/svg" viewBox="0 0 32 32">
  <path fill="currentColor" d="M15.998 6.714c2.592 0 4.788.9 6.588 2.698 1.8 1.8 2.7 3.994 2.7 6.586s-.9 4.788-2.698 6.588c-1.8 1.8-3.994 2.7-6.586 2.7s-4.788-.9-6.588-2.698c-1.8-1.8-2.7-3.994-2.7-6.586s.9-4.788 2.698-6.588c1.8-1.8 3.994-2.7 6.586-2.7ZM16 23.43c2.064 0 3.817-.723 5.262-2.167 1.444-1.445 2.167-3.198 2.167-5.262 0-2.063-.723-3.818-2.167-5.262C19.817 9.294 18.064 8.571 16 8.571c-2.063 0-3.818.723-5.262 2.167C9.294 12.182 8.571 13.937 8.571 16c0 2.064.723 3.817 2.167 5.262 1.444 1.444 3.199 2.167 5.262 2.167Zm-4.166-9.903c0 .318.107.583.322.797.214.213.48.32.799.32.317 0 .583-.108.796-.323.214-.214.32-.48.32-.798 0-.318-.107-.584-.322-.797a1.089 1.089 0 0 0-.799-.32c-.317 0-.583.107-.796.322-.214.215-.32.481-.32.799Zm6.095 0c0 .318.107.583.322.797.215.213.481.32.799.32.317 0 .583-.108.796-.323.214-.214.32-.48.32-.798 0-.318-.107-.584-.322-.797a1.089 1.089 0 0 0-.799-.32c-.317 0-.583.107-.796.322-.214.215-.32.481-.32.799ZM3 7.643V5.238c0-.615.22-1.142.657-1.58A2.155 2.155 0 0 1 5.238 3h2.405a.9.9 0 0 1 .662.267.9.9 0 0 1 .266.662.898.898 0 0 1-.266.661.9.9 0 0 1-.662.267H5.238a.37.37 0 0 0-.274.107.37.37 0 0 0-.107.274v2.405a.899.899 0 0 1-.267.662.9.9 0 0 1-.662.266.898.898 0 0 1-.661-.266A.9.9 0 0 1 3 7.643ZM7.643 29H5.238c-.615 0-1.142-.22-1.58-.657A2.155 2.155 0 0 1 3 26.762v-2.405c0-.263.089-.483.267-.662a.9.9 0 0 1 .662-.266c.263 0 .484.088.661.266a.9.9 0 0 1 .267.662v2.405c0 .111.036.202.107.274a.37.37 0 0 0 .274.107h2.405a.9.9 0 0 1 .662.267.9.9 0 0 1 .266.662.898.898 0 0 1-.266.661.9.9 0 0 1-.662.267Zm19.119-.12h-2.405a.899.899 0 0 1-.662-.266.9.9 0 0 1-.266-.662c0-.263.088-.484.266-.662a.899.899 0 0 1 .662-.266h2.405a.371.371 0 0 0 .274-.107.37.37 0 0 0 .107-.274v-2.405a.9.9 0 0 1 .267-.662.899.899 0 0 1 .662-.267c.263 0 .483.09.661.267a.898.898 0 0 1 .267.662v2.405c0 .615-.22 1.142-.657 1.58a2.155 2.155 0 0 1-1.581.658Zm.38-21.237V5.238a.37.37 0 0 0-.106-.274.371.371 0 0 0-.274-.107h-2.405a.899.899 0 0 1-.662-.267.9.9 0 0 1-.266-.662c0-.263.088-.484.266-.661A.9.9 0 0 1 24.357 3h2.405c.615 0 1.142.22 1.58.657.439.439.658.966.658 1.581v2.405a.899.899 0 0 1-.267.662.9.9 0 0 1-.662.266.897.897 0 0 1-.661-.266.9.9 0 0 1-.267-.662ZM16 20.095a4.435 4.435 0 0 0 3.64-1.907.615.615 0 0 0-.003-.633.593.593 0 0 0-.556-.317h-6.162a.593.593 0 0 0-.556.317.615.615 0 0 0-.003.633A4.435 4.435 0 0 0 16 20.095Z"/>
</svg>
