<svg xmlns="http://www.w3.org/2000/svg" viewBox="0 0 32 32">
  <path fill="currentColor" d="M15.576 5.453c2.483 0 4.825.534 7.027 1.603 2.202 1.068 4.039 2.608 5.51 4.619.146.184.192.352.137.503a.802.802 0 0 1-.279.375.648.648 0 0 1-.445.133c-.165-.01-.309-.102-.433-.274a12.901 12.901 0 0 0-5.025-4.244A14.815 14.815 0 0 0 15.576 6.7c-2.279 0-4.42.494-6.426 1.483a13.377 13.377 0 0 0-4.994 4.23c-.132.193-.283.297-.453.312a.608.608 0 0 1-.453-.141.595.595 0 0 1-.241-.373c-.029-.149.014-.304.127-.465a15.417 15.417 0 0 1 5.466-4.63 15.164 15.164 0 0 1 6.974-1.662Zm0 3.311c3.152 0 5.86 1.05 8.126 3.152 2.264 2.1 3.397 4.703 3.397 7.808 0 1.155-.41 2.12-1.227 2.893-.818.774-1.815 1.161-2.99 1.161-1.17 0-2.178-.387-3.022-1.16-.843-.775-1.265-1.74-1.265-2.894 0-.793-.295-1.463-.883-2.01a2.993 2.993 0 0 0-2.11-.82c-.824 0-1.533.273-2.127.817-.594.544-.891 1.215-.891 2.013 0 2.305.684 4.23 2.053 5.775 1.368 1.545 3.121 2.622 5.259 3.233.189.062.317.165.385.31s.079.3.032.465a.85.85 0 0 1-.255.38c-.123.108-.285.139-.488.092-2.406-.61-4.38-1.82-5.921-3.627-1.541-1.807-2.312-4.017-2.312-6.628 0-1.157.418-2.125 1.255-2.905.836-.78 1.84-1.171 3.012-1.171 1.171 0 2.17.39 2.997 1.17.827.781 1.24 1.75 1.24 2.906 0 .798.302 1.469.904 2.013a3.078 3.078 0 0 0 2.133.816c.82 0 1.52-.273 2.101-.82a2.65 2.65 0 0 0 .873-2.01c0-2.747-1.009-5.056-3.026-6.927C20.81 10.925 18.4 9.99 15.6 9.99s-5.205.937-7.215 2.81c-2.01 1.875-3.015 4.175-3.015 6.903 0 .568.06 1.279.179 2.131.119.852.373 1.842.764 2.97a.636.636 0 0 1-.011.489.655.655 0 0 1-.358.318.57.57 0 0 1-.485-.005.624.624 0 0 1-.323-.363 14.944 14.944 0 0 1-.777-2.758 15.918 15.918 0 0 1-.236-2.76c0-3.105 1.127-5.707 3.38-7.808s4.944-3.152 8.073-3.152ZM15.603 2c1.49 0 2.947.182 4.369.546 1.421.364 2.796.887 4.124 1.568.202.108.319.238.35.389.03.15.015.3-.047.446a.645.645 0 0 1-.318.333c-.15.076-.321.064-.51-.035a16.826 16.826 0 0 0-7.975-2 16.442 16.442 0 0 0-7.874 2 .539.539 0 0 1-.462.06.566.566 0 0 1-.362-.315.67.67 0 0 1-.063-.45c.033-.139.13-.258.29-.358a17.917 17.917 0 0 1 4.11-1.627A17.343 17.343 0 0 1 15.602 2Zm0 10.195c2.166 0 4.025.725 5.576 2.175 1.55 1.45 2.326 3.235 2.326 5.354a.611.611 0 0 1-.171.452.61.61 0 0 1-.452.171.63.63 0 0 1-.432-.171.578.578 0 0 1-.191-.452c0-1.78-.659-3.272-1.976-4.476-1.316-1.204-2.877-1.806-4.68-1.806s-3.356.602-4.659 1.806c-1.302 1.204-1.954 2.696-1.954 4.475 0 1.921.334 3.547 1 4.879.667 1.331 1.634 2.675 2.903 4.03.14.142.204.296.19.462a.65.65 0 0 1-.19.419.617.617 0 0 1-.433.19.593.593 0 0 1-.446-.19c-1.358-1.439-2.41-2.917-3.154-4.437-.744-1.52-1.116-3.303-1.116-5.353 0-2.119.768-3.903 2.305-5.353 1.537-1.45 3.389-2.175 5.555-2.175Zm-.052 6.906a.59.59 0 0 1 .453.187.62.62 0 0 1 .173.436c0 1.789.641 3.256 1.923 4.401s2.782 1.718 4.5 1.718c.186 0 .409-.012.667-.035a10.1 10.1 0 0 0 .796-.106.553.553 0 0 1 .452.075.68.68 0 0 1 .259.41.439.439 0 0 1-.093.435.834.834 0 0 1-.417.256 5.71 5.71 0 0 1-.974.174 9.26 9.26 0 0 1-.69.038c-2.063 0-3.857-.698-5.382-2.095-1.525-1.396-2.287-3.153-2.287-5.271 0-.166.057-.312.17-.436a.58.58 0 0 1 .45-.187Z"/>
</svg>
