<svg width="32" height="32" viewBox="0 0 32 32" fill="none" xmlns="http://www.w3.org/2000/svg">
<path d="M15.9981 6.71429C18.5899 6.71429 20.7858 7.61366 22.5857 9.4124C24.3857 11.2112 25.2857 13.4064 25.2857 15.9981C25.2857 18.5899 24.3863 20.7858 22.5876 22.5857C20.7889 24.3857 18.5936 25.2857 16.0019 25.2857C13.4101 25.2857 11.2142 24.3863 9.41426 22.5876C7.61428 20.7888 6.71429 18.5936 6.71429 16.0019C6.71429 13.4101 7.61366 11.2142 9.41241 9.41426C11.2112 7.61428 13.4064 6.71429 15.9981 6.71429ZM16 23.4286C18.0635 23.4286 19.8175 22.7064 21.2619 21.2619C22.7064 19.8175 23.4286 18.0635 23.4286 16C23.4286 13.9365 22.7064 12.1825 21.2619 10.7381C19.8175 9.29365 18.0635 8.57143 16 8.57143C13.9365 8.57143 12.1825 9.29365 10.7381 10.7381C9.29365 12.1825 8.57143 13.9365 8.57143 16C8.57143 18.0635 9.29365 19.8175 10.7381 21.2619C12.1825 22.7064 13.9365 23.4286 16 23.4286ZM11.8335 13.526C11.8335 13.8435 11.9409 14.1091 12.1557 14.3227C12.3705 14.5361 12.6368 14.6427 12.9546 14.6427C13.2722 14.6427 13.5377 14.5353 13.7513 14.3205C13.9647 14.1057 14.0714 13.8394 14.0714 13.5216C14.0714 13.2041 13.964 12.9385 13.7491 12.7249C13.5343 12.5116 13.268 12.4049 12.9503 12.4049C12.6327 12.4049 12.3671 12.5123 12.1535 12.7271C11.9402 12.9419 11.8335 13.2082 11.8335 13.526ZM17.9286 13.526C17.9286 13.8435 18.036 14.1091 18.2509 14.3227C18.4657 14.5361 18.732 14.6427 19.0497 14.6427C19.3673 14.6427 19.6329 14.5353 19.8465 14.3205C20.0598 14.1057 20.1665 13.8394 20.1665 13.5216C20.1665 13.2041 20.0591 12.9385 19.8443 12.7249C19.6295 12.5116 19.3632 12.4049 19.0454 12.4049C18.7278 12.4049 18.4623 12.5123 18.2487 12.7271C18.0353 12.9419 17.9286 13.2082 17.9286 13.526ZM3 7.64286V5.23817C3 4.62263 3.21914 4.09571 3.65743 3.65743C4.09571 3.21914 4.62263 3 5.23817 3H7.64286C7.90595 3 8.12654 3.08904 8.30462 3.26712C8.48249 3.4452 8.57143 3.66579 8.57143 3.92888C8.57143 4.19218 8.48249 4.41267 8.30462 4.59033C8.12654 4.76821 7.90595 4.85714 7.64286 4.85714H5.23817C5.12694 4.85714 5.03563 4.89284 4.96424 4.96424C4.89284 5.03564 4.85714 5.12694 4.85714 5.23817V7.64286C4.85714 7.90595 4.7681 8.12654 4.59002 8.30462C4.41194 8.48249 4.19136 8.57143 3.92826 8.57143C3.66496 8.57143 3.44448 8.48249 3.26681 8.30462C3.08894 8.12654 3 7.90595 3 7.64286ZM7.64286 29H5.23817C4.62263 29 4.09571 28.7809 3.65743 28.3426C3.21914 27.9043 3 27.3774 3 26.7618V24.3571C3 24.094 3.08904 23.8735 3.26712 23.6954C3.4452 23.5175 3.66579 23.4286 3.92888 23.4286C4.19218 23.4286 4.41267 23.5175 4.59033 23.6954C4.76821 23.8735 4.85714 24.094 4.85714 24.3571V26.7618C4.85714 26.8731 4.89284 26.9644 4.96424 27.0358C5.03563 27.1072 5.12694 27.1429 5.23817 27.1429H7.64286C7.90595 27.1429 8.12654 27.2319 8.30462 27.41C8.48249 27.5881 8.57143 27.8086 8.57143 28.0717C8.57143 28.335 8.48249 28.5555 8.30462 28.7332C8.12654 28.9111 7.90595 29 7.64286 29ZM26.7618 28.8808H24.3571C24.094 28.8808 23.8735 28.7918 23.6954 28.6137C23.5175 28.4356 23.4286 28.215 23.4286 27.952C23.4286 27.6887 23.5175 27.4682 23.6954 27.2905C23.8735 27.1126 24.094 27.0237 24.3571 27.0237H26.7618C26.8731 27.0237 26.9644 26.988 27.0358 26.9166C27.1072 26.8452 27.1429 26.7539 27.1429 26.6427V24.238C27.1429 23.9749 27.2319 23.7544 27.41 23.5765C27.5881 23.3984 27.8086 23.3094 28.0717 23.3094C28.335 23.3094 28.5555 23.3984 28.7332 23.5765C28.9111 23.7544 29 23.9749 29 24.238V26.6427C29 27.2582 28.7809 27.7851 28.3426 28.2234C27.9043 28.6617 27.3774 28.8808 26.7618 28.8808ZM27.1429 7.64286V5.23817C27.1429 5.12694 27.1072 5.03564 27.0358 4.96424C26.9644 4.89284 26.8731 4.85714 26.7618 4.85714H24.3571C24.094 4.85714 23.8735 4.7681 23.6954 4.59002C23.5175 4.41194 23.4286 4.19136 23.4286 3.92826C23.4286 3.66496 23.5175 3.44448 23.6954 3.26681C23.8735 3.08894 24.094 3 24.3571 3H26.7618C27.3774 3 27.9043 3.21914 28.3426 3.65743C28.7809 4.09571 29 4.62263 29 5.23817V7.64286C29 7.90595 28.911 8.12654 28.7329 8.30462C28.5548 8.48249 28.3342 8.57143 28.0711 8.57143C27.8078 8.57143 27.5873 8.48249 27.4097 8.30462C27.2318 8.12654 27.1429 7.90595 27.1429 7.64286ZM16 20.0953C16.7365 20.0953 17.4241 19.9255 18.063 19.5858C18.7018 19.246 19.2276 18.78 19.6403 18.188C19.7563 17.9769 19.7551 17.7658 19.6369 17.5547C19.5187 17.3436 19.3334 17.2381 19.081 17.2381H12.919C12.6666 17.2381 12.4813 17.3436 12.3631 17.5547C12.2449 17.7658 12.2437 17.9769 12.3597 18.188C12.7724 18.78 13.2982 19.246 13.937 19.5858C14.5759 19.9255 15.2635 20.0953 16 20.0953Z" fill="#131212"/>
</svg>
