<svg xmlns="http://www.w3.org/2000/svg" viewBox="0 0 32 32">
  <path fill="currentColor" d="M6.552 28a2.464 2.464 0 0 1-1.81-.741A2.463 2.463 0 0 1 4 25.448V6.552c0-.713.247-1.317.741-1.81A2.463 2.463 0 0 1 6.552 4h18.896c.713 0 1.317.247 1.81.741.495.494.742 1.098.742 1.811v18.896c0 .713-.247 1.317-.741 1.81a2.463 2.463 0 0 1-1.811.742H6.552Zm0-2.118h18.896a.414.414 0 0 0 .299-.136c.09-.09.135-.19.135-.298V6.552a.414.414 0 0 0-.136-.298.415.415 0 0 0-.298-.136H6.552a.414.414 0 0 0-.298.136.414.414 0 0 0-.136.298v18.896c0 .109.045.208.136.299.09.09.19.135.298.135Zm3.312-3.176h12.38a.604.604 0 0 0 .568-.348c.123-.231.104-.456-.057-.673l-3.367-4.51a.618.618 0 0 0-.51-.255.618.618 0 0 0-.51.256l-3.454 4.498-2.313-2.965a.623.623 0 0 0-.504-.241.612.612 0 0 0-.503.255l-2.226 2.962c-.17.217-.194.442-.071.673a.604.604 0 0 0 .567.348Zm1.195-9.883a1.7 1.7 0 0 0 1.248-.516 1.7 1.7 0 0 0 .516-1.248 1.7 1.7 0 0 0-.516-1.249 1.7 1.7 0 0 0-1.248-.516 1.7 1.7 0 0 0-1.249.516 1.7 1.7 0 0 0-.516 1.249c0 .489.172.905.516 1.248a1.7 1.7 0 0 0 1.249.516Z"/>
</svg>
