<svg xmlns="http://www.w3.org/2000/svg" viewBox="0 0 32 32">
  <path fill="currentColor" d="M16.023 10.586c2.954 0 5.391 2.437 5.391 5.39 0 3-2.437 5.391-5.39 5.391-3 0-5.391-2.39-5.391-5.39a5.39 5.39 0 0 1 5.39-5.391Zm0 8.906c1.922 0 3.47-1.547 3.47-3.515a3.461 3.461 0 0 0-3.47-3.47c-1.968 0-3.515 1.548-3.515 3.47a3.51 3.51 0 0 0 3.515 3.515Zm6.844-9.094a1.26 1.26 0 0 0-1.265-1.265 1.26 1.26 0 0 0-1.266 1.265 1.26 1.26 0 0 0 1.266 1.266 1.26 1.26 0 0 0 1.265-1.266Zm3.563 1.266c.093 1.734.093 6.938 0 8.672-.094 1.687-.47 3.14-1.688 4.406-1.219 1.219-2.719 1.594-4.406 1.688-1.734.093-6.938.093-8.672 0-1.687-.094-3.14-.47-4.406-1.688-1.219-1.265-1.594-2.719-1.688-4.406-.093-1.734-.093-6.938 0-8.672.094-1.687.47-3.187 1.688-4.406 1.265-1.219 2.719-1.594 4.406-1.688 1.734-.093 6.938-.093 8.672 0 1.687.094 3.187.47 4.406 1.688 1.219 1.219 1.594 2.719 1.688 4.406Zm-2.25 10.5c.562-1.36.422-4.64.422-6.187 0-1.5.14-4.782-.422-6.188-.375-.89-1.078-1.64-1.97-1.969-1.405-.562-4.687-.422-6.187-.422-1.546 0-4.828-.14-6.187.422A3.616 3.616 0 0 0 7.82 9.79c-.562 1.405-.422 4.687-.422 6.187 0 1.546-.14 4.828.422 6.187a3.554 3.554 0 0 0 2.016 2.016c1.36.562 4.64.422 6.187.422 1.5 0 4.782.14 6.188-.422.89-.375 1.64-1.078 1.969-2.016Z"/>
</svg>
