<svg xmlns="http://www.w3.org/2000/svg" viewBox="0 0 32 32">
  <path fill="currentColor" d="M16 27.201a2.73 2.73 0 0 1-1.992-.815 2.677 2.677 0 0 1-.824-1.977c0-.775.275-1.439.824-1.99a2.706 2.706 0 0 1 1.991-.83l.832-.794c.184-.187.4-.335.648-.445.247-.11.5-.166.76-.166.55 0 1.016.198 1.397.593.38.396.571.863.571 1.402v.61c0 .457.157.842.47 1.155.314.314.699.47 1.155.47.35 0 .665-.106.946-.318a1.72 1.72 0 0 0 .595-.813l.425-1.166a3.07 3.07 0 0 1 .994-1.392 2.516 2.516 0 0 1 1.607-.542c.253-.647.454-1.324.602-2.031a10.53 10.53 0 0 0 .223-2.166c0-2.09-.514-3.986-1.542-5.686a11.501 11.501 0 0 0-4.078-4.039v1.297c0 .766-.274 1.424-.822 1.975a2.689 2.689 0 0 1-1.977.827h-1.4v2.816c0 .384-.138.715-.413.99a1.353 1.353 0 0 1-.992.414h-1.405v2.378c0 .512-.175.945-.526 1.3a1.75 1.75 0 0 1-1.295.53c-.317 0-.614-.072-.89-.217a1.821 1.821 0 0 1-.667-.584l-2.243-3.406H7.572v1.395a2.67 2.67 0 0 1-.713 1.862 2.785 2.785 0 0 1-1.74.916c.617 2.43 1.93 4.446 3.942 6.046 2.01 1.6 4.324 2.401 6.939 2.401Zm2.81-8.413c-.393 0-.726-.138-.997-.414a1.363 1.363 0 0 1-.408-.991c0-.388.136-.718.408-.99.271-.271.604-.407.997-.407h1.39c.393 0 .725.136.997.408.272.271.408.6.408.989 0 .387-.136.719-.408.993a1.35 1.35 0 0 1-.998.412H18.81Zm3.266-4.207c-.46 0-.829-.183-1.108-.549a1.256 1.256 0 0 1-.206-1.211l.534-1.535a1.348 1.348 0 0 1 1.26-.926c.461 0 .832.183 1.111.549.28.365.35.769.21 1.21l-.546 1.536a1.36 1.36 0 0 1-.496.68c-.23.164-.483.246-.759.246ZM16.008 29c-1.8 0-3.488-.342-5.065-1.024a13.18 13.18 0 0 1-4.13-2.79 13.21 13.21 0 0 1-2.79-4.13C3.342 19.48 3 17.794 3 15.995c0-1.798.341-3.487 1.024-5.066a13.046 13.046 0 0 1 2.79-4.125 13.292 13.292 0 0 1 4.13-2.78C12.518 3.34 14.205 3 16.003 3c1.799 0 3.488.341 5.068 1.024a13.142 13.142 0 0 1 4.124 2.778 13.123 13.123 0 0 1 2.78 4.127C28.66 12.51 29 14.198 29 15.992c0 1.8-.341 3.488-1.024 5.065a13.222 13.222 0 0 1-2.778 4.126 13.136 13.136 0 0 1-4.127 2.789C19.49 28.657 17.802 29 16.008 29Z"/>
</svg>
