<svg xmlns="http://www.w3.org/2000/svg" viewBox="0 0 32 32">
  <path fill="currentColor" d="M27.805 11.938c.576 0 1.086.222 1.53.666.443.443.665.953.665 1.53v2.3c0 .15 0 .307-.002.47 0 .164-.03.318-.086.464l-4.117 9.624c-.202.463-.539.854-1.013 1.174-.474.32-.962.48-1.465.48H8.493V11.937l7.903-8.093c.257-.263.56-.422.91-.476.348-.054.68.007.995.184.311.177.543.429.694.755.152.326.187.667.105 1.021l-1.404 6.61h10.11Zm-17.549.749v14.195h13.289a.667.667 0 0 0 .299-.08.517.517 0 0 0 .24-.271l4.153-9.8v-2.598a.416.416 0 0 0-.126-.306.416.416 0 0 0-.306-.126H15.52l1.736-8.18-6.999 7.166ZM4.195 28.645c-.604 0-1.12-.216-1.55-.648A2.117 2.117 0 0 1 2 26.45V14.133c0-.599.215-1.114.645-1.547.43-.432.946-.648 1.55-.648h4.298v1.763H4.195a.424.424 0 0 0-.432.432V26.45c0 .126.04.23.122.31a.42.42 0 0 0 .31.122h4.298v1.763H4.195Z"/>
</svg>
