<svg xmlns="http://www.w3.org/2000/svg" viewBox="0 0 32 32">
  <path fill="currentColor" d="M10.188 26.488h-4.36V12.473h4.36v14.015Zm-2.204-15.89C6.625 10.598 5.5 9.426 5.5 8.02c0-.891.469-1.735 1.219-2.157.797-.468 1.781-.468 2.531 0 .797.422 1.266 1.266 1.266 2.157 0 1.406-1.125 2.578-2.532 2.578Zm18.47 15.89H22.14v-6.797c0-1.64-.047-3.703-2.297-3.703s-2.578 1.735-2.578 3.563v6.937h-4.36V12.473h4.172v1.921h.047c.61-1.078 2.016-2.25 4.125-2.25 4.406 0 5.25 2.907 5.25 6.657v7.687h-.047Z"/>
</svg>
