<svg xmlns="http://www.w3.org/2000/svg" viewBox="0 0 32 32">
  <path fill="currentColor" d="M8.688 22.377c-1.85 0-3.427-.652-4.732-1.957C2.652 19.116 2 17.54 2 15.69c0-1.851.652-3.428 1.956-4.733C5.261 9.652 6.838 9 8.688 9h4.45c.313 0 .575.106.787.318.212.212.318.475.318.788 0 .313-.106.576-.318.787a1.07 1.07 0 0 1-.787.317H8.686c-1.236 0-2.291.438-3.165 1.311-.874.874-1.31 1.93-1.31 3.167 0 1.238.436 2.293 1.31 3.167.874.874 1.93 1.311 3.165 1.311h4.452c.313 0 .575.106.787.318.212.212.318.475.318.788 0 .313-.106.576-.318.787a1.07 1.07 0 0 1-.787.318h-4.45Zm2.89-5.583c-.312 0-.575-.106-.786-.318a1.07 1.07 0 0 1-.318-.788c0-.314.106-.576.318-.787a1.07 1.07 0 0 1 .787-.318h8.842c.313 0 .576.106.787.318.212.212.318.475.318.788 0 .313-.106.576-.318.787a1.07 1.07 0 0 1-.787.318H11.58Zm7.284 5.583c-.313 0-.575-.106-.787-.318a1.07 1.07 0 0 1-.318-.788c0-.314.106-.576.318-.788a1.07 1.07 0 0 1 .787-.317h4.452c1.236 0 2.291-.437 3.165-1.31.873-.875 1.31-1.93 1.31-3.168 0-1.237-.437-2.293-1.31-3.167-.874-.873-1.93-1.31-3.165-1.31h-4.452c-.313 0-.575-.107-.787-.318a1.07 1.07 0 0 1-.318-.788c0-.314.106-.576.318-.787A1.07 1.07 0 0 1 18.862 9h4.45c1.85 0 3.427.652 4.732 1.956C29.348 12.26 30 13.837 30 15.688c0 1.85-.652 3.427-1.956 4.732-1.305 1.304-2.882 1.957-4.732 1.957h-4.45Z"/>
</svg>
