<svg xmlns="http://www.w3.org/2000/svg" viewBox="0 0 32 32">
  <path fill="currentColor" d="M15.594 27.34c2.87-2.563 5.058-5.011 6.567-7.345 1.509-2.333 2.263-4.373 2.263-6.12 0-2.66-.844-4.845-2.534-6.557-1.689-1.712-3.788-2.568-6.296-2.568-2.51 0-4.608.856-6.297 2.568-1.69 1.712-2.534 3.898-2.534 6.556 0 1.748.763 3.788 2.29 6.121 1.526 2.334 3.706 4.782 6.54 7.344ZM15.59 29c-.236 0-.471-.039-.705-.116a1.704 1.704 0 0 1-.631-.375 64.919 64.919 0 0 1-3.127-3.084 33.284 33.284 0 0 1-2.993-3.622 21.92 21.92 0 0 1-2.247-3.93C5.296 16.526 5 15.194 5 13.875c0-3.238 1.048-5.86 3.143-7.866C10.238 4.003 12.722 3 15.593 3c2.872 0 5.356 1.003 7.452 3.008 2.095 2.005 3.142 4.628 3.142 7.866 0 1.318-.295 2.65-.886 3.997a22.115 22.115 0 0 1-2.241 3.926 32.678 32.678 0 0 1-2.986 3.617 65.204 65.204 0 0 1-3.127 3.082c-.183.173-.395.3-.636.382a2.24 2.24 0 0 1-.72.122Zm.009-13.027c.652 0 1.209-.232 1.67-.696a2.291 2.291 0 0 0 .691-1.675c0-.652-.232-1.209-.697-1.67a2.292 2.292 0 0 0-1.675-.69 2.27 2.27 0 0 0-1.67.695 2.293 2.293 0 0 0-.69 1.676c0 .652.232 1.208.696 1.67.465.46 1.023.69 1.675.69Z"/>
</svg>
