<svg xmlns="http://www.w3.org/2000/svg" width="32" height="32" fill="none" viewBox="0 0 32 32">
  <mask id="a" width="32" height="32" x="0" y="0" maskUnits="userSpaceOnUse" style="mask-type:alpha">
    <path fill="#D9D9D9" d="M0 0h32v32H0z"/>
  </mask>
  <g mask="url(#a)">
    <path fill="currentColor" d="M8.086 28a2.007 2.007 0 0 1-1.472-.614c-.41-.41-.614-.9-.614-1.472V12.851c0-.575.205-1.067.614-1.474.41-.407.9-.611 1.472-.611h2.076V7.838c0-1.62.569-2.998 1.705-4.134C13.003 2.568 14.382 2 16.003 2c1.62 0 2.999.568 4.133 1.704 1.134 1.136 1.702 2.514 1.702 4.134v2.928h2.076c.572 0 1.062.204 1.472.611.41.407.614.899.614 1.474v13.063a2.01 2.01 0 0 1-.614 1.472c-.41.41-.9.614-1.472.614H8.086Zm0-1.675h15.828a.4.4 0 0 0 .295-.116.4.4 0 0 0 .116-.295V12.851a.4.4 0 0 0-.116-.295.4.4 0 0 0-.295-.115H8.086a.4.4 0 0 0-.295.115.4.4 0 0 0-.116.295v13.063a.4.4 0 0 0 .116.295.4.4 0 0 0 .295.116Zm7.918-4.658c.63 0 1.168-.22 1.613-.661.444-.441.667-.973.667-1.596 0-.609-.224-1.146-.671-1.612a2.16 2.16 0 0 0-1.617-.699 2.15 2.15 0 0 0-1.613.699c-.444.466-.667 1.007-.667 1.623 0 .617.224 1.145.671 1.585.447.44.986.66 1.617.66Zm-4.166-10.901h8.324V7.838c0-1.157-.404-2.14-1.213-2.949-.809-.809-1.79-1.214-2.946-1.214-1.155 0-2.138.405-2.949 1.214-.81.81-1.216 1.792-1.216 2.949v2.928Z"/>
  </g>
</svg>
