<svg xmlns="http://www.w3.org/2000/svg" width="32" height="32" fill="none" viewBox="0 0 32 32">
  <mask id="a" width="32" height="32" x="0" y="0" maskUnits="userSpaceOnUse" style="mask-type:alpha">
    <path fill="#D9D9D9" d="M0 0h32v32H0z"/>
  </mask>
  <g mask="url(#a)">
    <path fill="currentColor" d="M8.086 28a2.007 2.007 0 0 1-1.472-.614c-.41-.41-.614-.9-.614-1.472V12.851c0-.575.205-1.067.614-1.474.41-.407.9-.611 1.472-.611h12.076V7.838c0-1.157-.404-2.14-1.214-2.949C18.14 4.08 17.156 3.675 16 3.675c-1.028 0-1.925.328-2.691.984a4.094 4.094 0 0 0-1.412 2.462.834.834 0 0 1-.31.515.907.907 0 0 1-.584.202.754.754 0 0 1-.596-.266.72.72 0 0 1-.17-.622c.207-1.407.851-2.584 1.934-3.53C13.254 2.473 14.53 2 16 2c1.62 0 2.998.568 4.134 1.704 1.136 1.136 1.704 2.514 1.704 4.134v2.928h2.076c.572 0 1.062.204 1.472.611.41.407.614.899.614 1.474v13.063a2.01 2.01 0 0 1-.614 1.472c-.41.41-.9.614-1.472.614H8.086Zm0-1.675h15.828a.4.4 0 0 0 .295-.116.4.4 0 0 0 .116-.295V12.851a.4.4 0 0 0-.116-.295.4.4 0 0 0-.295-.115H8.086a.4.4 0 0 0-.295.115.4.4 0 0 0-.116.295v13.063a.4.4 0 0 0 .116.295.4.4 0 0 0 .295.116Zm7.918-4.658c.63 0 1.168-.22 1.613-.661.444-.441.667-.973.667-1.596 0-.609-.224-1.146-.671-1.612a2.16 2.16 0 0 0-1.617-.699 2.15 2.15 0 0 0-1.613.699c-.444.466-.667 1.007-.667 1.623 0 .617.224 1.145.671 1.585.447.44.986.66 1.617.66Z"/>
  </g>
</svg>
