<svg xmlns="http://www.w3.org/2000/svg" viewBox="0 0 32 32">
  <path fill="currentColor" d="M16.962 29a.927.927 0 0 1-.685-.277.937.937 0 0 1-.276-.688.935.935 0 0 1 .96-.956h9.647a.45.45 0 0 0 .323-.148.45.45 0 0 0 .147-.323V5.392a.45.45 0 0 0-.146-.323.45.45 0 0 0-.324-.147h-9.646a.927.927 0 0 1-.685-.277.937.937 0 0 1-.276-.689.935.935 0 0 1 .96-.956h9.647c.657 0 1.22.234 1.689.703.469.469.703 1.032.703 1.689v21.216c0 .657-.234 1.22-.703 1.689a2.303 2.303 0 0 1-1.689.703h-9.646Zm-.211-12.04H3.96a.927.927 0 0 1-.685-.276.936.936 0 0 1-.276-.689.935.935 0 0 1 .96-.956h12.76l-3.055-3.055a.898.898 0 0 1-.276-.66c0-.257.097-.485.292-.685a.92.92 0 0 1 .682-.298.98.98 0 0 1 .694.29l4.546 4.547c.238.244.358.526.358.843 0 .317-.12.595-.358.833l-4.53 4.53a.856.856 0 0 1-.659.28 1.017 1.017 0 0 1-.702-.303.961.961 0 0 1 .018-1.369l3.02-3.031Z"/>
</svg>
