<svg xmlns="http://www.w3.org/2000/svg" viewBox="0 0 32 32">
  <path fill="currentColor" d="M5.392 29c-.657 0-1.22-.234-1.689-.703A2.303 2.303 0 0 1 3 26.608V5.392c0-.657.234-1.22.703-1.689A2.303 2.303 0 0 1 5.392 3h9.646c.273 0 .501.092.685.277a.937.937 0 0 1 .276.688.935.935 0 0 1-.96.956H5.391a.45.45 0 0 0-.323.148.45.45 0 0 0-.147.323v21.216a.45.45 0 0 0 .147.323.45.45 0 0 0 .323.147h9.646a.93.93 0 0 1 .685.277.937.937 0 0 1 .276.689.935.935 0 0 1-.96.956H5.391Zm19.903-12.04H12.519a.928.928 0 0 1-.684-.276.937.937 0 0 1-.276-.689.936.936 0 0 1 .96-.956h12.745l-3.055-3.055a.9.9 0 0 1-.276-.66c0-.257.098-.485.292-.685a.92.92 0 0 1 .682-.298.98.98 0 0 1 .694.29l4.546 4.547c.239.244.358.526.358.843 0 .317-.12.595-.358.833l-4.53 4.53c-.18.19-.4.283-.659.28a1.017 1.017 0 0 1-.702-.303.96.96 0 0 1 .018-1.369l3.021-3.031Z"/>
</svg>
