<svg xmlns="http://www.w3.org/2000/svg" viewBox="0 0 32 32">
  <path fill="currentColor" d="M13.433 14.3c-1.467 0-2.692-.49-3.675-1.47-.983-.98-1.475-2.206-1.475-3.68 0-1.467.492-2.692 1.475-3.675C10.74 4.492 11.966 4 13.433 4c1.468 0 2.693.492 3.676 1.475.983.983 1.474 2.208 1.474 3.675 0 1.474-.491 2.7-1.474 3.68S14.9 14.3 13.433 14.3ZM2 23.99v-1.113c0-.792.201-1.5.604-2.124.403-.625.97-1.113 1.702-1.464a23.432 23.432 0 0 1 4.261-1.56 17.93 17.93 0 0 1 4.52-.57h.22c.272 0 .5.093.683.278.183.185.275.41.275.676a.93.93 0 0 1-.275.683.925.925 0 0 1-.683.277h-.22a16.71 16.71 0 0 0-4.094.501 17.745 17.745 0 0 0-3.854 1.47 2.593 2.593 0 0 0-.873.763c-.234.32-.35.677-.35 1.069v1.143h9.407c.271 0 .499.092.682.277a.934.934 0 0 1 .276.686c0 .273-.092.5-.276.68a.933.933 0 0 1-.682.273H3.945a1.87 1.87 0 0 1-1.374-.571A1.874 1.874 0 0 1 2 23.99Zm21.143 2.433-.2-1.424a5.295 5.295 0 0 1-1.253-.494 4.388 4.388 0 0 1-1.06-.798l-1.304.39a.735.735 0 0 1-.876-.344l-.167-.277a.761.761 0 0 1 .141-.992l1.113-.95a3.835 3.835 0 0 1-.154-1.142c0-.431.051-.815.154-1.151l-1.098-.98a.698.698 0 0 1-.263-.439.685.685 0 0 1 .103-.508l.17-.324a.776.776 0 0 1 .378-.321.743.743 0 0 1 .498-.007l1.306.4c.29-.316.64-.583 1.052-.8a5.62 5.62 0 0 1 1.26-.488l.2-1.421a.843.843 0 0 1 .287-.52.789.789 0 0 1 .524-.195h.26c.196 0 .373.068.53.204.156.135.25.308.28.518l.196 1.415c.423.107.84.27 1.25.49.412.22.766.488 1.063.803l1.274-.4a.754.754 0 0 1 .89.347l.175.281c.103.17.138.343.105.52a.804.804 0 0 1-.262.46l-1.099.97c.11.336.164.72.164 1.151 0 .432-.054.81-.164 1.136l1.113.95c.143.113.23.263.26.451a.662.662 0 0 1-.115.51l-.169.325a.716.716 0 0 1-.36.321.723.723 0 0 1-.492.007l-1.32-.39a4.56 4.56 0 0 1-1.07.798 5.29 5.29 0 0 1-1.243.494l-.195 1.422a.794.794 0 0 1-.282.52.809.809 0 0 1-.53.194h-.259a.771.771 0 0 1-.524-.202.868.868 0 0 1-.287-.51Zm.928-3.129c.842 0 1.537-.275 2.082-.825.546-.55.819-1.242.819-2.079 0-.842-.274-1.537-.82-2.082-.547-.546-1.241-.819-2.084-.819-.836 0-1.529.274-2.078.82-.549.547-.823 1.241-.823 2.084 0 .836.275 1.529.825 2.078.55.549 1.242.823 2.079.823Zm-10.638-10.91c.914 0 1.682-.309 2.303-.926.621-.618.932-1.388.932-2.308 0-.914-.31-1.682-.932-2.303-.621-.62-1.389-.932-2.303-.932-.913 0-1.681.311-2.302.932-.622.621-.932 1.39-.932 2.303 0 .92.31 1.69.932 2.308.62.617 1.389.926 2.302.926Z"/>
</svg>
