<svg xmlns="http://www.w3.org/2000/svg" viewBox="0 0 32 32">
  <path fill="currentColor" d="M3.96 24.235a.927.927 0 0 1-.684-.278A.937.937 0 0 1 3 23.27a.936.936 0 0 1 .96-.956h24.08c.271 0 .5.093.684.278a.937.937 0 0 1 .276.688.936.936 0 0 1-.96.956H3.96Zm0-7.657a.926.926 0 0 1-.684-.278.936.936 0 0 1-.276-.688.936.936 0 0 1 .96-.956h24.08c.271 0 .5.093.684.279a.936.936 0 0 1 .276.687.935.935 0 0 1-.96.956H3.96Zm0-7.657a.927.927 0 0 1-.684-.277A.937.937 0 0 1 3 7.955.936.936 0 0 1 3.96 7h24.08c.271 0 .5.093.684.278a.937.937 0 0 1 .276.688.936.936 0 0 1-.96.955H3.96Z"/>
</svg>
