<svg xmlns="http://www.w3.org/2000/svg" viewBox="0 0 32 32">
  <path fill="currentColor" d="M15.914 18.446c-.988 0-1.814-.346-2.48-1.038-.665-.692-.998-1.538-.998-2.538V5.462c0-.963.337-1.78 1.01-2.453C14.118 2.336 14.94 2 15.913 2c.972 0 1.795.336 2.468 1.009.674.673 1.01 1.49 1.01 2.453v9.408c0 1-.332 1.846-.997 2.538-.665.692-1.492 1.038-2.48 1.038Zm-.964 10.59V24.7c-2.332-.236-4.344-1.17-6.037-2.802-1.693-1.632-2.66-3.64-2.902-6.025a.812.812 0 0 1 .212-.707.896.896 0 0 1 .686-.295c.276 0 .505.098.688.294.183.196.297.432.34.71.258 2.014 1.152 3.676 2.68 4.986 1.527 1.311 3.29 1.966 5.288 1.966 2.03 0 3.804-.659 5.322-1.977 1.518-1.318 2.406-2.977 2.664-4.975a1.3 1.3 0 0 1 .344-.71.914.914 0 0 1 .692-.294c.275 0 .503.098.683.295a.82.82 0 0 1 .207.707c-.241 2.344-1.202 4.34-2.882 5.987-1.68 1.648-3.7 2.594-6.057 2.84v4.337a.93.93 0 0 1-.278.687.94.94 0 0 1-.69.277.938.938 0 0 1-.96-.964Zm.964-12.518c.445 0 .815-.159 1.109-.477.294-.318.441-.71.441-1.175V5.462c0-.435-.148-.8-.446-1.093a1.508 1.508 0 0 0-1.104-.441 1.51 1.51 0 0 0-1.104.44 1.477 1.477 0 0 0-.446 1.094v9.408c0 .462.147.853.441 1.17.294.319.664.478 1.11.478Z"/>
</svg>
