<svg xmlns="http://www.w3.org/2000/svg" viewBox="0 0 32 32">
  <path fill="currentColor" d="M6.482 18.267a2.167 2.167 0 0 1-1.599-.668 2.201 2.201 0 0 1-.66-1.606c0-.625.222-1.158.667-1.599a2.2 2.2 0 0 1 1.606-.66c.625 0 1.158.222 1.598.667a2.2 2.2 0 0 1 .662 1.606 2.17 2.17 0 0 1-.668 1.599 2.2 2.2 0 0 1-1.606.66Zm9.511 0a2.168 2.168 0 0 1-1.599-.668 2.2 2.2 0 0 1-.66-1.606c0-.625.222-1.158.667-1.599.445-.44.98-.66 1.606-.66.625 0 1.158.222 1.599.667.44.445.66.98.66 1.606 0 .625-.222 1.158-.667 1.599-.445.44-.98.66-1.606.66Zm9.511 0a2.167 2.167 0 0 1-1.598-.668 2.2 2.2 0 0 1-.662-1.606c0-.625.223-1.158.668-1.599a2.2 2.2 0 0 1 1.606-.66c.625 0 1.158.222 1.599.667.44.445.66.98.66 1.606 0 .625-.222 1.158-.667 1.599a2.2 2.2 0 0 1-1.606.66Z"/>
</svg>
