<svg xmlns="http://www.w3.org/2000/svg" viewBox="0 0 32 32">
  <path fill="currentColor" d="M7.9 24.489a.853.853 0 0 1-.641-.27.928.928 0 0 1-.259-.668c0-.266.086-.489.259-.668a.853.853 0 0 1 .641-.27h1.27v-9.33c0-1.682.497-3.17 1.494-4.461.996-1.293 2.274-2.119 3.836-2.48v-.779c0-.434.146-.803.437-1.107A1.416 1.416 0 0 1 16 4c.416 0 .77.152 1.062.456.293.304.439.673.439 1.107v.78c1.562.36 2.84 1.186 3.836 2.479.997 1.292 1.495 2.779 1.495 4.46v9.331H24.1c.255 0 .469.09.641.27.173.18.259.403.259.669a.927.927 0 0 1-.259.668.853.853 0 0 1-.641.269H7.9ZM15.998 28a2.043 2.043 0 0 1-1.531-.664 2.226 2.226 0 0 1-.636-1.597h4.338a2.22 2.22 0 0 1-.637 1.598 2.053 2.053 0 0 1-1.534.663Zm-5.029-5.387h10.062v-9.33c0-1.448-.491-2.684-1.474-3.707C18.575 8.552 17.39 8.04 16 8.04c-1.39 0-2.575.512-3.557 1.536-.983 1.023-1.474 2.259-1.474 3.707v9.33Z"/>
</svg>
