<svg xmlns="http://www.w3.org/2000/svg" viewBox="0 0 32 32">
  <path fill="currentColor" d="M16 25.125c.548 0 1.018-.19 1.41-.574.392-.382.602-.852.63-1.41h-4.08c.028.558.238 1.028.63 1.41.392.383.862.574 1.41.574Zm-2.947-6.234v-4.535c0-.81.288-1.504.865-2.082A2.838 2.838 0 0 1 16 11.41c.81 0 1.504.288 2.082.865.577.578.865 1.272.865 2.082v4.535h-5.894ZM16.003 30c-1.937 0-3.757-.367-5.46-1.102a14.14 14.14 0 0 1-4.447-2.992 14.138 14.138 0 0 1-2.993-4.444C2.368 19.758 2 17.939 2 16.002c0-1.936.367-3.756 1.102-5.46a14.14 14.14 0 0 1 2.992-4.446 14.14 14.14 0 0 1 4.445-2.993C12.242 2.368 14.06 2 15.997 2c1.937 0 3.757.367 5.46 1.102a14.14 14.14 0 0 1 4.447 2.992 14.14 14.14 0 0 1 2.993 4.445C29.632 12.242 30 14.06 30 15.997c0 1.937-.367 3.757-1.102 5.46a14.14 14.14 0 0 1-2.992 4.447 14.14 14.14 0 0 1-4.444 2.993c-1.704.735-3.523 1.103-5.46 1.103ZM16 27.79c3.291 0 6.079-1.143 8.363-3.427S27.79 19.291 27.79 16c0-3.291-1.143-6.079-3.427-8.363S19.291 4.21 16 4.21c-3.291 0-6.079 1.142-8.363 3.426C5.353 9.92 4.21 12.709 4.21 16c0 3.291 1.142 6.079 3.426 8.363C9.92 26.647 12.709 27.79 16 27.79Zm-5.611-6.519H21.61c.338 0 .62-.114.848-.342.229-.228.342-.51.342-.848 0-.337-.113-.62-.341-.848a1.152 1.152 0 0 0-.849-.342h-.283v-3.917c0-1.376-.359-2.629-1.076-3.76-.717-1.132-1.718-1.851-3.005-2.157v-.964a1.26 1.26 0 0 0-.353-.909A1.188 1.188 0 0 0 16 6.818c-.36 0-.659.122-.894.366a1.26 1.26 0 0 0-.353.91v.963c-1.287.306-2.288 1.02-3.005 2.142-.717 1.122-1.076 2.371-1.076 3.747v3.945h-.283c-.338 0-.62.114-.849.342-.227.228-.341.51-.341.848 0 .337.114.62.341.848.229.228.511.342.849.342Z"/>
</svg>
