<svg xmlns="http://www.w3.org/2000/svg" viewBox="0 0 32 32">
  <path fill="currentColor" d="M3.035 19.447a.998.998 0 0 1-.737-.3 1.01 1.01 0 0 1-.298-.74 1.008 1.008 0 0 1 1.035-1.03h9.861c.293 0 .539.1.737.3.199.199.298.446.298.74a1.007 1.007 0 0 1-1.035 1.029H3.035Zm0-6.694a.998.998 0 0 1-.737-.3 1.008 1.008 0 0 1-.298-.74c0-.288.1-.532.298-.73a.998.998 0 0 1 .737-.3h16.65a.99.99 0 0 1 .737.305c.198.202.298.45.298.74 0 .292-.1.536-.298.731a1.008 1.008 0 0 1-.737.293H3.035Zm0-6.683a.997.997 0 0 1-.737-.3A1.009 1.009 0 0 1 2 5.03c0-.295.1-.54.298-.735.198-.196.444-.294.737-.294h16.65a1 1 0 0 1 .737.299c.198.2.298.447.298.741a1.007 1.007 0 0 1-1.035 1.03H3.035ZM16.19 27.418v-2.549c0-.156.03-.312.09-.466.061-.154.16-.298.295-.434l8.55-8.51c.207-.207.43-.353.669-.437.24-.084.477-.126.714-.126a2.002 2.002 0 0 1 1.41.583l1.524 1.539A2.036 2.036 0 0 1 30 18.399c0 .238-.049.481-.147.728a2.218 2.218 0 0 1-.43.682l-8.496 8.512a1.263 1.263 0 0 1-.9.385h-2.549c-.365 0-.67-.123-.918-.37a1.247 1.247 0 0 1-.37-.918Zm1.964-.676h1.565l5.346-5.372-.757-.783-.767-.772-5.387 5.362v1.565Zm6.154-6.155-.767-.772 1.524 1.555-.757-.783Z"/>
</svg>
