<svg xmlns="http://www.w3.org/2000/svg" viewBox="0 0 32 32">
  <path fill="currentColor" d="M11.588 19.823v6.883c0 .625-.223 1.164-.67 1.616A2.2 2.2 0 0 1 9.294 29a2.207 2.207 0 0 1-1.616-.678A2.207 2.207 0 0 1 7 26.706V5.294c0-.625.226-1.164.678-1.616C8.13 3.226 8.668 3 9.294 3h7.647c2.324 0 4.306.821 5.949 2.463 1.642 1.642 2.463 3.625 2.463 5.949 0 2.323-.821 4.306-2.463 5.948-1.643 1.643-3.625 2.463-5.949 2.463h-5.353Zm0-4.588h5.541c1.047 0 1.947-.375 2.697-1.126.751-.751 1.127-1.65 1.127-2.697 0-1.047-.376-1.946-1.127-2.697-.75-.751-1.65-1.127-2.697-1.127h-5.54v7.647Z"/>
</svg>
