<svg xmlns="http://www.w3.org/2000/svg" viewBox="0 0 32 32">
  <path fill="currentColor" d="M12.929 22.25a1.02 1.02 0 0 0 1.041-1.047V10.797c0-.297-.1-.545-.303-.746a1.022 1.022 0 0 0-.75-.301 1.022 1.022 0 0 0-1.041 1.047v10.406c0 .297.101.545.303.746.201.2.451.301.75.301Zm6.153 0a1.022 1.022 0 0 0 1.041-1.047V10.797c0-.297-.1-.545-.302-.746a1.022 1.022 0 0 0-.75-.301 1.02 1.02 0 0 0-1.041 1.047v10.406c0 .297.1.545.302.746.202.2.452.301.75.301Zm-3.072 9.583c-2.192 0-4.248-.415-6.169-1.246a16.046 16.046 0 0 1-5.03-3.398 16.093 16.093 0 0 1-3.397-5.03C.582 20.239.167 18.184.167 15.994s.415-4.247 1.246-6.17c.831-1.925 1.964-3.6 3.398-5.025a16.195 16.195 0 0 1 5.03-3.385C11.761.582 13.816.167 16.006.167s4.247.415 6.17 1.246c1.925.831 3.6 1.96 5.025 3.384 1.425 1.425 2.554 3.1 3.385 5.026.832 1.926 1.247 3.982 1.247 6.167 0 2.192-.415 4.248-1.246 6.169a16.101 16.101 0 0 1-3.384 5.025c-1.425 1.43-3.1 2.562-5.026 3.397-1.926.835-3.982 1.252-6.167 1.252Zm-.001-2.094c3.821 0 7.065-1.336 9.731-4.007 2.666-2.672 4-5.919 4-9.74 0-3.823-1.332-7.066-3.994-9.732-2.662-2.666-5.91-4-9.746-4-3.816 0-7.06 1.332-9.732 3.994C3.597 8.916 2.261 12.164 2.261 16c0 3.816 1.336 7.06 4.007 9.732 2.672 2.671 5.919 4.007 9.74 4.007Z"/>
</svg>
