<svg xmlns="http://www.w3.org/2000/svg" viewBox="0 0 32 32">
  <path fill="currentColor" d="M12.784 14.162h1.567c.352 0 .648-.119.886-.357.238-.239.357-.534.357-.886v-1.568c0-.352-.119-.647-.357-.886a1.204 1.204 0 0 0-.886-.357h-2.189a.596.596 0 0 0-.435.187.596.596 0 0 0-.186.435v5.621c0 .166.062.311.186.435.124.125.27.187.435.187a.593.593 0 0 0 .435-.187.596.596 0 0 0 .187-.435v-2.189Zm0-1.243v-1.568h1.567v1.568h-1.567Zm7 4.054c.352 0 .647-.12.886-.357.238-.239.357-.534.357-.886v-4.38c0-.352-.12-.647-.358-.886a1.203 1.203 0 0 0-.885-.357h-2.136a.596.596 0 0 0-.434.187.595.595 0 0 0-.187.435v5.621c0 .166.062.311.187.435a.593.593 0 0 0 .434.187h2.136ZM18.27 15.73v-4.38h1.514v4.379H18.27Zm5.568-1.568h1.054c.166 0 .31-.062.435-.187a.595.595 0 0 0 .186-.434.595.595 0 0 0-.186-.435.596.596 0 0 0-.435-.187h-1.054v-1.568h1.054c.166 0 .31-.062.435-.186a.595.595 0 0 0 .186-.435.595.595 0 0 0-.186-.435.596.596 0 0 0-.435-.187h-1.676a.596.596 0 0 0-.435.187.595.595 0 0 0-.186.435v5.621c0 .166.062.311.186.435a.597.597 0 0 0 .87 0 .595.595 0 0 0 .187-.435v-2.189Zm-13.379 9.92c-.71 0-1.31-.247-1.802-.739a2.452 2.452 0 0 1-.738-1.802v-16c0-.71.246-1.311.738-1.803A2.452 2.452 0 0 1 10.46 3h16c.71 0 1.31.246 1.802.738S29 4.83 29 5.54v16c0 .71-.246 1.31-.738 1.802a2.453 2.453 0 0 1-1.803.738h-16Zm0-2.109h16a.412.412 0 0 0 .298-.135.412.412 0 0 0 .135-.297v-16a.412.412 0 0 0-.135-.298.412.412 0 0 0-.298-.135h-16a.412.412 0 0 0-.297.135.412.412 0 0 0-.135.298v16c0 .108.045.207.135.297.09.09.19.135.297.135ZM5.542 29c-.71 0-1.311-.246-1.803-.738A2.453 2.453 0 0 1 3 26.46V9.405c0-.298.101-.549.303-.75a1.02 1.02 0 0 1 .751-.304c.3 0 .55.101.752.303.201.202.302.453.302.751V26.46c0 .109.045.208.135.298.09.09.19.135.298.135h17.053c.3 0 .55.101.752.303.202.202.303.453.303.751 0 .3-.101.55-.303.751a1.02 1.02 0 0 1-.752.303H5.541Z"/>
</svg>
