<svg xmlns="http://www.w3.org/2000/svg" viewBox="0 0 32 32">
  <path fill="currentColor" d="M8.63 17.842a1.78 1.78 0 0 0 1.305-.537c.36-.357.539-.792.539-1.303a1.78 1.78 0 0 0-.537-1.305 1.772 1.772 0 0 0-1.304-.54 1.78 1.78 0 0 0-1.305.538 1.77 1.77 0 0 0-.539 1.303c0 .511.18.947.537 1.306.358.359.793.538 1.304.538Zm7.368 0a1.78 1.78 0 0 0 1.306-.537 1.77 1.77 0 0 0 .538-1.303 1.78 1.78 0 0 0-.537-1.305 1.771 1.771 0 0 0-1.303-.54 1.78 1.78 0 0 0-1.305.538c-.36.357-.54.792-.54 1.303 0 .511.18.947.538 1.306a1.77 1.77 0 0 0 1.303.538Zm7.369 0a1.78 1.78 0 0 0 1.305-.537 1.77 1.77 0 0 0 .538-1.303 1.78 1.78 0 0 0-.536-1.305 1.771 1.771 0 0 0-1.304-.54 1.78 1.78 0 0 0-1.305.538 1.772 1.772 0 0 0-.539 1.303c0 .511.18.947.537 1.306.358.359.793.538 1.304.538ZM16.003 30c-1.937 0-3.757-.367-5.46-1.102a14.14 14.14 0 0 1-4.447-2.992 14.138 14.138 0 0 1-2.993-4.444C2.368 19.758 2 17.939 2 16.002c0-1.936.367-3.756 1.102-5.46a14.14 14.14 0 0 1 2.992-4.446 14.14 14.14 0 0 1 4.445-2.993C12.242 2.368 14.06 2 15.997 2c1.937 0 3.757.367 5.46 1.102a14.14 14.14 0 0 1 4.447 2.992 14.14 14.14 0 0 1 2.993 4.445C29.632 12.242 30 14.06 30 15.997c0 1.937-.367 3.757-1.102 5.46a14.14 14.14 0 0 1-2.992 4.447 14.14 14.14 0 0 1-4.444 2.993c-1.704.735-3.523 1.103-5.46 1.103ZM16 27.79c3.291 0 6.079-1.143 8.363-3.427S27.79 19.291 27.79 16c0-3.291-1.143-6.079-3.427-8.363S19.291 4.21 16 4.21c-3.291 0-6.079 1.142-8.363 3.426C5.353 9.92 4.21 12.709 4.21 16c0 3.291 1.142 6.079 3.426 8.363C9.92 26.647 12.709 27.79 16 27.79Z"/>
</svg>
