<svg xmlns="http://www.w3.org/2000/svg" viewBox="0 0 32 32">
  <path fill="currentColor" d="M26.452 28c-2.556 0-5.168-.627-7.835-1.882-2.668-1.255-5.144-3.026-7.427-5.314-2.284-2.289-4.054-4.764-5.308-7.427C4.627 10.713 4 8.104 4 5.548c0-.442.146-.81.439-1.105A1.48 1.48 0 0 1 5.535 4h4.22c.364 0 .676.119.936.356.26.238.436.54.53.908l.83 3.906c.052.366.04.69-.035.971a1.475 1.475 0 0 1-.418.71L8.29 14.073a25.697 25.697 0 0 0 1.93 2.911c.692.9 1.44 1.75 2.245 2.55.845.86 1.743 1.649 2.695 2.367a24.988 24.988 0 0 0 3.065 1.974l3.192-3.262c.23-.25.495-.42.794-.51.3-.09.61-.112.935-.065l3.59.77c.373.087.676.276.911.564.236.288.353.615.353.98v4.114c0 .439-.148.804-.443 1.096-.294.293-.663.439-1.105.439ZM7.422 12.436l2.783-2.688a.277.277 0 0 0 .079-.149.408.408 0 0 0 .002-.176L9.567 5.99a.244.244 0 0 0-.09-.163.294.294 0 0 0-.181-.054H5.97a.185.185 0 0 0-.19.19c.037.974.191 1.996.462 3.067.27 1.07.664 2.205 1.18 3.405ZM19.9 24.72c.955.461 1.985.818 3.089 1.072 1.103.253 2.12.396 3.047.43a.184.184 0 0 0 .19-.19v-3.3a.294.294 0 0 0-.054-.18.244.244 0 0 0-.163-.091l-3.122-.641a.266.266 0 0 0-.143.002.386.386 0 0 0-.128.08L19.9 24.719Z"/>
</svg>
