<svg xmlns="http://www.w3.org/2000/svg" viewBox="0 0 32 32">
  <path fill="currentColor" d="m13.832 21.564 7.4-4.742c.31-.197.463-.47.463-.82s-.154-.625-.462-.824l-7.4-4.742c-.33-.227-.665-.245-1.007-.056-.343.189-.514.481-.514.877v9.486c0 .396.171.688.514.877.342.19.678.17 1.006-.056Zm2.17 10.27c-2.178 0-4.229-.416-6.152-1.247a16.063 16.063 0 0 1-5.037-3.398 16.061 16.061 0 0 1-3.4-5.035C.584 20.232.168 18.181.168 16.003c0-2.19.415-4.249 1.246-6.176.831-1.926 1.964-3.603 3.398-5.028a16.18 16.18 0 0 1 5.035-3.385C11.768.582 13.819.167 15.997.167c2.19 0 4.249.415 6.175 1.246 1.927.831 3.604 1.96 5.029 3.384 1.425 1.425 2.554 3.1 3.385 5.026.832 1.926 1.247 3.984 1.247 6.174 0 2.179-.415 4.23-1.246 6.153a16.18 16.18 0 0 1-3.384 5.037c-1.425 1.434-3.1 2.567-5.026 3.4-1.926.83-3.984 1.246-6.174 1.246ZM16 29.738c3.828 0 7.074-1.336 9.74-4.007 2.666-2.672 4-5.916 4-9.732 0-3.828-1.334-7.074-4-9.74-2.666-2.666-5.912-4-9.74-4-3.816 0-7.06 1.334-9.732 4C3.597 8.926 2.261 12.172 2.261 16c0 3.816 1.336 7.06 4.007 9.732 2.672 2.671 5.916 4.007 9.732 4.007Z"/>
</svg>
