<svg xmlns="http://www.w3.org/2000/svg" viewBox="0 0 32 32">
  <path fill="currentColor" d="M15.13 16.995v5.08a.909.909 0 0 0 .93.925.904.904 0 0 0 .92-.926v-5.079h5.094a.897.897 0 0 0 .66-.267.903.903 0 0 0 .266-.663.903.903 0 0 0-.926-.92H16.98v-5.22a.894.894 0 0 0-.267-.659A.903.903 0 0 0 16.05 9a.903.903 0 0 0-.92.926v5.218H9.925a.894.894 0 0 0-.66.268.904.904 0 0 0-.266.663.904.904 0 0 0 .926.92h5.203ZM16.008 30c-1.938 0-3.757-.367-5.455-1.102a14.19 14.19 0 0 1-4.448-3.004 14.23 14.23 0 0 1-3.003-4.448C2.368 19.748 2 17.93 2 15.995c0-1.937.367-3.755 1.102-5.456a14.05 14.05 0 0 1 3.004-4.443 14.32 14.32 0 0 1 4.448-2.993C12.252 2.368 14.07 2 16.005 2c1.937 0 3.755.367 5.457 1.102a14.153 14.153 0 0 1 4.442 2.992 14.14 14.14 0 0 1 2.993 4.445C29.632 12.242 30 14.059 30 15.99c0 1.938-.367 3.756-1.102 5.455a14.24 14.24 0 0 1-2.992 4.443 14.144 14.144 0 0 1-4.444 3.003C19.758 29.631 17.94 30 16.009 30Zm-.001-1.852c3.379 0 6.247-1.18 8.605-3.543 2.357-2.363 3.535-5.233 3.535-8.613 0-3.379-1.177-6.247-3.53-8.605C22.264 5.03 19.39 3.852 16 3.852c-3.374 0-6.243 1.177-8.605 3.53C5.033 9.736 3.852 12.61 3.852 16c0 3.374 1.18 6.242 3.543 8.605 2.362 2.362 5.233 3.543 8.613 3.543Z"/>
</svg>
