<svg xmlns="http://www.w3.org/2000/svg" viewBox="0 0 32 32">
  <path fill="currentColor" d="M14.895 28.895v-10.99a2.397 2.397 0 0 1-.814-.803A2.084 2.084 0 0 1 13.79 16c0-.603.217-1.122.653-1.557A2.126 2.126 0 0 1 16 13.79c.603 0 1.122.217 1.557.653.436.435.654.954.654 1.557 0 .414-.098.785-.292 1.114a2.183 2.183 0 0 1-.814.79v10.99c0 .314-.106.577-.317.788A1.07 1.07 0 0 1 16 30a1.07 1.07 0 0 1-.788-.318 1.069 1.069 0 0 1-.317-.787Zm-7.74-3.534c-.228.228-.5.338-.813.328a1.056 1.056 0 0 1-.79-.38 14.577 14.577 0 0 1-2.606-4.242C2.316 19.493 2 17.804 2 16c0-1.935.368-3.754 1.104-5.457a14.157 14.157 0 0 1 2.994-4.445 14.157 14.157 0 0 1 4.445-2.994C12.246 2.368 14.065 2 16 2s3.754.368 5.457 1.104a14.158 14.158 0 0 1 4.445 2.994 14.159 14.159 0 0 1 2.994 4.445C29.632 12.246 30 14.065 30 16c0 1.795-.316 3.482-.947 5.06a14.549 14.549 0 0 1-2.604 4.25 1.084 1.084 0 0 1-.78.39 1.014 1.014 0 0 1-.802-.317 1.014 1.014 0 0 1-.298-.797c.014-.319.128-.6.341-.844a11.94 11.94 0 0 0 2.116-3.534c.509-1.314.764-2.717.764-4.208 0-3.291-1.143-6.079-3.427-8.363S19.291 4.21 16 4.21c-3.291 0-6.079 1.142-8.363 3.426C5.353 9.92 4.21 12.709 4.21 16c0 1.49.252 2.89.756 4.197a11.475 11.475 0 0 0 2.146 3.523c.213.244.33.52.353.832a1 1 0 0 1-.311.809Zm4.163-4.163a1.119 1.119 0 0 1-.806.347.907.907 0 0 1-.76-.384 8.746 8.746 0 0 1-1.36-2.37A7.739 7.739 0 0 1 7.895 16c0-2.248.789-4.161 2.366-5.739C11.84 8.684 13.751 7.895 16 7.895c2.248 0 4.161.789 5.739 2.366 1.578 1.578 2.366 3.49 2.366 5.739 0 .984-.166 1.916-.497 2.794a8.334 8.334 0 0 1-1.36 2.367.991.991 0 0 1-.76.384 1.04 1.04 0 0 1-.806-.325 1.07 1.07 0 0 1-.325-.776 1.38 1.38 0 0 1 .28-.845 6.61 6.61 0 0 0 .918-1.672c.226-.604.34-1.247.34-1.927 0-1.621-.578-3.009-1.732-4.163-1.154-1.155-2.542-1.732-4.163-1.732-1.621 0-3.009.577-4.163 1.732-1.155 1.154-1.732 2.542-1.732 4.163 0 .695.114 1.341.34 1.939.227.596.533 1.15.918 1.66.19.259.283.537.28.834a1.06 1.06 0 0 1-.325.765Z"/>
</svg>
