<svg xmlns="http://www.w3.org/2000/svg" viewBox="0 0 32 32">
  <path fill="currentColor" d="M10.059 28.37a2.282 2.282 0 0 1-1.679-.703 2.293 2.293 0 0 1-.698-1.675v-4H4.377a2.293 2.293 0 0 1-1.675-.698A2.282 2.282 0 0 1 2 19.614v-6.386c0-.996.341-1.834 1.024-2.513.682-.68 1.521-1.02 2.518-1.02h20.916c1.003 0 1.845.34 2.524 1.02.679.68 1.018 1.517 1.018 2.513v6.387c0 .654-.234 1.213-.702 1.679a2.293 2.293 0 0 1-1.675.698h-3.305v4c0 .649-.233 1.207-.698 1.675a2.282 2.282 0 0 1-1.679.702H10.06Zm-5.682-8.287h3.305v-.299c.013-.638.25-1.184.712-1.638a2.29 2.29 0 0 1 1.665-.68H21.94a2.29 2.29 0 0 1 1.665.68c.462.454.7 1 .712 1.638v.299h3.305a.455.455 0 0 0 .336-.132.456.456 0 0 0 .131-.336v-6.393c0-.458-.156-.842-.469-1.152-.313-.31-.7-.465-1.163-.465H5.542c-.462 0-.85.156-1.163.47a1.57 1.57 0 0 0-.47 1.153v6.387a.46.46 0 0 0 .132.336c.088.088.2.132.336.132ZM22.409 9.695V5.377a.454.454 0 0 0-.132-.336.454.454 0 0 0-.336-.132H10.06a.454.454 0 0 0-.336.132.454.454 0 0 0-.132.336v4.318h-1.91V5.377c0-.649.234-1.207.7-1.675A2.282 2.282 0 0 1 10.058 3H21.94c.654 0 1.213.234 1.679.702.465.468.698 1.026.698 1.675v4.318h-1.91Zm2.767 5.611c.37 0 .685-.13.947-.393.262-.262.393-.576.393-.941 0-.366-.13-.68-.393-.942a1.285 1.285 0 0 0-.942-.393 1.28 1.28 0 0 0-.946.394 1.293 1.293 0 0 0-.389.941c0 .366.13.68.389.942.259.262.573.393.941.393ZM22.41 25.993v-6.15a.46.46 0 0 0-.468-.468H10.06a.46.46 0 0 0-.468.468v6.15a.451.451 0 0 0 .468.467h11.88a.455.455 0 0 0 .336-.132.454.454 0 0 0 .132-.335Z"/>
</svg>
