<svg xmlns="http://www.w3.org/2000/svg" viewBox="0 0 32 32">
  <path fill="currentColor" d="M6.973 24.173c1.398-.986 2.83-1.755 4.293-2.307 1.463-.551 3.041-.827 4.734-.827s3.273.276 4.742.827c1.468.552 2.902 1.321 4.3 2.307a12.617 12.617 0 0 0 2.318-3.787c.526-1.361.788-2.823.788-4.386 0-3.406-1.173-6.283-3.519-8.63C22.283 5.026 19.406 3.853 16 3.853c-3.406 0-6.283 1.173-8.63 3.519C5.026 9.717 3.853 12.594 3.853 16c0 1.563.265 3.025.795 4.386a12.742 12.742 0 0 0 2.326 3.787Zm9.022-7.247c-1.332 0-2.453-.457-3.364-1.371-.91-.915-1.366-2.037-1.366-3.37 0-1.33.457-2.452 1.372-3.363.914-.91 2.036-1.366 3.368-1.366 1.332 0 2.453.457 3.364 1.372.91.914 1.366 2.037 1.366 3.368 0 1.332-.457 2.453-1.372 3.364-.914.91-2.036 1.366-3.368 1.366ZM16.01 30c-1.941 0-3.763-.366-5.464-1.097a14.087 14.087 0 0 1-4.453-3 14.152 14.152 0 0 1-2.997-4.446C2.366 19.761 2 17.941 2 15.998c0-1.943.366-3.762 1.097-5.457a14.142 14.142 0 0 1 3-4.445 14.137 14.137 0 0 1 4.446-3C12.239 2.367 14.059 2 16.002 2c1.943 0 3.762.366 5.457 1.097a14.142 14.142 0 0 1 4.445 3 14.14 14.14 0 0 1 3 4.445C29.633 12.238 30 14.053 30 15.99c0 1.941-.366 3.763-1.097 5.464a14.086 14.086 0 0 1-3 4.453 14.154 14.154 0 0 1-4.445 2.997C19.762 29.634 17.947 30 16.01 30ZM16 28.148c1.357 0 2.685-.216 3.984-.649a11.28 11.28 0 0 0 3.605-2.007 13.54 13.54 0 0 0-3.575-1.919A11.881 11.881 0 0 0 16 22.89c-1.397 0-2.737.226-4.021.676a12.78 12.78 0 0 0-3.559 1.926 11.166 11.166 0 0 0 3.596 2.007c1.3.433 2.627.65 3.984.65Zm.002-13.074c.831 0 1.52-.273 2.064-.818.545-.546.817-1.235.817-2.066 0-.832-.273-1.52-.818-2.065-.546-.545-1.235-.817-2.067-.817-.831 0-1.52.273-2.064.818-.545.546-.817 1.235-.817 2.066 0 .832.273 1.52.818 2.065.546.545 1.235.817 2.066.817Z"/>
</svg>
