<svg xmlns="http://www.w3.org/2000/svg" viewBox="0 0 32 32">
  <path fill="currentColor" d="M16.06 27.733c-3.292 0-6.08-1.136-8.366-3.409-2.285-2.273-3.427-5.047-3.427-8.322 0-3.274 1.142-6.05 3.427-8.324s5.074-3.411 8.367-3.411c1.838 0 3.578.406 5.22 1.22a11.167 11.167 0 0 1 4.094 3.443V5.44c0-.332.113-.611.339-.836.226-.225.506-.337.84-.337.335 0 .615.112.84.337.226.225.34.504.34.836v6.98c0 .4-.137.736-.41 1.007a1.38 1.38 0 0 1-1.012.407h-7.016c-.334 0-.614-.113-.84-.337a1.134 1.134 0 0 1-.339-.837c0-.332.113-.611.339-.836.226-.224.506-.337.84-.337h5.032a9.226 9.226 0 0 0-3.447-3.57c-1.47-.869-3.076-1.304-4.82-1.304-2.621 0-4.85.913-6.684 2.738-1.834 1.825-2.752 4.042-2.752 6.65 0 2.607.918 4.823 2.752 6.648 1.835 1.825 4.063 2.738 6.684 2.738 1.827 0 3.5-.478 5.019-1.433a9.255 9.255 0 0 0 3.45-3.82c.15-.285.37-.484.659-.598.289-.113.584-.12.884-.02.32.101.545.31.673.627a1.03 1.03 0 0 1-.032.902 11.673 11.673 0 0 1-4.312 4.863c-1.902 1.217-4.015 1.825-6.341 1.825Z"/>
</svg>
