<svg xmlns="http://www.w3.org/2000/svg" viewBox="0 0 32 32">
  <path fill="currentColor" d="M5.392 29c-.657 0-1.22-.234-1.689-.703A2.303 2.303 0 0 1 3 26.608V5.392c0-.657.234-1.22.703-1.689A2.303 2.303 0 0 1 5.392 3h16.99a2.455 2.455 0 0 1 1.707.708l4.203 4.204A2.456 2.456 0 0 1 29 9.619v16.989c0 .657-.234 1.22-.703 1.689a2.303 2.303 0 0 1-1.689.703H5.392ZM27.078 9.467l-4.545-4.545H5.392a.458.458 0 0 0-.338.132.458.458 0 0 0-.132.338v21.216c0 .137.044.25.132.338.088.088.2.132.338.132h21.216c.137 0 .25-.044.338-.132a.458.458 0 0 0 .132-.338V9.467ZM15.994 23.96a3.41 3.41 0 0 0 2.495-1.029 3.381 3.381 0 0 0 1.034-2.489 3.41 3.41 0 0 0-1.028-2.495 3.381 3.381 0 0 0-2.489-1.034 3.41 3.41 0 0 0-2.495 1.028 3.381 3.381 0 0 0-1.034 2.49 3.41 3.41 0 0 0 1.028 2.494 3.381 3.381 0 0 0 2.489 1.035ZM8.478 12.32h10.126c.341 0 .626-.116.854-.347.228-.232.342-.515.342-.85V8.479c0-.341-.114-.626-.342-.853a1.16 1.16 0 0 0-.854-.343H8.478c-.341 0-.626.114-.853.343a1.158 1.158 0 0 0-.343.853v2.646c0 .334.114.617.343.849.227.23.512.346.853.346Z"/>
</svg>
