<svg xmlns="http://www.w3.org/2000/svg" viewBox="0 0 32 32">
  <path fill="currentColor" d="M12.072 22.066c-2.813 0-5.195-.976-7.146-2.926C2.976 17.19 2 14.82 2 12.033c0-2.788.975-5.157 2.926-7.107C6.876 2.976 9.247 2 12.039 2c2.792 0 5.162.975 7.112 2.926 1.95 1.95 2.925 4.32 2.925 7.107a9.821 9.821 0 0 1-.595 3.385 9.618 9.618 0 0 1-1.676 2.923l9.887 9.844c.2.191.302.438.308.74.005.302-.097.556-.308.763-.21.206-.463.309-.76.309a.996.996 0 0 1-.747-.315l-9.86-9.86a8.987 8.987 0 0 1-2.87 1.657 9.93 9.93 0 0 1-3.383.587Zm-.017-2.079c2.217 0 4.095-.771 5.634-2.314 1.54-1.543 2.309-3.423 2.309-5.64 0-2.217-.77-4.097-2.309-5.64-1.539-1.543-3.417-2.315-5.634-2.315-2.226 0-4.113.772-5.658 2.315-1.546 1.543-2.319 3.423-2.319 5.64 0 2.217.773 4.097 2.319 5.64 1.545 1.543 3.432 2.314 5.658 2.314Z"/>
</svg>
