<svg xmlns="http://www.w3.org/2000/svg" viewBox="0 0 32 32">
  <path fill="currentColor" d="M14.393 30.167c-.346 0-.651-.114-.915-.34a1.367 1.367 0 0 1-.476-.853l-.47-3.257a8.762 8.762 0 0 1-1.49-.685 8.604 8.604 0 0 1-1.375-.949l-2.982 1.344a1.386 1.386 0 0 1-1.002.047 1.385 1.385 0 0 1-.78-.633l-1.866-3.278a1.28 1.28 0 0 1-.161-.975c.078-.336.262-.615.551-.835L6.12 17.75a7.26 7.26 0 0 1-.095-.785c-.02-.278-.029-.54-.029-.785 0-.236.01-.492.029-.768.02-.277.05-.553.095-.83L3.427 12.58a1.405 1.405 0 0 1-.544-.843 1.318 1.318 0 0 1 .169-.981l1.85-3.236a1.44 1.44 0 0 1 .78-.627c.336-.114.67-.1 1.003.04l2.968 1.321c.418-.338.882-.654 1.392-.947a7.714 7.714 0 0 1 1.473-.667l.484-3.281c.053-.341.211-.626.476-.853.264-.227.569-.34.915-.34h3.703c.347 0 .652.113.916.34.264.227.423.512.476.853l.47 3.27a10.33 10.33 0 0 1 1.484.685c.48.269.927.582 1.338.94l3.039-1.32c.333-.141.665-.155.994-.04.33.114.588.323.773.626l1.866 3.25c.186.313.24.642.162.986-.078.345-.262.62-.552.824l-2.748 2.005c.063.274.1.545.114.812a11.63 11.63 0 0 1-.007 1.517 6.66 6.66 0 0 1-.115.837l2.706 2c.29.205.476.48.559.824a1.28 1.28 0 0 1-.155.987l-1.849 3.264a1.426 1.426 0 0 1-.797.633c-.34.11-.672.094-1-.047l-2.99-1.344a11.49 11.49 0 0 1-1.363.969 6.522 6.522 0 0 1-1.46.665l-.47 3.27a1.367 1.367 0 0 1-.475.853c-.264.227-.57.34-.916.34h-3.703Zm.308-1.852h3.06l.53-4.057a8.434 8.434 0 0 0 2.148-.865 9.578 9.578 0 0 0 1.895-1.454l3.786 1.625 1.467-2.576-3.337-2.479c.106-.418.186-.817.239-1.197a9.006 9.006 0 0 0 .007-2.301 7.657 7.657 0 0 0-.246-1.159l3.365-2.507-1.466-2.575-3.829 1.631a8.03 8.03 0 0 0-1.84-1.491 6.263 6.263 0 0 0-2.202-.835l-.49-4.057h-3.08l-.487 4.043a7.476 7.476 0 0 0-2.197.83c-.67.384-1.3.88-1.887 1.489L6.34 8.77l-1.466 2.575 3.332 2.457c-.113.376-.197.76-.25 1.154a8.95 8.95 0 0 0 0 2.4c.053.384.132.768.236 1.153l-3.318 2.48 1.466 2.575 3.781-1.618a8.508 8.508 0 0 0 1.88 1.459c.672.381 1.408.67 2.205.867l.494 4.043Zm1.52-7.907c1.18 0 2.183-.412 3.006-1.236.825-.824 1.237-1.826 1.237-3.005 0-1.18-.412-2.182-1.236-3.006-.825-.824-1.826-1.236-3.006-1.236-1.178 0-2.18.412-3.005 1.236-.824.824-1.236 1.826-1.236 3.006 0 1.18.412 2.181 1.236 3.005.825.824 1.827 1.236 3.005 1.236Z"/>
</svg>
