<svg xmlns="http://www.w3.org/2000/svg" viewBox="0 0 32 32">
  <path fill="currentColor" d="M24.73 30c-1.067 0-1.974-.374-2.72-1.122-.748-.748-1.12-1.657-1.12-2.726 0-.175.016-.373.05-.593.033-.22.086-.419.16-.596l-10.995-6.432c-.353.403-.78.723-1.277.958a3.601 3.601 0 0 1-1.556.353c-1.067 0-1.974-.374-2.721-1.121-.747-.747-1.121-1.654-1.121-2.722 0-1.067.374-1.974 1.12-2.72.748-.747 1.655-1.12 2.722-1.12.543 0 1.058.108 1.544.325.486.218.916.528 1.29.931l10.993-6.393a2.454 2.454 0 0 1-.16-.573 3.836 3.836 0 0 1-.05-.607c0-1.067.374-1.974 1.12-2.721C22.758 2.374 23.665 2 24.733 2c1.067 0 1.974.373 2.72 1.12.747.747 1.12 1.654 1.12 2.72 0 1.075-.373 1.985-1.12 2.728-.747.744-1.654 1.116-2.721 1.116-.545 0-1.06-.1-1.548-.3-.487-.2-.91-.5-1.27-.904l-10.985 6.296c.057.181.102.386.136.613a3.462 3.462 0 0 1 0 1.184 4.233 4.233 0 0 1-.136.569l10.985 6.354a4.17 4.17 0 0 1 1.246-.861 3.78 3.78 0 0 1 1.572-.319c1.067 0 1.974.372 2.721 1.114.747.743 1.12 1.65 1.12 2.722s-.373 1.981-1.12 2.728c-.747.747-1.654 1.12-2.722 1.12Zm.003-22.12a1.96 1.96 0 0 0 1.444-.594 1.97 1.97 0 0 0 .592-1.446 1.96 1.96 0 0 0-.594-1.445 1.973 1.973 0 0 0-1.446-.59 1.96 1.96 0 0 0-1.444.593 1.972 1.972 0 0 0-.592 1.446c0 .569.198 1.05.594 1.444a1.97 1.97 0 0 0 1.446.592ZM7.274 18.038a1.96 1.96 0 0 0 1.444-.594 1.97 1.97 0 0 0 .592-1.446 1.96 1.96 0 0 0-.594-1.445 1.973 1.973 0 0 0-1.446-.59 1.96 1.96 0 0 0-1.445.593 1.974 1.974 0 0 0-.59 1.447c0 .568.197 1.05.593 1.444.396.394.878.59 1.446.59Zm17.46 10.158a1.96 1.96 0 0 0 1.443-.594 1.97 1.97 0 0 0 .592-1.446 1.96 1.96 0 0 0-.594-1.444 1.972 1.972 0 0 0-1.446-.592 1.96 1.96 0 0 0-1.444.594 1.972 1.972 0 0 0-.592 1.446c0 .569.198 1.05.594 1.445.396.394.878.59 1.446.59Z"/>
</svg>
