<svg xmlns="http://www.w3.org/2000/svg" viewBox="0 0 32 32">
  <path fill="currentColor" d="M16.006 21.002c1.5 0 2.777-.528 3.83-1.585 1.054-1.057 1.58-2.336 1.58-3.837 0-1.5-.528-2.777-1.585-3.83s-2.336-1.58-3.837-1.58c-1.5 0-2.777.528-3.83 1.585-1.054 1.057-1.58 2.336-1.58 3.837 0 1.5.528 2.778 1.585 3.83 1.057 1.054 2.336 1.58 3.837 1.58Zm-.013-1.653c-1.047 0-1.935-.367-2.663-1.1-.728-.733-1.093-1.623-1.093-2.67s.367-1.935 1.1-2.663c.733-.728 1.623-1.092 2.67-1.092s1.935.366 2.663 1.099c.728.733 1.093 1.623 1.093 2.67s-.367 1.935-1.1 2.663c-.733.729-1.623 1.093-2.67 1.093ZM16 25.172c-2.892 0-5.535-.79-7.928-2.372A18.164 18.164 0 0 1 2.3 16.666a2.122 2.122 0 0 1-.23-.532 2.11 2.11 0 0 1 0-1.097c.049-.177.125-.353.23-.529a18.166 18.166 0 0 1 5.77-6.135C10.466 6.79 13.109 6 16 6c2.892 0 5.535.79 7.928 2.372a18.166 18.166 0 0 1 5.771 6.135c.105.177.181.354.23.533a2.11 2.11 0 0 1 0 1.096 2.107 2.107 0 0 1-.23.529 18.164 18.164 0 0 1-5.77 6.136c-2.394 1.58-5.037 2.372-7.929 2.372Zm-.004-1.72c2.674 0 5.129-.712 7.363-2.135 2.234-1.423 3.938-3.333 5.114-5.73-1.175-2.399-2.879-4.309-5.11-5.732-2.232-1.423-4.685-2.134-7.36-2.134-2.673 0-5.127.711-7.362 2.134-2.234 1.423-3.943 3.333-5.128 5.731 1.185 2.398 2.893 4.308 5.124 5.731 2.232 1.423 4.685 2.135 7.36 2.135Z"/>
</svg>
