<svg xmlns="http://www.w3.org/2000/svg" viewBox="0 0 32 32">
  <path fill="currentColor" d="m5.753 19.42-1.156 2.937a.851.851 0 0 1-.319.393.853.853 0 0 1-.497.158.86.86 0 0 1-.748-.389.798.798 0 0 1-.08-.822l4.9-12.054a.862.862 0 0 1 .814-.551h.679a.857.857 0 0 1 .82.551l4.841 12.032a.842.842 0 0 1-.083.836.845.845 0 0 1-.743.397.882.882 0 0 1-.529-.167.935.935 0 0 1-.333-.427l-1.096-2.894h-6.47Zm.594-1.587h5.23l-2.528-6.64h-.16l-2.542 6.64ZM21.161 21.3h7.162c.224 0 .413.078.57.234a.78.78 0 0 1 .233.572.77.77 0 0 1-.234.569.779.779 0 0 1-.57.232h-8.57a.532.532 0 0 1-.388-.157.519.519 0 0 1-.158-.384v-.88c0-.124.022-.245.065-.364a1.44 1.44 0 0 1 .165-.32l7.708-10.104h-6.67a.774.774 0 0 1-.57-.234.78.78 0 0 1-.234-.572c0-.224.078-.414.234-.569a.78.78 0 0 1 .57-.232h8.019a.545.545 0 0 1 .561.559v.877c0 .124-.021.245-.065.364a1.387 1.387 0 0 1-.165.32L21.16 21.3ZM13.549 5.343c-.13 0-.22-.056-.267-.168-.047-.113-.02-.22.083-.322l2.68-2.68a.562.562 0 0 1 .813.005l2.675 2.675c.102.102.13.21.082.322-.047.112-.136.168-.267.168h-5.8Zm2.49 24.479-2.675-2.675c-.102-.102-.13-.21-.082-.322.047-.112.136-.168.267-.168h5.8c.13 0 .219.056.266.168.047.113.02.22-.083.322l-2.68 2.68a.562.562 0 0 1-.813-.005Z"/>
</svg>
