<svg xmlns="http://www.w3.org/2000/svg" viewBox="0 0 32 32">
  <path fill="currentColor" d="M7.842 23.526 4.82 26.548c-.337.337-.724.414-1.162.231-.439-.182-.658-.512-.658-.988V5.141c0-.589.21-1.092.63-1.512A2.056 2.056 0 0 1 5.14 3h21.72c.588 0 1.091.21 1.51.63.42.419.63.922.63 1.51v16.246a2.06 2.06 0 0 1-.63 1.511c-.419.42-.922.63-1.51.63H7.842Zm-.744-1.72H26.86a.403.403 0 0 0 .29-.13.403.403 0 0 0 .13-.29V5.14a.403.403 0 0 0-.13-.29.403.403 0 0 0-.29-.13H5.14a.403.403 0 0 0-.29.13.403.403 0 0 0-.13.29v19.14l2.378-2.473Zm3.197-7.383c.335 0 .62-.118.856-.354s.354-.522.354-.857c0-.335-.118-.62-.354-.856a1.167 1.167 0 0 0-.856-.354c-.341 0-.628.118-.861.354-.233.236-.35.521-.35.856 0 .335.117.62.35.857.233.236.52.354.86.354Zm5.756 0c.335 0 .62-.118.857-.354a1.17 1.17 0 0 0 .353-.857c0-.335-.118-.62-.353-.856a1.167 1.167 0 0 0-.857-.354c-.335 0-.62.118-.857.354a1.167 1.167 0 0 0-.354.856c0 .335.118.62.354.857.236.236.522.354.857.354Zm5.64 0c.335 0 .62-.118.857-.354.236-.236.354-.522.354-.857 0-.335-.118-.62-.354-.856a1.167 1.167 0 0 0-.857-.354c-.335 0-.62.118-.856.354a1.167 1.167 0 0 0-.354.856c0 .335.118.62.354.857.236.236.521.354.856.354Z"/>
</svg>
