<svg xmlns="http://www.w3.org/2000/svg" viewBox="0 0 32 32">
  <path fill="currentColor" d="M4 25.347V6.63c0-.72.258-1.338.774-1.854A2.557 2.557 0 0 1 6.653 4H25.37c.72 0 1.338.258 1.854.775A2.53 2.53 0 0 1 28 6.629v18.706c0 .714-.258 1.336-.775 1.868-.516.531-1.134.797-1.854.797H6.653a2.558 2.558 0 0 1-1.879-.774A2.558 2.558 0 0 1 4 25.347Zm1.8-14.644h20.4V6.665a.842.842 0 0 0-.243-.622.842.842 0 0 0-.622-.244H6.665a.842.842 0 0 0-.622.244.842.842 0 0 0-.244.622v4.038Zm7.383 7.749h5.634v-5.95h-5.634v5.95Zm0 7.749h5.634v-5.95h-5.634v5.95Zm-7.384-7.75h5.62v-5.949h-5.62v5.95Zm14.806 0H26.2v-5.949h-5.596v5.95Zm-13.94 7.75h4.754v-5.95h-5.62v5.084c0 .253.081.46.244.622a.84.84 0 0 0 .622.244Zm13.94 0h4.73c.253 0 .46-.081.622-.244a.842.842 0 0 0 .244-.622v-5.084h-5.596v5.95Z"/>
</svg>
