<svg xmlns="http://www.w3.org/2000/svg" width="32" height="32" fill="none" viewBox="0 0 32 32">
  <path fill="#E22339" d="M16.003 30c-1.937 0-3.757-.367-5.46-1.102a14.14 14.14 0 0 1-4.447-2.992 14.138 14.138 0 0 1-2.993-4.444C2.368 19.758 2 17.939 2 16.002c0-1.936.367-3.756 1.102-5.46a14.14 14.14 0 0 1 2.992-4.446 14.14 14.14 0 0 1 4.445-2.993C12.242 2.368 14.06 2 15.997 2c1.937 0 3.757.367 5.46 1.102a14.14 14.14 0 0 1 4.447 2.992 14.14 14.14 0 0 1 2.993 4.445C29.632 12.242 30 14.06 30 15.997c0 1.937-.367 3.757-1.102 5.46a14.14 14.14 0 0 1-2.992 4.447 14.14 14.14 0 0 1-4.444 2.993c-1.704.735-3.523 1.103-5.46 1.103Z"/>
  <path fill="#fff" d="M14.931 7.43A1.45 1.45 0 0 1 16 7c.424 0 .78.143 1.069.43.287.288.431.645.431 1.07v8c0 .425-.144.781-.431 1.069A1.449 1.449 0 0 1 16 18c-.425 0-.781-.144-1.069-.431A1.45 1.45 0 0 1 14.5 16.5v-8c0-.425.144-.782.431-1.07ZM16 21.5c-.496 0-.911.168-1.247.504a1.693 1.693 0 0 0-.503 1.246c0 .496.168.912.503 1.247.336.335.751.503 1.247.503.496 0 .911-.168 1.247-.503.335-.335.503-.75.503-1.247 0-.495-.168-.91-.503-1.246A1.693 1.693 0 0 0 16 21.5Z"/>
</svg>
