<svg xmlns="http://www.w3.org/2000/svg" width="32" height="32" fill="none" viewBox="0 0 32 32">
  <path fill="#339D37" d="M16.003 30c-1.937 0-3.757-.367-5.46-1.102a14.14 14.14 0 0 1-4.447-2.992 14.138 14.138 0 0 1-2.993-4.444C2.368 19.758 2 17.939 2 16.002c0-1.936.367-3.756 1.102-5.46a14.14 14.14 0 0 1 2.992-4.446 14.14 14.14 0 0 1 4.445-2.993C12.242 2.368 14.06 2 15.997 2c1.937 0 3.757.367 5.46 1.102a14.142 14.142 0 0 1 4.447 2.992 14.14 14.14 0 0 1 2.993 4.445C29.632 12.242 30 14.06 30 15.997c0 1.937-.367 3.757-1.102 5.46a14.141 14.141 0 0 1-2.992 4.447 14.14 14.14 0 0 1-4.444 2.993c-1.704.735-3.523 1.103-5.46 1.103Z"/>
  <path fill="#fff" fill-rule="evenodd" d="M20.61 11.436c.288-.288.65-.436 1.057-.436.406 0 .768.148 1.056.436.29.291.436.66.43 1.07a1.469 1.469 0 0 1-.43 1.042l-7.418 7.419a1.657 1.657 0 0 1-1.197.507c-.463 0-.869-.18-1.197-.507l-3.66-3.66a1.458 1.458 0 0 1-.436-1.056c0-.406.149-.768.436-1.056a1.45 1.45 0 0 1 1.07-.43c.4.007.76.147 1.043.43l2.744 2.744 6.503-6.503Z" clip-rule="evenodd"/>
</svg>
