<svg xmlns="http://www.w3.org/2000/svg" width="32" height="32" fill="none" viewBox="0 0 32 32">
  <path fill="#E22339" d="M11.404 30c-.402 0-.784-.077-1.149-.231a2.96 2.96 0 0 1-.95-.637l-6.437-6.436a2.96 2.96 0 0 1-.637-.952A2.914 2.914 0 0 1 2 20.596v-9.192c0-.402.077-.784.231-1.149a2.96 2.96 0 0 1 .637-.95l6.436-6.437c.27-.27.587-.483.951-.637A2.914 2.914 0 0 1 11.405 2h9.19a2.971 2.971 0 0 1 2.1.868l6.437 6.436A2.965 2.965 0 0 1 30 11.405v9.19c0 .403-.077.786-.231 1.15a2.96 2.96 0 0 1-.637.95l-6.436 6.437a2.96 2.96 0 0 1-.952.637 2.913 2.913 0 0 1-1.148.231h-9.192Z"/>
  <path fill="#fff" d="M14.931 7.43A1.45 1.45 0 0 1 16 7c.424 0 .78.143 1.069.43.287.288.431.645.431 1.07v8c0 .425-.144.781-.431 1.069A1.449 1.449 0 0 1 16 18c-.425 0-.781-.144-1.069-.431A1.45 1.45 0 0 1 14.5 16.5v-8c0-.425.144-.782.431-1.07ZM16 21.5c-.496 0-.911.168-1.247.504a1.693 1.693 0 0 0-.503 1.246c0 .496.168.912.503 1.247.336.335.751.503 1.247.503.496 0 .911-.168 1.247-.503.335-.335.503-.75.503-1.247 0-.495-.168-.91-.503-1.246A1.693 1.693 0 0 0 16 21.5Z"/>
</svg>
