<svg xmlns="http://www.w3.org/2000/svg" width="32" height="32" fill="none" viewBox="0 0 32 32">
  <path fill="#FFCC2C" d="M10.542 28.898c1.704.735 3.524 1.102 5.46 1.102 1.937 0 3.756-.368 5.46-1.103a14.14 14.14 0 0 0 4.444-2.993 14.14 14.14 0 0 0 2.992-4.446c.735-1.704 1.102-3.524 1.102-5.46 0-1.937-.368-3.756-1.103-5.46a14.14 14.14 0 0 0-2.993-4.444 14.14 14.14 0 0 0-4.446-2.992C19.754 2.367 17.934 2 15.998 2c-1.937 0-3.756.368-5.46 1.103a14.14 14.14 0 0 0-4.444 2.993 14.14 14.14 0 0 0-2.992 4.446C2.367 12.246 2 14.066 2 16.002c0 1.937.368 3.756 1.103 5.46a14.138 14.138 0 0 0 2.993 4.444 14.14 14.14 0 0 0 4.446 2.992Z"/>
  <path fill="#131212" d="m21.571 23.4 1.722-1.723a.66.66 0 0 0 0-.96l-5.305-5.33c.127-.28.222-.571.285-.875.063-.303.095-.64.095-1.013 0-1.349-.48-2.503-1.442-3.461-.96-.959-2.117-1.438-3.47-1.438-.243 0-.475.012-.696.037a2.902 2.902 0 0 0-.663.156.572.572 0 0 0-.364.445.577.577 0 0 0 .163.555l2.611 2.627-2.175 2.176-2.64-2.627a.577.577 0 0 0-.555-.163.586.586 0 0 0-.45.37 5.098 5.098 0 0 0-.187 1.369c0 1.353.48 2.51 1.441 3.471.961.961 2.118 1.442 3.47 1.442.347 0 .673-.034.98-.102a6.09 6.09 0 0 0 .906-.277l5.328 5.307c.138.138.296.21.473.214a.627.627 0 0 0 .473-.2Z"/>
</svg>
