<svg xmlns="http://www.w3.org/2000/svg" width="32" height="32" fill="none" viewBox="0 0 32 32">
  <path fill="#FFCC2C" d="M3.331 28c-.25 0-.475-.061-.674-.183a1.293 1.293 0 0 1-.465-.485 1.411 1.411 0 0 1-.19-.646 1.205 1.205 0 0 1 .187-.69L14.837 4.149A1.325 1.325 0 0 1 16 3.48a1.325 1.325 0 0 1 1.163.668L29.81 25.997c.137.227.2.457.188.689a1.41 1.41 0 0 1-.19.646c-.111.2-.266.362-.466.485-.2.122-.424.183-.674.183H3.33Z"/>
  <path fill="#131212" d="M14.931 10.18A1.45 1.45 0 0 1 16 9.75c.424 0 .78.143 1.069.43.287.288.431.645.431 1.07v7c0 .425-.144.781-.431 1.069A1.449 1.449 0 0 1 16 19.75c-.425 0-.781-.144-1.069-.431a1.45 1.45 0 0 1-.431-1.069v-7c0-.425.144-.782.431-1.07ZM16 22c-.496 0-.911.168-1.247.504a1.693 1.693 0 0 0-.503 1.246c0 .496.168.912.503 1.247.336.335.751.503 1.247.503.496 0 .911-.168 1.247-.503.335-.335.503-.75.503-1.247 0-.495-.168-.91-.503-1.246A1.693 1.693 0 0 0 16 22Z"/>
</svg>
