<svg xmlns="http://www.w3.org/2000/svg" width="32" height="32" fill="none" viewBox="0 0 32 32">
  <path fill="#E22339" d="M16.003 30c-1.937 0-3.757-.367-5.46-1.102a14.14 14.14 0 0 1-4.447-2.992 14.138 14.138 0 0 1-2.993-4.444C2.368 19.758 2 17.939 2 16.002c0-1.936.367-3.756 1.102-5.46a14.14 14.14 0 0 1 2.992-4.446 14.14 14.14 0 0 1 4.445-2.993C12.242 2.368 14.06 2 15.997 2c1.937 0 3.757.367 5.46 1.102a14.14 14.14 0 0 1 4.447 2.992 14.14 14.14 0 0 1 2.993 4.445C29.632 12.242 30 14.06 30 15.997c0 1.937-.367 3.757-1.102 5.46a14.14 14.14 0 0 1-2.992 4.447 14.14 14.14 0 0 1-4.444 2.993c-1.704.735-3.523 1.103-5.46 1.103Z"/>
  <path fill="#fff" fill-rule="evenodd" d="M20.19 9.48c.318-.316.716-.48 1.165-.48.448 0 .846.164 1.164.48.32.322.48.727.474 1.18a1.621 1.621 0 0 1-.474 1.15L18.33 16l4.197 4.197c.321.321.474.714.474 1.157 0 .436-.148.846-.474 1.172-.32.32-.726.48-1.18.474a1.618 1.618 0 0 1-1.149-.474L16 18.33l-4.19 4.19c-.317.317-.716.48-1.165.48-.448 0-.847-.163-1.164-.48a1.592 1.592 0 0 1-.474-1.18 1.62 1.62 0 0 1 .474-1.149L13.67 16l-4.19-4.19A1.607 1.607 0 0 1 9 10.645c0-.448.164-.847.48-1.164a1.6 1.6 0 0 1 1.18-.474c.441.007.837.162 1.15.474L16 13.67l4.19-4.19Z" clip-rule="evenodd"/>
</svg>
