<svg width="32" height="32" viewBox="0 0 32 32" fill="none" xmlns="http://www.w3.org/2000/svg">
<path d="M11.2563 22.047H20.7438C21.1132 22.047 21.4228 21.9222 21.6725 21.6725C21.9222 21.4227 22.0471 21.1132 22.0471 20.7437V11.2562C22.0471 10.8868 21.9222 10.5772 21.6725 10.3275C21.4228 10.0777 21.1132 9.95288 20.7438 9.95288H11.2563C10.8868 9.95288 10.5772 10.0777 10.3275 10.3275C10.0778 10.5772 9.95294 10.8868 9.95294 11.2562V20.7437C9.95294 21.1132 10.0778 21.4227 10.3275 21.6725C10.5772 21.9222 10.8868 22.047 11.2563 22.047ZM16.01 31.8333C13.8181 31.8333 11.7627 31.4177 9.84377 30.5866C7.9246 29.7555 6.24766 28.623 4.81294 27.1891C3.37849 25.755 2.24544 24.0782 1.41377 22.1587C0.582381 20.239 0.166687 18.1823 0.166687 15.9887C0.166687 13.8023 0.582243 11.7472 1.41335 9.82329C2.24446 7.89913 3.37697 6.2244 4.81085 4.79913C6.24502 3.37385 7.92183 2.24538 9.84127 1.41371C11.761 0.58232 13.8177 0.166626 16.0113 0.166626C18.1977 0.166626 20.2528 0.582181 22.1767 1.41329C24.1009 2.2444 25.7756 3.37232 27.2009 4.79704C28.6261 6.22177 29.7546 7.89718 30.5863 9.82329C31.4177 11.7494 31.8334 13.805 31.8334 15.99C31.8334 18.1819 31.4178 20.2373 30.5867 22.1562C29.7556 24.0754 28.6277 25.7505 27.2029 27.1816C25.7782 28.613 24.1028 29.7461 22.1767 30.5808C20.2506 31.4158 18.195 31.8333 16.01 31.8333ZM16.0138 29.7391C19.8321 29.7391 23.0743 28.4033 25.7404 25.7316C28.4063 23.06 29.7392 19.8115 29.7392 15.9862C29.7392 12.1679 28.4079 8.92565 25.7454 6.25954C23.0829 3.59371 19.8345 2.26079 16 2.26079C12.1839 2.26079 8.94002 3.59204 6.26835 6.25454C3.59669 8.91704 2.26085 12.1655 2.26085 16C2.26085 19.8161 3.59669 23.06 6.26835 25.7316C8.94002 28.4033 12.1885 29.7391 16.0138 29.7391Z" fill="#131212"/>
</svg>
