<svg xmlns="http://www.w3.org/2000/svg" viewBox="0 0 32 32">
  <path fill="currentColor" d="M11.256 22.047h9.488c.37 0 .679-.125.928-.375.25-.25.375-.559.375-.928v-9.488c0-.37-.125-.679-.375-.928a1.26 1.26 0 0 0-.928-.375h-9.488c-.37 0-.679.125-.928.375a1.26 1.26 0 0 0-.375.928v9.488c0 .37.125.679.375.928.25.25.559.375.928.375Zm4.754 9.786c-2.192 0-4.247-.415-6.166-1.246a16.083 16.083 0 0 1-5.031-3.398 16.075 16.075 0 0 1-3.4-5.03c-.83-1.92-1.246-3.977-1.246-6.17 0-2.187.415-4.242 1.246-6.166C2.244 7.9 3.377 6.224 4.811 4.8a16.195 16.195 0 0 1 5.03-3.385c1.92-.832 3.977-1.247 6.17-1.247 2.187 0 4.242.415 6.166 1.246 1.924.831 3.599 1.96 5.024 3.384 1.425 1.425 2.554 3.1 3.385 5.026.832 1.926 1.247 3.982 1.247 6.167 0 2.192-.415 4.247-1.246 6.166a16.134 16.134 0 0 1-3.384 5.026c-1.425 1.431-3.1 2.564-5.026 3.399-1.926.835-3.982 1.252-6.167 1.252Zm.004-2.094c3.818 0 7.06-1.336 9.726-4.007 2.666-2.672 4-5.92 4-9.746 0-3.818-1.332-7.06-3.995-9.726-2.662-2.666-5.91-4-9.745-4-3.816 0-7.06 1.332-9.732 3.995C3.597 8.917 2.261 12.165 2.261 16c0 3.816 1.336 7.06 4.007 9.732 2.672 2.671 5.92 4.007 9.746 4.007Z"/>
</svg>
