<svg xmlns="http://www.w3.org/2000/svg" viewBox="0 0 32 32">
  <path fill="currentColor" d="m14.953 7.026-3.69 3.69a.952.952 0 0 1-.731.3 1.128 1.128 0 0 1-.763-.326 1.07 1.07 0 0 1-.305-.752c0-.282.106-.529.316-.74l5.308-5.308a1.34 1.34 0 0 1 .43-.297c.15-.062.313-.093.487-.093.175 0 .335.031.482.093.147.062.288.161.424.297l5.326 5.326c.207.207.311.45.314.729.002.28-.099.528-.303.745-.225.21-.478.317-.761.32a1.016 1.016 0 0 1-.75-.322l-3.69-3.662v13.86c0 .298-.1.547-.302.747-.201.2-.451.3-.75.3s-.547-.1-.745-.3a1.02 1.02 0 0 1-.297-.746V7.026Z"/>
  <path fill="currentColor" d="M4.266 27.828a2.51 2.51 0 0 0 1.841.766h19.786a2.51 2.51 0 0 0 1.84-.766 2.51 2.51 0 0 0 .767-1.84v-3.94A1.02 1.02 0 0 0 27.458 21c-.299 0-.549.1-.75.3-.201.201-.302.45-.302.747v3.94a.491.491 0 0 1-.16.353.49.49 0 0 1-.353.16H6.107a.491.491 0 0 1-.353-.16.491.491 0 0 1-.16-.353v-3.94A1.02 1.02 0 0 0 4.552 21c-.299 0-.549.1-.75.3-.201.201-.302.45-.302.747v3.94c0 .716.255 1.33.766 1.84Z"/>
</svg>
