<svg xmlns="http://www.w3.org/2000/svg" viewBox="0 0 32 32">
  <path fill="currentColor" d="M2 25.684v-2.746c0-.714.184-1.349.553-1.902.369-.554.877-.98 1.526-1.278 1.42-.646 2.759-1.133 4.014-1.46 1.255-.328 2.647-.492 4.177-.492 1.53 0 2.918.163 4.165.491 1.247.328 2.584.815 4.011 1.46.643.3 1.15.725 1.524 1.279.373.553.56 1.188.56 1.902v2.747H2Zm22.934 0v-2.776c0-1.11-.262-2.074-.787-2.888a6.511 6.511 0 0 0-2.106-2.03c1.115.161 2.175.39 3.178.687 1.004.296 1.876.635 2.616 1.017.667.368 1.195.827 1.583 1.378.388.55.582 1.163.582 1.837v2.776h-5.066ZM12.27 15.248c-1.32 0-2.422-.441-3.305-1.324-.882-.882-1.324-1.984-1.324-3.304 0-1.32.442-2.42 1.324-3.3C9.848 6.44 10.95 6 12.27 6s2.42.44 3.3 1.32c.879.879 1.319 1.979 1.319 3.3 0 1.32-.44 2.42-1.32 3.303-.88.883-1.98 1.324-3.3 1.324Zm11.146-4.628c0 1.32-.44 2.422-1.32 3.304-.879.883-1.98 1.324-3.302 1.324-.155 0-.332-.013-.529-.038a2.851 2.851 0 0 1-.527-.116 5.92 5.92 0 0 0 1.157-2 7.462 7.462 0 0 0 .398-2.47c0-.887-.137-1.696-.411-2.43a7.8 7.8 0 0 0-1.144-2.048c.163-.045.338-.08.527-.106.19-.026.365-.039.527-.039 1.324 0 2.425.44 3.305 1.32.88.879 1.32 1.979 1.32 3.3ZM3.72 23.965h17.092v-1.027c0-.338-.094-.652-.28-.94-.186-.287-.46-.522-.824-.704-1.33-.64-2.558-1.094-3.683-1.364-1.126-.27-2.377-.405-3.754-.405-1.378 0-2.632.135-3.762.405s-2.36.725-3.69 1.364c-.363.182-.637.417-.822.705-.184.287-.277.6-.277.94v1.026Zm8.546-10.437c.82 0 1.51-.28 2.068-.837.557-.558.836-1.247.836-2.068 0-.82-.279-1.51-.836-2.067-.558-.558-1.247-.837-2.068-.837-.82 0-1.51.28-2.068.837-.557.558-.836 1.247-.836 2.067 0 .821.279 1.51.836 2.068.558.558 1.247.837 2.068.837Z"/>
</svg>
