<svg xmlns="http://www.w3.org/2000/svg" viewBox="0 0 32 32">
  <path fill="currentColor" d="m14.72 18.949 5.213-3.341c.34-.224.51-.538.51-.941 0-.404-.17-.717-.51-.941l-5.212-3.341c-.368-.247-.746-.267-1.136-.06-.39.205-.585.532-.585.98v6.723c0 .448.195.775.585.981.39.206.768.186 1.136-.06Zm-8.976 5.718a2.327 2.327 0 0 1-1.71-.7 2.327 2.327 0 0 1-.7-1.71V7.076c0-.674.233-1.244.7-1.71a2.327 2.327 0 0 1 1.71-.7h20.512c.674 0 1.244.233 1.71.7.467.466.7 1.036.7 1.71v15.18c0 .673-.233 1.243-.7 1.71-.466.466-1.036.7-1.71.7h-5.59v1.461c0 .344-.114.63-.344.86-.23.23-.517.345-.86.345h-6.923c-.344 0-.63-.115-.86-.345a1.167 1.167 0 0 1-.346-.86v-1.461h-5.59Zm0-2h20.512a.391.391 0 0 0 .282-.129.391.391 0 0 0 .129-.282V7.077a.391.391 0 0 0-.129-.282.391.391 0 0 0-.282-.128H5.744a.391.391 0 0 0-.282.128.391.391 0 0 0-.129.282v15.18c0 .102.043.196.129.281a.39.39 0 0 0 .282.129Z"/>
</svg>
