<svg xmlns="http://www.w3.org/2000/svg" viewBox="0 0 32 32">
  <path fill="currentColor" d="m17.783 17.093-2.268 2.267a.846.846 0 0 0-.26.638c.005.248.096.46.274.638a.881.881 0 0 0 .647.266.865.865 0 0 0 .643-.266l3.661-3.662c.23-.23.345-.499.345-.807 0-.309-.115-.578-.345-.808l-3.675-3.676a.87.87 0 0 0-.638-.266.87.87 0 0 0-.638.266.88.88 0 0 0-.266.647c0 .254.088.468.266.643l2.254 2.268h-6.037a.899.899 0 0 0-.926.926.897.897 0 0 0 .926.925h6.037Zm-1.614 13.074c-1.926 0-3.74-.368-5.44-1.103a14.204 14.204 0 0 1-4.454-3.004 14.202 14.202 0 0 1-3.006-4.452c-.735-1.7-1.102-3.513-1.102-5.439 0-1.936.367-3.756 1.102-5.46a14.038 14.038 0 0 1 3.004-4.446 14.307 14.307 0 0 1 4.452-2.994c1.7-.735 3.513-1.102 5.44-1.102 1.936 0 3.756.367 5.46 1.102a14.14 14.14 0 0 1 4.446 2.992 14.14 14.14 0 0 1 2.993 4.444c.735 1.703 1.103 3.523 1.103 5.46 0 1.925-.368 3.739-1.103 5.44a14.308 14.308 0 0 1-2.991 4.453 14.037 14.037 0 0 1-4.445 3.006c-1.703.735-3.523 1.103-5.459 1.103Zm-.002-1.852c3.384 0 6.255-1.181 8.612-3.544 2.358-2.362 3.536-5.23 3.536-8.604 0-3.385-1.178-6.255-3.536-8.613-2.357-2.357-5.228-3.536-8.612-3.536-3.375 0-6.243 1.179-8.605 3.536-2.362 2.358-3.544 5.228-3.544 8.613 0 3.374 1.182 6.242 3.544 8.604 2.362 2.363 5.23 3.544 8.605 3.544Z"/>
</svg>
