<svg xmlns="http://www.w3.org/2000/svg" viewBox="0 0 32 32">
  <path fill="currentColor" d="M11.627 29.59c-1.837 0-3.401-.652-4.692-1.956C5.645 26.33 5 24.759 5 22.922c0-1.594.512-3.002 1.536-4.226a6.506 6.506 0 0 1 3.882-2.282c.292-.068.562-.02.81.142.25.162.408.39.476.682a.986.986 0 0 1-.14.804c-.164.244-.391.4-.683.468a4.345 4.345 0 0 0-2.668 1.525 4.349 4.349 0 0 0-1.05 2.887c0 1.238.436 2.294 1.31 3.167.873.874 1.934 1.31 3.182 1.31 1.05 0 1.98-.323 2.79-.97a4.438 4.438 0 0 0 1.585-2.473c.092-.292.26-.517.504-.675a.907.907 0 0 1 .805-.099c.292.093.517.263.675.512.158.248.19.519.098.81a6.503 6.503 0 0 1-2.37 3.664 6.503 6.503 0 0 1-4.115 1.422ZM22.135 8.185a2.5 2.5 0 0 1-1.835-.757 2.5 2.5 0 0 1-.757-1.836 2.5 2.5 0 0 1 .757-1.835A2.5 2.5 0 0 1 22.135 3c.72 0 1.329.252 1.829.757s.75 1.116.75 1.835c0 .72-.25 1.331-.75 1.836a2.48 2.48 0 0 1-1.829.757Zm-6.322 13.35c-1.01 0-1.798-.434-2.36-1.303-.563-.869-.633-1.773-.21-2.712l2.806-6.188h-3.46l-.577 1.508a1.046 1.046 0 0 1-.525.581.963.963 0 0 1-.789.062 1.063 1.063 0 0 1-.659-.558.998.998 0 0 1-.029-.867l.558-1.505c.188-.488.482-.86.883-1.114a2.5 2.5 0 0 1 1.368-.38h6.54c.962 0 1.692.373 2.192 1.12.5.749.548 1.578.143 2.49l-2.78 6.08h4.885c.691 0 1.28.245 1.766.736.486.49.73 1.082.73 1.773v5.809c0 .307-.104.564-.311.77-.207.208-.464.311-.771.311s-.564-.103-.771-.31a1.046 1.046 0 0 1-.31-.771V21.84a.314.314 0 0 0-.077-.221c-.05-.056-.127-.084-.228-.084h-8.014Z"/>
</svg>
