<svg xmlns="http://www.w3.org/2000/svg" viewBox="0 0 32 32">
  <path fill="currentColor" d="M11 13.05H8.78c-.295 0-.541-.1-.74-.3-.2-.2-.299-.448-.299-.744s.1-.542.299-.739c.199-.196.445-.295.74-.295H11V8.781c0-.295.1-.541.3-.74.2-.2.449-.299.745-.299s.542.1.739.299c.196.199.295.445.295.74v2.191h2.19c.295 0 .542.1.741.3.2.2.299.449.299.745s-.1.543-.299.74a1.013 1.013 0 0 1-.74.294h-2.191v2.219c0 .294-.1.541-.3.74-.201.2-.45.299-.745.299A1.013 1.013 0 0 1 11 15.269v-2.218Zm1.073 9.018c-2.815 0-5.198-.975-7.148-2.924C2.975 17.195 2 14.826 2 12.037c0-2.79.974-5.16 2.924-7.111C6.873 2.976 9.244 2 12.037 2c2.794 0 5.166.975 7.116 2.924 1.95 1.95 2.926 4.32 2.926 7.11a9.823 9.823 0 0 1-.596 3.385 9.62 9.62 0 0 1-1.676 2.924l9.889 9.845c.199.19.301.438.307.74.005.302-.097.556-.307.763-.21.206-.464.309-.76.309a.996.996 0 0 1-.748-.315l-9.862-9.861a8.99 8.99 0 0 1-2.87 1.657 9.935 9.935 0 0 1-3.383.587Zm-.017-2.079c2.217 0 4.096-.771 5.635-2.314C19.23 16.13 20 14.25 20 12.034c0-2.218-.77-4.098-2.31-5.64-1.538-1.544-3.417-2.316-5.634-2.316-2.227 0-4.113.772-5.659 2.315-1.546 1.543-2.319 3.423-2.319 5.64 0 2.218.773 4.098 2.32 5.642 1.545 1.543 3.431 2.314 5.658 2.314Z"/>
</svg>
