<?xml version="1.0" encoding="utf-8"?>
<!-- Generator: Adobe Illustrator 27.5.0, SVG Export Plug-In . SVG Version: 6.00 Build 0)  -->
<svg version="1.1" id="Layer_1" xmlns="http://www.w3.org/2000/svg" xmlns:xlink="http://www.w3.org/1999/xlink" x="0px" y="0px"
	 viewBox="0 0 790.8 238.8" style="enable-background:new 0 0 790.8 238.8;" xml:space="preserve">
<style type="text/css">
	.st0{fill:#57B6B2;}
	.st1{fill:#D05559;}
	.st2{fill:#D35D5A;}
</style>
<g>
	<path class="st0" d="M56.4,71.1l-6.2-14.5H22.1l-6.2,14.5H0l28.9-67h14.5l28.9,67H56.4z M36.2,24.1l-8.4,19.4h16.8L36.2,24.1z"/>
	<path class="st0" d="M93.2,71.9c-6.1,0-11.5-2.6-16.3-7.8s-7.2-11.6-7.2-19.3s2.3-13.9,7-18.8c4.7-4.9,10.1-7.3,16.4-7.3
		c6.3,0,11.4,2.2,15.3,6.6V0h14.4v71.1h-14.4v-6.8C104.4,69.4,99.3,71.9,93.2,71.9z M84.2,45.5c0,4.2,1.2,7.6,3.7,10.2
		c2.5,2.7,5.4,4,8.7,4s6.1-1.3,8.5-4c2.3-2.6,3.5-6.1,3.5-10.3s-1.2-7.7-3.5-10.4c-2.3-2.8-5.2-4.2-8.6-4.2c-3.4,0-6.3,1.4-8.7,4.2
		C85.4,37.8,84.2,41.3,84.2,45.5z"/>
	<path class="st0" d="M145.5,71.1l-20.4-51.6H140L152.8,52l12.8-32.5h14.9l-20.4,51.6L145.5,71.1L145.5,71.1z"/>
	<path class="st0" d="M226,71.1h-13.5v-6.2c-3.7,4.7-8.3,7-13.7,7s-10-1.6-13.7-4.7c-3.7-3.2-5.6-7.4-5.6-12.6
		c0-5.3,1.9-9.2,5.7-11.8c3.8-2.6,9.1-3.9,15.7-3.9h10.7v-0.3c0-5.5-2.9-8.2-8.7-8.2c-2.5,0-5.1,0.5-7.9,1.5s-5.1,2.2-7,3.7
		l-6.4-9.3c6.8-4.9,14.5-7.4,23.2-7.4c6.3,0,11.4,1.6,15.3,4.7c4,3.1,5.9,8.1,5.9,14.8V71.1z M211.6,51.5V49h-9
		c-5.7,0-8.6,1.8-8.6,5.4c0,1.9,0.7,3.3,2.1,4.3s3.3,1.5,5.9,1.5s4.8-0.8,6.8-2.3C210.6,56.2,211.6,54.1,211.6,51.5z"/>
	<path class="st0" d="M248.8,42.4v28.7h-14.4V19.6h14.4v5.7c4.3-4.4,9.2-6.6,14.7-6.6s10,1.9,13.7,5.7s5.5,8.9,5.5,15.3V71h-14.4
		V41.9c0-7.9-2.9-11.9-8.7-11.9c-2.9,0-5.4,1-7.5,3.1C249.8,35.3,248.8,38.4,248.8,42.4z"/>
	<path class="st0" d="M315.5,59.2c4.8,0,9.1-2.4,12.9-7.2l8.5,9.6c-6.6,6.9-13.8,10.3-21.6,10.3s-14.3-2.4-19.6-7.3
		c-5.3-4.9-8-11.3-8-19.2s2.7-14.3,8.1-19.3c5.4-4.9,11.8-7.4,19.2-7.4c3.7,0,7.5,0.8,11.3,2.3s7.1,3.8,10,6.8l-7.5,9.8
		c-1.7-2-3.7-3.5-6.1-4.6s-4.8-1.6-7.1-1.6c-3.8,0-7,1.2-9.7,3.7s-4.1,5.9-4.1,10.3c0,4.4,1.4,7.8,4.1,10.2
		C308.7,57.9,311.9,59.2,315.5,59.2z"/>
	<path class="st0" d="M386.4,63.7c-5.8,5.5-12.6,8.2-20.5,8.2c-7.8,0-14.3-2.4-19.4-7.2s-7.7-11.3-7.7-19.4s2.6-14.6,7.8-19.4
		c5.2-4.8,11.4-7.2,18.4-7.2c7.1,0,13.1,2.1,18.1,6.4c4.9,4.3,7.4,10.2,7.4,17.6v7.7h-37.6c0.4,2.8,1.9,5.1,4.4,6.9
		c2.5,1.8,5.3,2.7,8.4,2.7c5,0,9.2-1.7,12.5-5.1L386.4,63.7z M372.6,33.1c-2-1.7-4.4-2.5-7.2-2.5c-2.8,0-5.4,0.9-7.8,2.6
		c-2.4,1.7-3.7,4.1-4.1,7h22.6C375.8,37.1,374.6,34.8,372.6,33.1z"/>
	<path class="st0" d="M448.9,57.9c7.3,0,13.3-2.9,18-8.7l9.6,9.9c-7.6,8.6-16.6,12.8-26.9,12.8c-10.3,0-18.8-3.3-25.5-9.8
		s-10-14.7-10-24.7c0-9.9,3.4-18.2,10.2-24.9c6.8-6.6,15.1-10,25-10c11,0,20.2,4.2,27.6,12.5l-9.3,10.5c-4.7-5.9-10.6-8.8-17.6-8.8
		c-5.6,0-10.4,1.8-14.4,5.5s-6,8.6-6,14.8s1.9,11.2,5.7,15C438.9,56,443.5,57.9,448.9,57.9z"/>
	<path class="st0" d="M525.2,71.1h-13.5v-6.2c-3.7,4.7-8.3,7-13.7,7s-10-1.6-13.7-4.7c-3.7-3.2-5.6-7.4-5.6-12.6
		c0-5.3,1.9-9.2,5.7-11.8s9.1-3.9,15.7-3.9h10.7v-0.3c0-5.5-2.9-8.2-8.7-8.2c-2.5,0-5.1,0.5-7.9,1.5c-2.8,1-5.1,2.2-7,3.7l-6.4-9.3
		c6.8-4.9,14.5-7.4,23.2-7.4c6.3,0,11.4,1.6,15.3,4.7c4,3.1,5.9,8.1,5.9,14.8V71.1z M510.8,51.5V49h-9c-5.7,0-8.6,1.8-8.6,5.4
		c0,1.9,0.7,3.3,2.1,4.3c1.4,1,3.3,1.5,5.9,1.5s4.8-0.8,6.8-2.3C509.8,56.2,510.8,54.1,510.8,51.5z"/>
	<path class="st0" d="M560.7,32.2c-4.3,0-7.5,1.5-9.6,4.5s-3.2,7-3.2,12V71h-14.4V19.5h14.4v6.8c1.9-2.1,4.2-3.9,6.9-5.4
		c2.8-1.5,5.6-2.2,8.5-2.3l0.1,13.5L560.7,32.2L560.7,32.2z"/>
	<path class="st0" d="M612.8,63.7c-5.8,5.5-12.6,8.2-20.5,8.2c-7.8,0-14.3-2.4-19.4-7.2s-7.7-11.3-7.7-19.4s2.6-14.6,7.8-19.4
		c5.2-4.8,11.4-7.2,18.4-7.2c7.1,0,13.1,2.1,18.1,6.4c4.9,4.3,7.4,10.2,7.4,17.6v7.7h-37.6c0.4,2.8,1.9,5.1,4.4,6.9
		c2.5,1.8,5.3,2.7,8.4,2.7c5,0,9.2-1.7,12.5-5.1L612.8,63.7z M599,33.1c-2-1.7-4.4-2.5-7.2-2.5c-2.8,0-5.4,0.9-7.8,2.6
		c-2.4,1.7-3.7,4.1-4.1,7h22.5C602.1,37.1,601,34.8,599,33.1z"/>
	<path class="st0" d="M49.9,98.9c4.7,4,7,10.1,7,18.4s-2.4,14.3-7.2,18.2c-4.8,3.8-12.2,5.7-22.1,5.7h-8.9v18.7H3.8v-67h23.7
		C37.7,92.9,45.2,94.9,49.9,98.9z M39,125.2c1.8-2,2.7-4.9,2.7-8.8s-1.2-6.6-3.5-8.2s-6-2.4-10.9-2.4h-8.5v22.5h10.1
		C33.8,128.2,37.2,127.2,39,125.2z"/>
	<path class="st0" d="M76.8,159.8H62.4V88.7h14.4V159.8z"/>
	<path class="st0" d="M129.4,159.8h-13.5v-6.2c-3.7,4.7-8.3,7-13.7,7c-5.5,0-10-1.6-13.7-4.7c-3.7-3.2-5.6-7.4-5.6-12.6
		c0-5.3,1.9-9.2,5.7-11.8c3.8-2.6,9.1-3.9,15.7-3.9H115v-0.3c0-5.5-2.9-8.2-8.7-8.2c-2.5,0-5.1,0.5-7.9,1.5c-2.8,1-5.1,2.2-7,3.7
		L85,115c6.8-4.9,14.5-7.4,23.2-7.4c6.3,0,11.4,1.6,15.3,4.7c4,3.1,5.9,8.1,5.9,14.8V159.8z M114.9,140.2v-2.5h-9
		c-5.7,0-8.6,1.8-8.6,5.4c0,1.9,0.7,3.3,2.1,4.3c1.4,1,3.3,1.5,5.9,1.5c2.6,0,4.8-0.8,6.8-2.3C114,144.9,114.9,142.8,114.9,140.2z"
		/>
	<path class="st0" d="M152.1,131.1v28.7h-14.4v-51.5h14.4v5.7c4.3-4.4,9.2-6.6,14.7-6.6s10,1.9,13.7,5.7c3.7,3.8,5.5,8.9,5.5,15.3
		v31.3h-14.4v-29.1c0-7.9-2.9-11.9-8.7-11.9c-2.9,0-5.4,1-7.5,3.1C153.2,124,152.1,127.1,152.1,131.1z"/>
	<path class="st0" d="M208.5,131.1v28.7h-14.4v-51.5h14.4v5.7c4.3-4.4,9.2-6.6,14.7-6.6s10,1.9,13.7,5.7c3.7,3.8,5.5,8.9,5.5,15.3
		v31.3H228v-29.1c0-7.9-2.9-11.9-8.7-11.9c-2.9,0-5.4,1-7.5,3.1C209.6,124,208.5,127.1,208.5,131.1z"/>
	<path class="st0" d="M251.8,101.7c-1.6-1.6-2.4-3.6-2.4-6s0.8-4.4,2.4-6s3.6-2.4,6-2.4s4.4,0.8,6,2.4s2.4,3.6,2.4,6s-0.8,4.4-2.4,6
		s-3.6,2.4-6,2.4C255.4,104.2,253.4,103.4,251.8,101.7z M265,159.8h-14.4v-51.5H265V159.8z"/>
	<path class="st0" d="M288.1,131.1v28.7h-14.4v-51.5h14.4v5.7c4.3-4.4,9.2-6.6,14.7-6.6s10,1.9,13.7,5.7c3.7,3.8,5.5,8.9,5.5,15.3
		v31.3h-14.4v-29.1c0-7.9-2.9-11.9-8.7-11.9c-2.9,0-5.4,1-7.5,3.1C289.2,124,288.1,127.1,288.1,131.1z"/>
	<path class="st0" d="M368.3,151.1c-4.5,5-10.2,7.6-16.9,7.6c-6.7,0-12.4-2.3-17.1-6.8c-4.6-4.6-6.9-10.7-6.9-18.3
		c0-7.6,2.4-13.9,7.1-18.8c4.8-4.9,10.2-7.3,16.3-7.3c6.1,0,11.2,2.5,15.2,7.6v-6.8h14.4v44.9c0,4.6-0.8,8.7-2.4,12.3
		s-3.7,6.4-6.4,8.4c-5.3,4.2-11.6,6.3-18.8,6.3c-3.8,0-7.7-0.6-11.7-1.9c-4-1.2-7.5-3-10.5-5.3l5.6-10.8c4.7,3.6,9.7,5.4,15,5.4
		s9.4-1.3,12.5-3.9C366.8,161,368.3,156.8,368.3,151.1z M366.3,133c0-4.1-1.2-7.4-3.4-9.7c-2.3-2.4-5.1-3.5-8.5-3.5
		s-6.3,1.2-8.8,3.5c-2.5,2.4-3.7,5.6-3.7,9.7s1.2,7.4,3.6,9.9s5.3,3.8,8.8,3.8c3.4,0,6.3-1.2,8.6-3.7
		C365.2,140.4,366.3,137.1,366.3,133z"/>
	<path class="st0" d="M458.9,159.8l-6.2-14.5h-28.1l-6.2,14.5h-15.9l28.9-67h14.5l28.9,67H458.9z M438.7,112.8l-8.4,19.4h16.8
		L438.7,112.8z"/>
	<path class="st0" d="M508.7,136.1v-27.8h14.5v51.5h-14.5V153c-3.6,5-8.2,7.6-13.8,7.6c-5.7,0-10.4-1.8-14.2-5.3s-5.7-8.8-5.7-15.8
		v-31.2h14.5v28.1c0,7.9,2.9,11.9,8.7,11.9c2.9,0,5.4-1,7.5-3.1C507.6,143.1,508.7,140.1,508.7,136.1z"/>
	<path class="st0" d="M570.7,143.8c0,5.1-1.9,9.1-5.6,12.2s-8.5,4.6-14.2,4.6c-3.8,0-7.8-0.7-12-2.1c-4.2-1.4-7.9-3.4-11.2-6.1
		l6.3-9c5.4,4.2,11.1,6.2,17.1,6.2c1.9,0,3.3-0.4,4.4-1.1c1.1-0.7,1.6-1.7,1.6-2.9s-0.8-2.3-2.3-3.4c-1.5-1-3.7-2-6.5-2.9
		c-2.8-0.9-5-1.7-6.5-2.3c-1.5-0.6-3.2-1.6-5.1-2.8c-3.9-2.4-5.8-6-5.8-10.8s1.9-8.6,5.7-11.6c3.8-3,8.8-4.5,14.8-4.5
		c6.1,0,12.1,2,18.2,6.1l-5.4,9.6c-4.5-3.1-8.9-4.6-13.4-4.6c-4.4,0-6.7,1.2-6.7,3.6c0,1.3,0.7,2.4,2.1,3.2c1.4,0.8,3.7,1.7,7,2.7
		c3.3,1,5.6,1.8,6.9,2.3c1.4,0.5,3,1.4,4.9,2.5C569,135.1,570.7,138.7,570.7,143.8z"/>
	<path class="st0" d="M593.7,118.7v23.1c0,2,0.5,3.5,1.5,4.6s2.2,1.7,3.6,1.7c2.7,0,4.9-1.2,6.8-3.6l5.4,10.1
		c-4.5,4.1-9.2,6.1-14.1,6.1c-4.9,0-9.1-1.6-12.6-4.9c-3.4-3.3-5.1-7.7-5.1-13.3v-23.8h-6v-10.3h6V93h14.5v15.4h12.5v10.3
		L593.7,118.7L593.7,118.7z"/>
	<path class="st0" d="M641.1,121c-4.3,0-7.5,1.5-9.6,4.5s-3.2,7-3.2,12v22.3h-14.4v-51.5h14.4v6.8c1.9-2.1,4.2-3.9,6.9-5.4
		c2.8-1.5,5.6-2.2,8.5-2.3l0.1,13.5h-2.7V121z"/>
	<path class="st0" d="M691.8,159.8h-13.5v-6.2c-3.7,4.7-8.3,7-13.7,7c-5.5,0-10-1.6-13.7-4.7c-3.7-3.2-5.6-7.4-5.6-12.6
		c0-5.3,1.9-9.2,5.7-11.8c3.8-2.6,9.1-3.9,15.7-3.9h10.7v-0.3c0-5.5-2.9-8.2-8.7-8.2c-2.5,0-5.1,0.5-7.9,1.5s-5.1,2.2-7,3.7
		l-6.4-9.3c6.8-4.9,14.5-7.4,23.2-7.4c6.3,0,11.4,1.6,15.3,4.7c4,3.1,5.9,8.1,5.9,14.8V159.8z M677.4,140.2v-2.5h-9
		c-5.7,0-8.6,1.8-8.6,5.4c0,1.9,0.7,3.3,2.1,4.3s3.3,1.5,5.9,1.5c2.6,0,4.8-0.8,6.8-2.3C676.4,144.9,677.4,142.8,677.4,140.2z"/>
	<path class="st0" d="M714.5,159.8h-14.4V88.7h14.4V159.8z"/>
	<path class="st0" d="M724.5,101.7c-1.6-1.6-2.4-3.6-2.4-6s0.8-4.4,2.4-6c1.6-1.6,3.6-2.4,6-2.4s4.4,0.8,6,2.4s2.4,3.6,2.4,6
		s-0.8,4.4-2.4,6s-3.6,2.4-6,2.4C728.2,104.2,726.2,103.4,724.5,101.7z M737.7,159.8h-14.3v-51.5h14.4v51.5H737.7z"/>
	<path class="st0" d="M790.3,159.8h-13.5v-6.2c-3.7,4.7-8.3,7-13.7,7c-5.5,0-10-1.6-13.7-4.7c-3.7-3.2-5.6-7.4-5.6-12.6
		c0-5.3,1.9-9.2,5.7-11.8c3.8-2.6,9.1-3.9,15.7-3.9h10.7v-0.3c0-5.5-2.9-8.2-8.7-8.2c-2.5,0-5.1,0.5-7.9,1.5s-5.1,2.2-7,3.7
		l-6.4-9.3c6.8-4.9,14.5-7.4,23.2-7.4c6.3,0,11.4,1.6,15.3,4.7c4,3.1,5.9,8.1,5.9,14.8V159.8z M775.8,140.2v-2.5h-9
		c-5.7,0-8.6,1.8-8.6,5.4c0,1.9,0.7,3.3,2.1,4.3s3.3,1.5,5.9,1.5c2.6,0,4.8-0.8,6.8-2.3C774.9,144.9,775.8,142.8,775.8,140.2z"/>
</g>
<g>
	<path class="st1" d="M16.3,234.4H3.9v-28.3h11c1.9,0,3.6,0.2,5,0.7s2.4,1.1,3.1,1.9c1.3,1.5,1.9,3.1,1.9,4.9c0,2.2-0.7,3.9-2.1,4.9
		c-0.5,0.4-0.9,0.6-1.1,0.7s-0.5,0.2-1,0.5c1.8,0.4,3.2,1.2,4.2,2.4c1,1.2,1.6,2.7,1.6,4.5c0,2-0.7,3.7-2,5.2
		C22.9,233.5,20.2,234.4,16.3,234.4z M8.7,217.8h6.1c3.5,0,5.2-1.2,5.2-3.5c0-1.3-0.4-2.3-1.3-2.9c-0.8-0.6-2.1-0.9-3.9-0.9H8.7
		C8.7,210.5,8.7,217.8,8.7,217.8z M8.7,230h7.5c1.8,0,3.1-0.3,4-0.8c0.9-0.6,1.4-1.6,1.4-3.1c0-2.5-2-3.8-6-3.8H8.7V230z"/>
	<path class="st1" d="M56.4,206.1v4.5H41.3v7.5h13.6v4.3H41.3v7.6h15.6v4.5H36.5v-28.3h19.9V206.1z"/>
	<path class="st1" d="M106,230.5c-2.9,2.8-6.4,4.2-10.6,4.2c-4.2,0-7.8-1.4-10.6-4.2c-2.9-2.8-4.3-6.3-4.3-10.5s1.4-7.7,4.3-10.5
		c2.9-2.8,6.4-4.2,10.6-4.2c4.2,0,7.8,1.4,10.6,4.2c2.9,2.8,4.3,6.3,4.3,10.5S108.8,227.7,106,230.5z M102.5,212.8
		c-1.9-2-4.3-3-7.1-3s-5.2,1-7.1,3c-1.9,2-2.9,4.4-2.9,7.3s1,5.3,2.9,7.3s4.3,3,7.1,3s5.2-1,7.1-3c1.9-2,2.9-4.4,2.9-7.3
		S104.4,214.8,102.5,212.8z"/>
	<path class="st1" d="M139.5,208.5c2,1.6,3,4.2,3,7.6s-1,5.9-3,7.5s-5.1,2.4-9.3,2.4h-5v8.3h-4.8V206h9.7
		C134.4,206.1,137.5,206.9,139.5,208.5z M136.1,220.2c1-1,1.4-2.5,1.4-4.5s-0.6-3.3-1.8-4.2c-1.2-0.8-3.1-1.2-5.7-1.2h-4.9v11.3h5.6
		C133.3,221.7,135.1,221.2,136.1,220.2z"/>
	<path class="st1" d="M172,206.1v4.5h-15.1v7.5h13.6v4.3h-13.6v7.6h15.6v4.5h-20.4v-28.3H172V206.1z"/>
	<path class="st1" d="M203.9,206.1h4.8v28.3h-5.2l-16-20.7v20.7h-4.8v-28.3h4.8l16.5,21.2L203.9,206.1L203.9,206.1z"/>
	<path class="st1" d="M278.5,234.4h-12.4v-28.3h11c1.9,0,3.6,0.2,5,0.7s2.4,1.1,3.1,1.9c1.3,1.5,1.9,3.1,1.9,4.9
		c0,2.2-0.7,3.9-2.1,4.9c-0.5,0.4-0.9,0.6-1.1,0.7s-0.5,0.2-1,0.5c1.8,0.4,3.2,1.2,4.2,2.4c1,1.2,1.6,2.7,1.6,4.5c0,2-0.7,3.7-2,5.2
		C285,233.5,282.3,234.4,278.5,234.4z M270.8,217.8h6.1c3.5,0,5.2-1.2,5.2-3.5c0-1.3-0.4-2.3-1.3-2.9c-0.8-0.6-2.1-0.9-3.9-0.9h-6.1
		L270.8,217.8L270.8,217.8z M270.8,230h7.5c1.8,0,3.1-0.3,4-0.8c0.9-0.6,1.4-1.6,1.4-3.1c0-2.5-2-3.8-6-3.8h-6.9V230z"/>
	<path class="st1" d="M318.6,206.1v4.5h-15.1v7.5h13.6v4.3h-13.6v7.6h15.6v4.5h-20.4v-28.3h19.9V206.1z"/>
	<path class="st1" d="M367,215.3c0,4.7-2,7.6-6.1,8.8l7.4,10.3h-6.1l-6.8-9.5h-6.3v9.5h-4.7v-28.3h10.5c4.3,0,7.4,0.7,9.3,2.2
		C366.1,209.7,367,212,367,215.3z M360.7,219.3c1-0.8,1.5-2.2,1.5-4s-0.5-3.1-1.5-3.8c-1-0.7-2.8-1-5.3-1h-6.1v10.1h6
		C357.9,220.5,359.7,220.1,360.7,219.3z"/>
	<path class="st1" d="M397.9,206.1v4.5h-15.1v7.5h13.6v4.3h-13.6v7.6h15.6v4.5H378v-28.3h19.9V206.1z"/>
	<path class="st1" d="M412.5,227.9l-2.8,6.4h-5.1l12.5-28.3h5.1l12.5,28.3h-5.1l-2.8-6.4H412.5z M424.8,223.5l-5.1-11.7l-5.1,11.7
		H424.8z"/>
	<path class="st1" d="M464.1,209.8c2.7,2.5,4.1,5.9,4.1,10.3s-1.3,7.9-4,10.5s-6.7,3.8-12.2,3.8h-9.4v-28.3h9.7
		C457.4,206.1,461.4,207.3,464.1,209.8z M463.4,220.2c0-6.5-3.7-9.7-11.1-9.7h-4.9v19.4h5.3c3.4,0,6.1-0.8,7.9-2.5
		C462.4,225.8,463.4,223.4,463.4,220.2z"/>
	<path class="st1" d="M489.5,234.4h-4.9v-11.2l-10.5-17.1h5.2L487,219l7.7-12.9h5.2l-10.5,17.1L489.5,234.4L489.5,234.4z"/>
	<path class="st1" d="M565.6,234.4h-12.4v-28.3h11c1.9,0,3.6,0.2,5,0.7s2.4,1.1,3.1,1.9c1.3,1.5,1.9,3.1,1.9,4.9
		c0,2.2-0.7,3.9-2.1,4.9c-0.5,0.4-0.9,0.6-1.1,0.7s-0.5,0.2-1,0.5c1.8,0.4,3.2,1.2,4.2,2.4c1,1.2,1.6,2.7,1.6,4.5c0,2-0.7,3.7-2,5.2
		C572.2,233.5,569.4,234.4,565.6,234.4z M558,217.8h6.1c3.5,0,5.2-1.2,5.2-3.5c0-1.3-0.4-2.3-1.3-2.9c-0.8-0.6-2.1-0.9-3.9-0.9H558
		V217.8z M558,230h7.5c1.8,0,3.1-0.3,4-0.8c0.9-0.6,1.4-1.6,1.4-3.1c0-2.5-2-3.8-6-3.8H558V230z"/>
	<path class="st1" d="M605.7,206.1v4.5h-15.1v7.5h13.6v4.3h-13.6v7.6h15.6v4.5h-20.4v-28.3h19.9V206.1z"/>
	<path class="st1" d="M631.6,234.4v-28.3h4.8v12.3h14v-12.3h4.8v28.3h-4.8v-11.6h-14.1v11.6H631.6z"/>
	<path class="st1" d="M687,206.1v4.5h-15.1v7.5h13.5v4.3h-13.6v7.6h15.6v4.5H667v-28.3h20V206.1z"/>
	<path class="st1" d="M701.7,227.9l-2.8,6.4h-5.1l12.5-28.3h5.1l12.5,28.3h-5.1l-2.8-6.4H701.7z M713.9,223.5l-5.1-11.7l-5.1,11.7
		H713.9z"/>
	<path class="st1" d="M754.4,215.3c0,4.7-2,7.6-6.1,8.8l7.4,10.3h-6.1l-6.8-9.5h-6.3v9.5h-4.8v-28.3h10.5c4.3,0,7.4,0.7,9.3,2.2
		C753.4,209.7,754.4,212,754.4,215.3z M748,219.3c1-0.8,1.5-2.2,1.5-4s-0.5-3.1-1.5-3.8c-1-0.7-2.8-1-5.3-1h-6.1v10.1h6
		C745.2,220.5,747,220.1,748,219.3z"/>
	<path class="st1" d="M786.7,209.8c2.7,2.5,4.1,5.9,4.1,10.3s-1.3,7.9-4,10.5c-2.7,2.6-6.7,3.8-12.2,3.8h-9.4v-28.3h9.7
		C780.1,206.1,784,207.3,786.7,209.8z M786,220.2c0-6.5-3.7-9.7-11.1-9.7h-4.8v19.4h5.3c3.4,0,6.1-0.8,7.9-2.5
		C785.1,225.8,786,223.4,786,220.2z"/>
</g>
<g>
	<rect x="522.9" y="201.8" class="st2" width="2" height="37"/>
</g>
<g>
	<rect x="235.9" y="201.8" class="st2" width="2" height="37"/>
</g>
</svg>
