
<svg width="24" height="32" viewBox="0 0 24 32" fill="none" xmlns="http://www.w3.org/2000/svg">
    <path d="M0.984581 16.0312C0.711143 16.2656 0.711143 16.6562 0.945518 16.9297C1.14083 17.2031 1.53146 17.2031 1.80489 16.9688L3.25021 15.6797V23.375C3.25021 25.1328 4.65646 26.5 6.37521 26.5H17.6252C19.383 26.5 20.7502 25.1328 20.7502 23.375V15.6797L22.2346 16.9688C22.508 17.2031 22.8986 17.2031 23.094 16.9297C23.3283 16.6562 23.3283 16.2656 23.0549 16.0312L12.4299 6.69531C12.1955 6.46094 11.844 6.46094 11.6096 6.69531L0.984581 16.0312ZM17.6252 25.25H15.1252V19C15.1252 18.3359 14.5783 17.75 13.8752 17.75H10.1252C9.46114 17.75 8.87521 18.3359 8.87521 19V25.25H6.37521C5.35958 25.25 4.50021 24.4297 4.50021 23.375V14.5859L12.0002 7.98438L19.5002 14.5859V23.375C19.5002 24.4297 18.6799 25.25 17.6252 25.25ZM13.8752 25.25H10.1252V19H13.8752V25.25Z" fill="#03213F"/>
    </svg>