<svg width="24" height="24" viewBox="0 0 24 24" fill="none" xmlns="http://www.w3.org/2000/svg">
    <path d="M24 12C24 18.6274 18.6274 24 12 24C5.37258 24 0 18.6274 0 12C0 5.37258 5.37258 0 12 0C18.6274 0 24 5.37258 24 12Z" fill="#E22339"/>
    <path d="M11 18C11 17.4477 11.4477 17 12 17C12.5523 17 13 17.4477 13 18C13 18.5523 12.5523 19 12 19C11.4477 19 11 18.5523 11 18Z" fill="white"/>
    <path d="M11 5C11 4.44771 11.4477 4 12 4C12.5523 4 13 4.44772 13 5V14C13 14.5523 12.5523 15 12 15C11.4477 15 11 14.5523 11 14V5Z" fill="white"/>
    </svg>
    