<svg width="17" height="16" viewBox="0 0 17 16" fill="none" xmlns="http://www.w3.org/2000/svg">
    <path
        d="M15.8057 14.7188C16.1182 15.0312 16.1182 15.5 15.8057 15.7812C15.6807 15.9375 15.4932 16 15.3057 16C15.0869 16 14.8994 15.9375 14.7432 15.7812L10.5557 11.5938C9.43066 12.5 8.02441 13 6.52441 13C2.96191 13 0.0556641 10.0938 0.0556641 6.5C0.0556641 2.9375 2.93066 0 6.52441 0C10.0869 0 13.0244 2.9375 13.0244 6.5C13.0244 8.03125 12.5244 9.4375 11.6182 10.5312L15.8057 14.7188ZM1.55566 6.5C1.55566 9.28125 3.77441 11.5 6.55566 11.5C9.30566 11.5 11.5557 9.28125 11.5557 6.5C11.5557 3.75 9.30566 1.5 6.55566 1.5C3.77441 1.5 1.55566 3.75 1.55566 6.5Z"
        fill="#636363" />
</svg>
    