<svg width="382" height="64" viewBox="0 0 382 64" fill="none" xmlns="http://www.w3.org/2000/svg">
<g clip-path="url(#clip0_10841_17460)">
<path d="M134.955 46.3215C135.832 46.3215 136.547 46.4837 137.163 46.7757C137.748 47.1 138.203 47.5542 138.527 48.2029C138.82 48.8517 138.982 49.6626 138.982 50.6358C138.982 52.1279 138.625 53.2632 137.91 54.0093C137.196 54.7554 136.124 55.1446 134.663 55.1446H133.332V46.3215H134.988H134.955ZM135.085 44.4401H130.994V57.0585H134.761C136.124 57.0585 137.293 56.8314 138.3 56.3448C139.274 55.8583 140.054 55.1446 140.573 54.1715C141.093 53.1984 141.385 51.9982 141.385 50.5709C141.385 49.2409 141.125 48.1056 140.638 47.1974C140.151 46.2891 139.404 45.6079 138.495 45.1538C137.553 44.6672 136.449 44.4401 135.15 44.4401M121.642 44.4401H118.849V57.0585H120.895V50.7006C120.895 50.279 120.895 49.8897 120.862 49.468C120.862 49.0463 120.83 48.6571 120.797 48.2678C120.797 47.8785 120.765 47.5217 120.732 47.1649H120.797L126.772 57.0585H129.597V44.4401H127.552V50.8628C127.552 51.2521 127.552 51.6413 127.584 52.0306C127.584 52.4523 127.584 52.8415 127.617 53.2308C127.617 53.6201 127.617 53.9769 127.649 54.2688H127.584L121.609 44.4401H121.642ZM110.211 51.8035L111.315 48.6571C111.38 48.4624 111.445 48.2029 111.51 47.9434C111.575 47.6515 111.673 47.3595 111.738 47.0676C111.802 46.7432 111.867 46.4837 111.932 46.2242C111.965 46.4188 112.062 46.6783 112.127 47.0352C112.225 47.3595 112.322 47.6839 112.387 48.0083C112.484 48.3327 112.549 48.5597 112.614 48.6895L113.686 51.836H110.179L110.211 51.8035ZM102.32 44.4401H100.015V57.0585H108.425L109.594 53.7498H114.27L115.472 57.0585H117.907L113.264 44.3753H110.666L106.737 55.1122H102.32V44.4077V44.4401ZM92.3839 55.0473C91.7345 54.8527 91.1499 54.6256 90.6304 54.3986V56.507C90.9551 56.6692 91.2798 56.799 91.6695 56.8963C92.0592 56.9936 92.4488 57.0909 92.871 57.1234C93.2931 57.1882 93.7153 57.1882 94.2024 57.1882C95.1441 57.1882 95.9883 57.026 96.6703 56.7341C97.3522 56.4422 97.9042 56.0205 98.2614 55.469C98.6186 54.9176 98.8135 54.2688 98.8135 53.5552C98.8135 52.9064 98.6836 52.355 98.4238 51.9008C98.164 51.4467 97.8068 51.0575 97.3197 50.7655C96.8326 50.4411 96.2806 50.1492 95.5987 49.8573C95.0142 49.5978 94.5271 49.3707 94.1699 49.1436C93.8127 48.949 93.5204 48.7219 93.3581 48.4949C93.1957 48.2678 93.0983 47.9759 93.0983 47.619C93.0983 47.3271 93.1632 47.0676 93.3256 46.8405C93.4555 46.6135 93.6828 46.4513 93.9751 46.3215C94.2673 46.1918 94.592 46.1269 95.0142 46.1269C95.5337 46.1269 96.0208 46.1918 96.5079 46.3215C96.995 46.4513 97.4821 46.6135 98.0016 46.8405L98.716 45.024C98.1315 44.7645 97.547 44.5699 96.9625 44.4077C96.378 44.2779 95.7286 44.1806 95.0791 44.1806C94.2348 44.1806 93.5204 44.3104 92.871 44.6023C92.254 44.8618 91.7345 45.2835 91.4097 45.7701C91.0525 46.2891 90.8902 46.9054 90.8902 47.619C90.8902 48.1705 90.9876 48.6246 91.1499 49.0463C91.3123 49.4356 91.5721 49.7924 91.8643 50.0843C92.1566 50.3763 92.4813 50.6358 92.871 50.8304C93.2282 51.025 93.6179 51.2197 94.0075 51.3818C94.592 51.6089 95.0791 51.836 95.4688 52.063C95.8585 52.2901 96.1507 52.5172 96.3455 52.7442C96.5404 53.0037 96.6378 53.2957 96.6378 53.6525C96.6378 53.9769 96.5729 54.2364 96.4105 54.4959C96.2481 54.7229 96.0208 54.9176 95.6961 55.0473C95.3714 55.1771 94.9492 55.242 94.4621 55.242C93.8127 55.242 93.1632 55.1446 92.5138 54.95M81.1809 44.4401H78.3882V57.0585H80.434V50.7006C80.434 50.279 80.434 49.8897 80.4015 49.468C80.4015 49.0463 80.3691 48.6571 80.3366 48.2678C80.3366 47.8785 80.3041 47.5217 80.2717 47.1649H80.3366L86.3115 57.0585H89.1367V44.4401H87.0909V50.8628C87.0909 51.2521 87.0909 51.6413 87.1234 52.0306C87.1234 52.4523 87.1234 52.8415 87.1558 53.2308C87.1558 53.6201 87.1558 53.9769 87.1883 54.2688H87.1234L81.1484 44.4401H81.1809ZM77.0569 44.4401H69.8804V57.0585H77.0569V55.1446H72.1535V51.4467H76.7646V49.5653H72.1535V46.354H77.0569V44.4726V44.4401ZM68.3218 44.4401H61.1453V57.0585H68.3218V55.1446H63.4184V51.4467H68.0295V49.5653H63.4184V46.354H68.3218V44.4726V44.4401ZM51.6634 44.4401H49.3903V52.582C49.3903 53.9769 49.8124 55.1122 50.6567 55.9556C51.501 56.799 52.735 57.2531 54.3911 57.2531C55.5601 57.2531 56.5018 57.0585 57.2486 56.6368C57.9955 56.2151 58.58 55.6636 58.9372 54.9825C59.2944 54.2688 59.4892 53.4903 59.4892 52.6145V44.4401H57.2486V52.3225C57.2486 52.9713 57.1512 53.4903 56.9564 53.9444C56.7616 54.3986 56.4693 54.7229 56.0472 54.95C55.625 55.1771 55.1055 55.2744 54.456 55.2744C53.5143 55.2744 52.8324 55.0473 52.3453 54.5608C51.8582 54.0742 51.6309 53.3281 51.6309 52.3225V44.4077L51.6634 44.4401ZM38.5445 50.7331C38.5445 49.7924 38.6744 48.949 38.9017 48.3002C39.1614 47.619 39.5511 47.1 40.0707 46.7432C40.5902 46.3864 41.2722 46.1918 42.1164 46.1918C43.3504 46.1918 44.2596 46.581 44.8117 47.392C45.3637 48.2029 45.6235 49.3058 45.6235 50.7331C45.6235 51.6738 45.4936 52.4847 45.2663 53.1659C45.039 53.8471 44.6493 54.3661 44.1297 54.7229C43.6102 55.0798 42.9283 55.2744 42.1164 55.2744C41.3046 55.2744 40.6227 55.0798 40.1032 54.7229C39.5836 54.3661 39.1939 53.8471 38.9341 53.1659C38.6744 52.4847 38.5769 51.6738 38.5769 50.7331M36.791 47.3271C36.3688 48.3002 36.1415 49.4356 36.1415 50.7331C36.1415 51.7062 36.2714 52.6145 36.4987 53.393C36.726 54.2039 37.1157 54.8851 37.6028 55.4366C38.0899 56.0205 38.7068 56.4422 39.4537 56.7665C40.2006 57.0909 41.0773 57.2207 42.1164 57.2207C42.1489 57.2207 42.2139 57.2207 42.2788 57.2207C42.3438 57.2207 42.3762 57.2207 42.4412 57.2207L44.7467 60.0752H47.7667L44.7142 56.7665C45.4611 56.4746 46.0781 56.0205 46.5652 55.469C47.0523 54.8851 47.4095 54.2039 47.6693 53.393C47.8966 52.582 48.0264 51.7062 48.0264 50.7331C48.0264 49.4356 47.7991 48.3002 47.377 47.3271C46.9549 46.354 46.3054 45.6079 45.4286 45.0564C44.5519 44.505 43.4478 44.2455 42.1164 44.2455C40.7851 44.2455 39.6485 44.505 38.7393 45.0564C37.8625 45.6079 37.2131 46.354 36.7585 47.3271M25.6529 46.2567C26.2374 46.2567 26.7245 46.3215 27.0817 46.4513C27.4713 46.581 27.7311 46.7757 27.8935 47.0676C28.0558 47.3271 28.1533 47.7164 28.1533 48.1381C28.1533 48.8517 27.9584 49.3707 27.5363 49.6951C27.1141 50.0194 26.4972 50.2141 25.6854 50.2141H24.289V46.2567H25.6529ZM25.7503 44.4401H22.0484V56.9936H24.3215V52.0306H26.1724L29.0625 56.9936H31.6603L28.1533 51.4143C28.5754 51.2197 28.9651 50.9926 29.3223 50.7006C29.6795 50.4087 29.9717 50.0519 30.199 49.6302C30.4263 49.2085 30.5238 48.6895 30.5238 48.0732C30.5238 47.2622 30.3614 46.581 30.0042 46.062C29.647 45.543 29.1274 45.1213 28.413 44.8618C27.6987 44.6023 26.8219 44.4726 25.7178 44.4726M11.2676 50.7006C11.2676 49.7599 11.3974 48.949 11.6248 48.2678C11.8845 47.5866 12.2417 47.0676 12.7938 46.7108C13.3133 46.354 13.9952 46.1593 14.8071 46.1593C16.041 46.1593 16.9178 46.5486 17.4698 47.3595C18.0218 48.1705 18.2816 49.2734 18.2816 50.7006C18.2816 51.6413 18.1517 52.4523 17.9244 53.1335C17.6971 53.8147 17.3074 54.3337 16.7879 54.6905C16.2683 55.0473 15.6189 55.242 14.7746 55.242C13.9303 55.242 13.3133 55.0473 12.7613 54.6905C12.2417 54.3337 11.8521 53.8147 11.5923 53.1335C11.3325 52.4523 11.2351 51.6413 11.2351 50.7006M9.51404 47.2947C9.0919 48.2678 8.86459 49.4031 8.86459 50.6682C8.86459 51.6413 8.99448 52.5172 9.22179 53.3281C9.4491 54.1391 9.83877 54.8203 10.3259 55.3717C10.8129 55.9231 11.4299 56.3773 12.1768 56.7017C12.9237 57.026 13.8004 57.1558 14.8071 57.1558C15.8137 57.1558 16.658 56.9936 17.4049 56.7017C18.1517 56.4097 18.7687 55.9556 19.2558 55.3717C19.7429 54.7878 20.1001 54.1066 20.3599 53.3281C20.5872 52.5496 20.7171 51.6738 20.7171 50.7006C20.7171 49.4031 20.4898 48.2678 20.0676 47.2947C19.6455 46.3215 18.996 45.5755 18.1193 45.0564C17.2425 44.5374 16.1384 44.2455 14.8395 44.2455C13.5406 44.2455 12.3716 44.505 11.4949 45.0564C10.6181 45.5755 9.96866 46.354 9.54652 47.2947M7.89042 44.4401H0.778936V56.9936H2.98707V51.9008H7.56569V50.0194H2.98707V46.3215H7.89042V44.4401ZM17.4049 32.6327C17.7296 31.4001 17.892 30.0053 17.892 28.5131C17.892 26.1451 17.21 24.3286 15.8462 23.096C14.4823 21.8633 12.6314 21.247 10.2609 21.247H4.77306L3.40921 27.7022H8.53987L8.96201 25.6586L13.0535 30.8486L6.75388 36.0387L7.17602 33.9951H2.07784L0.681519 40.4827H6.88377C8.28009 40.4827 9.54651 40.3205 10.6831 39.9637C11.8196 39.6069 12.8262 39.0879 13.7355 38.4391C14.6122 37.7579 15.3916 36.947 15.9761 35.9738C16.5931 35.0007 17.0477 33.8978 17.3724 32.6327M31.7577 25.4315L32.6345 21.247H21.2041L17.1451 40.4827H28.5754L29.4522 36.2658H23.1525L23.8994 32.6327H29.7444L30.6861 28.4482H24.8411L25.458 25.4315H31.7577ZM42.3438 36.2982H36.0441L39.2264 21.247H34.0633L30.0042 40.4827H41.4345L42.3113 36.2658L42.3438 36.2982ZM62.7365 40.4827L72.2834 21.247H66.828L62.2169 31.8542C62.0221 32.2435 61.8273 32.8274 61.535 33.6059C61.2752 34.3844 61.0479 35.1304 60.8856 35.8441H60.7881C60.8531 35.4873 60.918 35.0007 60.9505 34.4168C60.9505 33.8329 60.983 33.2166 61.0154 32.6003C61.0154 31.984 61.0154 31.4325 61.0154 30.9784L60.6907 21.2795H46.7275L46.1106 24.2313L48.2213 25.3666L45.8508 36.5253L43.3179 37.5633L42.701 40.5151H52.5077L53.1246 37.5633L50.9814 36.5253L53.3519 25.3666L55.8523 24.2962L57.0213 40.5151H62.769L62.7365 40.4827ZM83.941 25.4315L84.8178 21.247H73.3875L69.3284 40.4827H80.7587L81.6355 36.2658H75.3358L76.0827 32.6327H81.9277L82.8695 28.4482H77.0244L77.6414 25.4315H83.941ZM93.0334 26.8588C93.0334 27.3453 92.9684 27.767 92.806 28.1239C92.6437 28.4807 92.4488 28.7726 92.1891 28.9672C91.9293 29.1943 91.637 29.3241 91.3123 29.4538C90.9876 29.5511 90.6629 29.616 90.3057 29.616H89.6237L90.533 25.2369H91.2474C91.8968 25.2369 92.3839 25.3991 92.6437 25.7235C92.9035 26.0478 93.0334 26.4371 93.0334 26.9237M109.529 24.1989L110.146 21.247H100.242L99.6253 24.1989L101.736 25.3342L99.3655 36.4928L96.8326 37.5309V37.7579L94.4621 32.4057C95.0142 32.1462 95.5987 31.7893 96.1507 31.3352C96.7352 30.8811 97.2223 30.2323 97.5795 29.4538C97.9692 28.6753 98.164 27.6697 98.164 26.502C98.164 24.7503 97.5795 23.4204 96.4105 22.5445C95.2415 21.6687 93.5529 21.2146 91.3123 21.2146H86.2141L82.1551 40.4503H87.3182L88.8119 33.4437H89.7861L92.3514 40.4503H106.055L106.672 37.4984L104.529 36.4604L106.899 25.3018L109.529 24.1664V24.1989ZM124.272 40.4827L128.331 21.247H123.752L122.031 29.2916C121.934 29.7458 121.836 30.2648 121.739 30.8811C121.642 31.4974 121.544 32.0813 121.479 32.6976C121.414 33.2815 121.317 33.8005 121.284 34.1897H121.187L117.42 21.247H111.445L107.386 40.4827H111.965L113.653 32.4381C113.751 32.0164 113.848 31.4974 113.913 30.946C114.011 30.3945 114.076 29.8431 114.14 29.2916C114.205 28.7402 114.27 28.2536 114.303 27.8319C114.335 27.4102 114.368 27.1183 114.4 26.9237H114.498L118.297 40.4503H124.272V40.4827ZM144.502 22.3499C143.723 21.8958 142.814 21.539 141.807 21.3119C140.768 21.0848 139.696 20.9551 138.592 20.9551C137.066 20.9551 135.702 21.1821 134.468 21.6038C133.267 22.058 132.195 22.6418 131.286 23.4204C130.377 24.1989 129.63 25.1071 129.045 26.1127C128.461 27.1183 128.006 28.2212 127.714 29.4214C127.422 30.5891 127.292 31.8218 127.292 33.0544C127.292 35.617 127.941 37.5309 129.273 38.7959C130.604 40.0934 132.358 40.7098 134.533 40.7098C135.962 40.7098 137.228 40.6125 138.365 40.3854C139.469 40.1583 140.476 39.9313 141.385 39.6393L143.593 29.1943H135.54L134.663 33.2166H137.683L137.001 36.2658C136.644 36.3307 136.384 36.3955 136.124 36.428C135.897 36.428 135.605 36.4604 135.248 36.4604C134.663 36.4604 134.144 36.3306 133.754 36.1036C133.364 35.8765 133.039 35.4873 132.812 34.9683C132.585 34.4492 132.487 33.8005 132.487 32.9895C132.487 32.2435 132.585 31.4001 132.812 30.5243C133.007 29.6484 133.364 28.8051 133.819 27.9941C134.273 27.1832 134.89 26.5344 135.67 26.0154C136.449 25.4964 137.391 25.2369 138.527 25.2369C139.307 25.2369 140.021 25.3666 140.703 25.5937C141.385 25.8208 142.002 26.1127 142.554 26.4371L144.502 22.3823V22.3499Z" fill="#005EB8"/>
<path d="M275.042 34.5785C274.295 34.5785 273.581 34.2541 272.964 33.8649C272.574 33.6378 271.924 33.1837 271.47 33.0215C273.483 31.6915 274.782 28.9667 274.782 25.3337C274.782 20.0788 272.022 16.835 267.573 16.835C266.307 16.835 265.073 17.1269 264.099 17.6459C261.696 18.9434 260.299 21.8628 260.299 25.4959C260.299 27.9612 260.949 30.0696 262.215 31.724C263.482 33.3783 265.138 34.0919 267.638 34.0919C268.937 34.5136 270.236 35.2597 271.048 35.7787C271.665 36.2004 272.834 36.9465 274.133 36.9465C275.139 36.9465 275.626 36.6545 275.626 36.6545L276.503 34.4487C276.503 34.4487 275.724 34.5785 275.009 34.5785H275.042ZM267.541 31.4969C266.729 31.4969 266.079 31.3023 265.527 30.913C264.521 30.1994 264.034 28.3829 264.034 25.4959C264.034 23.4847 264.293 21.9926 264.878 20.9221C265.365 20.0463 266.339 19.4624 267.476 19.4624C269.262 19.4624 270.138 20.7275 270.431 21.5709C270.723 22.5116 270.853 23.7442 270.853 25.4634C270.853 29.7452 269.879 31.5293 267.508 31.5293L267.541 31.4969Z" fill="#005EB8"/>
<path d="M277.542 32.1131C277.347 31.5617 277.282 30.9129 277.282 29.6479V21.733L280.465 21.1167V29.0315C280.465 30.1344 280.562 30.7183 280.724 31.0427C280.887 31.3671 281.374 31.6266 281.861 31.6266C282.673 31.6266 283.615 31.0427 283.874 30.4588V21.7655L286.959 21.1167V30.5561C286.959 31.3671 287.219 32.2105 287.706 32.7943L285.401 34.0919C284.978 33.7999 284.654 33.3782 284.426 32.8917C283.615 33.6702 282.478 34.0594 281.179 34.0594C279.426 34.0594 277.932 33.2485 277.542 32.0483V32.1131Z" fill="#005EB8"/>
<path d="M300.24 28.6426V27.8966C300.24 25.334 299.721 23.6472 298.584 22.5119C297.773 21.7009 296.441 21.2144 295.012 21.2144C293.356 21.2144 292.155 21.7334 291.116 22.8687C290.044 24.0689 289.557 25.5286 289.557 27.7668C289.557 31.6594 291.863 34.1571 295.402 34.1571C297.123 34.1571 298.649 33.6056 300.046 32.4379L298.779 30.524C297.805 31.335 296.766 31.7567 295.629 31.7567C293.973 31.7567 293.032 30.6862 293.032 28.7724V28.6751H300.176L300.24 28.6426ZM293.161 26.2422C293.161 24.523 293.876 23.5823 295.077 23.5823C295.727 23.5823 296.181 23.8094 296.506 24.296C296.798 24.7501 296.896 25.2367 296.896 26.1449V26.2747H293.161V26.2098V26.2422Z" fill="#005EB8"/>
<path d="M312.45 28.6426V27.8966C312.45 25.334 311.931 23.6472 310.794 22.5119C309.982 21.7009 308.651 21.2144 307.222 21.2144C305.566 21.2144 304.364 21.7334 303.325 22.8687C302.254 24.0689 301.767 25.5286 301.767 27.7668C301.767 31.6594 304.072 34.1571 307.612 34.1571C309.333 34.1571 310.859 33.6056 312.255 32.4379L310.989 30.524C310.015 31.335 308.976 31.7567 307.839 31.7567C306.183 31.7567 305.241 30.6862 305.241 28.7724V28.6751H312.385L312.45 28.6426ZM305.339 26.2422C305.339 24.523 306.053 23.5823 307.255 23.5823C307.904 23.5823 308.359 23.8094 308.683 24.296C308.976 24.7501 309.073 25.2367 309.073 26.1449V26.2747H305.339V26.2098V26.2422Z" fill="#005EB8"/>
<path d="M314.723 24.8473C314.723 23.7769 314.593 22.7713 314.301 21.9604L317.159 21.1494C317.451 21.6684 317.613 22.1874 317.613 22.7064C318.1 22.3821 318.49 22.0901 319.042 21.7982C319.691 21.4738 320.536 21.2792 321.25 21.2792C322.614 21.2792 323.815 21.9928 324.205 23.0633C324.368 23.5174 324.432 24.0364 324.432 24.8149V33.8326H321.25V25.8205C321.25 24.4256 321.023 24.004 320.179 24.004C319.529 24.004 318.685 24.4256 317.938 25.1068V33.8326H314.691V24.8798L314.723 24.8473Z" fill="#005EB8"/>
<path d="M331.511 34.1892C329.985 34.1892 328.329 33.7026 326.511 32.7619L327.68 30.3939C328.654 31.0103 330.375 31.7888 331.771 31.7888C332.68 31.7888 333.427 31.1725 333.427 30.3939C333.427 29.5506 332.81 29.1289 331.511 28.8694L330.05 28.6099C329.238 28.4801 328.199 27.8962 327.777 27.3448C327.355 26.8258 327.063 25.9175 327.063 25.139C327.063 22.7386 328.979 21.1167 331.836 21.1167C333.817 21.1167 335.116 21.733 336.252 22.2845L335.181 24.4578C333.947 23.8415 333.07 23.582 332.128 23.582C331.187 23.582 330.57 24.0685 330.57 24.7822C330.57 25.3985 330.992 25.7553 332.128 26.0473L333.622 26.4365C335.148 26.8258 335.635 27.2799 336.09 27.8313C336.545 28.4152 336.772 29.0964 336.772 29.9398C336.772 32.5024 334.661 34.2216 331.479 34.2216L331.511 34.1892Z" fill="#005EB8"/>
<path d="M339.078 20.4357C339.078 18.8138 339.045 17.8407 338.915 16.7378L342.227 15.9917C342.357 16.6729 342.39 17.4514 342.39 19.2031V28.8047C342.39 30.9131 342.39 31.2051 342.617 31.5619C342.747 31.789 343.007 31.8863 343.267 31.8863C343.396 31.8863 343.461 31.8863 343.624 31.8538L344.176 33.7677C343.624 33.9947 342.942 34.0921 342.26 34.0921C340.896 34.0921 339.759 33.4433 339.402 32.4053C339.175 31.789 339.11 31.3997 339.11 29.6481V20.4357H339.078Z" fill="#005EB8"/>
<path d="M354.664 29.7131L354.729 25.561C354.729 24.2311 354.664 23.8418 354.502 23.3553C354.015 21.9929 352.586 21.2144 350.508 21.2144C349.371 21.2144 348.332 21.4414 347.131 21.928C346.254 22.2848 345.767 22.5443 345.117 22.9336L346.481 25.2367C347.813 24.3608 349.014 23.8418 350.053 23.8418C351.222 23.8418 351.515 24.296 351.515 25.6583V26.1774C351.255 26.1774 351.027 26.1774 350.8 26.1774C346.871 26.1774 344.858 27.5397 344.858 30.4267C344.858 32.892 346.351 34.2868 349.112 34.2868C350.118 34.2868 350.995 34.0598 351.612 33.6056C351.839 33.4434 352.132 33.1839 352.359 32.9569C352.684 33.5732 353.333 34.1246 354.112 34.449L355.833 32.4703C354.762 31.6594 354.664 31.0755 354.664 29.7131ZM351.45 31.043C350.962 31.562 350.378 31.8864 349.761 31.8864C348.949 31.8864 348.332 31.2377 348.332 30.2645C348.332 28.8048 349.112 28.3831 351.352 28.3831H351.482L351.417 31.043H351.45Z" fill="#005EB8"/>
<path d="M363.529 23.9715C362.88 23.9715 362.036 24.3932 361.289 25.0744V33.8002H358.042V24.8473C358.042 23.7769 357.912 22.7713 357.619 21.9604L360.477 21.1494C360.769 21.6684 360.932 22.1874 360.932 22.7064C361.419 22.3821 361.808 22.0901 362.36 21.7982C363.01 21.4738 363.854 21.2792 364.569 21.2792C365.932 21.2792 367.134 21.9928 367.524 23.0633C367.686 23.5174 367.751 24.0364 367.751 24.8149V33.8326H364.569V25.8205C364.569 24.4256 364.341 24.004 363.497 24.004L363.529 23.9715Z" fill="#005EB8"/>
<path d="M381.065 29.2915V16.4785L377.85 15.9595V20.2088C377.85 20.9225 377.882 21.7659 377.947 22.0254C377.33 21.5388 376.648 21.3117 375.739 21.3117C372.589 21.3117 370.446 23.9716 370.446 27.8317C370.446 31.6919 372.427 34.0923 375.577 34.0923C376.681 34.0923 377.622 33.7679 378.434 33.0543C378.467 33.3786 378.532 33.5733 378.629 33.7679H381.519C381.292 33.2813 381.065 32.3082 381.065 29.259V29.2915ZM377.882 30.589C377.558 30.9782 376.908 31.3999 376.291 31.3999C374.603 31.3999 374.05 30.5241 374.05 27.8966C374.05 25.2692 374.667 23.9392 376.129 23.9392C376.713 23.9392 377.298 24.1987 377.882 24.7501V30.6214V30.589Z" fill="#005EB8"/>
<path d="M266.989 48.4296H272.574V56.1499C271.405 56.9284 269.619 57.4149 267.93 57.4149C265.852 57.4149 264.099 56.7013 262.832 55.3389C261.436 53.8143 260.786 51.7708 260.786 48.9162C260.786 45.7697 261.631 43.5315 263.352 41.9745C264.521 40.904 265.949 40.4175 267.671 40.4175C269.392 40.4175 270.95 40.9689 272.217 42.0718L271.307 43.3045C269.944 42.3962 269.002 42.0394 267.703 42.0394C265.787 42.0394 264.261 42.9152 263.579 44.829C263.157 46.0617 262.93 47.4565 262.93 49.0135C262.93 51.1869 263.352 52.9385 264.099 54.0414C264.845 55.1119 266.534 55.7931 268.093 55.7931C269.132 55.7931 270.009 55.566 270.723 55.1443V50.1164H267.378L266.989 48.4621V48.4296Z" fill="#005EB8"/>
<path d="M285.076 46.8726C284.264 45.7049 282.965 44.7642 280.952 44.7642C277.802 44.7642 275.821 47.1646 275.821 51.0571C275.821 54.9497 277.705 57.4474 281.017 57.4474C284.037 57.4474 286.18 55.3389 286.18 51.3166C286.18 49.3703 285.823 47.9431 285.076 46.8726ZM283.647 54.0738C283.225 55.2416 282.283 55.8904 281.049 55.8904C280.01 55.8904 279.036 55.4038 278.614 54.6902C278.159 53.9441 277.867 52.4519 277.867 50.7652C277.867 49.3379 278.062 48.3648 278.451 47.6187C278.874 46.8077 279.848 46.3212 280.919 46.3212C281.893 46.3212 282.965 46.8077 283.485 47.8782C283.874 48.6891 284.037 49.792 284.037 51.4788C284.037 52.6466 283.939 53.3278 283.679 54.0738H283.647Z" fill="#005EB8"/>
<path d="M296.181 45.1208H298.195L293.681 57.2525H291.83L287.511 45.2181L289.427 44.7964L292.22 53.0681C292.544 54.0412 292.804 55.1116 292.804 55.1116H292.869C292.869 55.1116 293.064 54.1709 293.454 53.1005L296.214 45.1208H296.181Z" fill="#005EB8"/>
<path d="M309.398 51.4464V51.1869C309.398 48.3324 309.073 47.1971 308.034 46.1266C307.222 45.2832 306.086 44.8291 304.787 44.8291C303.325 44.8291 302.156 45.3481 301.182 46.4834C300.176 47.6836 299.721 48.9812 299.721 51.0247C299.721 55.0146 301.734 57.415 305.046 57.415C306.605 57.415 308.034 56.896 309.105 55.9229L308.391 54.7227C307.547 55.5012 306.605 55.858 305.436 55.858C304.267 55.858 303.131 55.4363 302.449 54.3983C302.026 53.782 301.897 52.9061 301.897 51.7708V51.4789H309.398V51.4464ZM304.689 46.2888C305.598 46.2888 306.443 46.7105 306.865 47.3593C307.222 47.9431 307.384 48.7217 307.417 50.0192H301.929C302.026 47.5214 303.001 46.2888 304.689 46.2888Z" fill="#005EB8"/>
<path d="M318.003 44.7642C318.328 44.7642 318.652 44.8939 318.652 44.8939L317.873 46.9375C317.873 46.9375 317.548 46.8402 317.353 46.8402C316.639 46.8402 315.892 47.1646 315.34 47.716C314.788 48.2675 314.626 48.6243 314.626 49.6298V57.1554H312.742V47.9106C312.742 46.159 312.32 45.348 312.32 45.348L314.204 44.829C314.204 44.829 314.658 45.7697 314.593 46.7753C315.47 45.5427 316.736 44.7642 317.97 44.7642H318.003Z" fill="#005EB8"/>
<path d="M329.011 46.6132C329.206 47.0349 329.303 47.5215 329.303 48.008V57.1231H327.387V49.0136C327.387 47.7485 327.29 47.4241 326.965 47.0024C326.706 46.6781 326.186 46.4834 325.634 46.4834C324.66 46.4834 323.166 47.2619 322.289 48.1702V57.1231H320.471V47.8783C320.471 46.1591 320.016 45.3481 320.016 45.3481L321.835 44.8291C321.835 44.8291 322.257 45.7374 322.257 46.7105C323.523 45.4454 324.757 44.8615 326.056 44.8615C327.355 44.8615 328.524 45.5752 329.011 46.6132Z" fill="#005EB8"/>
<path d="M348.04 48.0726V57.1228H346.124V48.2672C346.124 47.0995 345.605 46.5156 344.565 46.5156C343.494 46.5156 342.65 47.2292 341.383 48.3646V57.1552H339.467V48.6241C339.467 47.9104 339.402 47.4239 339.143 47.067C338.85 46.7427 338.461 46.5805 337.909 46.5805C336.999 46.5805 336.09 47.0346 334.856 48.1699V57.1228H333.038V47.8131C333.038 46.0615 332.616 45.2505 332.616 45.2505L334.434 44.8288C334.434 44.8288 334.856 45.7695 334.856 46.6129C335.668 45.7371 337.129 44.7964 338.363 44.7964C339.597 44.7964 340.734 45.51 341.156 46.8075C342.325 45.5749 343.786 44.7964 345.02 44.7964C346.806 44.7964 348.04 46.1588 348.04 48.0402V48.0726Z" fill="#005EB8"/>
<path d="M360.704 51.4464V51.1869C360.704 48.3324 360.38 47.1971 359.34 46.1266C358.529 45.2832 357.392 44.8291 356.093 44.8291C354.632 44.8291 353.463 45.3481 352.489 46.4834C351.482 47.6836 351.027 48.9812 351.027 51.0247C351.027 55.0146 353.041 57.415 356.353 57.415C357.912 57.415 359.34 56.896 360.412 55.9229L359.698 54.7227C358.853 55.5012 357.912 55.858 356.743 55.858C355.574 55.858 354.437 55.4363 353.755 54.3983C353.333 53.782 353.203 52.9061 353.203 51.7708V51.4789H360.704V51.4464ZM355.963 46.2888C356.873 46.2888 357.717 46.7105 358.139 47.3593C358.496 47.9431 358.659 48.7217 358.691 50.0192H353.203C353.301 47.5214 354.275 46.2888 355.963 46.2888Z" fill="#005EB8"/>
<path d="M372.622 46.6132C372.817 47.0349 372.914 47.5215 372.914 48.008V57.1231H370.998V49.0136C370.998 47.7485 370.901 47.4241 370.576 47.0024C370.316 46.6781 369.797 46.4834 369.245 46.4834C368.27 46.4834 366.777 47.2619 365.9 48.1702V57.1231H364.081V47.8783C364.081 46.1591 363.627 45.3481 363.627 45.3481L365.445 44.8291C365.445 44.8291 365.867 45.7374 365.867 46.7105C367.134 45.4454 368.368 44.8615 369.667 44.8615C370.966 44.8615 372.135 45.5752 372.622 46.6132Z" fill="#005EB8"/>
<path d="M381.227 55.8253L381.487 57.0255C380.87 57.3499 380.22 57.512 379.376 57.512C378.759 57.512 378.272 57.3823 377.817 57.1877C376.973 56.766 376.648 56.0199 376.648 54.7873V46.548H375.09V45.1208H376.648C376.648 43.953 376.843 42.0716 376.843 42.0716L378.824 41.6499C378.824 41.6499 378.597 43.5313 378.597 45.1208H381.617L381.032 46.548H378.532V54.3007C378.532 55.6306 378.889 56.0848 380.09 56.0848C380.61 56.0848 380.935 56.0199 381.259 55.8577L381.227 55.8253Z" fill="#005EB8"/>
<path d="M200.745 62.6375H201.037H201.069C201.069 62.6375 201.069 62.6375 201.037 62.6375H201.004C201.004 62.6375 200.907 62.6376 200.907 62.5402C200.907 62.5402 200.907 62.4429 200.94 62.378L201.004 62.2159H201.784L201.914 62.5402V62.6051H201.881C201.881 62.6051 201.914 62.6051 201.979 62.6051H202.498H202.628C202.628 62.6051 202.563 62.6051 202.498 62.6051C202.433 62.6051 202.368 62.5727 202.271 62.3132C202.109 61.8915 201.654 60.821 201.621 60.6588C201.621 60.594 201.589 60.5615 201.556 60.5615C201.556 60.5615 201.524 60.594 201.492 60.6588L200.81 62.3456C200.81 62.3456 200.712 62.5727 200.582 62.5727C200.582 62.5727 200.517 62.5727 200.485 62.5727C200.485 62.5727 200.485 62.5727 200.55 62.5727H200.875L200.745 62.6375ZM201.394 61.113L201.719 62.0212H201.037L201.362 61.113H201.394Z" fill="#005EB8"/>
<path d="M203.018 60.6587C203.018 60.6587 203.148 60.7236 203.148 60.8209C203.148 60.9182 203.148 60.9831 203.148 61.3723V61.7616C203.148 62.1508 203.245 62.3455 203.375 62.4752C203.57 62.6374 203.83 62.6698 203.959 62.6698C204.122 62.6698 204.349 62.6698 204.511 62.4752C204.739 62.2806 204.771 61.9562 204.771 61.6643V61.3723C204.771 60.9831 204.771 60.8858 204.771 60.8209C204.771 60.7236 204.771 60.6911 204.869 60.6587C204.901 60.6587 204.934 60.6587 204.934 60.6587H204.966C204.966 60.6587 204.966 60.6587 204.901 60.6587C204.804 60.6587 204.641 60.6587 204.609 60.6587C204.609 60.6587 204.447 60.6587 204.317 60.6587C204.284 60.6587 204.252 60.6587 204.252 60.6587C204.252 60.6587 204.252 60.6587 204.317 60.6587C204.317 60.6587 204.382 60.6587 204.414 60.6587C204.511 60.6587 204.511 60.7236 204.511 60.8209C204.511 60.9182 204.511 60.9831 204.511 61.3723V61.6967C204.511 61.9886 204.511 62.2157 204.349 62.3779C204.252 62.4752 204.089 62.5077 203.992 62.5077C203.894 62.5077 203.765 62.5076 203.667 62.4103C203.537 62.313 203.44 62.1184 203.44 61.7616V61.3723C203.44 60.9831 203.44 60.8858 203.44 60.8209C203.44 60.7236 203.44 60.6911 203.537 60.6587C203.57 60.6587 203.602 60.6587 203.602 60.6587H203.635C203.635 60.6587 203.635 60.6587 203.57 60.6587C203.472 60.6587 203.31 60.6587 203.245 60.6587C203.18 60.6587 202.985 60.6587 202.855 60.6587C202.823 60.6587 202.79 60.6587 202.79 60.6587C202.79 60.6587 202.79 60.6587 202.855 60.6587C202.888 60.6587 202.953 60.6587 202.953 60.6587H203.018Z" fill="#005EB8"/>
<path d="M205.81 60.6586C205.81 60.6586 205.908 60.7234 205.908 60.8208C205.908 60.9181 205.908 60.9829 205.908 61.3722V61.8588C205.908 62.1183 205.908 62.3129 205.908 62.4426C205.908 62.5075 205.908 62.5724 205.843 62.5724C205.843 62.5724 205.778 62.5724 205.745 62.5724C205.713 62.5724 205.713 62.5724 205.713 62.5724C205.713 62.5724 205.713 62.5724 205.778 62.5724H206.103C206.103 62.5724 206.492 62.5724 206.687 62.5724C207.174 62.5724 207.466 62.3778 207.596 62.248C207.759 62.0858 207.889 61.8263 207.889 61.5019C207.889 61.1776 207.759 60.9505 207.629 60.8208C207.337 60.5288 206.882 60.5288 206.557 60.5288C206.395 60.5288 206.233 60.5288 206.135 60.5288C206.07 60.5288 205.908 60.5288 205.745 60.5288C205.713 60.5288 205.68 60.5288 205.68 60.5288C205.68 60.5288 205.68 60.5288 205.713 60.5288C205.745 60.5288 205.81 60.5288 205.81 60.5288V60.6586ZM206.265 61.3398C206.265 61.1451 206.265 60.8856 206.265 60.8208C206.265 60.8208 206.265 60.7883 206.265 60.7559C206.265 60.7559 206.395 60.7559 206.427 60.7559C206.655 60.7559 206.947 60.7559 207.207 61.0154C207.337 61.1127 207.466 61.3398 207.466 61.6966C207.466 61.9561 207.402 62.2156 207.239 62.3778C207.077 62.5075 206.882 62.5724 206.622 62.5724C206.395 62.5724 206.297 62.5075 206.265 62.4751C206.265 62.4751 206.265 62.3453 206.265 62.2805C206.265 62.2156 206.265 62.021 206.265 61.729V61.4046V61.3398Z" fill="#005EB8"/>
<path d="M208.571 62.6375H208.863H208.895C208.895 62.6375 208.895 62.6375 208.863 62.6375H208.83C208.83 62.6375 208.733 62.6376 208.733 62.5402C208.733 62.5402 208.733 62.4429 208.765 62.378L208.83 62.2159H209.61L209.74 62.5402V62.6051H209.707C209.707 62.6051 209.74 62.6051 209.805 62.6051H210.324H210.454C210.454 62.6051 210.454 62.6051 210.421 62.6051C210.421 62.6051 210.357 62.6051 210.292 62.6051C210.227 62.6051 210.162 62.5727 210.064 62.3132C209.902 61.8915 209.447 60.821 209.382 60.6588C209.382 60.594 209.35 60.5615 209.317 60.5615C209.317 60.5615 209.285 60.594 209.252 60.6588L208.571 62.3456C208.571 62.3456 208.473 62.5727 208.343 62.5727C208.343 62.5727 208.278 62.5727 208.246 62.5727H208.213C208.213 62.5727 208.213 62.5727 208.278 62.5727H208.603L208.571 62.6375ZM209.22 61.113L209.545 62.0212H208.863L209.188 61.113H209.22Z" fill="#005EB8"/>
<path d="M210.714 62.6375H211.233H211.298C211.298 62.6375 211.298 62.6375 211.266 62.6375C211.266 62.6375 211.233 62.6375 211.201 62.6375C211.201 62.6375 211.136 62.6375 211.136 62.605C211.136 62.605 211.136 62.5402 211.168 62.5077L211.558 61.859C211.688 62.0536 211.85 62.3131 211.98 62.5726C211.98 62.605 211.98 62.6375 211.98 62.6375H211.948C211.948 62.6375 211.948 62.6375 212.045 62.6375H212.597H212.662C212.662 62.6375 212.662 62.6375 212.63 62.6375C212.63 62.6375 212.565 62.6375 212.532 62.6375C212.467 62.6375 212.435 62.5726 212.37 62.5077C212.305 62.4104 211.883 61.6968 211.785 61.567L212.24 60.9507C212.24 60.9507 212.37 60.7561 212.435 60.7236C212.467 60.7236 212.5 60.7236 212.532 60.7236H212.565C212.565 60.7236 212.565 60.7236 212.532 60.7236C212.435 60.7236 212.337 60.7236 212.272 60.7236C212.24 60.7236 212.11 60.7236 212.013 60.7236C211.98 60.7236 211.948 60.7236 211.948 60.7236C211.948 60.7236 212.013 60.7236 212.045 60.7236C212.045 60.7236 212.078 60.7236 212.078 60.7561C212.078 60.7561 212.078 60.8209 212.078 60.8534C212.045 60.9183 211.785 61.3075 211.72 61.4048C211.623 61.2426 211.493 61.0156 211.396 60.8209V60.7561C211.396 60.7561 211.396 60.7561 211.428 60.7236H211.493H211.526C211.526 60.7236 211.526 60.7236 211.461 60.7236C211.363 60.7236 211.201 60.7236 211.168 60.7236C211.038 60.7236 210.811 60.7236 210.746 60.7236C210.714 60.7236 210.681 60.7236 210.681 60.7236C210.681 60.7236 210.746 60.7236 210.779 60.7236C210.876 60.7236 210.941 60.821 211.006 60.9183L211.461 61.6643L210.941 62.4104C210.941 62.4104 210.811 62.605 210.714 62.605C210.681 62.605 210.616 62.605 210.616 62.605H210.584C210.584 62.605 210.584 62.605 210.616 62.605H210.681L210.714 62.6375Z" fill="#005EB8"/>
<path d="M215.585 62.6375H215.877H215.909C215.909 62.6375 215.909 62.6375 215.877 62.6375H215.844C215.844 62.6375 215.747 62.6376 215.747 62.5402C215.747 62.5402 215.747 62.4429 215.779 62.378L215.844 62.2159H216.624L216.754 62.5402V62.6051H216.721C216.721 62.6051 216.754 62.6051 216.786 62.6051H217.306H217.436C217.436 62.6051 217.436 62.6051 217.403 62.6051C217.403 62.6051 217.338 62.6051 217.306 62.6051C217.241 62.6051 217.176 62.5727 217.078 62.3132C216.916 61.8915 216.494 60.821 216.396 60.6588C216.396 60.594 216.364 60.5615 216.332 60.5615C216.332 60.5615 216.299 60.594 216.267 60.6588L215.585 62.3456C215.585 62.3456 215.487 62.5727 215.357 62.5727H215.292C215.292 62.5727 215.292 62.5727 215.357 62.5727H215.682L215.585 62.6375ZM216.234 61.113L216.591 62.0212H215.909L216.234 61.113Z" fill="#005EB8"/>
<path d="M217.565 60.9183C217.565 60.9183 217.565 60.8534 217.598 60.821C217.63 60.7561 217.695 60.7561 217.858 60.7236H218.247V61.8265C218.247 62.086 218.247 62.2807 218.247 62.4104C218.247 62.4753 218.247 62.5402 218.182 62.5402C218.182 62.5402 218.117 62.5402 218.085 62.5402H218.053C218.053 62.5402 218.053 62.5402 218.117 62.5402H218.897H218.962C218.962 62.5402 218.962 62.5402 218.929 62.5402C218.897 62.5402 218.832 62.5402 218.799 62.5402C218.734 62.5402 218.702 62.4753 218.702 62.4104C218.702 62.2807 218.702 62.086 218.702 61.8265V60.7236H219.027C219.254 60.7236 219.351 60.821 219.351 60.8858V60.9507C219.351 60.9507 219.351 60.9507 219.351 60.9183C219.351 60.8534 219.351 60.6588 219.351 60.5939C219.351 60.5615 219.351 60.529 219.351 60.529C219.351 60.529 219.254 60.529 219.092 60.529H218.02C218.02 60.529 217.825 60.529 217.76 60.529C217.695 60.529 217.663 60.4966 217.63 60.4966C217.63 60.4966 217.63 60.4966 217.598 60.5615C217.598 60.5615 217.533 60.821 217.533 60.8534C217.533 60.8858 217.533 60.8858 217.533 60.8858L217.565 60.9183Z" fill="#005EB8"/>
<path d="M222.501 60.6586C222.501 60.6586 222.599 60.7235 222.599 60.8208C222.599 60.9181 222.599 60.983 222.599 61.3723V61.8588C222.599 62.1183 222.599 62.313 222.599 62.4427C222.599 62.5076 222.599 62.5725 222.534 62.5725C222.534 62.5725 222.469 62.5725 222.436 62.5725C222.404 62.5725 222.404 62.5725 222.404 62.5725C222.404 62.5725 222.404 62.5725 222.469 62.5725H223.216H223.281C223.281 62.5725 223.281 62.5725 223.248 62.5725C223.216 62.5725 223.151 62.5725 223.118 62.5725C223.053 62.5725 223.021 62.5076 223.021 62.4427C223.021 62.3454 223.021 62.1508 223.021 61.8588V61.6318C223.053 61.6318 223.346 61.6318 223.41 61.6318C223.508 61.6318 223.54 61.6966 223.54 61.7291C223.54 61.7615 223.54 61.794 223.54 61.8264V61.8588C223.54 61.8588 223.54 61.8264 223.54 61.7939C223.54 61.7939 223.54 61.6642 223.54 61.5993C223.54 61.502 223.54 61.4371 223.54 61.4371C223.54 61.4371 223.54 61.4371 223.508 61.4371C223.508 61.4371 223.443 61.4696 223.378 61.4696C223.346 61.4696 223.313 61.4696 223.248 61.4696H222.891V60.7884V60.7559H223.313C223.313 60.7559 223.475 60.8208 223.508 60.8533C223.508 60.8857 223.508 60.9181 223.508 60.9506V60.983C223.508 60.983 223.508 60.983 223.508 60.9506C223.508 60.9506 223.508 60.7559 223.508 60.7235C223.508 60.6586 223.508 60.6262 223.508 60.5938C223.508 60.5938 223.508 60.5938 223.475 60.5938C223.475 60.5938 223.41 60.5938 223.378 60.5938C223.313 60.5938 222.761 60.5938 222.664 60.5938C222.599 60.5938 222.404 60.5938 222.274 60.5938C222.241 60.5938 222.209 60.5938 222.209 60.5938C222.209 60.5938 222.209 60.5938 222.241 60.5938C222.274 60.5938 222.339 60.5938 222.339 60.5938L222.501 60.6586Z" fill="#005EB8"/>
<path d="M224.579 60.6587C224.579 60.6587 224.677 60.7236 224.677 60.8209C224.677 60.9182 224.677 60.9831 224.677 61.3723V61.8589C224.677 62.1184 224.677 62.3455 224.677 62.4428C224.677 62.5076 224.677 62.5725 224.612 62.5725C224.612 62.5725 224.547 62.5725 224.515 62.5725C224.482 62.5725 224.482 62.5725 224.482 62.5725C224.482 62.5725 224.482 62.5725 224.547 62.5725H225.294H225.359C225.359 62.5725 225.359 62.5725 225.326 62.5725C225.294 62.5725 225.229 62.5725 225.196 62.5725C225.132 62.5725 225.099 62.5076 225.099 62.4428C225.099 62.313 225.099 62.1184 225.099 61.8589V61.3723C225.099 60.9831 225.099 60.8858 225.099 60.8209C225.099 60.7236 225.099 60.6911 225.196 60.6587H225.261H225.294C225.294 60.6587 225.294 60.6587 225.229 60.6587C225.132 60.6587 224.969 60.6587 224.904 60.6587C224.839 60.6587 224.677 60.6587 224.547 60.6587C224.515 60.6587 224.482 60.6587 224.482 60.6587C224.482 60.6587 224.482 60.6587 224.515 60.6587C224.547 60.6587 224.579 60.6587 224.612 60.6587H224.579Z" fill="#005EB8"/>
<path d="M226.171 60.6586C226.171 60.6586 226.268 60.7234 226.301 60.8208C226.301 60.9181 226.301 60.9829 226.301 61.3722V61.8588C226.301 62.1183 226.301 62.3129 226.301 62.4426C226.301 62.5075 226.301 62.5724 226.236 62.5724C226.236 62.5724 226.171 62.5724 226.138 62.5724H226.106C226.106 62.5724 226.106 62.5724 226.171 62.5724H226.495C226.495 62.5724 226.885 62.5724 227.08 62.5724C227.567 62.5724 227.859 62.3778 227.989 62.248C228.151 62.0858 228.281 61.8263 228.281 61.5019C228.281 61.1776 228.151 60.9505 228.022 60.8208C227.729 60.5288 227.275 60.5288 226.95 60.5288C226.788 60.5288 226.625 60.5288 226.528 60.5288C226.463 60.5288 226.301 60.5288 226.138 60.5288C226.106 60.5288 226.073 60.5288 226.073 60.5288C226.073 60.5288 226.073 60.5288 226.138 60.5288C226.203 60.5288 226.203 60.5288 226.236 60.5288L226.171 60.6586ZM226.625 61.3398V60.8208C226.625 60.8208 226.625 60.7883 226.658 60.7559C226.658 60.7559 226.788 60.7559 226.82 60.7559C227.047 60.7559 227.34 60.7559 227.599 61.0154C227.697 61.1127 227.859 61.3398 227.859 61.6966C227.859 61.9561 227.794 62.2156 227.632 62.3778C227.47 62.5075 227.307 62.5724 227.015 62.5724C226.788 62.5724 226.69 62.5075 226.658 62.4751C226.658 62.4751 226.658 62.3453 226.658 62.2805C226.658 62.2156 226.658 62.021 226.658 61.729V61.4046L226.625 61.3398Z" fill="#005EB8"/>
<path d="M229.028 60.6586C229.028 60.6586 229.126 60.7234 229.158 60.8208C229.158 60.9181 229.158 60.9829 229.158 61.3722V61.8588C229.158 62.1183 229.158 62.3129 229.158 62.4426C229.158 62.5075 229.158 62.5724 229.093 62.5724C229.093 62.5724 229.028 62.5724 228.996 62.5724H228.963C228.963 62.5724 228.963 62.5724 229.028 62.5724H229.353C229.353 62.5724 229.678 62.5724 230.1 62.5724C230.197 62.5724 230.23 62.5724 230.23 62.5075C230.23 62.4426 230.262 62.2805 230.262 62.2156V62.1507C230.262 62.1507 230.262 62.1507 230.262 62.1831C230.262 62.2805 230.197 62.3453 230.132 62.3778C230.067 62.3778 229.937 62.3778 229.873 62.3778C229.613 62.3778 229.548 62.3453 229.548 62.1507V61.5344C229.613 61.5344 229.873 61.5344 229.937 61.5344C230.035 61.5344 230.067 61.5668 230.1 61.6317C230.1 61.6641 230.1 61.6966 230.1 61.729C230.1 61.729 230.1 61.729 230.1 61.6641C230.1 61.5993 230.1 61.5344 230.1 61.5019C230.1 61.3722 230.1 61.3073 230.1 61.3073C230.1 61.3073 230.1 61.3073 230.067 61.3398C230.067 61.3398 230.002 61.3722 229.937 61.3722C229.873 61.3722 229.548 61.3722 229.515 61.3722C229.515 61.3722 229.515 61.3722 229.515 61.3398V60.6586C229.58 60.6586 229.84 60.6586 229.905 60.6586C230.035 60.6586 230.067 60.691 230.067 60.7559C230.067 60.7559 230.067 60.8208 230.067 60.8532V60.8856C230.067 60.8532 230.067 60.7234 230.067 60.691C230.067 60.5612 230.067 60.5288 230.067 60.5288H230.035C230.035 60.5288 229.97 60.5288 229.905 60.5288C229.84 60.5288 229.32 60.5288 229.223 60.5288C229.158 60.5288 228.996 60.5288 228.833 60.5288C228.801 60.5288 228.768 60.5288 228.768 60.5288C228.768 60.5288 228.768 60.5288 228.801 60.5288C228.833 60.5288 228.898 60.5288 228.898 60.5288L229.028 60.6586Z" fill="#005EB8"/>
<path d="M231.106 60.6588C231.106 60.6588 231.204 60.7237 231.236 60.821C231.236 60.9183 231.236 60.9832 231.236 61.3725V61.859C231.236 62.1185 231.236 62.3132 231.236 62.4429C231.236 62.5078 231.236 62.5727 231.171 62.5727C231.171 62.5727 231.106 62.5727 231.074 62.5727H231.042C231.042 62.5727 231.042 62.5727 231.106 62.5727H231.431C231.659 62.5727 231.821 62.5727 232.211 62.5727C232.34 62.5727 232.373 62.5727 232.373 62.5078C232.373 62.4429 232.405 62.2159 232.405 62.1834V62.151C232.405 62.151 232.405 62.151 232.405 62.1834C232.405 62.2483 232.373 62.3132 232.34 62.3456C232.275 62.4105 232.178 62.4105 232.016 62.4105C231.821 62.4105 231.756 62.4105 231.691 62.3456C231.626 62.2807 231.626 62.1185 231.626 61.7617V61.2752C231.626 60.8859 231.626 60.7886 231.626 60.7237C231.626 60.6264 231.626 60.594 231.723 60.5615C231.756 60.5615 231.788 60.5615 231.821 60.5615H231.853C231.853 60.5615 231.853 60.5615 231.788 60.5615C231.691 60.5615 231.496 60.5615 231.431 60.5615C231.366 60.5615 231.204 60.5615 231.074 60.5615C231.042 60.5615 231.009 60.5615 231.009 60.5615C231.009 60.5615 231.009 60.5615 231.042 60.5615C231.074 60.5615 231.106 60.5615 231.139 60.5615L231.106 60.6588Z" fill="#005EB8"/>
<path d="M233.152 60.6587C233.152 60.6587 233.25 60.7236 233.25 60.8209C233.25 60.9182 233.25 60.9831 233.25 61.3723V61.8589C233.25 62.1184 233.25 62.3455 233.25 62.4428C233.25 62.5076 233.25 62.5725 233.185 62.5725C233.185 62.5725 233.12 62.5725 233.087 62.5725H233.055C233.055 62.5725 233.055 62.5725 233.12 62.5725H233.867H233.932C233.932 62.5725 233.932 62.5725 233.867 62.5725C233.834 62.5725 233.769 62.5725 233.737 62.5725C233.639 62.5725 233.639 62.5076 233.639 62.4428C233.639 62.313 233.639 62.1184 233.639 61.8589V61.3723C233.639 60.9831 233.639 60.8858 233.639 60.8209C233.639 60.7236 233.639 60.6911 233.737 60.6587C233.769 60.6587 233.802 60.6587 233.834 60.6587C233.867 60.6587 233.867 60.6587 233.867 60.6587C233.867 60.6587 233.867 60.6587 233.802 60.6587C233.704 60.6587 233.542 60.6587 233.477 60.6587C233.412 60.6587 233.217 60.6587 233.12 60.6587C233.087 60.6587 233.055 60.6587 233.055 60.6587C233.055 60.6587 233.055 60.6587 233.087 60.6587C233.12 60.6587 233.152 60.6587 233.185 60.6587H233.152Z" fill="#005EB8"/>
<path d="M235.101 62.67C235.101 62.67 235.393 62.67 235.523 62.5727C235.718 62.4429 235.783 62.2483 235.783 62.1185C235.783 61.859 235.653 61.6644 235.328 61.4373L235.263 61.3725C235.036 61.2103 234.971 61.113 234.971 60.9832C234.971 60.821 235.101 60.6913 235.295 60.6913C235.458 60.6913 235.555 60.7886 235.588 60.821C235.653 60.8859 235.653 60.9832 235.653 60.9832V61.0157C235.653 61.0157 235.653 61.0157 235.653 60.9508C235.653 60.7237 235.653 60.6588 235.653 60.6264C235.653 60.6264 235.653 60.6264 235.62 60.594C235.555 60.594 235.425 60.5615 235.263 60.5615C234.873 60.5615 234.646 60.7886 234.646 61.0805C234.646 61.3076 234.743 61.5022 235.036 61.7293L235.166 61.8266C235.393 61.9888 235.425 62.1185 235.425 62.2483C235.425 62.378 235.295 62.5402 235.068 62.5402C234.906 62.5402 234.743 62.4754 234.678 62.2807C234.678 62.2159 234.678 62.1834 234.678 62.151V62.0861C234.678 62.0861 234.678 62.0861 234.678 62.151C234.678 62.1834 234.678 62.3456 234.678 62.5078C234.678 62.5727 234.678 62.5727 234.743 62.6051C234.873 62.67 234.971 62.67 235.133 62.67H235.101Z" fill="#005EB8"/>
<path d="M212.76 33.8972C213.182 34.0918 213.669 33.8972 214.188 33.9296C214.091 33.7026 213.961 33.5404 214.026 33.216C214.156 32.5673 213.636 32.4375 213.409 32.4375C212.824 32.4699 212.467 32.5997 211.85 32.4375C212.272 32.8592 212.175 33.6053 212.727 33.8972H212.76Z" fill="#005EB8"/>
<path d="M223.086 46.8076C220.78 46.8076 219.903 47.4564 218.637 48.3971V55.8578C218.637 55.8578 224.092 53.9764 227.047 48.7215C226.365 47.7159 225.359 46.8076 223.086 46.8076ZM224.969 49.8243L224.287 49.0458L223.118 50.0838L223.605 50.6353C223.605 50.6353 224.092 50.4082 224.547 50.8948C224.222 51.1867 223.638 51.6733 223.313 51.9652C222.891 51.4462 223.183 51.0245 223.183 51.0245L222.696 50.4731L221.267 51.7382L220.813 51.1867L222.274 49.9541L221.754 49.3378C221.754 49.3378 221.56 49.5 221.267 49.7595C220.845 49.2729 220.52 48.6566 220.813 47.8456C221.657 47.651 222.241 48.0727 222.664 48.5593C222.371 48.8188 222.177 48.981 222.177 48.981L222.696 49.5973L223.898 48.5917L223.216 47.8132C223.833 47.7483 224.385 47.9429 224.677 48.2998C224.969 48.6566 225.132 49.208 224.969 49.8243Z" fill="#005EB8"/>
<path d="M209.025 39.6714C209.188 40.2228 209.317 40.8067 209.35 41.4555C209.35 42.234 208.798 43.1422 208.213 44.1478C208.148 44.2776 208.083 44.3749 208.018 44.5046C209.74 53.0034 217.988 55.8255 217.988 55.8255V39.7038C217.988 39.7038 211.785 39.7038 209.058 39.7038L209.025 39.6714ZM215.195 49.7596C214.773 49.8569 214.123 49.8893 213.701 49.8893C213.279 49.8893 212.63 49.8569 212.207 49.7596C212.24 49.5974 212.305 49.3379 212.37 49.1108C212.078 49.1108 211.753 48.9811 211.493 48.8838C211.623 48.4296 211.818 48.0079 211.98 47.3916C212.532 47.5214 213.084 47.5538 213.701 47.5538C214.318 47.5538 214.87 47.5214 215.422 47.3916C215.585 47.9755 215.779 48.4296 215.909 48.8838C215.65 48.9811 215.357 49.0784 215.033 49.1108C215.098 49.3703 215.162 49.5974 215.195 49.7596ZM211.818 46.7753C211.818 46.6131 211.818 46.386 211.818 46.2238C212.11 46.1265 213.344 46.0617 213.701 46.0617C214.058 46.0617 215.26 46.1265 215.585 46.2238C215.617 46.386 215.617 46.6131 215.585 46.7753C215.13 46.905 214.318 46.9699 213.701 46.9699C213.084 46.9699 212.272 46.905 211.818 46.7753ZM216.396 43.0449C215.942 44.1478 215.487 45.2507 215.357 45.6075C215.13 45.5751 214.87 45.5427 214.578 45.5427C214.903 44.602 215.26 43.2396 215.585 42.3637C215.812 41.7799 216.819 42.0394 216.396 43.0449ZM213.701 41.4555C213.766 40.9365 215.195 40.8392 214.935 41.9745C214.675 43.0774 214.318 44.4073 214.058 45.5102C213.928 45.5102 213.831 45.5102 213.701 45.5102C213.571 45.5102 213.441 45.5102 213.344 45.5102C213.084 44.3749 212.759 43.0774 212.467 41.9745C212.207 40.8716 213.636 40.9689 213.701 41.4555ZM211.818 42.3637C212.142 43.2071 212.5 44.5695 212.824 45.5427C212.565 45.5427 212.305 45.5427 212.045 45.6075C211.915 45.2831 211.461 44.1478 211.006 43.0449C210.584 42.0394 211.59 41.7799 211.818 42.3637Z" fill="#005EB8"/>
<path d="M226.982 41.2609V40.8717H227.372C227.924 40.8717 228.184 40.3526 228.314 39.7363C226.203 39.7363 218.637 39.7363 218.637 39.7363V47.5214C219.254 47.0673 219.871 46.678 220.65 46.4185V44.6993H221.43C221.462 42.8179 221.917 41.4555 222.794 40.5473L223.053 40.2878L223.313 40.5473C224.19 41.4555 224.644 42.8179 224.677 44.6993H225.489V46.5159C226.365 46.8727 226.95 47.4241 227.372 48.008C228.087 46.5483 228.606 44.8615 228.801 42.9477C228.768 42.9477 228.736 42.9477 228.671 42.9477C227.859 42.9477 226.982 42.3638 226.918 41.2609H226.982Z" fill="#005EB8"/>
<path d="M241.887 59.0691C241.4 59.2313 240.816 59.2962 239.939 59.2962H238.835C235.068 59.2313 231.171 58.096 228.801 55.6631C232.081 52.3545 228.216 49.6297 226.138 52.4518C225.489 53.3276 224.969 53.9439 224.515 54.7873C224.157 55.4685 224.417 56.1497 225.229 57.2202C225.684 57.804 226.788 58.7123 227.697 59.2962H208.83C209.74 58.7123 210.844 57.804 211.298 57.2202C212.11 56.1497 212.402 55.4685 212.013 54.7873C211.558 53.9439 211.038 53.3276 210.389 52.4518C208.311 49.6297 204.447 52.3545 207.726 55.6631C205.356 58.096 201.459 59.1989 197.692 59.2962H196.653C195.776 59.2962 195.192 59.1989 194.705 59.0691C193.925 58.8745 193.763 59.2313 194.185 60.5613C194.477 61.4695 194.705 62.9292 194.802 63.9348H241.79C241.887 62.9292 242.115 61.4695 242.407 60.5613C242.829 59.2313 242.667 58.8745 241.855 59.0691H241.887ZM227.21 52.5491C227.827 51.7382 228.736 51.9652 229.093 52.6464C229.483 53.3925 228.898 54.2683 228.151 54.9819C227.08 53.8142 226.95 52.9059 227.21 52.5491ZM225.619 56.4092C225.229 55.8578 225.099 55.5658 225.294 55.0468C225.489 54.5602 225.878 54.1061 226.301 53.4898C226.95 56.0524 230.814 58.4852 233.672 59.2962H229.126C227.957 58.6474 226.463 57.6094 225.586 56.4092H225.619ZM207.499 52.6464C207.856 51.9652 208.765 51.7382 209.382 52.5491C209.642 52.9059 209.545 53.8142 208.473 54.9819C207.694 54.2683 207.109 53.36 207.531 52.6464H207.499ZM210.259 53.4898C210.681 54.1061 211.071 54.5602 211.266 55.0468C211.461 55.5658 211.331 55.8902 210.941 56.4092C210.064 57.6094 208.603 58.6474 207.402 59.2962H202.855C205.713 58.4852 209.577 56.0524 210.227 53.4898H210.259ZM241.011 63.1887H195.679C195.484 61.7615 195.192 60.8208 194.965 60.0423H241.757C241.498 60.8208 241.238 61.7615 241.043 63.1887H241.011Z" fill="#005EB8"/>
<path d="M221.3 23.5173C221.3 23.5173 221.04 23.5822 220.943 23.6795C220.78 23.6795 220.618 23.6147 220.455 23.6147V22.7064C220.618 22.6415 220.748 22.4793 220.748 22.2847C220.748 22.0252 220.553 21.8306 220.293 21.8306C220.033 21.8306 219.838 22.0252 219.838 22.2847C219.838 22.4469 219.936 22.6091 220.066 22.674V23.5498C220.066 23.5498 219.741 23.5498 219.579 23.5173C219.514 23.3551 219.351 23.2578 219.189 23.2578C218.929 23.2578 218.734 23.4525 218.734 23.712C218.734 23.9715 218.929 24.1661 219.189 24.1661C219.351 24.1661 219.481 24.1012 219.546 23.9715C219.709 23.9715 219.903 24.0039 220.066 24.0363V25.3339C220.066 25.3339 219.806 25.5609 219.806 25.7231C219.806 25.9826 220.001 26.1772 220.261 26.1772C220.52 26.1772 220.715 25.9826 220.715 25.7231C220.715 25.5285 220.618 25.3987 220.455 25.3339V24.0688C220.618 24.0688 220.748 24.1012 220.878 24.1337C220.943 24.2958 221.105 24.4256 221.3 24.4256C221.56 24.4256 221.754 24.231 221.754 23.9715C221.754 23.712 221.56 23.5173 221.3 23.5173Z" fill="#005EB8"/>
<path d="M217.436 23.2578C217.241 23.2578 217.078 23.3551 217.013 23.5173C216.851 23.5173 216.689 23.5173 216.559 23.5498V22.674C216.559 22.674 216.786 22.4469 216.786 22.2847C216.786 22.0252 216.591 21.8306 216.331 21.8306C216.072 21.8306 215.877 22.0252 215.877 22.2847C215.877 22.4793 215.974 22.6415 216.137 22.7064V23.6147C216.137 23.6147 215.812 23.6471 215.65 23.6795C215.585 23.5822 215.455 23.5173 215.292 23.5173C215.033 23.5173 214.838 23.712 214.838 23.9715C214.838 24.231 215.033 24.4256 215.292 24.4256C215.487 24.4256 215.65 24.2958 215.715 24.1337C215.844 24.1337 215.974 24.1012 216.137 24.0688V25.3339C216.137 25.3339 215.877 25.5609 215.877 25.7231C215.877 25.9826 216.072 26.1772 216.331 26.1772C216.591 26.1772 216.786 25.9826 216.786 25.7231C216.786 25.5609 216.689 25.3987 216.559 25.3339V24.0363C216.559 24.0363 216.884 24.0039 217.046 23.9715C217.111 24.1012 217.273 24.1661 217.436 24.1661C217.695 24.1661 217.89 23.9715 217.89 23.712C217.89 23.4525 217.695 23.2578 217.436 23.2578Z" fill="#005EB8"/>
<path d="M228.476 38.471C228.476 37.5951 228.346 36.9139 228.054 36.622C227.957 36.5247 227.859 36.4922 227.664 36.4922L226.885 36.5896L227.307 35.9408C227.729 35.292 228.314 34.9028 228.931 34.8704V29.064H207.824V35.5515C207.824 35.5515 207.986 35.6489 208.051 35.6813L208.116 35.7462C208.7 36.2327 208.928 36.5571 208.733 38.179C208.733 38.3736 208.83 38.7629 208.928 39.1522H228.509C228.509 38.9251 228.509 38.7305 228.541 38.5358L228.476 38.471ZM213.441 35.8759C213.539 36.3301 213.636 36.5896 213.864 36.9788C213.084 37.4329 211.103 38.6007 209.61 37.2708V33.3458C210.746 32.697 211.363 32.2104 211.948 31.2697C211.493 31.0427 210.973 30.6534 210.551 30.102C212.727 30.7183 213.831 31.0427 216.396 30.102C215.974 30.7507 215.357 31.1724 214.838 31.4968C215.422 32.4375 216.007 33.5404 216.202 34.4162C215.422 34.3513 214.578 34.546 213.928 35.0974C212.954 35.1299 211.753 35.4542 211.071 33.2809C210.714 33.4431 210.389 33.6701 210.389 33.6701C210.779 35.0974 211.493 36.0706 213.409 35.8435L213.441 35.8759ZM216.819 36.5247C216.624 36.8166 215.39 37.2059 215.065 37.0113C214.545 36.6869 214.286 36.0381 214.416 35.7462C214.578 35.3569 215.909 35.0001 216.364 35.1299C216.786 35.2596 216.981 36.2976 216.819 36.5247ZM225.684 31.8861C225.294 31.7887 223.638 31.6914 223.086 32.9241C222.761 32.9241 222.436 32.7943 222.241 32.5997C222.014 32.8916 221.689 33.0538 221.235 33.1836C221.624 33.9945 222.469 33.8648 222.956 33.4755C222.956 33.5728 222.956 33.7026 222.956 33.8323C222.956 35.8435 225.099 36.3625 226.43 35.584C226.203 36.2327 226.301 37.0437 226.43 37.6276H221.235C221.332 37.0761 222.014 36.4274 222.599 36.0381L222.144 35.3245C221.592 35.584 221.04 35.7786 220.455 35.9732C219.027 36.3301 219.092 35.3245 220.585 34.9028V34.5135H219.644C219.871 33.4755 221.852 32.2104 222.729 31.8861C222.696 30.7832 224.125 30.4264 225.294 30.3939C226.723 30.3615 227.08 31.9185 227.08 32.3726C227.08 33.0214 226.917 34.4162 226.106 34.8704C224.937 35.5191 223.963 34.6433 223.963 33.8323C223.963 32.9565 224.579 32.4699 225.619 32.5673C226.658 32.697 226.593 32.1131 225.781 31.8861H225.684Z" fill="#005EB8"/>
<path d="M254 24.2633C253.772 24.3282 253.253 24.4904 252.896 24.5229C253.577 23.8741 253.967 23.0631 253.967 22.4144C253.642 22.5117 253.058 22.7388 252.538 22.8361C253.577 21.9603 254.162 20.9222 253.902 19.5599C253.577 19.722 253.123 19.9815 252.668 20.1762C253.577 18.7813 253.577 17.5487 253.188 16.8026C252.766 17.1919 252.279 17.6136 251.759 17.938C252.084 16.3161 252.084 15.278 251.402 14.5644C250.72 15.8619 250.103 16.8351 249.129 18.0028C249.194 16.9324 249.096 15.6024 248.382 14.8888C248.382 14.8888 248.187 16.3809 247.667 16.8675C247.538 15.4078 247.083 14.5968 246.433 13.8183C246.433 13.8183 246.401 15.3429 245.979 16.2836C245.622 15.0185 244.972 14.013 244.128 13.0723C244.193 15.8944 243.414 21.1817 241.14 24.7499C240.881 26.8584 240.653 30.0373 237.211 31.9187C236.724 31.5619 235.847 31.1077 234.614 31.2051C234.289 29.6156 236.367 28.1559 238.185 27.0206C240.004 25.8528 240.783 24.8472 240.751 23.2902C240.718 21.571 239.549 20.8898 238.348 20.8249C236.659 20.7601 235.263 22.2846 234.971 22.9334C234.484 23.1605 233.022 23.6146 232.438 23.7768C231.788 23.939 231.042 24.2309 230.554 24.6202C230.847 24.7824 231.626 24.8472 231.951 24.8148C232.535 24.7175 234.354 24.3931 236.107 24.166C236.757 24.5229 237.763 25.0743 236.692 25.8528C235.198 26.7935 234.581 27.053 232.47 28.1559C229.158 29.9075 230.23 34.2542 231.042 34.5786C231.042 36.0383 232.373 38.7307 233.25 39.6389C233.639 41.4879 233.12 44.2451 232.568 45.4129C232.113 44.2775 231.301 41.6825 230.782 40.1579C231.334 37.271 230.457 36.0059 229.84 35.5193C229.808 35.5193 229.775 35.4869 229.71 35.4544V28.2532H224.092C224.027 27.6693 223.8 27.2476 223.41 27.1179C223.216 25.8204 222.826 22.8685 222.599 20.6952C225.034 22.8685 223.703 26.4691 226.625 27.7991C227.729 26.534 227.762 26.0799 227.567 24.8797C228.671 24.5877 229.483 23.6795 229.775 22.9658C228.736 23.4524 227.08 22.5766 226.625 21.8954C228.444 21.8305 230.1 20.4681 231.821 18.684C233.347 17.0946 235.393 17.3216 235.23 18.5867C236.302 18.4245 236.724 16.9648 236.367 16.0566C237.926 15.57 239.127 14.4347 239.322 12.6181C237.244 13.6562 234.613 11.9369 232.633 14.0454C232.633 11.2557 232.535 8.95265 232.503 8.23902C232.6 8.23902 232.73 8.30389 232.828 8.33633C234.841 9.04997 235.295 11.4504 239.452 8.72559C237.244 8.98509 237.114 7.10369 236.107 7.07125C237.633 6.19543 237.731 4.21672 237.731 4.21672C236.432 5.25473 233.444 5.31961 232.86 5.64399C232.081 6.09812 231.106 6.682 230.457 7.03882C228.736 7.97952 229.937 13.0723 229.775 14.9537C228.833 12.164 226.95 12.5857 225.976 10.9962C225.229 12.3262 226.008 14.5644 226.333 15.1807C225.261 16.0566 225.554 17.646 225.813 18.1001C226.723 17.4514 228.151 17.6136 228.574 18.7165C227.405 19.4301 225.489 19.5599 224.125 18.3272C224.125 17.938 223.995 17.5163 223.54 17.1919C223.638 16.6404 223.54 16.1214 223.281 15.6673C224.742 13.6237 224.839 9.66629 226.041 8.53096C226.138 9.92579 226.885 11.0611 227.599 11.2233C227.015 10.2826 227.015 8.36877 227.047 7.49295C227.047 7.10369 226.333 6.77931 226.138 6.77931C225.813 6.77931 225.424 7.42807 225.034 7.81733C224.677 5.90349 224.872 5.0601 225.034 4.21672C225.846 5.67642 226.95 6.0008 227.534 5.93593C225.586 4.37891 225.911 2.95164 225.326 2.88676C225.002 2.85433 224.742 2.88676 224.579 2.88676C223.898 2.88676 223.8 4.21672 223.703 4.83304C223.248 4.02209 222.826 3.30846 222.079 2.36776C221.365 0.518795 220.455 0.972926 219.579 0.12954C220.261 1.19999 219.709 1.84875 221.332 2.59482C221.754 2.98408 222.241 3.63283 222.566 4.1194C222.306 4.47622 222.112 4.67085 221.852 4.93035C221.657 5.22229 221.56 6.39006 220.91 7.23344C221.852 6.84419 222.209 6.26031 222.534 5.70886C225.456 7.91464 223.086 13.5588 222.404 14.7915C221.754 14.3698 220.943 14.1103 220.196 13.9805L220.131 13.721L219.449 11.4828H219.774C220.131 11.4828 220.228 11.2233 220.163 11.0287L222.177 11.645L223.086 11.9045L222.534 11.1584L221.592 9.86091L222.534 8.5634L223.086 7.81733L222.177 8.07683L220.358 8.62827C220.228 8.20658 219.903 8.01195 219.514 7.97952L220.131 5.90349L220.391 5.02767L219.644 5.57911L218.345 6.51981L217.046 5.57911L216.299 5.02767L216.559 5.90349L217.176 7.97952C216.819 8.04439 216.461 8.23902 216.331 8.62827L214.513 8.07683L213.636 7.81733L214.188 8.5634L215.13 9.86091L214.188 11.1584L213.636 11.9045L214.513 11.645L216.559 11.0287C216.494 11.2233 216.559 11.4828 216.948 11.4828H217.273L216.591 13.721L216.526 13.9805C215.747 14.1103 214.903 14.3698 214.253 14.8239C212.272 10.9962 212.824 7.13613 214.481 5.83861C214.481 6.64956 215.162 7.75245 215.487 7.97952C215.26 7.13613 215.65 5.64399 215.227 5.28717C214.935 5.02767 214.448 4.89791 213.961 4.89791C214.286 4.34647 214.773 3.66527 215.52 2.62726C216.689 2.07582 217.013 0.713423 217.306 0.0322266C216.039 0.486357 215.13 1.13512 214.903 2.20557C214.448 2.78945 213.961 3.50308 213.409 4.31403C213.409 3.30846 212.889 2.98408 212.175 2.9192C210.032 3.37333 210.194 4.89791 208.376 5.96836C209.61 6.39006 211.59 3.66527 212.24 3.95721C212.337 5.64399 211.948 6.9415 211.948 7.8822C211.623 7.52538 211.461 7.29832 211.201 7.23344C210.941 7.20101 210.227 7.23344 209.74 7.78489C209.61 8.62827 209.642 10.2177 208.83 12.1316C210.032 11.0287 210.584 8.92021 210.779 8.30389C211.071 8.72559 211.428 9.63385 211.493 10.4124C211.623 11.9369 212.565 14.4671 213.376 15.6997C213.149 16.1214 213.084 16.608 213.149 17.127C212.565 17.5487 212.5 18.1326 212.63 18.5543C211.493 19.1382 210.097 19.6247 209.382 19.8518C209.09 17.4838 211.331 17.5811 211.526 18.2299C212.467 17.127 211.818 15.5375 211.136 15.3754C211.85 13.494 211.136 12.3262 210.551 11.645C210.421 13.6561 208.181 13.9805 207.921 15.5051C207.824 14.2725 207.759 10.9962 207.661 9.37435C207.499 6.39006 203.732 5.35204 203.148 5.35204C200.68 5.4818 200.452 5.15742 200.517 3.98965C199.283 5.41692 199.706 6.682 200.745 7.26588C200.615 8.10927 199.251 8.79046 198.407 8.98509C200.42 10.8341 202.725 9.73116 203.83 8.69315C203.927 8.62827 203.992 8.5634 204.057 8.46608C204.447 9.17972 204.739 10.4772 204.739 11.1909C202.855 11.0936 202.531 12.5533 202.531 13.0723C204.901 12.0991 205.161 16.6404 205.778 17.3865C205.161 17.3541 204.089 15.9268 202.531 15.8295C200.615 15.6997 199.965 16.7378 199.186 16.6729C199.316 18.0028 200.972 18.7813 202.011 18.9435C201.459 20.3059 201.946 21.2466 203.083 21.6034C203.083 20.3384 204.674 19.9491 206.395 20.9547C208.441 22.1549 209.512 22.2522 211.136 21.7332C210.876 22.3171 210.129 22.3819 209.22 23.2902C207.954 24.5553 207.921 26.1772 206.492 26.7935C208.181 27.6045 210.681 26.4691 211.038 25.8528C211.753 26.2745 212.63 26.015 212.889 25.5933C211.948 23.4848 213.149 22.09 213.993 21.7332C213.766 23.7443 213.474 26.015 213.312 27.1179C212.922 27.2801 212.695 27.6693 212.63 28.2532H207.012V35.4869C206.72 35.3571 206.427 35.2598 206.135 35.0327C205.648 34.7084 205.518 34.2218 204.934 33.573C205.064 32.2106 206.038 30.5239 206.752 30.167C206.849 30.1022 206.817 27.9937 206.817 27.9937C206.817 27.9937 207.304 27.9937 207.239 27.9613C206.59 27.572 205.81 27.864 205.258 28.5127C204.706 28.9668 203.472 29.7778 202.596 30.0697C201.427 29.0966 199.608 28.2208 198.277 26.8908C198.277 26.8908 200.03 26.8908 200.842 26.534C201.069 26.4043 201.621 25.496 201.394 24.6526C201.134 24.5553 200.712 24.3607 200.355 24.1336C199.868 23.8741 199.413 23.5497 199.186 23.3875C198.407 22.8036 198.114 22.3171 196.783 21.9603C196.88 21.3439 197.01 21.5061 197.595 21.1169C198.342 20.6303 198.731 20.014 199.056 19.4301C199.283 18.976 199.056 18.0028 198.439 19.2355C198.244 19.6572 197.66 20.241 197.01 20.4032C197.075 20.014 197.075 19.8194 197.075 19.5923C198.991 18.2299 198.829 17.0297 198.666 15.8944C198.601 15.2456 197.92 14.9537 197.952 15.6349C197.952 16.089 198.374 17.3541 197.043 18.1001C197.043 17.5487 196.848 17.2892 196.751 16.9973C197.92 15.4402 197.432 13.9481 196.945 13.2669C196.621 12.8452 195.841 12.683 196.199 13.3642C196.491 13.9157 196.945 15.4727 196.069 16.089C195.776 15.6997 195.419 15.57 195.289 15.051C195.387 13.3642 195.289 12.3586 195.062 11.7423C194.867 11.1909 194.315 10.8341 194.38 11.645C194.413 12.5857 194.51 13.7535 194.413 13.8183C194.315 13.8832 193.081 12.7479 192.562 12.3911C192.042 12.0343 191.458 12.164 192.042 12.8776C192.562 13.494 194.153 14.6617 193.958 15.051C193.828 15.278 192.691 14.3373 192.107 14.1427C191.522 13.9481 191.328 14.24 191.815 14.6617C192.627 15.3429 193.179 15.7646 194.51 16.2187C195.841 16.6729 196.523 18.5218 196.101 21.1493C196.101 21.2791 195.841 21.2466 195.711 21.2142C195.646 20.2086 195.484 19.0084 195.224 18.4894C194.9 17.8082 194.283 17.7758 194.51 18.7165C194.705 19.4625 194.802 20.2735 194.672 21.2791C193.568 21.0844 193.146 20.7925 192.691 20.533C192.627 20.014 192.919 19.203 192.951 18.4245C192.984 17.6784 192.562 17.2243 192.302 18.165C192.075 19.0408 191.912 19.495 191.75 20.1113C191.425 20.014 191.1 19.8518 190.938 19.6896C190.873 19.5923 190.938 18.6192 190.873 17.8731C190.808 17.0621 190.483 17.0621 190.224 17.8082C190.126 18.1326 190.029 18.5867 189.996 19.1057C189.607 18.8787 189.347 18.4245 189.314 18.0677C189.379 17.2243 189.509 16.3161 189.607 15.7322C189.672 15.3429 189.412 14.4995 189.087 15.5051C188.86 16.2187 188.795 16.8351 188.665 17.3216C188.373 17.3216 188.015 15.6673 187.821 14.6293C187.723 14.1427 187.334 13.6237 187.269 14.6617C187.204 15.8295 187.431 16.9973 187.723 17.5163C187.171 17.4514 186.619 16.4458 186.229 15.8619C185.872 15.3429 185.71 15.8619 185.742 16.089C186.067 18.165 187.723 18.9111 188.47 19.0408C189.639 20.6952 191.847 21.4088 193.731 22.2198C191.295 22.2198 190.646 23.1605 189.542 22.5441C189.607 23.4524 190.061 23.8741 190.483 24.1012C190.808 24.2309 191.1 24.2958 191.263 24.3282C191.458 25.4311 192.529 25.3987 193.438 25.4311C193.211 27.6045 193.438 30.459 195.387 32.5999C195.322 33.7028 195.257 35.1625 195.257 36.1032C193.698 37.5629 192.302 40.5796 191.75 42.2664C191.328 43.5315 190.711 44.5046 189.769 44.9587C190.548 45.8021 191.717 45.3804 192.367 44.9263C192.399 45.6724 192.594 46.1914 192.691 46.6131C192.237 47.2943 191.945 47.7484 191.977 48.5593C191.458 48.6891 191.133 49.0135 190.841 49.3703C190.678 49.5974 190.841 50.6029 191.068 50.9922C191.685 52.387 191.198 55.5335 191.068 56.4742C191.328 56.4742 191.815 56.4742 191.912 56.1174C192.075 56.2471 192.432 56.5391 192.627 57.1554C192.594 57.4149 192.432 58.388 192.919 58.5178C193.308 58.6151 195.062 58.5502 195.322 58.2583C195.159 58.0636 194.835 57.5771 194.64 57.123C194.64 56.6364 194.607 56.0525 194.477 55.8254C194.283 55.4686 193.763 54.6577 193.438 54.3333C193.373 53.7494 193.308 51.1868 193.568 50.2137C194.023 49.8893 197.108 47.6186 197.757 45.4129C198.309 45.6075 198.147 47.1321 198.147 49.1108C198.147 49.6298 198.796 49.9217 199.186 49.9542C200.03 50.0515 201.199 50.8624 202.531 52.8087C202.79 52.5168 203.115 52.2573 203.115 52.2573C203.278 52.4843 203.505 53.0682 203.602 53.425C203.732 53.6845 204.836 53.8467 205.648 53.6197C205.908 53.5223 206.07 53.4899 206.265 53.198C205.226 51.3814 204.576 50.1812 203.245 49.1432C202.628 48.6891 201.784 48.4296 201.102 48.0079C201.556 47.1321 202.855 43.0449 202.076 41.5528C201.816 41.0662 200.842 40.5796 199.673 40.7742C200.647 39.574 202.661 37.2385 202.92 36.5249C203.148 36.7844 204.349 36.6222 205.226 36.9466C205.551 37.0763 206.46 38.2441 206.492 38.6333C206.557 39.347 206.622 40.2228 206.103 42.2015C206.46 42.1366 206.395 42.1366 206.752 41.9744C206.817 42.4935 206.655 42.9151 206.2 43.7261C206.33 44.4397 206.622 45.5426 206.979 45.7372C207.044 45.5426 207.174 45.3156 207.304 45.0885C207.337 45.2507 207.369 45.4453 207.434 45.6075C207.499 45.8994 207.596 46.1914 207.694 46.4509C207.791 46.7428 207.921 47.0672 208.019 47.3591C208.148 47.6835 208.311 48.0079 208.441 48.3323C208.603 48.6567 208.798 49.0135 208.96 49.3379C209.155 49.6947 209.382 50.0191 209.61 50.3434C209.869 50.7002 210.129 51.0246 210.389 51.349C210.681 51.7058 210.974 52.0302 211.298 52.3546C211.623 52.7114 211.98 53.0358 212.37 53.3602C212.76 53.6845 213.182 54.0089 213.604 54.3009C214.058 54.6252 214.513 54.9172 215 55.2091C215.52 55.5011 216.039 55.793 216.591 56.0525C217.176 56.3444 217.76 56.6039 218.345 56.831C218.345 56.831 218.442 56.7986 218.475 56.7661C218.54 56.7661 218.572 56.7337 218.637 56.7013C218.734 56.6688 218.832 56.6364 218.929 56.5715C219.514 56.3444 220.066 56.0525 220.618 55.7606C221.137 55.5011 221.625 55.2091 222.112 54.8847C222.566 54.5928 223.021 54.3009 223.443 53.9765C223.833 53.6845 224.222 53.3602 224.612 53.0033C224.969 52.679 225.294 52.3546 225.619 51.9978C225.911 51.6734 226.203 51.349 226.495 50.9922C226.755 50.6678 227.015 50.311 227.242 49.9866C227.47 49.6622 227.664 49.3379 227.859 48.981C228.054 48.6567 228.216 48.3323 228.379 48.0079C228.509 47.6835 228.671 47.3916 228.768 47.0672C228.898 46.7753 228.996 46.4833 229.093 46.1589C229.191 45.8994 229.256 45.6075 229.32 45.3156C229.385 45.056 229.45 44.829 229.483 44.5695C229.515 44.3424 229.58 44.1478 229.613 43.9207C229.613 43.7261 229.678 43.5639 229.678 43.3693C229.678 43.0773 229.71 42.7854 229.743 42.4935C229.937 43.0773 230.392 44.4397 230.847 45.7372C231.171 46.6455 231.464 47.4565 231.658 47.9106C231.886 48.3972 233.509 48.462 233.672 47.9106C233.932 47.1645 234.126 46.6131 234.549 45.7372C234.873 45.0885 235.295 44.2451 235.945 42.98C236.367 43.7261 236.952 44.9263 237.276 45.7372C237.439 46.0941 237.536 46.4184 237.568 46.5482C237.698 47.7808 237.633 52.1924 237.276 54.8199C233.639 53.8467 232.633 55.5984 232.957 56.9283C233.477 56.3444 234.159 56.4418 234.581 56.7337C234.484 57.7068 234.743 58.388 235.718 58.68C236.757 55.9228 240.491 56.5391 240.848 56.7661C240.848 56.2471 241.368 54.9172 239.452 54.6252C239.517 52.2573 239.777 49.3379 239.842 48.7215C239.939 48.1052 240.004 47.7484 239.712 46.7753C239.614 46.4833 239.517 46.1265 239.419 45.7372C239.16 44.7641 238.9 43.5315 238.9 42.1691C239.225 42.4935 240.036 42.753 240.588 42.6556C241.011 44.4397 241.628 43.9207 241.952 44.6668C242.115 45.056 242.147 45.4129 242.212 45.7372C242.245 46.0616 242.309 46.3211 242.472 46.5482C243.771 46.5806 244.842 46.2887 245.622 45.7372C245.849 45.5751 246.076 45.3804 246.239 45.1534C245.914 43.2395 245.394 42.2988 244.388 41.1311C244.128 39.574 243.381 38.1468 242.407 36.8817C243.673 36.46 244.94 35.4544 245.622 34.7408C246.239 34.7084 246.921 34.1893 246.986 33.2162C247.343 33.1838 247.635 33.1513 247.927 33.0865C247.927 32.827 247.83 32.4053 247.797 32.1458C248.252 32.1458 248.707 32.1458 249.129 32.0809C248.999 31.7241 248.836 31.3348 248.707 31.0753C249.161 31.0753 249.746 31.0429 250.2 31.0104C249.941 30.5563 249.778 30.1346 249.616 29.7454C250.135 29.6805 250.98 29.5507 251.662 29.3885C251.434 29.1615 251.207 28.9344 250.817 28.5776C252.571 28.0586 253.35 26.8259 253.448 26.2745C253.188 26.2745 252.636 26.4042 252.343 26.3718C253.318 25.7879 254 25.0094 254.097 24.1336L254 24.2633ZM220.358 9.27703L221.43 8.95265L220.91 9.66629L220.78 9.86091L220.91 10.0555L221.43 10.7692L220.066 10.3475C220.196 10.0555 220.293 9.7636 220.358 9.27703ZM215.195 10.7367L215.714 10.0231L215.844 9.82848L215.714 9.63385L215.195 8.92021L216.267 9.24459C216.331 9.69872 216.429 10.0231 216.559 10.315L215.195 10.7367ZM222.599 27.0206C222.209 27.0854 221.754 27.2801 221.3 27.572C220.228 28.2856 218.994 28.3181 218.312 27.053C217.63 28.3181 216.396 28.2856 215.325 27.572C214.903 27.2801 214.448 27.0854 214.026 27.0206C214.221 25.7555 214.513 23.3875 214.74 21.4088C216.137 20.7601 217.858 20.6303 218.312 22.2522C218.734 20.6303 220.455 20.7925 221.852 21.4088C222.079 23.42 222.371 25.7879 222.566 27.0206H222.599ZM218.312 18.165C219.676 18.165 220.813 18.5218 221.624 18.8462C221.624 19.1057 221.624 19.3652 221.689 19.6896C220.78 19.4301 219.546 19.2355 218.312 19.2355C217.078 19.2355 215.844 19.4301 214.935 19.6896C214.935 19.3652 214.968 19.1057 215 18.8462C215.812 18.5543 216.948 18.165 218.312 18.165ZM215.844 16.8351C216.461 16.6729 217.111 16.5756 217.728 16.5431L218.182 17.4189C217.598 17.4189 217.078 17.4838 216.591 17.5811L215.844 16.8351ZM220.261 16.7053C220.91 16.8351 221.56 17.0297 222.112 17.2568L222.371 18.2948C221.949 18.1326 221.397 17.9055 220.715 17.7109L220.261 16.7053ZM233.509 6.13055C234.224 6.13055 235.49 6.06568 236.237 5.70886C235.458 6.682 235.36 7.00638 234.094 7.16857C235.75 7.33076 236.432 8.79046 237.244 9.01753C234.484 9.86091 234.191 7.13613 231.691 7.29832C232.535 6.682 233.055 6.4225 233.509 6.16299V6.13055ZM226.43 16.9324C226.528 16.0566 227.047 15.4402 227.34 15.3429C226.593 14.4995 226.43 13.3966 226.365 12.6181C227.599 13.1371 229.418 14.5968 229.71 17.0621L230.522 16.5107C230.295 12.1964 230.327 12.1964 230.295 9.24459C230.295 8.8229 230.295 7.8822 231.626 7.97952C231.691 9.0824 231.853 11.9694 231.788 16.0241H232.243C232.665 14.8888 234.159 13.5913 235.88 13.6886C237.081 13.7535 237.471 13.7535 238.153 13.4291C237.601 14.7915 235.555 15.3754 235.036 15.4727C235.847 16.1539 235.588 17.0946 235.393 17.3216C234.678 16.089 232.34 16.5107 230.067 19.0733C229.905 19.2679 229.678 19.495 229.45 19.722C229.613 16.6404 227.112 16.608 226.365 16.8999L226.43 16.9324ZM223.735 18.976C224.807 20.0464 226.982 20.4357 228.671 19.495C228.671 19.7869 228.606 20.1113 228.476 20.4681C227.534 20.9547 226.333 21.2466 224.937 20.7601C225.132 22.1549 226.723 23.1929 228.281 23.6146C227.762 24.0038 227.112 24.166 226.658 24.1336C226.95 24.9445 227.112 26.015 226.495 26.8908C225.716 26.3718 225.326 25.8852 225.034 23.9065C224.774 22.09 223.54 20.3059 222.501 19.722C222.501 19.5274 222.469 19.3328 222.469 19.1706C222.988 19.3652 223.475 19.2679 223.768 18.976H223.735ZM219.481 10.3799H218.637L218.734 8.88778C220.001 8.33633 219.903 9.5041 219.481 10.3799ZM218.312 13.0723L219.319 13.8183C218.897 13.7859 218.54 13.7859 218.312 13.7859C218.085 13.7859 217.728 13.7859 217.306 13.8183L218.312 13.0723ZM217.403 12.9425L217.858 11.4179H218.734L219.189 12.9425L218.475 12.4235L218.28 12.2938L218.085 12.4235L217.371 12.9425H217.403ZM218.117 7.13613L218.312 7.26588L218.507 7.13613L219.254 6.61712L218.832 8.04439C218.832 8.04439 218.832 8.04439 218.799 8.04439C218.734 7.8822 218.54 7.75245 218.345 7.75245C218.15 7.75245 217.955 7.8822 217.89 8.04439C217.89 8.04439 217.89 8.04439 217.858 8.04439L217.436 6.61712L218.182 7.13613H218.117ZM217.176 10.3799C216.754 9.47166 216.656 8.30389 217.923 8.88778L218.02 10.3799H217.176ZM214.383 15.8944C215.098 15.051 216.948 14.7266 218.312 14.7266C219.676 14.7266 221.527 15.0185 222.241 15.8944C222.404 16.089 222.501 16.3485 222.534 16.608C221.3 16.0566 219.741 15.7322 218.312 15.7322C216.883 15.7322 215.325 16.0566 214.091 16.608C214.091 16.3485 214.221 16.089 214.383 15.8944ZM213.701 17.6784C213.701 17.6784 213.799 17.6136 213.864 17.5811L214.578 18.165C214.578 18.165 214.286 18.2948 214.156 18.3272L213.929 18.4245C213.636 18.5543 213.409 18.4245 213.344 18.2948C213.279 18.1326 213.344 17.8731 213.701 17.646V17.6784ZM200.03 9.17972C201.427 8.49852 201.297 7.46051 202.109 6.9415C201.589 6.87663 200.582 6.64956 200.582 5.90349C201.979 6.58469 202.433 5.31961 205.064 7.00638C203.31 7.55782 201.979 9.69872 200.03 9.14728V9.17972ZM205.616 19.8518C204.771 19.495 203.472 19.3003 202.758 20.3059C202.368 19.6247 202.953 18.5867 203.31 18.2948C201.459 18.2948 200.42 17.7758 200.16 17.2243C200.842 16.8351 202.563 16.2187 203.959 17.2243C204.934 17.938 205.421 18.2948 206.557 18.6516C206.979 18.2299 206.817 18.4245 206.947 18.2948C206.005 17.646 205.583 12.6181 203.732 12.4559C203.992 11.8072 204.966 11.8721 205.713 12.0667C205.778 10.9314 205.291 9.0824 204.609 8.01195C205.68 7.46051 206.427 8.04439 206.785 9.37435C207.174 10.8016 206.72 14.3373 207.629 17.5163L208.213 16.9973C207.921 15.1483 209.967 14.4671 210.421 13.5264C210.584 14.759 210.324 15.3429 209.999 15.7971C210.746 15.8944 211.071 16.608 210.941 17.127C209.155 16.8675 208.116 18.6516 208.538 20.0789C207.207 20.3708 206.33 20.1437 205.583 19.8518H205.616ZM211.948 25.2365C211.72 25.3338 211.038 25.3014 210.844 24.8472C210.681 25.5933 209.188 26.4367 208.083 26.3394C208.7 25.6906 209.09 24.1985 210.292 23.42C211.493 22.6415 212.013 22.09 212.435 20.7601C211.883 21.0196 209.025 21.7656 208.213 20.8574C209.934 20.5979 211.915 19.722 213.084 19.0408C213.376 19.2355 213.799 19.3328 214.253 19.1382C214.221 19.6247 214.156 20.241 214.091 20.9222C212.662 21.2466 211.396 23.0956 211.98 25.204L211.948 25.2365ZM229.32 43.4342C229.32 43.6288 229.288 43.791 229.256 43.9856C229.256 44.2127 229.191 44.4073 229.158 44.6344C229.093 44.8939 229.061 45.1209 228.996 45.3804C228.931 45.6399 228.833 45.9319 228.768 46.1914C228.671 46.4833 228.574 46.7753 228.444 47.0672C228.314 47.3916 228.184 47.6835 228.054 47.9755C227.892 48.2998 227.729 48.6242 227.567 48.9486C227.372 49.273 227.177 49.5974 226.95 49.9217C226.723 50.2786 226.495 50.6029 226.236 50.9273C225.976 51.2517 225.684 51.6085 225.391 51.9329C225.067 52.2573 224.742 52.6141 224.385 52.906C224.027 53.2304 223.638 53.5548 223.248 53.8467C222.826 54.1711 222.404 54.463 221.949 54.755C221.462 55.0469 220.975 55.3389 220.455 55.5984C219.936 55.8903 219.351 56.1498 218.799 56.3769L218.507 56.5066L218.377 56.5715C217.825 56.3769 217.241 56.1174 216.721 55.8579C216.202 55.5984 215.65 55.3064 215.162 55.0145C214.675 54.7225 214.221 54.4306 213.799 54.1062C213.376 53.8143 212.987 53.4899 212.597 53.1655C212.24 52.8411 211.883 52.5168 211.558 52.1924C211.233 51.868 210.941 51.5436 210.649 51.1868C210.389 50.8624 210.129 50.5381 209.902 50.1812C209.675 49.8569 209.48 49.5325 209.252 49.1757C209.058 48.8513 208.895 48.5269 208.733 48.2025C208.571 47.9106 208.441 47.5862 208.311 47.2618C208.181 46.9699 208.083 46.6779 207.986 46.3536C207.889 46.0941 207.824 45.8021 207.726 45.5102C207.661 45.2507 207.596 44.9912 207.531 44.7641C207.531 44.7317 207.531 44.6668 207.531 44.6344C208.181 43.499 209.09 42.234 209.058 41.423C208.993 39.9309 208.311 38.6658 208.376 38.017C208.571 36.3951 208.311 36.2654 207.824 35.8761C207.694 35.7464 207.466 35.6815 207.304 35.5842V28.5127H213.084C214.253 28.5127 217.078 28.5776 218.377 28.5776C219.676 28.5776 222.469 28.5452 223.638 28.5127H229.418V35.2274C228.833 35.0652 228.151 35.2922 227.664 36.0707C228.606 35.9734 228.931 37.2061 228.931 38.4712C228.931 39.9957 228.509 41.2284 227.47 41.2284C227.534 42.4286 228.704 42.7854 229.418 42.3637V42.4935C229.418 42.7854 229.418 43.0773 229.353 43.3693L229.32 43.4342Z" fill="#005EB8"/>
<path d="M166.941 8.36914H165.317V64.0002H166.941V8.36914Z" fill="#005EB8"/>
</g>
<defs>
<clipPath id="clip0_10841_17460">
<rect width="381" height="64" fill="white" transform="translate(0.681519)"/>
</clipPath>
</defs>
</svg>
